<?xml version="1.0" encoding="UTF-8" standalone="no"?>
<svg
   xmlns:dc="http://purl.org/dc/elements/1.1/"
   xmlns:cc="http://creativecommons.org/ns#"
   xmlns:rdf="http://www.w3.org/1999/02/22-rdf-syntax-ns#"
   xmlns:svg="http://www.w3.org/2000/svg"
   xmlns="http://www.w3.org/2000/svg"
   xmlns:sodipodi="http://sodipodi.sourceforge.net/DTD/sodipodi-0.dtd"
   xmlns:inkscape="http://www.inkscape.org/namespaces/inkscape"
   id="svg87"
   xml:space="preserve"
   viewBox="0 0 521.34517 608.20074"
   y="0px"
   x="0px"
   version="1.1"
   sodipodi:docname="lung.lung.svg"
   inkscape:version="1.0beta1 (76ce730, 2019-10-19)"
   width="521.34517"
   height="608.20074"><sodipodi:namedview
     pagecolor="#ffffff"
     bordercolor="#666666"
     borderopacity="1"
     objecttolerance="10"
     gridtolerance="10"
     guidetolerance="10"
     inkscape:pageopacity="0"
     inkscape:pageshadow="2"
     inkscape:window-width="1079"
     inkscape:window-height="880"
     id="namedview93"
     showgrid="false"
     inkscape:zoom="0.35"
     inkscape:cx="208.57143"
     inkscape:cy="560"
     inkscape:window-x="0"
     inkscape:window-y="23"
     inkscape:window-maximized="0"
     inkscape:current-layer="Link_Segmental_Bronchus"
     fit-margin-top="0"
     fit-margin-left="0"
     fit-margin-right="0"
     fit-margin-bottom="0"
     inkscape:document-rotation="0" /><metadata
     id="metadata93"><rdf:RDF><cc:Work
         rdf:about=""><dc:format>image/svg+xml</dc:format><dc:type
           rdf:resource="http://purl.org/dc/dcmitype/StillImage" /><dc:title /></cc:Work></rdf:RDF></metadata><defs
     id="defs91"><clipPath
       id="clipPath924"
       clipPathUnits="userSpaceOnUse"><path
         id="path922"
         d="M 0,61.988 H 81.122 V 0 H 0 Z"
         inkscape:connector-curvature="0" /></clipPath><clipPath
       id="clipPath998"
       clipPathUnits="userSpaceOnUse"><path
         id="path996"
         d="M 0,61.988 H 81.122 V 0 H 0 Z"
         inkscape:connector-curvature="0" /></clipPath></defs><style
     id="style2"
     type="text/css">
	.st11{opacity:0.87;enable-background:new    ;}
</style><g
     id="LAYER_EFO"
     transform="translate(4.8,-0.0625)"
     style="fill:none"
     sodipodi:insensitive="true"><g
   style="opacity:0.69;fill:none;fill-opacity:1"
   id="UBERON_0008952"
   sodipodi:insensitive="true"><desc
     id="desc944">upper lobe of left lung</desc><title
     id="title942">upper lobe of left lung</title><path
     style="fill-opacity:1"
     id="path4"
     d="m 315.4,162.2 c -17.1,8.4 -20.3,18.2 -25.9,35.9 -5.6,17.7 -10.91441,28.66638 -11.41441,47.06638 -1.1,40.3 -4.1,86.22401 -1.68559,128.93362 -0.3,11.7 -4.3,29.5 3.5,38.3 7.8,8.8 14.7,19.9 23.9,27.6 19.2,16 29.28319,22.6952 33.18319,29.1952 3.3,5.6 5.31681,10.9048 25.81681,26.3048 3.1,7.3 -0.61201,17.98799 0.28799,24.38799 C 358.47358,539.18799 378.5,556.1 395.7,557.9 c 10.4,1.1 18.7,-0.4 27,-6.5 8.3,-6.1 20.8,-17.4 26.3,-26 18.5,-32.8 38.1,-66.3 46.1,-116.4 2.7,-12.8 1.8,-16 1.5,-30.1 -0.3,-14.1 -3.8,-28.3 -8.7,-41.6 C 464.7,274.8 437.1,216.9 381.5,177.1 364.5,164.9 344.9,151.7 325,158.7"
     class="st0"
     inkscape:connector-curvature="0" /></g><g
   style="opacity:0.69;fill:none;fill-opacity:1"
   id="UBERON_0002169"
   transform="matrix(1.0184468,0,0,1.012453,-12.597762,-4.6651568)"
   sodipodi:insensitive="true"><desc
     id="desc940">alveolar sac</desc><title
     id="title938">alveolar sac</title><g
     style="fill-opacity:1"
     id="g"><path
       style="fill-opacity:1"
       id="path7"
       d="m 444.5,387.1 c -0.9,-0.2 -2,0 -2.7,-0.6 -0.7,-0.8 -0.8,-2 -0.1,-2.8 0.4,-0.3 0.9,-0.4 1.1,-0.9 0.2,-0.5 -0.2,-0.9 -0.4,-1.3 -0.7,-1.5 -0.1,-3.4 1.4,-4.2 0.4,-0.1 0.7,-0.3 1.1,-0.5 0.6,-0.4 1.1,-0.9 1.5,-1.4 1.6,-1.2 3.9,-1 5.2,0.5 1.7,-1.5 5,-1 6,1.1 0.9,-0.5 2.1,-0.3 2.9,0.3 0.8,0.6 1.1,1.7 0.8,2.6 1.4,-0.3 2.7,0.4 3.3,1.7 0.4,1.3 -0.2,2.7 -1.5,3.3 1.8,1.3 1.6,4.1 0.5,6.1 -0.5,0.9 -1.8,1.9 -2.6,1.2 0.3,2.1 -0.8,4.2 -2.7,5.2 -1.1,0.1 -2.1,-0.3 -2.9,-1 -0.4,1.4 -1.7,2.3 -3.2,2.2 -1.4,-0.3 -2.7,-1.2 -3.3,-2.5 -1.5,0.6 -3.1,0.4 -4.5,-0.4 -1.2,-0.9 -1.5,-2.7 -0.6,-3.9 l 0.1,-0.1 c -1.1,-1.3 -1,-3.2 0.2,-4.4"
       class="st1"
       inkscape:connector-curvature="0" /></g><g
     style="fill-opacity:1"
     id="g12"><path
       style="fill-opacity:1"
       id="path10"
       d="m 437.1,402.4 c -0.7,-0.7 -1.8,-0.8 -2.6,-0.3 -0.8,0.5 -1.4,1.2 -1.8,2 -0.3,0.5 -0.6,1.1 -0.6,1.7 0,0.6 -1,1.5 -0.4,1.8 -1.1,-0.3 -0.8,0.6 -1,1.7 -0.3,0.8 -0.2,1.7 0.1,2.5 0.3,0.8 1.1,2.4 2,2.3 -0.4,0.9 -0.1,0.9 0.5,1.6 0.7,0.7 1.6,1.1 2.6,1 0.8,0 1.4,-0.6 1.5,-1.4 0.3,1 1.2,1.6 2.2,1.4 1,-0.2 1.6,-1.2 1.4,-2.2 0.8,0.6 1.8,0.7 2.7,0.2 0.8,-0.5 1.1,-1.6 0.7,-2.5 0.8,0 1.6,-0.6 1.8,-1.4 0.2,-0.8 -0.2,-1.6 -1,-2 0.8,-0.4 1.3,-1.2 1.2,-2.1 -0.2,-0.9 -0.9,-1.6 -1.8,-1.7 0.4,-0.8 0.3,-1.8 -0.2,-2.5 -0.6,-0.7 -1.5,-1 -2.4,-0.8 -1.4,-1.1 -3.5,-0.8 -4.5,0.7 -0.1,0.1 -0.2,0.3 -0.3,0.4"
       class="st1"
       inkscape:connector-curvature="0" /></g><g
     style="fill-opacity:1"
     id="g16"
     inkscape:label="g16"><path
       style="fill-opacity:1"
       id="path14"
       d="m 415.3,402.7 c -0.4,-0.8 0,0 -1,0.1 -0.4,0.4 -0.6,0.9 -0.6,1.5 0.1,-0.3 -0.3,-0.6 -0.7,-0.6 -0.4,0 -0.6,0.3 -0.9,0.5 -0.5,0.3 -0.9,0.8 -1.2,1.3 -0.3,0.5 -0.2,1.2 0.3,1.6 -1.3,-0.1 -2.1,1.4 -2.4,2.6 -0.1,0.5 -0.2,0.9 -0.1,1.4 0.1,0.5 0.5,0.9 1,0.9 -1.3,1.2 -1.5,3 -0.7,4.5 0.2,0.5 0.6,0.8 1.1,1 0.5,0.1 1,-0.1 1.2,-0.6 0,1 0.5,2 1.3,2.7 0.9,0.5 2.5,-0.1 2.3,-1.1 0.2,1.1 1.2,1.9 2.3,1.8 0.9,-0.1 1.5,-1 1.4,-1.9 0,-0.2 -0.1,-0.4 -0.2,-0.5 -0.1,1 1.3,1.6 2.1,1.1 0.8,-0.6 1.2,-1.5 1.1,-2.5 1,0.1 1.9,-0.4 2.4,-1.3 0.4,-0.9 0.1,-2 -0.7,-2.6 0.8,-0.4 1.2,-1.2 1.2,-2.1 -0.1,-0.9 -0.7,-1.6 -1.6,-1.8 0.4,-0.9 0.2,-1.9 -0.5,-2.6 -0.7,-0.7 -3.1,-0.6 -4.1,-0.4 -0.1,-1.1 -1.7,-3 -3,-3 -0.2,0 0.3,-0.1 0,0 -0.4,-0.7 0.3,0.1 -0.6,0 -0.8,-0.1 -1.5,0.6 -1.6,1.4 v 0.1"
       class="st1"
       inkscape:connector-curvature="0" /></g></g><g
   style="opacity:0.69;fill:none;fill-opacity:1"
   id="UBERON_0002186"
   transform="matrix(0.99059186,0,0,1.0826384,-0.68611597,-32.13331)"
   sodipodi:insensitive="true"><desc
     id="desc936">bronchiole</desc><title
     id="title934">bronchiole</title><g
     style="fill-opacity:1"
     id="g21"><path
       style="fill-opacity:1"
       id="path19"
       d="m 435.2,393.3 c 1.7,3.2 2.3,5.9 2,9.5 0.2,-0.6 0.1,0 0.7,0 0.9,0.1 2.5,-0.8 3.3,-0.7 -0.6,-3.3 -0.6,-5.4 -0.2,-8.7 0,-0.2 0,-0.4 -0.1,-0.5 -0.1,-0.2 -0.3,-0.2 -0.5,-0.2 -1.7,-0.1 -3.4,0 -5.1,0.2"
       class="st2"
       inkscape:connector-curvature="0" /></g><g
     style="fill-opacity:1"
     id="g25"><path
       style="fill-opacity:1"
       id="path23"
       d="m 416.9,404.7 c 1,-1 -1.1,-0.9 -0.3,-2 2.3,-3.4 5.9,-10.2 6.5,-14.1 1.5,1.3 4.3,2.4 3.4,5.5 0.2,1.7 -2.1,4.3 -3,5.7 -1.2,2.1 -2.6,3.2 -3.8,5.4 -0.1,0.2 1,1.4 0.8,1.4 -0.2,0 -0.3,-0.1 -0.5,-0.1 -1.2,-0.6 -2.3,-1.2 -3.5,-1.8"
       class="st2"
       inkscape:connector-curvature="0" /></g><g
     style="fill-opacity:1"
     id="g29"><path
       style="fill-opacity:1"
       id="path27"
       d="m 430.3,385.4 c -0.3,1.8 -1.2,3.8 0,4.9 0.5,0.4 1.7,0.8 2.2,1.1 5,1.4 8.8,0.7 12.9,0.5 -1,-1.2 -1.2,-2.8 -0.5,-4.2 -2.3,0.4 -4.7,0.5 -7.1,0.4 -1.1,-0.1 -2.2,-0.2 -3.2,-0.5 -1.5,-0.6 -2.9,-1.3 -4.3,-2.2"
       class="st2"
       inkscape:connector-curvature="0" /></g></g><g
   style="opacity:0.69;fill:none;fill-opacity:1"
   id="UBERON_0002184"
   transform="matrix(1.0136044,0,0,1.0080203,-9.1152559,-2.2587841)"
   sodipodi:insensitive="true"><desc
     id="desc932">segmental bronchus</desc><title
     id="title930">segmental bronchus</title><g
     style="fill-opacity:1"
     id="g34"><path
       style="fill-opacity:1"
       id="path32"
       d="m 369.7,348.6 c 3.3,5.5 2.4,12.8 0.6,18.9 -1.8,6.1 -4.7,11.9 -6.2,18.1 -0.9,8 -0.4,13.5 1.6,21.9 0.7,1.9 3.9,2.6 5.7,1.5 0.8,-6.2 -2.7,-10.1 -1.7,-16.3 1.5,-8.9 10.3,-17.1 9.9,-26.1 5.8,7 16.2,10.6 24.6,13.7 0.6,-11.9 0.9,-7.5 -0.1,-8.2 C 394,370 386,361 385.5,351.2 c -0.1,-1.8 0,-3.6 -0.9,-5.1 -1.4,-2.4 -4.9,-3 -7.6,-2.2 -2.7,0.8 -6.4,2.3 -7.3,4.7"
       class="st3"
       inkscape:connector-curvature="0" /></g><g
     style="fill-opacity:1"
     id="g38"><path
       style="fill-opacity:1"
       id="path36"
       d="m 381.9,269.7 c 1.3,4.1 3.3,8 6,11.4 -3.1,1 -6,2.2 -8.8,3.8 -5.9,3.1 -11.9,6.1 -17.8,9.2 -1,-3.6 -1.6,-7.3 -1.7,-11 1.1,0.8 2.7,0.7 4,0.5 7.9,-1.1 14.6,-6.4 17.5,-13.9"
       class="st3"
       inkscape:connector-curvature="0" /></g><g
     style="fill-opacity:1"
     id="g42"><path
       style="fill-opacity:1"
       id="path40"
       d="m 333.5,248.3 c 1.5,-0.7 2.9,-1.5 4.4,-2.2 0.5,-0.5 1.3,-0.4 1.7,0.1 0.1,0.1 0.2,0.3 0.3,0.4 4.4,6 8.2,12.4 11.3,19.1 3.8,-1.3 7.1,-3.8 9.4,-7.1 1.5,-2.4 2.5,-5 3.9,-7.4 1.4,-2.4 3.7,-6.7 6.6,-7.3 2.9,-0.6 6.1,3 6.4,5.8 -3.6,0 -8.3,2.1 -9.6,5.5 -0.7,2 1,4.2 0.6,6.3 -3.9,6 -10.1,15.9 -10.3,23.9 -3.7,-3.4 -7.7,-9.1 -12.5,-11 -0.2,-4.7 -2.7,-8.4 -5.1,-12.6 -2.7,-4.6 -5.4,-9.3 -8,-13.9"
       class="st3"
       inkscape:connector-curvature="0" /></g><g
     style="fill-opacity:1"
     id="g46"><path
       style="fill-opacity:1"
       id="path44"
       d="m 320.9,385.4 c -4.3,7.7 -4.5,16.9 -4.5,25.6 0,0.3 0,0.7 0.1,1 0.5,1.4 2.4,1.4 3.9,1.2 2.4,-6.7 4.9,-13.3 7.4,-19.9 0.5,-1.3 1.1,-2.7 2.5,-3.2 -2.4,-2.6 -5.7,-4.4 -9.2,-5"
       class="st3"
       inkscape:connector-curvature="0" /></g><g
     style="fill-opacity:1"
     id="g50"><path
       style="fill-opacity:1"
       id="path48"
       d="m 335.9,387.6 c 1.7,0.6 3.6,1.4 4.1,3.1 0.4,1.3 -0.2,2.6 -0.8,3.8 -1.2,2.8 -2,5.9 -2.1,9 -0.2,1.5 0.1,3 0.9,4.2 1.8,0.3 3.2,0.5 4.4,-0.4 0.2,-1.8 0.1,-2.3 0.5,-4.1 0.3,-1.2 0.9,-2.6 2.1,-2.6 0.6,0 1.2,0.3 1.6,0.7 2.4,2.2 2.3,5.9 2.4,9.1 0.1,3 0.1,4.1 0.7,7.1 0.1,0.5 2,1.9 2.4,2.3 1.1,0.9 1.9,-1.2 3.1,-0.5 2.3,-6.5 1.5,-12.3 -0.2,-19 -1.6,-6.5 -3.9,-12.7 -6.8,-18.7 -0.5,-0.7 -1.2,-1.2 -2,-1.5 -0.5,-0.1 -1,0 -1.4,0.3 -3.8,2.1 -6.1,3.9 -8.9,7.2"
       class="st3"
       inkscape:connector-curvature="0" /></g></g><g
   transform="matrix(1.0412075,0,0,0.99831477,-17.718567,0.16175263)"
   style="opacity:0.69;fill:none;fill-opacity:1"
   id="UBERON_0002182"
   sodipodi:insensitive="true"><desc
     id="desc928">main Bronchus</desc><title
     id="title926">main Bronchus</title><path
     style="fill-opacity:1"
     id="path53"
     d="m 261.7,308.2 c 2.8,-11.9 12,-19.6 22.4,-26 0.6,-0.7 0,-3.3 0.7,-2.6 l 0.1,0.1 c 2.6,2.2 4.5,5.2 5.4,8.5 0.3,1.5 0.8,2.9 1.6,4.2 1,1.3 2.7,2 3.9,3.1 2.2,2.2 3.4,5 6.1,6.7 2.1,1.3 4.2,1.9 5.9,3.5 1.7,1.6 1.7,4.7 3.8,5.8 0.9,0.4 2.5,-0.1 3.5,-0.1 1.8,0.3 3.6,0.7 4.9,1.8 0.6,0.7 0.6,2.2 1.4,2.6 1,0.2 1.7,-1.3 2.7,-1.5 1.6,-0.1 4.2,0 5.4,1 -2,1.7 -2,6.6 -1.5,9.2 0.5,2.6 1.4,4.3 -0.8,5.7 -0.7,0.4 -3.6,1.3 -4.4,1.7 -2.7,1.2 -2.9,4.7 -3.8,7.5 -0.9,2.8 -1.5,5.7 -3.4,7.8 -1.3,1.4 -3.4,2.4 -5.1,1.6 -3.2,-1.5 -1.7,-6.9 -4.6,-8.8 -0.6,-0.3 -1.2,-0.7 -1.7,-1.1 -0.3,-0.4 -1.6,-3.3 -1.9,-3.7 -2,0 -5.6,-0.7 -5.9,-3.7 -0.1,-0.8 -0.5,-2.3 -0.7,-3.1 -0.5,-2.3 -4.2,1 -5.5,-1 -0.9,-1.4 0.5,-5.6 -1.2,-6 -0.5,-0.1 -2.2,0 -2.6,0.1 -4.6,1 -8.1,-1.4 -10.6,-5.2 -0.6,-1 -1.2,-1.9 -2,-2.7 -0.9,-0.8 -1.9,-1.4 -3,-1.9 -2.9,-1.4 -5.8,-2.8 -8.6,-4.2"
     class="st2"
     inkscape:connector-curvature="0" /></g><g
   style="opacity:0.69;fill:none;fill-opacity:1"
   id="UBERON_0002183"
   transform="matrix(1.0386783,0,0,1.0207012,-18.512312,-7.8767678)"
   sodipodi:insensitive="true"><desc
     id="desc924">lobar bronchus</desc><title
     id="title922">lobar bronchus</title><g
     style="fill-opacity:1"
     id="g58"><path
       style="fill-opacity:1"
       id="path56"
       d="m 312.2,349.1 c 3.1,-2.8 6.6,-7.3 7.7,-11.4 0.4,-1.6 0.1,-3.5 1.8,-3.2 0.8,0.2 2.2,2.4 2.6,3.1 9.3,12.8 13.1,14.2 17.4,34 0.1,0.5 0.8,1.4 0.7,1.9 -0.3,0.5 -0.7,0.9 -1.2,1.1 -3.2,2.9 -7.4,4.3 -11.5,5.5 -2.3,0.7 -5.6,0.6 -7,-1.3 -1.4,-1.9 0.1,-4.4 -0.1,-6.7 -0.2,-1.6 -1.3,-3 -1.5,-4.6 -0.3,-1.9 0.7,-3.9 0.2,-5.8 -0.3,-0.9 -2.4,-0.3 -2.9,-1 -2.6,-3.4 -4.6,-7.7 -6.2,-11.6"
       class="st4"
       inkscape:connector-curvature="0" /></g><g
     style="fill-opacity:1"
     id="g62"><path
       style="fill-opacity:1"
       id="path60"
       d="m 328.4,316.9 c -0.7,3 -0.7,6.1 -0.2,9.1 0.2,1.7 1.7,1.9 2.7,3.2 1.1,1.4 2,2.1 3.7,2 1.6,-0.2 2.9,0 4.5,-0.3 4,-0.9 7.4,3.4 11.5,3.2 1,-0.1 1.9,-0.2 2.9,-0.2 0.7,0.1 1.1,1.4 1.8,1.8 2.2,1.4 4,3.9 7,3.4 1.3,-0.2 2.3,1.5 3.1,2.5 1.2,1.6 1.6,4.1 3.6,4.6 1.5,0.4 2.9,-0.5 4.3,-1.2 2.8,-1.3 5.9,-1.7 8.9,-1 -3.9,-9.9 -12,-17.7 -22,-21.3 -1.9,-0.4 -3.5,-1.6 -4.5,-3.3 -0.7,-0.9 -1.8,-1.5 -2.9,-1.7 -2.2,-0.6 -4.6,2.3 -6.9,2.3 -1.4,0 -3.4,0.5 -4.8,0 -2.3,-0.8 -5.3,-4.2 -7.6,-3.6 -1.2,0.3 -4.4,-0.9 -4.9,1.3"
       class="st4"
       inkscape:connector-curvature="0" /></g></g><g
   transform="matrix(0.98148148,0,0,0.99330548,-0.75185185,1.4518012)"
   style="opacity:0.69;fill:none;fill-opacity:1"
   id="UBERON_0003126"
   sodipodi:insensitive="true"><desc
     id="desc920">trachea</desc><title
     id="title918">trachea</title><path
     style="fill-opacity:1"
     id="path65"
     d="m 233.9,68.8 c -1.2,-6.6 -2.6,-8.3 0.8,-10.2 2.2,-1.2 4.9,1.3 7.4,2 9,2.6 20.7,2.4 28.6,-2 1.5,-0.5 1.8,-3.4 3.3,-3 2.9,0.8 4.3,5.8 4.4,8.7 0.2,3.5 -0.5,7.2 0.5,10.5 2.5,8.6 -6.6,8.2 1.7,22.2 0.5,3.5 -1.9,6.6 -1.9,10.1 0,4.9 2.9,9.2 1.3,14.8 -1.2,3.5 -1.1,7.3 0.1,10.8 1,2.6 0.9,6.6 0.6,9.3 -0.3,3 -3.6,2.4 -3.7,4.4 -0.4,4 2.8,-2.6 3.1,11.5 0,2.5 -1.1,4.8 -2.9,6.5 -3.7,2.8 4.5,3.3 3,13.1 -0.4,2.3 -0.4,4 -3,6.5 -1.2,1.1 -0.9,3.6 0.2,4.8 4.4,4.7 1.5,13.9 2.5,21.3 0.2,1.7 0.1,3.4 -0.4,5 -0.8,2.3 -2.8,4.2 -3.1,6.6 -0.3,3.2 2.5,5.9 3,9.1 0.3,2.1 -0.5,4.1 -1.1,6.1 -4.3,8.8 0.5,21 0.9,30.5 0.1,2.8 4.2,8.3 4.2,10.2 0,5.2 -6.6,5.1 -10,6.9 -4.1,2.1 -10.1,7.8 -14.5,9.3 -2.3,0.8 -3,-0.4 -5.2,-1.3 -3.6,-1.6 -7.2,-7.7 -8.8,-11.2 -2.6,-5.8 -8.3,-9 -11.4,-14.6 -2.1,-3.7 -0.5,-10.1 -0.8,-14.4 -0.4,-6 -0.8,-12 -1.1,-18 -0.1,-2.2 -0.3,-4.6 0.9,-6.5 0.9,-1.5 2.3,-1.1 3.1,-4.1 1.2,-4.5 -4.2,-9.6 -2.8,-14.1 0.7,-2.1 2,-4 2.4,-6.2 0.8,-4.1 -4.4,-4.6 -1.9,-12.3 1.6,-4.9 2.6,-4 3.2,-6.3 1.3,-4.7 -4.5,-4.1 -2.1,-14.2 0.6,-2.3 1.7,-2.4 2.3,-4.6 1.3,-4.3 -4.9,-3.8 -3.8,-14.7 0.3,-3.4 5.4,-7.4 2.3,-9 -2.3,-1.1 -4.4,-4.6 -4.2,-6.7 1,-11 4.5,-8.1 4.8,-12 0.3,-4.1 -5.9,-3.2 -3.8,-10.1 0.6,-2.1 0,-3.7 2.6,-5.8 1.6,-1.3 -6.3,-4.6 -3.5,-12.6 3.8,-11 -4.8,-12 3.7,-28.6"
     class="st5"
     inkscape:connector-curvature="0" /></g>



	<g
   transform="matrix(1.0351975,0,0,1.001904,-11.152314,-0.21822709)"
   style="opacity:0.69;fill:none;fill-opacity:1"
   id="UBERON_0002170"
   sodipodi:insensitive="true"><desc
     id="desc916">upper lobe of right lung</desc><title
     id="title914">upper lobe of right lung</title><path
     style="fill-opacity:1"
     id="path68"
     d="m 184.4,164.8 c -16.3,-1.4 -27.8,8.3 -39.4,19.4 -54.2,51.6 -94.7,116.4 -116.7,186.6 -1.4,4.5 -2.8,9.1 -2.3,13.8 1,10.5 10.7,18.2 20.4,23.1 9,4.6 18.7,7.8 28.7,9.5 8.5,1.5 17.3,1.9 25.8,3.6 7.5,1.5 14.8,3.9 22.3,5.7 18.7,4.4 38.1,4.4 57.3,4.5 19.5,0 41.3,-0.8 54.8,-14.3 9.8,-9.7 12.8,-23.8 15,-37.2 2.9,-17.4 5.2,-35.1 3.9,-52.7 -1.3,-17.6 -6.2,-35.3 -16.6,-49.9 -1.8,-2.5 -3.8,-5 -4.9,-7.8 -1.3,-3.1 -1.5,-6.5 -1.8,-9.8 -3.5,-35.6 -15,-73.2 -43.5,-93.4"
     class="st0"
     inkscape:connector-curvature="0" /></g>

	<g
   transform="translate(-8.1,0.7)"
   style="opacity:0.69;fill:none;fill-opacity:1"
   id="UBERON_0002174"
   sodipodi:insensitive="true"><desc
     id="desc912">middle lobe of right lung</desc><title
     id="title910">middle lobe of right lung</title><path
     style="fill-opacity:1"
     id="path71"
     d="m 22.7,390.7 c -7.9,28 -3.3,58.2 7.8,85.2 11.1,27 28.1,51.3 45.8,74.8 2.6,3.5 5.4,7.1 9.5,8.7 5.5,2.1 11.7,0.2 17.2,-1.8 16.8,-6 33.6,-11.9 50.4,-17.9 24.4,-8.6 49.7,-17.9 67.2,-36.3 21.2,-22.3 27.2,-55.5 20.4,-85 -0.1,-0.9 -0.5,-1.7 -1,-2.4 -1.4,-1.7 -4.4,-1.4 -6.2,0 -1.8,1.4 -2.9,2.4 -4.3,4.2 -7.6,6.8 -18.8,11 -29.7,11.2 -12.6,0.3 -25.2,0.1 -37.8,-0.5 -9.6,-0.5 -19.3,-1.2 -28.7,-3.2 -8.5,-1.9 -16.7,-4.8 -25.1,-6.9 -14.2,-3.4 -28.9,-4.3 -43,-7.6 -14.1,-3.3 -28.4,-9.6 -36.7,-21.2 -0.8,-1.1 -1.8,-2.4 -3.2,-2.5 -1.4,-0.1 -2.4,2.3 -1,2.6"
     class="st6"
     inkscape:connector-curvature="0" /></g>

	<g
   transform="matrix(1.0351975,0,0,1.001904,-11.152314,-0.21822709)"
   style="opacity:0.69;fill:none;fill-opacity:1"
   id="test"
   sodipodi:insensitive="true"><desc
   id="desc899">upper middle lobe of right lung</desc><title
   id="title901">upper middle lobe of right lung</title>

		<g
   style="fill-opacity:1"
   id="g905"><path
     style="fill-opacity:0.5"
     id="path903"
     d="m 184.4,164.8 c -16.3,-1.4 -27.8,8.3 -39.4,19.4 -54.2,51.6 -94.7,116.4 -116.7,186.6 -1.4,4.5 -2.8,9.1 -2.3,13.8 1,10.5 10.7,18.2 20.4,23.1 9,4.6 18.7,7.8 28.7,9.5 8.5,1.5 17.3,1.9 25.8,3.6 7.5,1.5 14.8,3.9 22.3,5.7 18.7,4.4 38.1,4.4 57.3,4.5 19.5,0 41.3,-0.8 54.8,-14.3 9.8,-9.7 12.8,-23.8 15,-37.2 2.9,-17.4 5.2,-35.1 3.9,-52.7 -1.3,-17.6 -6.2,-35.3 -16.6,-49.9 -1.8,-2.5 -3.8,-5 -4.9,-7.8 -1.3,-3.1 -1.5,-6.5 -1.8,-9.8 -3.5,-35.6 -15,-73.2 -43.5,-93.4"
     class="st4"
     inkscape:connector-curvature="0" /></g>

		<g
   style="fill-opacity:1"
   id="g909"><path
     style="fill-opacity:0.5"
     id="path907"
     d="m 22.7,390.7 c -7.9,28 -3.3,58.2 7.8,85.2 11.1,27 28.1,51.3 45.8,74.8 2.6,3.5 5.4,7.1 9.5,8.7 5.5,2.1 11.7,0.2 17.2,-1.8 16.8,-6 33.6,-11.9 50.4,-17.9 24.4,-8.6 49.7,-17.9 67.2,-36.3 21.2,-22.3 27.2,-55.5 20.4,-85 -0.1,-0.9 -0.5,-1.7 -1,-2.4 -1.4,-1.7 -4.4,-1.4 -6.2,0 -1.8,1.4 -2.9,2.4 -4.3,4.2 -7.6,6.8 -18.8,11 -29.7,11.2 -12.6,0.3 -25.2,0.1 -37.8,-0.5 -9.6,-0.5 -19.3,-1.2 -28.7,-3.2 -8.5,-1.9 -16.7,-4.8 -25.1,-6.9 -14.2,-3.4 -28.9,-4.3 -43,-7.6 -14.1,-3.3 -28.4,-9.6 -36.7,-21.2 -0.8,-1.1 -1.8,-2.4 -3.2,-2.5 -1.4,-0.1 -2.4,2.3 -1,2.6"
     class="st4"
     inkscape:connector-curvature="0" /></g>
</g>

	<g
   transform="translate(-3.6144079,-0.60240131)"
   style="opacity:0.69;fill:none;fill-opacity:1"
   id="UBERON_0002171"
   sodipodi:insensitive="true"><desc
     id="desc908">lower lobe of right lung</desc><title
     id="title906">lower lobe of right lung</title><path
     style="fill-opacity:1"
     id="path74"
     d="m 16.3,426.9 c 8.2,46.9 30.1,90.2 63.1,124.5 2.1,2.3 4.5,4.3 7.1,5.9 8,4.4 15.8,0.6 24.6,-2.4 10.8,-3.7 24,-7.8 34.7,-11.5 19.3,-6.7 38.4,-12.3 55.6,-23.4 17.2,-11.1 28.8,-30.6 37.2,-46.9 -0.2,20.8 -0.7,42 -3.2,62.6 -1.7,13.7 -4.3,28.1 -13.3,38.5 -5.5,6.4 -12.9,10.7 -20.7,14 -45.2,19.1 -97.1,3 -146,7.8 -8.6,0.8 -17.3,2.4 -25.9,1.3 C 20.9,596.2 12.1,592.1 8.1,584.4 5.8,580 5.3,574.9 4.8,570 0.8,521.5 4.7,472.6 16.5,425.3"
     class="st7"
     inkscape:connector-curvature="0" /></g><g
   transform="matrix(1,0,0,1.032189,-3.5,-15.466596)"
   style="opacity:0.69;fill:none;fill-opacity:1"
   id="UBERON_0008953"
   sodipodi:insensitive="true"><desc
     id="desc904">lower lobe of left lung</desc><title
     id="title902">lower lobe of left lung</title><path
     style="fill-opacity:1"
     id="path77"
     d="m 277.5,407.7 c -5.2,29.3 7.5,66.2 5.3,96.8 -0.7,9.9 -2,19.8 -0.8,29.7 1.8,14.5 8.6,28 19.4,37.9 8.7,7.9 19.5,13.2 30.5,17.5 51.1,19.7 107.6,20.2 159.1,1.5 4.5,-1.7 9.1,-3.5 12.7,-6.7 7.7,-6.8 9.4,-18 10.3,-28.2 4.8,-50.8 3.4,-102.9 -11.9,-151.7 -0.7,-2.4 -1.9,-5.1 -4.3,-5.6 -5.1,48.3 -32.7,103.69831 -55.5,131.69831 -6.4,7.9 -12.1,19.67215 -25,25.37215 -10.7,4.7 -32.11201,-0.47215 -41.51201,-10.17215 C 366.38799,536.09831 367.5,522.5 368,509 c 0.2,-6.1 -0.8,-10.5 -5,-15 -1.8,-1.9 -3.8,-3.5 -6,-5 -7.1,-5.2 -10.5,-13.1 -16,-20 -6.2,-7.6 -13.6,-14 -22,-19 -9.8,-6.1 -30,-28 -41.5,-43.2"
     class="st8"
     inkscape:connector-curvature="0" /></g><g
   link="alveoli_fin"
   id="Link_Alveoli"
   transform="matrix(0.68189796,0,0,-0.79569622,252.65956,640.39797)"
   style="opacity:0.69;fill-opacity:1;stroke-width:7.69654;stroke-miterlimit:4;stroke-dasharray:none"
   sodipodi:insensitive="true"><g
     style="fill:none;fill-opacity:1;stroke-width:5.7724;stroke-miterlimit:4;stroke-dasharray:none"
     id="g990"
     transform="matrix(-1.3333333,0,0,-1.3333333,314.73072,345.42529)"
     sodipodi:insensitive="true"><g
       style="fill:none;fill-opacity:1;stroke-width:5.7724;stroke-miterlimit:4;stroke-dasharray:none"
       id="g992"><g
         style="fill:none;fill-opacity:1;stroke-width:5.7724;stroke-miterlimit:4;stroke-dasharray:none"
         id="g994"
         clip-path="url(#clipPath998)"><g
           style="fill:none;fill-opacity:1;stroke-width:5.7724;stroke-miterlimit:4;stroke-dasharray:none"
           id="g1000"
           transform="translate(2.8541,59.4554)"><path
             d="m 0,0 -0.345,-56.481 76.116,-0.465 -0.044,55.781 z"
             style="fill:none;fill-opacity:1;stroke:#0052db;stroke-width:5.7724;stroke-linecap:butt;stroke-linejoin:miter;stroke-miterlimit:4;stroke-dasharray:none;stroke-opacity:1"
             id="path1002"
             inkscape:connector-curvature="0" /></g></g></g></g></g><g
   id="Link_Segmental_Bronchus"
   link="airway"
   transform="matrix(0.30994936,0,0,0.30611616,271.77503,317.30676)"
   style="opacity:0.69;fill-opacity:1;stroke-width:18.4052;stroke-miterlimit:4;stroke-dasharray:none"
   inkscape:transform-center-x="280.07043"
   inkscape:transform-center-y="-356.26406"><path
     id="path1011"
     style="opacity:1;fill:none;fill-opacity:1;stroke:#0052db;stroke-width:22.9278;stroke-linecap:butt;stroke-linejoin:miter;stroke-miterlimit:4;stroke-dasharray:none;stroke-opacity:1;stop-opacity:1"
     d="m 93.161783,80.322092 -0.592798,90.685338 130.786795,0.7466 -0.0756,-89.561425 z"
     inkscape:connector-curvature="0" /></g></g><g
     id="Outline"
     style="opacity:1;fill:#000000;fill-opacity:1"
     transform="translate(0,0.0375)"
     sodipodi:insensitive="true"><g
       id="Outline_1_"
       style="fill:#000000;fill-opacity:1"><g
         id="Outline-2"
         style="fill:#000000;fill-opacity:1"><path
           style="opacity:0.87;fill:#000000;fill-opacity:1;enable-background:new"
           d="m 390.2,608 c -4.6,-0.3 -9.2,-0.9 -13.7,-1.8 -2.4,-0.5 -5.9,-1.1 -7.8,-1.4 -3.4,-0.6 -7.1,-1.7 -14.7,-4.2 -2.1,-0.7 -5.2,-1.8 -6.9,-2.4 -1.7,-0.6 -5.1,-1.6 -7.5,-2.2 -5.5,-1.4 -10.9,-3.3 -16.1,-5.5 -10.4,-4.3 -19.4,-9 -24.4,-12.8 -6.5,-4.9 -8.3,-6.6 -11.1,-10.2 -2.4,-3 -4.4,-6.3 -5.9,-9.8 -1.6,-3.3 -3.4,-7.2 -3.8,-8.5 -2.3,-6.5 -3.5,-13.3 -3.2,-18.2 0.1,-1.7 0,-3.5 -0.1,-5.2 -0.5,-3 -0.4,-16.4 0.2,-21 0.9,-7.6 1.8,-28.7 1.4,-33.3 -0.3,-3.6 -2.6,-19.2 -3,-20.7 -0.1,-0.5 -0.4,-2.2 -0.6,-3.8 -0.2,-1.6 -0.7,-5.1 -1.1,-7.7 -0.4,-2.6 -0.9,-6.9 -1.2,-9.6 -0.3,-2.7 -0.7,-6.6 -0.9,-8.8 -0.2,-2.2 -0.5,-7.2 -0.6,-11 -0.3,-4.5 -0.1,-9 0.6,-13.4 0.4,-3.5 1.1,-8.6 1.4,-11.5 0.3,-2.9 0.9,-6.4 1.2,-7.9 1.5,-7.2 2,-12.9 2.5,-26 0.5,-15.8 0.5,-17.6 -0.6,-21.7 -1.1,-4.1 -2,-6 -3.6,-7.7 -1.3,-1.5 -2.5,-3 -3.7,-4.6 -2.8,-3.8 -3.7,-4.6 -4.9,-4.6 -0.9,0 -4,1.7 -5.2,2.8 l -0.7,0.7 0.6,3.9 c 0.3,2.2 0.8,5.3 0.9,7 0.1,1.7 0.5,5.1 0.8,7.5 1.2,11.8 0.3,29.8 -2.2,39.4 -0.4,1.6 -1.2,5.3 -1.8,8.1 -0.6,2.8 -1.5,6.7 -2,8.5 -1,3.4 -1.5,5.4 -3.3,11.8 -1,3.7 -2.6,10.9 -3.2,14.3 -0.4,2.2 -0.3,2.7 0.9,16.7 0.6,7.1 0.7,27.5 0.1,33.6 -0.2,2.1 -0.5,5.4 -0.7,7.4 -0.2,2 -0.5,5.3 -0.8,7.5 -0.3,2.2 -0.7,6.5 -1.1,9.6 -0.4,3.1 -1,8 -1.4,11 -0.5,3.3 -0.9,8.3 -1.1,12.8 -0.4,9.3 -2.2,25.8 -3.4,31.2 -0.3,1.5 -1,4.4 -1.4,6.6 -1.9,9.4 -5.3,18.3 -8.8,22.8 -2.4,2.8 -5,5.4 -7.9,7.7 -6,4.4 -20.4,10.4 -33.2,14 -12.4,3.4 -20.3,4.8 -35.1,5.9 -7.3,0.6 -21.7,0.6 -26.4,0 -2.1,-0.3 -7.5,-0.9 -12,-1.4 l -8.1,-1 -20.2,0.1 c -28.1,0.1 -49,0.5 -51.8,1.1 -4.2,0.7 -8.4,0.6 -12.6,-0.1 -4.5,-1.2 -8.6,-3.5 -11.9,-6.7 -3.9,-3.6 -6,-9.6 -8.1,-23.6 L 0,565.4 0.2,549.2 C 0.6,516 0.7,508.4 1,499.3 1.2,494.2 1.5,488.6 1.6,486.8 1.7,485 2,482 2.2,480 c 0.2,-2 0.6,-4.9 0.9,-6.5 0.3,-1.6 0.9,-4.9 1.3,-7.4 0.4,-2.5 1.5,-8.7 2.5,-13.8 1,-5.1 2.2,-11.2 2.6,-13.3 0.4,-2.1 1.2,-7.1 1.8,-10.9 0.6,-3.8 1.1,-7.2 1.2,-7.4 0.3,-1.4 0.5,-2.7 0.6,-4.1 0.6,-4.2 2.1,-12.6 3.7,-19.7 0.6,-2.7 1.4,-6.4 1.7,-8.3 0.8,-4.3 3.7,-15.8 5.1,-20.6 0.6,-2 1.5,-5.3 2.1,-7.2 0.6,-1.9 1.4,-4.7 2,-6 0.6,-1.3 1.7,-4.4 2.6,-6.8 3.5,-9.1 4.6,-11.8 6.8,-17.4 1.3,-3.2 2.5,-6.1 2.7,-6.5 0.2,-0.4 1.2,-2.5 2.1,-4.7 2,-4.7 4,-9 6.7,-14.5 1.1,-2.2 2,-4.1 2,-4.2 0,-0.1 1.5,-2.8 3.3,-6.1 1.8,-3.3 3.5,-6.4 3.7,-6.9 1.3,-2.8 7.3,-12.8 12.2,-20.2 1,-1.5 2.9,-4.5 4.1,-6.6 7.9,-13.1 12.9,-20.3 19.6,-28 1.4,-1.6 3.3,-3.9 4.2,-5 0.9,-1.1 3.1,-3.6 4.8,-5.6 1.7,-2 3.9,-4.5 4.9,-5.7 1,-1.2 2.7,-3.2 3.7,-4.3 1,-1.1 3.8,-4.4 6.1,-7.2 5.3,-6.3 13.8,-15.6 17.8,-19.5 3,-2.9 4.4,-4 17,-13.2 8.8,-6.4 10.7,-7.6 15.4,-9.7 6.4,-2.8 5.8,-2.7 12.2,-2.8 7.7,-0.2 9.1,0.1 14,2.4 2.3,0.9 4.3,2.3 6.1,4 2.4,2.3 3.4,3.7 5.8,7.6 0.8,1.4 2.8,4.4 4.4,6.8 1.7,2.5 3.2,5 4.6,7.7 0.9,1.9 2.7,5 3.8,7 2.1,3.9 3.9,8 5.2,12.3 0.2,0.6 0.8,2 1.2,2.9 1.4,3.4 2.5,7 3.4,10.6 0.2,1 0.5,2.4 0.7,3.1 0.2,0.7 0.4,1.7 0.5,2.2 l 0.2,0.9 0.7,-1.4 c 0.5,-0.9 1.2,-1.7 2,-2.3 0.7,-0.5 1.3,-1 1.8,-1.6 l 0.6,-0.7 -1.4,-1.1 c -2,-1.6 -2.3,-2.3 -2.3,-6.3 -0.2,-2.9 0.4,-5.9 1.5,-8.6 0.6,-1.3 0.6,-1.3 0,-2.6 -0.6,-1.3 -0.6,-1.8 -0.5,-7.1 0.2,-6.1 0.4,-7.2 1.9,-9.3 l 0.8,-1.1 -0.7,-1 c -1,-1.5 -1.4,-3.4 -1.4,-8.2 0,-5 0.4,-6.7 2.2,-8.5 1.3,-1.4 1.4,-1.7 0.6,-1.7 -1,0 -2.7,-1.8 -3.2,-3.5 -0.8,-3.3 -1.1,-6.8 -1,-10.2 0.2,-2.8 0.7,-4.2 1.9,-5.7 l 0.8,-1 -1.4,-1.3 c -0.7,-0.7 -1.3,-1.5 -1.7,-2.4 -0.4,-3.4 -0.4,-6.7 0,-10.1 0.5,-1.1 1.1,-2.2 1.8,-3.3 l 1.6,-2.3 -1.1,-0.9 c -0.7,-0.6 -1.2,-1.2 -1.7,-2 -0.8,-1.5 -1.3,-6.4 -0.9,-9.2 0.1,-2 0.8,-3.9 2.1,-5.4 1.1,-1.3 1.2,-1.7 0.5,-1.7 -0.9,0 -2.6,-2 -3.1,-3.6 -1.1,-3.5 -0.2,-9.3 1.7,-11.3 0.6,-0.6 0.6,-0.6 -0.3,-1.3 -1.7,-1.2 -2.6,-3.1 -2.7,-5.8 -0.2,-2.5 0.3,-5 1.4,-7.2 0.8,-1.5 0.8,-1.7 0.4,-2.8 L 230,73.7 224.3,72 c -6.6,-2 -7.6,-2.5 -8.4,-3.7 -0.6,-0.9 -0.6,-1 0,-3.3 0.8,-3.5 1,-13 0.3,-15.5 -1.8,-5.6 -4.8,-10.7 -8.8,-15 -3.3,-3.5 -4.3,-5 -5,-7.3 -0.6,-2.1 -0.6,-4.4 -0.1,-6.5 0.8,-1.4 1.8,-2.8 2.8,-4.1 1.3,-1.7 2.5,-3.5 3.5,-5.3 1.1,-2.3 2.8,-4.2 4.8,-5.7 1.6,-1 3.6,-1.1 5.3,-0.2 1.5,1.1 2.5,2.9 2.6,4.8 0,1.1 0,1.1 1,0.9 2.1,-0.7 4.1,-1.6 5.9,-2.9 0.7,-0.5 2.2,-1.8 3.4,-2.9 1.1,-1 2.3,-1.9 3.5,-2.7 1.9,-1 4.1,-1.6 6.3,-1.6 2,0.3 3.9,1.1 5.6,2.3 1.6,1.6 1.9,2.5 3.8,11.6 0.8,4.2 1.6,6 2.7,6.7 0.8,0.5 0.8,0.5 1.7,-0.3 0.9,-0.8 1.8,-3 3.4,-8.3 0.5,-1.8 1.2,-4.1 1.6,-5.3 1.1,-3.8 2.6,-5.7 5.3,-6.8 2.1,-1 4.5,-1.2 6.8,-0.6 2.6,0.6 4.5,1.6 7.3,4 2.4,2 4.7,3.3 6.2,3.3 0.8,-0.1 1.6,-0.3 2.2,-0.8 1,-0.7 1.4,-0.8 3.5,-0.7 1.5,-0.1 2.9,0.4 4.1,1.3 2.1,1.4 5,4.9 6.7,8.3 0.3,0.7 0.8,1.4 1.4,1.9 1.2,0.9 1.6,2.6 0.9,3.9 -1.4,1.6 -3,3.2 -4.6,4.6 -5,4.7 -5.5,5.5 -7.2,12.4 -1.5,5.3 -1.9,10.8 -1.2,16.3 0.1,1.7 0.5,3.3 0.9,4.9 0.9,2.7 1,3.4 0.1,5.2 -1.1,2.1 -2.9,3.8 -8.5,8 -1.2,0.8 -2.1,1.7 -2.9,2.9 -1.2,1.5 -1.2,1.5 -0.8,2.8 0.7,2.8 1.1,5.7 1.3,8.6 0.1,0.8 -0.2,1.7 -0.8,2.3 l -3.2,0.8 3.1,1 c 1.7,2.3 2.1,3.9 2.1,8.4 v 4.1 l -1.2,2.4 c -0.4,1.1 -1.1,2 -2,2.8 -0.9,0.4 -1,0.6 -0.3,1.1 0.4,0.5 0.7,1 0.8,1.6 0.2,0.7 0.6,2.1 1,3.1 0.5,1.7 0.6,2.4 0.5,6.6 -0.2,5.1 -0.5,6.6 -1.7,7.2 -0.6,0.3 -0.6,0.4 -0.2,1.1 0.3,0.7 0.5,1.3 0.7,2 0.2,0.9 0.6,1.7 1,2.5 0.7,1.2 0.8,1.6 0.8,4.3 0,3.1 -0.7,6.9 -1.5,8 -0.4,0.5 -0.8,0.9 -1.3,1.2 -0.9,0.5 -0.9,0.5 -0.4,1.4 0.7,1.3 1.3,5.4 1.5,10.1 0.2,3.9 0.1,4.3 -0.5,5.5 -0.4,0.7 -0.9,1.4 -1.4,2 l -0.7,0.7 1.4,1.6 c 1.4,2 1.4,3.5 2.5,9.1 0.2,5.2 0,6 -2.4,7.6 -2.4,1.6 -2.4,1.5 -0.3,5.1 1.8,3 1.9,3.3 2,5.4 0,1.6 -0.1,3.3 -0.3,4.9 -0.5,3.6 -0.5,3.7 0.4,6.7 l 0.8,2.6 0.4,-1.8 c 0.3,-1.3 0.7,-2.6 1.2,-3.8 0.4,-1.1 1.1,-3.1 1.5,-4.4 0.8,-2.4 1.9,-4.8 3,-7.1 1.3,-2.6 2.8,-5.6 3.3,-6.7 1.5,-3.2 5,-9.8 6.2,-12 2.6,-4.5 8.4,-10.6 13.5,-14.3 4,-2.6 8.3,-4.8 12.8,-6.4 l 3.1,-1.1 h 13.8 l 4.8,1.3 c 9.9,2.6 15.2,4.7 21.5,8.4 1.6,0.9 3.9,2.2 5.1,2.9 5.9,3.2 14.1,9.1 28,20 9,7.4 17.3,15.5 24.8,24.4 1,1.2 3.4,4.4 5.3,7.1 1.9,2.7 4.3,5.9 5.2,7.2 3.4,4.7 6.1,8.6 9.7,14.4 2,3.2 4.6,7.4 5.8,9.2 1.2,1.8 2.9,4.5 3.8,6 0.9,1.5 2.8,4.6 4.2,6.9 2.3,3.7 8.8,15.5 12.2,22.2 4.3,8.2 8,16.8 11.2,25.5 11.2,30.9 12.6,34.9 15,44.3 2.4,9.4 6.3,27.3 7.2,32.7 0.3,1.9 1,6.2 1.6,9.6 0.6,3.4 1.3,7.6 1.5,9.4 0.2,1.8 0.9,5.4 1.4,7.9 0.5,2.5 1,5.7 1.2,6.9 0.2,1.2 0.8,4.2 1.2,6.6 1.3,6.8 1.8,9.3 2.6,15.2 0.8,5.9 1.5,9.9 2,12 1,4.1 3.3,23.1 4.3,34.5 0.5,5.3 1,30.1 0.8,36.8 -0.1,6.1 -0.5,12.1 -1.2,18.1 -0.2,1.5 -0.6,5 -0.8,7.9 -0.3,4.8 -0.7,9.1 -1.5,16.6 -0.7,6.2 -4.2,16.3 -7,20.2 -1.8,2.5 -9,7 -13.8,8.6 -1.3,0.4 -4.3,1.5 -6.6,2.3 -7.2,2.5 -13.6,3.9 -24.1,5.5 -2.8,0.4 -6.6,0.9 -8.6,1 -7.9,0.7 -10.6,0.9 -11.3,1.1 -0.7,0.2 -6.4,0.8 -10.8,1.3 -1.4,0.2 -4.4,0.5 -6.6,0.7 -5,0.5 -34.1,0.9 -38.8,0.5 z m 26.9,-9.7 c 1.3,-0.2 6.2,-0.5 10.9,-0.8 6.7,-0.3 13.3,-1 19.9,-2.2 3.1,-0.5 7.3,-1.1 9.2,-1.3 10.1,-1.2 23.1,-3.8 29.1,-5.9 3.5,-1.2 5.5,-1.8 7.8,-2.5 3.5,-1.1 6.6,-3.3 8.9,-6.2 l 0.9,-1.2 -0.9,-1.6 c -1.5,-2.8 -3.9,-5 -7.9,-7.3 -4.3,-2.4 -4.9,-2.6 -11.4,-3.8 l -4.9,-0.9 -9.2,0.2 c -5.1,0.1 -12.5,0.3 -16.6,0.5 -14.9,0.6 -20.8,0.7 -24.2,0.3 -4.1,-0.4 -8.7,-1.7 -10.7,-3.1 -0.8,-0.5 -2.1,-1.3 -3,-1.8 l -1.5,-0.8 -2.8,0.3 c -5.6,0.5 -11.3,0 -16.8,-1.5 -8,-2.5 -17.3,-8.7 -21.4,-14.5 -1.8,-2.6 -3.2,-5.4 -4.3,-8.4 -1.8,-5.7 -1.9,-7.1 -2.1,-19.4 -0.2,-11.4 -0.2,-11.7 -1.1,-15 -0.9,-3.5 -1.5,-4.9 -2.7,-6.2 -1.8,-1.7 -3.8,-3.2 -5.9,-4.6 -4.3,-2.8 -7.7,-6.5 -11.6,-12.7 -1.5,-2.3 -3.3,-5.3 -4.1,-6.5 -3.7,-6.2 -8.8,-11.5 -14.9,-15.3 -9.8,-6.5 -13.4,-9.4 -20.5,-16 -3.8,-3.6 -8.3,-7.8 -10,-9.3 -5.6,-5.4 -10.7,-11.2 -15.3,-17.5 l -1.2,-1.7 -0.1,7 c -0.2,6 0.2,11.9 1,17.8 0.2,1.5 0.6,3.8 0.8,5.1 0.2,1.3 0.7,4.3 1.1,6.6 1.5,8 3.1,19.6 3.3,23.1 0.3,5.9 -0.3,38.7 -0.9,45.8 -0.3,2.8 -0.4,5.6 -0.3,8.4 0.1,1.1 0.3,3.7 0.5,5.8 0.7,9.2 3.6,18.4 7.7,24.1 6.9,9.8 10.9,13.3 23.5,20.5 7.9,4.5 11.1,5.9 22.5,9.6 9.4,3 14.1,4.6 15,5.1 0.9,0.5 7.8,2.3 17,4.5 6,1.4 14.2,2.9 19.4,3.5 3.3,0.4 24.4,0.2 27.8,-0.2 z m -265.2,-4 c 1.5,-0.1 3.7,-0.3 4.8,-0.4 1.1,-0.1 3.8,-0.5 6,-0.7 4.1,-0.5 5.1,-0.7 13.8,-2.8 8,-1.9 13.6,-3.5 16.7,-4.5 4.8,-1.7 9.5,-3.7 14,-6.1 5.3,-3.6 10.2,-7.9 14.4,-12.7 2.6,-3.2 4.6,-8.6 6.1,-15.8 0.4,-2.2 1.1,-5.2 1.4,-6.6 1.2,-5.4 3,-21.8 3.4,-31.2 0.2,-4.5 0.6,-9.4 1.1,-12.7 0.8,-5.6 1.8,-14.5 2.1,-18.1 l 0.2,-2.2 -0.9,2.1 c -0.5,1.1 -1.4,3.1 -2.1,4.4 -0.7,1.3 -2,3.9 -2.8,5.7 -2,4.2 -3.5,6.3 -8.4,12.1 -4.3,5.1 -5.8,6.3 -14.8,12.3 -10.9,7.3 -13.1,8.5 -22.2,12.9 -5,2.4 -10.9,5 -13.2,5.8 -5.4,1.9 -10.4,3.8 -14.4,5.4 -1.8,0.7 -7.7,2.6 -13.2,4.2 -14,4.1 -22,6.4 -23.8,7.1 -0.8,0.3 -3.5,1.2 -5.8,2 -2.3,0.8 -5.8,1.9 -7.6,2.6 -10,3.7 -18.9,4.2 -24.8,1.3 l -1.6,-0.8 -1.1,1.2 c -2,2.2 -6.1,3.6 -11.9,4.1 -3.4,0.3 -4.4,0.5 -13.6,2.6 -3.1,0.5 -6,1.6 -8.7,3.1 -8.2,4.2 -14.7,7.2 -16.5,7.7 -7.3,1.8 -15.3,5.6 -15.3,7.3 0,1.7 5.4,7.5 7.5,8.1 2.8,0.9 43.5,1 71.7,0.2 6.1,-0.2 9.7,0 22.1,1.2 4,0.4 10.2,0.9 13.6,1 2.1,0 4.3,0.2 6.4,0.5 0.3,0.2 13.1,-0.1 17.4,-0.3 z m -138.7,-16 c 4.4,-2.6 9.1,-4.5 14.1,-5.7 1.5,-0.3 6.3,-2.5 16.6,-7.8 1.9,-1 3.8,-1.8 5.8,-2.4 1.1,-0.2 2.8,-0.6 3.9,-0.9 4.3,-1.1 8.8,-2 13.2,-2.5 5,-0.4 7.9,-1.3 9.4,-2.8 1,-1.1 1,-1.5 -0.4,-2.9 -0.6,-0.7 -2,-2.6 -3.1,-4.2 -1.1,-1.6 -3.5,-5.2 -5.4,-7.8 -1.9,-2.6 -4.4,-6.2 -5.5,-7.9 -1.1,-1.7 -3.7,-5.4 -5.8,-8.2 -4.1,-5.6 -12.1,-17.1 -12.7,-18.2 -0.2,-0.4 -1,-1.6 -1.7,-2.6 -2.6,-3.8 -7.9,-14.7 -10.7,-21.8 -0.8,-2 -2,-4.9 -2.7,-6.5 -2.8,-6.3 -4.9,-12.9 -6.2,-19.6 -0.3,-1.3 -0.9,-4.1 -1.4,-6.3 -0.8,-2.9 -1.4,-5.8 -1.8,-8.8 -0.6,-3.9 -0.7,-3.9 -1.4,-0.1 -3,15.7 -4.4,22.9 -4.6,24.1 -0.1,0.8 -0.5,3.1 -0.8,5.2 -1,5.4 -1.5,11 -1.5,16.5 -0.2,4.5 -0.5,9.5 -0.6,11.2 -0.1,1.7 -0.4,4.6 -0.6,6.5 -0.4,4.2 -0.9,58.3 -0.6,60.9 0.8,6.7 2.2,13.8 2.7,13.8 0.6,-0.4 1.2,-0.8 1.8,-1.2 z m 495.2,-10.2 c 0.5,-2.3 1.2,-8.3 1.7,-14.7 0.7,-9.3 1,-11.7 1.4,-14 0.5,-2.9 1.4,-16.6 1.4,-22.3 0,-4.9 -0.5,-14.5 -0.9,-18.1 -0.2,-1.5 -0.4,-5.2 -0.6,-8.2 -0.2,-3 -0.5,-7.7 -0.7,-10.3 -0.2,-2.6 -0.5,-6.2 -0.6,-8.1 -0.3,-5 -1.3,-13.7 -2.2,-18.5 -0.4,-2.3 -0.9,-5.1 -1,-6.2 -1.6,-11.7 -4.3,-26 -6.7,-36.1 -0.9,-3.6 -1.6,-6.5 -1.7,-6.6 -0.1,-0.1 -0.3,1.1 -0.8,4.1 -0.7,4.7 -1.5,10 -2,12.1 -0.3,1.2 -0.8,3.9 -1.2,6 -2.6,13.5 -6.8,26.6 -12.4,39.1 -8.1,17.7 -10.2,22.1 -12.6,26.3 -1.5,2.7 -4.1,7.6 -5.8,10.9 -1.7,3.3 -4.5,8.3 -6.2,11 -1.7,2.7 -4,6.3 -5,7.9 -4.3,6.6 -9.1,12.8 -14.3,18.7 -1.1,1.3 -2.6,3.1 -3.2,4 -3.6,4.9 -10.2,10.4 -15.1,12.5 -0.5,0.2 -0.9,0.4 -1.3,0.7 0,0.4 3.4,2.1 5.4,2.6 4.3,1.2 9.8,1.5 19.5,0.9 2.6,-0.1 11.6,-0.4 20.1,-0.6 l 15.3,-0.4 5.2,0.9 c 6.9,1.2 8.3,1.7 12.6,4 3.3,1.7 6.2,4.1 8.6,7 l 1.1,1.4 0.8,-2 c 0.3,-1 0.9,-2.9 1.2,-4 z m -411,-12.4 c 3.3,-0.6 6.4,-1.5 9.5,-2.8 2.8,-1.1 5.4,-1.9 14.9,-5 4.6,-1.5 10.8,-3.3 21.4,-6.4 5.1,-1.5 10.7,-3.3 12.4,-4 3.9,-1.6 8.9,-3.5 14.3,-5.4 6.2,-2.1 20.7,-9.2 25.9,-12.5 16.1,-10.4 18.2,-12 23.1,-17.8 4.2,-5 5.9,-7.4 6.9,-9.6 0.3,-0.7 1.6,-3.4 2.9,-5.9 2.6,-5.3 7.5,-16.9 8.4,-20 0.9,-3.1 1.3,-8.3 1.3,-17.4 0,-6.9 -0.6,-19.1 -1.1,-21.9 -0.1,-0.5 -0.2,-3 -0.3,-5.6 0,-1.6 -0.1,-3.2 -0.3,-4.8 -1.4,1 -2.7,2.2 -3.9,3.4 -6.8,6.4 -9.2,7.8 -18.6,10.5 -4.4,1.4 -8.9,2.1 -13.5,2.1 -8.1,0.1 -36.5,-0.7 -44.4,-1.2 -17.3,-1 -22.1,-1.7 -31.6,-4.7 -2.3,-0.7 -5.9,-1.8 -8.1,-2.4 -2.2,-0.6 -5.7,-1.6 -7.8,-2.2 -7.1,-2.1 -14.4,-3.5 -21.8,-4 -14,-1 -24.2,-3.2 -34,-7.3 -5.2,-2.2 -10.3,-4.8 -15.2,-7.8 -3.2,-2.3 -5.9,-5.2 -8.1,-8.5 -1.4,-2.5 -2.6,-4.1 -2.8,-3.9 -0.3,0.4 -4.5,20.4 -5.2,25 -0.5,3.5 0.1,19.1 0.9,23.4 0.2,1 0.5,2.6 0.6,3.5 0.2,1.4 0.5,2.8 0.9,4.1 0.3,1.3 1.1,4.4 1.6,6.9 1,4.9 2.5,10.7 3.3,13.1 0.3,0.8 2.4,6 4.6,11.5 4.4,10.6 8.7,19.6 11.7,24.2 2.1,3.3 10.6,15.6 15.8,22.8 2.1,2.9 4.5,6.4 5.5,7.8 1,1.4 2.9,4.2 4.3,6.1 1.4,1.9 3.6,5.1 4.9,7 3,4.6 5.9,7.5 8.4,8.7 2.7,1.8 7.5,2 13.2,1 z m 316.5,-0.1 c 1.4,-0.5 3.5,-1.3 4.6,-1.8 5.2,-2.8 9.8,-6.7 13.4,-11.4 1.1,-1.5 3.9,-4.9 6.2,-7.7 6.3,-7.5 10.4,-13.1 12.4,-16.8 0.4,-0.8 2,-3.3 3.6,-5.7 2.2,-3.4 4.2,-7 6,-10.6 1.8,-3.5 4.4,-8.4 5.8,-10.9 1.4,-2.5 3.9,-7.5 5.5,-11 1.6,-3.5 4,-8.7 5.3,-11.5 5.2,-11.4 7.2,-16.6 10.4,-27.8 2.9,-10.7 5.2,-21.6 6.7,-32.6 0.8,-5.3 1.3,-18.6 0.9,-22.5 -0.9,-8.2 -2.2,-19.1 -2.7,-21.4 -1.7,-7.6 -3.8,-15.1 -6.4,-22.5 -1.3,-3.6 -3.5,-10.1 -4.9,-14.4 -2.3,-7 -5,-13.9 -8,-20.6 -0.4,-0.8 -1.5,-3.3 -2.4,-5.6 -3.2,-8 -4.6,-10.7 -11.9,-23.3 -1.2,-2.1 -3,-5.3 -4,-7.1 -1,-1.8 -2.3,-4 -2.9,-5 -0.6,-1 -1.6,-2.6 -2.1,-3.5 -0.5,-0.9 -2.2,-3.6 -3.7,-5.9 -1.5,-2.3 -4.2,-6.7 -6.1,-9.8 -3.2,-5.2 -6.1,-9.7 -7.4,-11.1 -0.3,-0.3 -1.7,-2.2 -3.2,-4.3 -5.1,-7.1 -10.9,-13.8 -17.1,-20 -3.4,-3.3 -8,-8 -10.3,-10.4 -4.5,-4.8 -7.1,-7.1 -14,-12.8 -2.4,-2 -5.2,-4.3 -6,-5 -1.1,-0.9 -2.2,-1.8 -3.4,-2.5 -1,-0.6 -5.5,-3.6 -10,-6.6 -10.1,-6.6 -9.5,-6.3 -14.6,-8.5 -8.3,-3.7 -15,-5.5 -17.8,-4.7 -0.6,0.2 -0.3,0.4 2.3,1.3 7.9,2.9 9.4,3.6 14.8,6.5 10.2,5.6 13.9,8.3 23.2,17 4.5,4.1 8.7,8.6 12.6,13.2 1.6,1.8 8.1,9 11.6,13 9.4,10.7 17.9,22.2 25.5,34.3 1.4,2.3 4.3,6.8 6.5,10 4.7,7.2 5.8,8.9 7.1,11.3 1.3,2.4 8.8,15.9 12.1,21.7 4.4,7.7 12.5,24 15.7,31.7 2.8,6.7 5.2,13.5 7.2,20.5 2,6.7 3.6,11.9 6.3,19.7 0.9,2.7 2,6.3 2.5,8.1 0.5,1.8 1.1,3.9 1.4,4.6 0.5,1.4 0.5,1.4 -0.1,2.6 -0.4,0.9 -0.7,1.8 -1,2.7 -1.6,4.4 -3.5,8.7 -5.9,12.8 -2.1,3.4 -4.4,6.7 -7,9.8 -3.3,3.8 -7.2,7.1 -11.4,9.9 -1.3,0.9 -4.4,3.2 -6.9,5.1 -2.5,1.9 -5.5,4 -6.5,4.7 -1,0.7 -3.6,2.4 -5.7,3.8 -5.1,3.5 -16.1,8.7 -23.6,11.2 -6.9,2.2 -14,3.9 -21.1,5 -10.1,1.3 -23.6,1.7 -30.5,0.8 -2.1,-0.3 -6.5,-0.7 -9.7,-0.9 -8.6,-0.5 -17,-1.7 -25.4,-3.6 -6.9,-1.5 -9.7,-2.4 -13.7,-4.1 -2,-0.9 -6,-2.4 -9,-3.5 -3,-1.1 -6,-2.3 -8.9,-3.7 -1.1,-0.6 -2.3,-1.2 -3.5,-1.6 0,0.4 3.3,3.8 5.1,5.2 1,0.8 4.8,4.3 8.4,7.7 3.6,3.4 7.8,7.1 9.2,8.1 1.4,1 3.4,2.4 4.3,3.1 0.9,0.7 3.6,2.6 6,4.1 9.5,6.3 11.7,8.8 20.7,23.1 3.8,6.1 6.7,9.3 10.5,11.8 4.8,3.1 7.4,5.5 8.7,8.1 1,2.4 1.7,4.9 2.2,7.4 0.2,0.7 0.4,6.7 0.6,13.1 0.2,9.9 0.4,12.2 0.9,14.6 2,9.1 1.7,13.3 14.8,20.1 7,4.4 11.7,5.7 20.2,5.7 4.7,0.2 5.1,0.1 7.6,-0.7 z M 381.2,438.4 c 7.7,-0.2 15.3,-1.2 22.7,-3 7.3,-1.6 14.3,-4 21.1,-7.1 3.2,-1.5 6.1,-2.8 6.4,-3 2.4,-1.2 4.7,-2.6 6.9,-4.2 1.6,-1.1 3.7,-2.6 4.8,-3.2 1.1,-0.6 3.1,-2.1 4.8,-3.3 1.7,-1.2 4.3,-3.2 6,-4.4 9.4,-6.8 10.4,-7.7 13.6,-11.4 4.8,-5.6 10.6,-15.8 12.1,-21.3 l 0.5,-1.7 -0.7,0.2 c -3.9,1.1 -7.9,1.7 -11.9,1.8 -1.5,0 -3,0.1 -4.5,0.4 0.4,0.3 0.8,0.5 1.2,0.7 2.2,0.9 3.2,4.1 2,5.9 -0.5,0.7 -0.5,0.8 0,1.5 0.6,1.1 0.6,2.4 0.1,3.5 -0.7,1.7 -1.8,3.3 -2.5,3.6 -0.4,0.2 -0.8,0.6 -0.9,1.1 -0.6,2.7 -4.2,5 -6,3.9 -0.3,-0.2 -0.7,-0.1 -1.3,0.4 -1.7,1.4 -4.9,0.7 -6.2,-1.2 -0.4,-0.6 -0.7,-0.7 -1.6,-0.6 -1.8,0.3 -3.7,-0.6 -4.6,-2.2 -0.4,-0.5 -0.6,-1.2 -0.6,-1.9 0.1,-0.5 0,-0.6 -0.6,-0.6 -0.6,0 -0.7,0.1 -0.7,1.4 0,2 0.8,6.5 1.2,7 0.2,0.2 0.5,0.4 0.8,0.4 0.7,0 2.6,1.9 2.6,2.6 0.1,0.6 0.4,1.1 0.8,1.6 0.6,0.5 0.8,1.3 0.6,2 -0.1,0.8 -0.2,1.6 -0.2,2.4 0.1,0.9 -0.3,1.8 -0.9,2.5 -0.4,0.5 -0.7,1 -0.9,1.6 -0.1,0.5 -0.3,0.9 -0.6,1.3 -0.4,0.6 -1.2,0.9 -1.9,0.8 -0.7,-0.1 -1.5,0.2 -2,0.7 -0.6,0.9 -1.8,1.2 -2.8,0.7 -0.5,-0.3 -0.8,-0.2 -1.3,0.2 -1.6,1.4 -5.1,-0.4 -5.2,-2.8 0,-0.4 -0.3,-0.8 -0.9,-1.1 -1.1,-0.6 -1.7,-1.9 -1.4,-3.1 0.3,-1.2 0.8,-2.4 1.6,-3.4 0.2,-0.1 0.3,-0.7 0.3,-1.4 0,-2.3 1.7,-4.2 4,-4.4 h 1.2 v -2.2 c 0,-3 -0.9,-5.4 -2.5,-6.8 -0.4,-0.4 -0.9,-0.8 -1.5,-1 -0.2,0 -0.1,0.8 0.1,1.8 0.6,2.9 0.5,4.7 -0.3,5.5 -1.1,0.8 -2.4,1.2 -3.8,1.2 -0.8,0 -1,-0.1 -1.3,-1 -0.2,-0.5 -0.4,-1.1 -0.4,-1.7 -0.1,-0.6 -0.3,-0.4 -1.3,1.4 -0.7,1.2 -1.8,3 -2.5,4 l -1.3,1.8 0.8,0.3 c 1.1,0.2 2,1.2 2.2,2.3 0.1,0.7 0.4,1.3 0.9,1.7 1,0.7 1.2,2 0.6,3 -0.3,0.8 -0.4,1.6 -0.4,2.4 0,1.5 -0.1,1.8 -1,2.5 -0.5,0.4 -0.9,0.9 -1.3,1.5 -0.7,1 -1.8,1.6 -3,1.8 -0.3,0 -0.7,0.1 -0.9,0.4 -0.6,1 -3,1.4 -3.7,0.7 -0.5,-0.3 -1,-0.4 -1.6,-0.4 -1.2,0 -2.3,-0.7 -2.8,-1.8 -0.2,-0.5 -0.4,-0.6 -0.9,-0.5 -0.5,0.1 -0.9,-0.1 -1.5,-0.7 -1,-1 -1.2,-2.2 -0.6,-4.2 0.2,-0.6 0.2,-1.3 0,-1.9 -0.5,-1.5 0,-3.1 1.1,-4.2 0.5,-0.5 0.9,-1 1.1,-1.7 0,-0.6 1.1,-1.8 2.7,-3 0.6,-0.6 1.5,-0.8 2.3,-0.5 1.3,0.2 1.3,0.1 2.3,-1.2 3.5,-5 4.6,-9.2 3.8,-13.6 -0.2,-1.2 -0.9,-2.2 -1.8,-3 -1.6,-1.8 -3.7,-3.1 -6,-3.7 -1.8,-0.4 -2.1,-0.5 -2.4,-0.1 -0.8,0.9 -1.1,2.5 -1.1,6.7 0,6.1 -1.2,17.3 -2.2,20.4 -0.9,2.8 -2.4,4 -4.4,3.4 -1.6,-0.5 -2,-1.4 -1.9,-3.7 0.1,-1.1 0.1,-2.1 0,-3.2 l -0.1,-1.3 -1.1,0.4 c -2.6,1.3 -5.1,2.9 -7.4,4.7 -1.9,1.5 -3.2,3.6 -3.8,6 -0.4,2.3 -1.2,3 -3.2,3 -2,0 -2.9,-0.9 -2.9,-3.3 0,-3.9 3.4,-8.7 12.3,-17.1 3.2,-3.1 6.1,-6 6.3,-6.4 0.6,-1.1 0.6,-5.2 0,-7.5 -0.8,-3 -1.6,-3.9 -3.9,-4.4 -0.8,-0.2 -0.8,-0.1 -1.2,1.5 -0.5,2.4 -1.9,4.6 -4.7,7.2 -2.3,2.2 -2.4,2.3 -2.4,3.6 0,1.7 -0.7,2.5 -2.5,3 -0.8,0.3 -1.6,0.3 -2.4,0 -1.2,-0.5 -1.4,-0.7 -1.8,-2.2 -0.6,-1.9 0.6,-4.8 4.2,-10.5 0.5,-0.9 0.9,-1.9 1.2,-2.9 0.1,-0.7 0.2,-1.6 0.3,-2 0.1,-0.4 -0.3,-0.9 -1.8,-1.8 -1.7,-1.1 -2.2,-1.2 -4.5,-1.4 -2.3,-0.2 -2.7,-0.1 -3.1,0.3 -0.3,0.2 -0.4,0.5 -0.5,0.8 0,0.2 -1.2,2.6 -2.6,5.4 -1,1.8 -1.8,3.6 -2.6,5.5 0.3,0.6 0.6,1.1 1.1,1.5 1.5,1.8 2.6,3.9 3.2,6.1 0.6,1.8 0.6,2.2 0.3,2.8 -0.5,0.8 -2.4,2.3 -3,2.3 -0.4,0 -1.3,-0.8 -2.8,-2.6 l -0.7,-0.8 0.2,4.1 c 0.1,2.2 0.3,4.4 0.7,6.6 0.8,3.9 0.2,5.1 -2.5,5.9 -0.7,0.3 -1.6,0.3 -2.3,0 -2.3,-0.9 -4.5,-8.2 -4.8,-16 l -0.2,-4.3 h -2 c -2.2,0 -4.5,0.3 -6.7,0.7 -0.1,0.1 0.1,0.7 0.3,1.3 0.4,1.2 1.3,5.2 2.6,12.3 0.8,4.1 0.9,9.5 0.3,12.1 -0.2,1.2 -0.8,2.2 -1.7,3 -1.2,1.1 -1.4,1.3 -2.9,1.3 -2.2,0 -3.2,-0.6 -3.8,-2.1 -0.8,-2 -1.4,-6.2 -1.7,-11.1 -0.3,-4.6 -0.6,-6.2 -1.2,-6.9 -0.6,-0.7 -0.8,-0.5 -1,0.8 -0.4,2.6 -1.4,5.4 -2.2,6 -0.7,0.6 -1.7,0.8 -2.6,0.7 -3.8,0 -4.1,-0.6 -3.9,-6.9 0.2,-5 0.4,-5.8 2,-9.1 l 1.1,-2.3 -1.4,-1.1 c -1.7,-1.4 -2.5,-1.6 -3.7,-1.1 -2.3,1.1 -5.6,6.5 -7,11.6 -0.4,1.5 -0.8,2.9 -1.4,4.3 -0.5,1.5 -0.9,3.1 -1.1,4.7 -1,5.5 -1.5,6.2 -5,6.2 -1.9,0 -2.2,-0.1 -3,-0.9 l -0.9,-0.9 v -4.7 c 0.1,-5.5 0.6,-11 1.7,-16.4 0.5,-1.9 1.3,-3.8 2.3,-5.6 2,-3.7 2.1,-4.4 1.4,-6.1 -0.6,-1.4 -0.6,-5.1 0,-6.1 0.6,-1 0.6,-1.6 -0.2,-2.4 -0.6,-0.6 -1,-0.7 -4.2,-0.9 -1.9,-0.1 -4.6,-0.4 -6,-0.6 -1.4,-0.2 -3.2,-0.5 -4.1,-0.6 -3.9,-0.5 -7.7,-1.6 -11.2,-3.3 -0.8,-0.4 -1.6,-0.8 -2.4,-1 -0.1,0.7 -0.1,1.4 0,2.1 0.1,2.5 -0.3,4.9 -1.3,7.2 -1.8,3.4 -3.9,6.6 -6.3,9.6 -4,5 -4.6,5.9 -5.2,8.3 -0.5,1.8 -0.6,3.6 -0.4,5.4 0.1,2.1 0.5,4.2 1.4,6.2 2.3,5.8 4.1,8.6 7.8,11.8 4.1,3.6 11.5,7.5 19.9,10.6 3,1.1 6.6,2.5 8.1,3.1 3.9,1.7 8,3 12.2,3.8 8.4,2 17,3.2 25.7,3.7 3.3,0.2 7,0.6 8.3,0.8 6.5,1.1 8.7,1.1 17.8,0.7 z m -173.3,-9.2 c 1.3,-0.3 4.6,-1.2 7.5,-2.1 4.4,-1.4 5.6,-1.9 8.1,-3.4 3.6,-2.2 10.1,-8.4 12.7,-12 1.7,-2.3 1.8,-2.7 2.6,-6.2 1,-4.1 1.7,-6.7 3,-11.1 2.3,-7 4.2,-14.1 5.5,-21.3 2.7,-15.7 4.1,-34.9 3.4,-47.5 -0.4,-7.8 -1.1,-16.6 -1.5,-18.8 -1.3,-7.5 -3.7,-14.8 -7.1,-21.7 -2.7,-4.7 -6,-9.2 -9.7,-13.2 -2,-2.2 -4.2,-4.7 -4.9,-5.6 -1,-1.3 -2.1,-2.5 -3.3,-3.7 -4.6,-4.7 -8.4,-10.1 -11.4,-15.9 -1.8,-4.1 -3.3,-8.2 -4.6,-12.5 -0.3,-1.2 -0.6,-2.6 -0.8,-3.2 -0.2,-0.5 -0.1,-1.1 0.1,-1.6 0.1,-0.2 0.3,-0.3 0.4,-0.5 0.1,0.1 0.7,1.7 1.5,3.6 3.2,7.8 5.5,12.7 7.7,16 1.4,1.8 2.9,3.4 4.5,5 1.9,1.9 3.9,4.1 4.5,4.8 1.2,1.5 1.5,1.7 1.5,0.9 0,-0.3 0.1,-1.7 0.3,-3.2 0.3,-2.6 0.1,-7.2 -0.7,-13.7 -0.4,-3.7 -0.8,-5 -3.7,-13.5 -1.3,-4 -3.2,-9.5 -4.1,-12.2 -2.4,-7.2 -5.7,-15 -7.9,-18.6 -1.1,-1.7 -2.7,-4.6 -3.6,-6.4 -1.5,-2.8 -3.2,-5.5 -5.1,-8.1 -1.9,-2.7 -4.1,-5.9 -4.9,-7.1 -2,-3.1 -4.7,-5.6 -8,-7.2 -3.3,-1.6 -6,-2.1 -11,-1.8 -3.2,0.2 -3.5,0.3 -6.9,1.7 -2,0.8 -4.4,2 -5.4,2.5 -2,1.1 -13.8,9.5 -17.2,12.2 -1.2,1 -2.8,2.1 -3.5,2.6 -4.1,2.7 -11.9,10.8 -23.5,24.5 l -6.2,7.3 c -1.1,1.3 -2.6,3.1 -3.4,4 -0.8,0.9 -2.8,3.3 -4.4,5.2 -1.6,1.9 -4,4.6 -5.1,5.9 l -5.1,6 c -6.3,7.5 -10,12.9 -18.4,27 -1,1.8 -3.1,5.1 -4.6,7.5 -1.5,2.4 -3.6,5.7 -4.7,7.4 -1.1,1.7 -3,4.9 -4.2,7.2 -1.2,2.3 -3.7,6.7 -5.4,9.8 -1.7,3.1 -3.2,5.7 -3.2,5.8 0,0.1 -1.2,2.7 -2.8,5.8 -1.6,3.1 -3.2,6.7 -3.8,7.9 -1.3,2.7 -3.5,8.2 -4.9,12.2 -1.1,3 -2,5.3 -6.8,16.7 -4,9.5 -7.3,19.2 -9.9,29.1 -0.8,2.6 -1.2,5.2 -1.2,7.9 0,5.6 1.4,8.6 6.1,13.1 4,3.9 5.5,4.9 11.5,7.9 9.2,4.6 15.2,6.8 22.1,8.1 2.6,0.5 5.2,1 5.8,1.2 3.9,0.7 7.9,1.1 11.9,1.3 8.6,0.6 17,2.1 25.2,4.7 2.4,0.7 5.8,1.7 7.5,2.1 1.7,0.4 4.7,1.3 6.6,1.9 9,2.9 11.7,3.3 27.4,4.4 4.6,0.3 14.8,0.7 24.2,0.9 8.9,0.2 16.3,0.4 16.4,0.5 0.8,0.5 12.7,0 14.9,-0.5 z m 209.9,-10 c 0,-0.4 0.2,-0.8 0.5,-1.1 0.4,-0.3 0.6,-0.3 1,0.1 0.5,0.5 1.2,0.6 1.8,0.2 0.3,-0.2 0.3,-0.4 0.1,-0.9 -0.5,-0.9 0.1,-1.5 1.2,-1.3 0.8,0.1 0.9,0.1 1.1,-0.7 0.2,-0.8 0.1,-0.9 -0.6,-1.5 -1,-0.7 -0.9,-1.5 0.2,-1.6 0.6,-0.1 0.7,-0.3 0.7,-1.1 0,-0.8 -0.1,-1.1 -1,-1.3 -1.1,-0.3 -1.4,-1.2 -0.5,-1.5 0.6,-0.2 0.6,-1.2 0,-1.6 -0.5,-0.2 -1,-0.3 -1.5,-0.3 -2.1,0.2 -2.1,-1.1 0,-3.9 1.8,-2.5 3.3,-5.3 4.4,-8.2 0.3,-0.9 0.3,-1.9 -0.2,-2.8 l -0.6,-1.4 -0.2,1.8 c -0.2,1.2 -0.4,2.3 -0.8,3.4 -1.5,3.1 -3.4,6 -5.7,8.6 l -0.9,0.8 -0.7,-0.8 c -0.9,-0.9 -1.8,-0.9 -1.7,0.1 0.1,0.8 -0.4,1.1 -1,0.7 -0.3,-0.3 -0.6,-0.2 -1.2,0.5 -0.8,0.8 -1,1.4 -0.5,1.8 0.5,0.4 0.3,1 -0.5,1 -1.3,0 -2.5,2.6 -1.8,3.7 0.2,0.2 0.5,0.4 0.8,0.5 0.7,0.3 0.7,1 0,1.2 -0.7,0.2 -1.1,2.5 -0.6,3.4 0.4,0.7 1.4,0.7 1.6,0.1 0.2,-0.3 0.5,-0.4 0.8,-0.4 0.5,0 0.6,0.2 0.6,1 0,0.5 0.1,0.9 0.4,1.3 0.6,0.5 1.4,0.4 1.6,-0.2 0,-0.4 0.4,-0.7 0.8,-0.6 0.4,0.1 0.7,0.4 0.6,0.8 v 0 c -0.2,0.4 0.1,0.9 0.5,1.1 0,0 0,0 0,0 0.2,0.1 0.4,0.1 0.6,0 0.6,-0.2 0.7,-0.4 0.7,-0.9 z m -63.3,-0.8 c 0.7,-1.1 1.2,-4.8 1,-7.6 -0.8,-7 -2.2,-13.9 -4.3,-20.6 -2,-6.4 -3.8,-10.1 -5.7,-12 -2.2,-2.2 -4.1,-2.9 -4.9,-2 -0.9,0.7 -1.8,1.3 -2.7,1.9 -1.9,1.2 -2.5,1.5 -3.6,1.5 -1.7,0 -2.6,-0.7 -2.6,-2.2 0.2,-1.6 1.4,-2.9 3,-3.3 1.1,-0.4 2.2,-0.9 3.2,-1.5 1.6,-1 2,-1.4 2,-2 0,-1 -0.7,-1.1 -1.7,-0.3 -1.3,1.2 -2.5,1.8 -5.7,2.9 -2.5,1 -5.1,1.6 -7.7,1.9 l -2,0.2 -0.1,1.4 c -0.1,1 0.1,1.9 0.6,2.8 1.2,2.5 1.1,3.5 -0.2,5.8 -2.1,3.7 -2.5,4.7 -3.1,7.1 -1.2,6.1 -2,12.3 -2.2,18.5 0,1.7 0,1.7 0.9,1.7 1.9,0 2.8,-1.6 4.1,-7.6 1.9,-8.7 3,-11.5 6.6,-16.1 3,-3.9 4.3,-4.8 6,-4 1.4,0.6 5.5,3.8 5.9,4.6 0.6,1.2 0.5,1.6 -1,4.4 -1.7,3.3 -2,4.9 -2,8.9 0,3.6 0.2,3.9 1.8,3.6 1.2,-0.2 1.6,-0.9 2.3,-4.8 0.5,-2.8 1.2,-3.9 2.7,-4 0.9,-0.1 1.2,0.1 2.2,1.2 1.7,1.9 2.3,3.3 2.6,6.9 0.3,3.5 0.8,7 1.6,10.4 0.2,0.9 0.4,1.8 0.8,2.7 0.4,0.5 1.8,0.2 2.2,-0.4 z m 81.7,-2.6 c 0.9,-0.9 1.5,-0.9 1.5,-0.1 0,0.3 0.3,0.4 0.8,0.4 0.7,-0.1 1.2,-0.6 1.4,-1.2 0.6,-1.2 1,-1.4 1.5,-0.5 0.2,0.3 0.5,0.6 0.8,0.6 0.6,0 1.4,-1.2 1.4,-2.1 0,-0.9 0.2,-1 1.2,-0.8 0.2,0 0.5,-0.3 0.7,-0.6 0.2,-0.5 0.1,-0.8 -0.3,-1.3 -0.6,-0.6 -0.6,-0.6 0,-1.2 1,-0.8 0.8,-2.5 -0.3,-2.5 -0.8,0 -1.4,-0.8 -1,-1.2 0.9,-0.8 -0.3,-2.3 -1.8,-2.3 -1.1,0 -1.8,-1.4 -2.1,-4.3 -0.2,-1.4 -0.3,-2.8 -0.3,-4.2 V 393 H 438 c -1.5,0 -1.7,0.1 -1.5,0.5 1.5,3.3 2.1,8.3 1.3,9.6 -0.4,0.6 -0.8,0.7 -2,0.7 -0.9,-0.1 -1.7,0.2 -2.3,0.9 -0.9,1 -1.1,2.4 -0.4,2.9 0.7,0.5 0.3,1.2 -0.6,1.2 -0.9,0 -1.4,0.6 -1.4,1.9 -0.2,1.1 0.5,2.2 1.5,2.6 0.5,0.2 0.8,0.7 0.7,1.2 -0.1,1 0.7,2.2 1.5,2.2 0.5,-0.1 1,-0.4 1.4,-0.9 z M 387.1,414 c 0.8,-3.8 4.2,-7.7 10,-11.4 4.8,-3.1 4.5,-2.7 4.4,-5.8 l -0.1,-2.6 -5.3,5.1 c -7.6,7.3 -10.8,11.5 -10.8,14.7 0,1.4 0.1,1.5 0.7,1.5 0.6,0 0.9,-0.2 1.1,-1.5 z m 18.7,-6.4 c 1.2,-4 2.2,-14.8 2.1,-21.7 -0.1,-4.9 -0.1,-5 0.7,-6.1 0.5,-0.7 1.1,-1.2 1.8,-1.6 2,-1 6,0.4 10.2,3.5 1.5,1.1 2.5,2.3 4.4,5 3.4,4.9 3.9,6 4.3,8.9 0.2,1.4 0.4,2.6 0.4,2.7 0,0.1 0.4,-0.1 0.7,-0.2 0.8,-0.4 0.8,-1.2 0.2,-4.3 -0.3,-1.3 -0.7,-3.3 -0.9,-4.5 -0.9,-3.4 -2.4,-6.5 -4.6,-9.2 -3.2,-3.9 -6.8,-5.4 -16.9,-7 -2.3,-0.4 -4.5,-0.9 -6.7,-1.5 -6.7,-2 -12.3,-6.8 -15.3,-13.1 -1.1,-2.1 -1.7,-4.4 -1.6,-6.8 -0.1,-3.5 -1.2,-7.3 -2.3,-7.6 -2,-0.5 -5.7,0.6 -9.1,2.6 -0.6,0.3 -1.1,0.6 -1.6,1 0.2,2.3 0.6,4.6 1.3,6.8 0.4,0.8 0.4,1.6 0.2,6 l -0.2,5.1 -2.5,6 c -1.4,3.3 -2.6,6.7 -3.6,10.2 -1,3.8 -1.1,4.6 -1.3,10.3 -0.2,4.7 -0.2,6.7 0.2,8.6 0.4,2.7 1.4,5.2 2.9,7.5 0.7,0.8 0.9,0.9 1.4,0.6 0.7,-0.4 0.7,-1.1 -0.1,-6.8 -0.5,-2.8 -0.5,-5.7 -0.2,-8.5 0.4,-5.6 1.3,-8.3 4.4,-14.3 3.8,-7.4 4,-8 4,-10.7 0,-2.2 0.1,-2.4 0.8,-2.9 0.3,-0.3 0.8,-0.4 1.2,-0.4 0.6,0.5 1.2,1.1 1.6,1.8 1.2,1.9 2.8,3.5 4.6,4.7 2.8,2 6,3.4 9.3,4.4 9.4,2 10.8,3.8 9.5,12.1 -0.9,5.3 -1.2,10.6 -0.9,15.9 0.2,4.4 0.3,5.7 0.6,5.7 0.5,-0.6 0.9,-1.3 1,-2.2 z m 49,-11.2 c 0.4,-1.3 0.8,-1.4 1.6,-0.6 1.6,1.5 4,0 4,-2.5 0,-1.3 0,-1.3 1,-1.2 1,0.1 1.1,0 1.7,-1.1 0.4,-0.7 0.8,-1.6 0.9,-2.4 0.2,-1 0.1,-1.4 -0.5,-1.9 -0.8,-0.8 -0.8,-1.1 -0.1,-1.8 0.4,-0.5 0.7,-1.1 0.8,-1.7 0.3,-1.6 -0.4,-2.4 -1.9,-2.1 -0.9,0.2 -1,0.1 -1.2,-1 -0.1,-1.2 -1.1,-2.1 -2.3,-2.1 -0.2,0 -0.3,0 -0.5,0.1 -1,0.1 -1.2,0 -1.4,-0.8 -0.4,-1.5 -1.5,-1.7 -3.5,-0.8 l -1.2,0.6 -0.9,-0.7 c -0.5,-0.4 -1.1,-0.6 -1.7,-0.7 -1.2,0.1 -2.3,0.6 -3,1.6 -0.3,0.6 -1,0.9 -1.6,0.8 -1.1,-0.1 -2.1,0.8 -2.2,1.9 0,0.2 0,0.4 0.1,0.7 0.1,0.5 0.3,1.1 0.6,1.5 0.6,0.7 0.5,1 -0.6,1.5 -0.7,0.1 -1.1,0.7 -1.1,1.4 -0.1,1.3 0.7,2.2 1.9,2 1,-0.2 1.8,0 1.8,0.6 0,0.6 -0.9,1.1 -3.4,1.6 -3.3,0.7 -6.7,0.4 -9.8,-0.9 l -1.8,-0.9 0.2,1 c 0.3,1.3 0.9,1.8 3.1,2.6 1.7,0.6 2.2,0.6 6.8,0.4 5.4,-0.2 5.5,-0.2 4.3,1.3 -1.5,1.9 0.5,3.6 3.3,2.9 1.2,-0.3 1.5,-0.3 1.6,0.1 0.3,0.5 0.6,0.9 1,1.2 0.5,0.6 1.4,0.9 2.2,0.7 1.3,-0.3 1.5,-0.4 1.8,-1.3 z m -79.1,-3.3 c -0.5,-1.7 -1.4,-3.4 -2.5,-4.8 -0.7,-0.6 -0.8,-0.5 -1.1,1.8 -0.3,0.7 0,1.6 0.6,2 0.6,0.7 1.2,1.4 1.7,2.1 0.9,1.2 1,1.3 1.4,0.9 0.4,-0.4 0.3,-0.5 -0.1,-2 z m 10.9,-1.2 c 0.2,0 0.3,-0.5 0.3,-1.1 0,-0.5 0.1,-1 0.3,-1.5 0.1,-0.2 1.7,-1.8 3.5,-3.5 2.8,-2.8 3.3,-3.3 3.7,-4.8 0.3,-0.7 0.4,-1.4 0.4,-2.2 -0.1,-0.3 -0.9,-0.8 -2.1,-1.3 l -2,-0.8 -0.2,1.5 c -0.2,1.5 -0.7,2.6 -3.5,7.5 -1.8,3.2 -2.5,5.3 -1.9,6.1 0.2,0.3 0.5,0.4 0.8,0.3 0.2,-0.1 0.5,-0.1 0.7,-0.2 z m -26.5,-4.2 h 2.8 l 0.2,-1.6 c 0.1,-0.6 0.1,-1.1 0.1,-1.7 -0.3,-0.3 -3.4,-0.7 -5,-0.7 -1.6,-0.1 -3.1,-0.3 -4.6,-0.7 -1.6,-0.4 -3,-0.6 -3,-0.4 0.2,0.8 0.5,1.6 0.9,2.4 0.5,1.2 1,2.4 1.1,2.7 0.2,0.5 0.4,0.5 2.4,0.3 1.7,-0.2 3.4,-0.3 5.1,-0.3 z m 80.5,-0.4 c 1.4,-0.2 1.4,-0.2 1,-0.8 -0.6,-1.1 -0.6,-2.4 0.1,-3.5 0.5,-0.6 0.5,-1 0.4,-2.4 -0.1,-1.4 -0.1,-1.8 0.5,-2.6 l 0.7,-0.9 -3,0.1 c -4.9,0.1 -9.8,0 -14.7,-0.5 -0.8,-0.2 -0.8,-0.1 0.7,1.8 0.9,1.1 1.7,2.3 2.4,3.5 1.2,2.3 1.9,3.1 3.4,3.9 2.6,1.5 5.6,2 8.5,1.4 z m -157.8,-6 c 1.7,-2.3 3.3,-4.7 4.7,-7.2 1.8,-3.1 2,-7.7 0.5,-9.4 -0.9,-1 -1.9,-1.4 -4.6,-1.6 l -1.9,-0.2 -0.2,8.3 c -0.1,4.6 -0.3,9.2 -0.4,10.4 -0.2,2.3 0,2.2 1.9,-0.3 z m 82.6,-3 c 0.8,-2.1 1.5,-4 1.5,-4.2 0,-0.4 -2.6,-0.5 -7.1,-0.1 -1.8,0.1 -3.7,0.1 -5.5,0 -1.4,-0.2 -3.7,-0.4 -5.1,-0.5 -1.3,-0.1 -2.7,-0.3 -4,-0.6 -0.6,-0.1 -1.3,-0.2 -1.9,-0.2 -0.7,0.2 -1,-0.5 -0.4,-1 0.4,-0.4 0.7,-0.4 2.3,-0.1 1.4,0.3 2.8,0.5 4.2,0.6 1.3,0.1 3.5,0.4 4.8,0.6 1.7,0.3 3.4,0.2 7,0 3.3,-0.3 5,-0.3 5.5,-0.1 0.8,0.3 0.8,0.3 2,-2.4 1.5,-3.2 2.3,-6.7 2.3,-10.3 0.2,-3.7 0.2,-4.2 -0.4,-5.7 -0.5,-1.5 -0.7,-3 -0.8,-4.5 l -0.2,-2.9 h -0.8 c -0.6,-0.1 -1.2,-0.3 -1.7,-0.6 -1.1,-0.9 -3.2,-4 -3.2,-4.9 0,-0.6 -0.1,-0.7 -1.2,-0.5 -1,0.1 -1.9,-0.1 -2.8,-0.5 -2.6,-1.1 -5.5,-3.4 -6.1,-4.7 -0.5,-1 -0.5,-1.1 -1.6,-0.9 -1.1,0.2 -4.8,-0.7 -7.1,-1.8 -0.8,-0.5 -1.6,-1 -2.3,-1.7 l -0.8,-1 -0.5,0.9 c -0.7,1.1 -2.1,1.5 -5.6,1.6 -3.2,0.1 -4.2,-0.3 -5,-1.9 -0.3,-0.5 -0.6,-0.8 -1.1,-1.1 -0.5,-0.2 -0.8,-0.1 -1.2,0.6 -0.6,1 -1.6,1.4 -3.3,1.4 -1.5,0 -2.8,0.5 -2.8,1.2 0.2,0.7 0.5,1.3 0.9,1.9 0.5,0.8 1.3,2.1 1.7,2.9 0.6,1 1,1.5 1.4,1.5 0.6,0.2 1.2,0.5 1.7,1 0.7,0.5 1.1,1.3 1,2.2 0,1.5 1.1,3.2 2.1,3.5 1.4,0.4 2.1,1 3.3,3.2 1,1.9 1.1,2.3 0.8,3.1 -0.3,0.8 -0.3,1 1.6,2.8 1.7,1.6 2.1,2.2 2.6,3.9 0.8,2.5 0.8,4.4 0.1,5.6 -0.7,1 -0.5,1.4 1.4,4.2 0.9,1.3 1,1.7 0.9,2.8 -0.1,1.4 0.7,2.8 2,3.3 1.4,1 2.7,2 3.9,3.2 3,2.6 3.2,2.8 5.3,3.3 1.9,0.4 3.7,0.6 5.6,0.8 1.2,0.1 2.3,0.2 3.5,0.4 0.3,0.1 0.6,0.1 0.9,0.1 0.7,-0.5 1,-0.9 2.2,-4.4 z m -28.9,-1.6 c 3.7,-2.4 5.7,-4.2 2.8,-2.6 -1.5,0.8 -3.1,1.6 -4.8,2.2 -0.3,0.1 -0.6,0.4 -0.7,0.7 0,0.8 1.3,0.6 2.7,-0.3 z M 472.7,376 c 6.2,-1.2 8,-1.7 7.8,-2.2 -0.1,-0.3 -0.5,-1.5 -0.8,-2.7 -0.7,-2.4 -4.4,-14.1 -5.6,-17.5 -0.4,-1.1 -1.8,-5.6 -3,-9.9 -3.4,-12.2 -8,-24.1 -13.8,-35.4 -5.6,-11.5 -6.7,-13.4 -12.9,-24.4 -3,-5.2 -6.2,-11 -7.2,-12.9 -2.7,-5.1 -5.7,-10 -9,-14.7 -2,-3 -4.7,-7.1 -5.9,-9.1 -6.5,-10.5 -18.2,-26.2 -24.4,-32.9 -2.2,-2.4 -10.6,-11.7 -11.7,-13 -6.4,-7.5 -13.4,-14.4 -20.9,-20.7 -3.5,-2.8 -7.2,-5.3 -11.1,-7.4 -1.4,-0.7 -3.6,-1.9 -4.9,-2.5 -4.7,-2.6 -9.7,-4.7 -14.9,-6.3 -8.2,-2.6 -7.8,-2.5 -10.9,-1.2 -6.9,2.9 -6.8,2.9 -11.9,7.8 -6.8,6.6 -10.4,11.4 -13.9,18.5 -2.3,4.8 -4.2,9.8 -5.6,14.9 -0.3,1.1 -1,3.8 -1.7,5.9 -2.1,6.8 -3,11.8 -5.6,32.4 -1.3,10.2 -1.3,10.4 -1.3,20.2 v 9.9 l 1,2.9 c 0.8,2.2 1.2,3 1.9,3.5 0.6,0.5 1.2,1 1.6,1.7 0.9,1.3 2.3,5.2 3.1,8.2 0.5,1.9 0.6,2.1 1.4,2.3 1,0.2 3.9,2.7 4.8,4.1 0.4,0.7 0.7,1.5 0.8,2.3 0.2,1.2 0.4,1.5 2,2.7 1.3,1 2,1.4 2.8,1.4 1.2,0 5.6,2.5 7,4 0.5,0.6 0.9,1.3 1.1,2.1 0.3,1.7 0.9,2.1 2.3,1.9 0.8,-0.1 1.7,0.1 2.4,0.6 0.9,0.6 1.8,1.1 2.8,1.5 0.9,0.4 1.7,0.9 2.4,1.5 0.9,1 2.5,1 4.2,0.1 0.8,-0.6 1.8,-0.6 2.6,-0.2 0.8,0.3 1.6,0.8 2.1,1.5 0.7,1 1.6,1.5 1.6,0.8 0,-0.7 3,-0.9 4.2,-0.1 0.6,0.4 0.8,0.4 1.6,-0.2 2.8,-1.9 6.1,-7.1 8,-12.4 l 1,-2.8 0.1,-7.1 c 0,-3.9 0.1,-7.4 0.2,-7.8 0.3,-2 -4.7,-2.6 -8.7,-1.1 -1.8,0.7 -3.5,1.6 -5.2,2.6 -4.7,2.8 -6.9,2.7 -8.3,-0.1 -1.4,-3.1 -0.1,-5.7 4.5,-8.6 4,-2.3 8.4,-3.7 12.9,-4.2 l 2.2,-0.2 -0.2,-1.4 c -0.4,-3.1 -5,-14.2 -5.9,-14.2 -0.7,0.1 -1.4,0.3 -2.1,0.5 -2.6,0.4 -5.2,0.6 -7.8,0.7 -7.6,0.3 -8.8,0.7 -12.6,4.1 -2.1,1.8 -3,2 -4.5,0.8 -1.2,-1 -1.2,-1.9 0,-3.8 2.7,-4.6 14.1,-10.4 20.3,-10.4 0.7,0 1.2,-0.1 1.2,-0.3 -0.2,-0.6 -0.5,-1.1 -0.8,-1.6 -0.4,-0.8 -1.1,-1.4 -1.9,-1.7 -1.8,-0.6 -4.9,-0.2 -7.9,1 -1,0.5 -2.1,0.8 -3.2,0.9 -1,-0.2 -1.6,-1.1 -1.6,-2.1 0,-1.7 0.7,-2.6 2.7,-3.5 2.9,-1.3 3.3,-1.6 3.3,-2.1 0,-0.3 -1.2,-1.4 -3.2,-2.8 -3.9,-2.6 -7.5,-5.6 -10.9,-8.9 -2.5,-2.4 -4.3,-3.9 -5.6,-4.5 -2.4,-1.2 -2.8,-1.9 -2,-3.6 0.8,-1.7 1.9,-2.9 2.6,-2.9 0.5,0.1 0.9,0.3 1.3,0.6 l 0.8,0.6 0.2,-2.3 c 0.4,-3.6 1.5,-7.1 3.3,-10.3 1.5,-2.9 2.2,-4 3.8,-5.5 0.7,-0.8 1.6,-1.5 2.6,-1.9 1.2,0 4,1.4 4.4,2.2 0.4,0.8 0.3,0.9 -1.6,2.7 -1.4,1.2 -2.5,2.7 -3.1,4.4 -1.9,4.1 -2.5,8.7 -1.6,13.1 0.5,3 1,3.7 3.9,6 2.5,1.9 5.1,3.6 7.8,5.2 0.1,-1.7 0.1,-3.5 0,-5.2 -0.2,-5.6 0,-6.9 1.4,-12.6 1.2,-4.7 4.3,-11.9 6.5,-14.6 0.9,-1.2 1.3,-1.4 2.1,-1.4 0.9,0 1.7,0.4 2.2,1.1 1.5,1.5 1.6,2.4 0.1,4.3 -1.6,2.2 -2.8,4.6 -3.5,7.2 -1,4.5 -1.5,9.1 -1.4,13.7 0.3,3.5 1,6.9 2,10.2 l 0.6,1.6 0.5,-0.7 c 1,-1.9 1.6,-4 1.8,-6.1 1,-7.5 1.8,-9.8 5.1,-13.9 3.6,-4.5 6.9,-7.1 9.4,-7.1 1.5,0.1 2.8,0.9 3.6,2.1 1.2,2 0.6,3.6 -2.8,6.5 -1.4,1.1 -2.5,2.4 -3.4,3.9 -1.2,2.9 -2.1,5.9 -2.6,9 -0.5,3.2 -1.2,6.3 -2.1,9.4 l -0.7,2 0.8,0.2 c 2.4,0.9 4.5,2.3 6.4,4 2.2,2.2 5.4,7.5 7.2,12 l 0.3,0.7 0.6,-0.7 c 0.3,-0.4 1.7,-2.9 3,-5.4 2.6,-5 4.7,-7.8 6.7,-8.6 2.1,-0.7 4.5,-0.5 6.5,0.4 1.9,0.9 2.6,1.8 2.6,3.5 0,1.7 -0.8,2.3 -3.1,2.5 -2.1,0.2 -3.9,1.4 -4.9,3.2 -0.6,1.1 -0.7,1.8 -0.7,3.8 0.1,5.9 0,6.4 -3.4,10.3 -4.5,5.3 -5.8,7.8 -6.1,12.1 -0.2,2.5 -0.1,2.6 0.4,2.4 1.7,-0.4 3.4,-0.7 5.2,-0.8 2.7,0 7.4,-2.6 10.2,-5.7 2,-2.2 4,-5.7 6.1,-10.8 2,-4.8 2.8,-6.3 5.8,-10 1.7,-2.4 3.9,-4.4 6.4,-5.9 2.6,-1.6 4.5,-1.4 6,0.5 0.9,1.3 0.8,1.9 -0.6,2.8 -2.3,1.5 -6.2,5.8 -8.1,8.7 -3.9,6.2 -4.3,10.2 -1.2,11.6 2,0.9 3.6,0.5 9.9,-2.6 5.5,-2.7 5.8,-2.8 8.3,-3 2.5,-0.2 2.6,-0.2 3.6,0.7 0.7,0.5 1.1,1.3 1.2,2.2 0.1,0.7 0.1,1.4 0,2.1 -0.2,0.8 -1.5,1.6 -3.7,2.1 -2.6,0.8 -5.2,1.8 -7.7,2.9 -7.5,3.1 -10.8,4.3 -15.8,5.6 -3.2,0.8 -6.3,2.1 -9.1,3.8 -1,0.6 -2.1,1.3 -2.4,1.4 -0.5,0.3 -0.5,0.4 0.5,2.2 0.6,1 1.3,2.3 1.7,2.8 0.7,0.9 3.1,2.7 3.3,2.4 0,-0.1 0.4,-0.8 0.8,-1.6 1.9,-3.1 4.2,-5.8 6.9,-8.2 1.6,-1.4 2.2,-1.7 3.1,-1.7 0.6,-0.1 1.2,0.2 1.6,0.7 0.6,0.8 0.5,0.9 -1.5,4.1 -0.6,0.7 -0.9,1.6 -1,2.5 0.2,1.3 1.6,0.9 7.8,-2.1 5,-2.4 5.9,-2.7 6.9,-2.6 0.6,0.1 1.3,0.3 1.8,0.7 2.2,1.9 1.1,3.2 -6,7.7 l -4,2.5 1.2,0.5 c 2.4,0.9 4.9,1.5 7.5,1.7 3.7,0 6.4,-0.8 11.7,-3.7 6.7,-3.6 11.7,-4.6 17.1,-3.5 3.8,0.7 5.8,1.5 6.8,2.5 0.7,0.8 0.8,1.1 0.8,2.6 0,1.3 -0.1,1.9 -0.6,2.4 -0.8,0.8 -0.7,0.8 -2.9,0 -4.8,-1.6 -10,-1.4 -14.6,0.6 -1.9,0.9 -3.7,2.5 -3.7,3.3 0,0.8 0,0.7 2.8,0 1.7,-0.4 3.5,-0.7 5.3,-0.8 1.8,-0.2 3.7,-0.1 5.5,0.4 2.1,0.4 4,1.3 5.6,2.7 0.6,0.7 0.7,0.8 0.4,1.9 -0.2,0.7 -0.5,1.3 -1.1,1.7 -0.7,0.4 -0.9,0.4 -2.7,-0.4 -3.2,-1.3 -7.7,-1.1 -13.3,0.7 -1.8,0.6 -2,0.8 -2,2.1 0,1.7 -0.8,3.2 -2.1,4.2 -1.5,0.7 -3.1,0.7 -4,-0.2 -0.6,-0.6 -0.7,-0.9 -0.5,-2.3 0.4,-1.7 -0.1,-3.6 -1.4,-4.8 l -0.9,-0.9 -5.1,-0.2 c -5.9,-0.2 -6.2,-0.3 -10.8,-2.9 -3.5,-2 -3.5,-2 -8.1,-1.5 -1.8,0.2 -2.8,0.4 -3,0.7 -0.4,0.5 -0.9,0.8 -1.4,1.1 -0.6,0.4 -2.2,1.6 -3.6,2.7 -3.3,2.8 -7,4.9 -11.1,6.4 -2.9,1 -3.3,1 -7,1 -1.5,-0.1 -3,0 -4.4,0.3 -1.1,0.7 -0.8,2.7 0.6,4.2 1.9,1 3.9,1.8 6,2.1 1,0.3 1.9,0.6 2.8,1.1 1.9,0.9 2.9,1.7 6.6,5.3 2.4,2.3 4.4,4.2 4.5,4.2 0.9,-0.5 1.7,-1.2 2.5,-1.8 2.2,-1.8 2.3,-1.8 2.1,-2.9 -0.3,-1.5 -0.8,-2.3 -2.9,-4.6 l -1.9,-2.1 0.1,-1.6 c -0.1,-0.9 0.4,-1.8 1.1,-2.4 0.6,-0.5 1.3,-0.8 2.1,-0.8 1.4,0 1.9,0.4 1.9,1.6 0,0.7 0.4,1.3 2.1,2.8 2.9,2.6 3.5,3.9 3.3,6.6 l -0.2,2.1 0.9,-0.9 c 0.6,-0.8 1,-1.7 1.2,-2.6 0.5,-2 1.4,-3.5 2.4,-3.6 2.1,-0.3 3.1,0.9 3.1,3.9 0.1,3.2 -1.7,6.1 -4.6,7.4 -1.1,0.6 -2.4,0.8 -3.6,0.7 -2,0 -2.2,0.1 -2.7,0.7 -0.4,0.4 -0.4,1 -0.2,1.5 0.3,0.6 0.6,0.7 1.5,0.7 0.9,-0.1 1.7,-0.3 2.5,-0.6 1,-0.4 2,-0.6 3.1,-0.6 3.1,0.1 3.4,0.1 4.1,-0.6 0.6,-0.7 1.2,-1.4 1.6,-2.2 1,-1.8 1.2,-2 2.3,-2 1.6,0 3.9,2.7 3.9,4.6 0,0.8 -1.2,2.7 -2.3,3.6 -0.5,0.4 -1,0.7 -1.6,0.9 l -1.1,0.4 1.1,0.7 c 2.2,1.4 3,2.4 3,3.5 -0.1,1.4 -0.8,2.6 -2,3.3 -1.4,0.7 -2.7,0.2 -5.2,-2.2 -1.3,-1.2 -2.7,-2.4 -3.1,-2.7 -1.4,-0.6 -3.1,-0.6 -4.5,0 -1.5,0.9 -1.3,1.3 1.4,2.6 1.4,0.7 3.1,1.6 3.7,2 2.4,1.6 5,2.7 7.8,3.5 4.7,0.8 9.5,-0.2 12.2,-2.5 2.7,-2.3 5.8,-7.5 7.6,-12.6 0.6,-1.7 0.9,-3.5 1,-5.3 0.1,-1.9 0.5,-3.8 1.2,-5.5 1.9,-4.6 6.6,-10.2 8.6,-10.2 1.4,0 3.5,1.7 3.7,2.9 0.1,0.9 -0.1,1.2 -1.7,2.8 -1.2,1.1 -2.1,2.4 -2.8,3.8 -1.6,3.3 -2.5,6.2 -2.5,8 0,2 0,2 4.2,0.6 5,-1.7 8.9,-1.7 10.1,0 0.3,0.6 0.5,1.3 0.6,2 0.2,1.3 0.1,1.4 -0.9,2.4 -0.8,0.8 -1.8,1.2 -2.9,1.2 -9.1,1 -11.3,2.1 -15.2,7.8 -4.3,6.2 -6.5,8.3 -10.9,10.4 -3.8,1.8 -4.9,2 -9.7,1.9 -3.9,-0.1 -4.6,-0.2 -7,-1.1 -1.5,-0.5 -4.1,-1.6 -5.8,-2.4 -1,-0.6 -2.1,-1 -3.3,-1.3 -0.2,0.2 0.8,2.6 1.3,3.3 0.3,0.4 0.8,0.6 1.9,0.6 2.8,0.1 6.7,2.6 7.6,4.9 0.3,0.9 0.5,1.9 0.6,2.9 l 0.1,1.6 2.1,0.8 c 3.8,1.1 7.6,2 11.5,2.5 2.3,0.3 4.5,0.9 6.6,1.8 5.4,2.1 8.4,2.5 18.6,2.4 8.2,-0.1 8.5,-0.1 9.4,-0.8 1.3,-0.9 2.9,-1.2 4.4,-0.8 0.6,0.3 1.4,0.3 2,0 1.9,-0.8 4.6,-0.2 5.3,1 0.2,0.4 0.6,0.6 1.3,0.6 0.5,0 0.9,0.1 1.4,0.2 0.8,1.2 9.1,0.9 11.6,0.5 z m -141.9,-4.3 c 4.7,-1.5 7,-3 7,-4.4 0,-1 -0.5,-0.8 -1.2,0.2 -1.4,2.5 -2.4,3 -7.1,3.5 -2.6,0.3 -5.5,1.2 -5.5,1.8 0,0.6 3.3,0.1 6.8,-1.1 z m 51,-1.1 c -0.4,-0.6 -0.9,-1.1 -1.5,-1.5 l -0.2,1.4 -0.2,1.4 1.4,0.1 c 0.6,0 1.1,0.1 1.7,0.2 -0.3,-0.6 -0.7,-1.1 -1.2,-1.6 z m -56.4,-0.8 c 1.4,-0.5 2.8,-0.8 4.3,-0.9 3.4,-0.3 4.3,-0.6 4.8,-1.8 0.6,-1 1.3,-2 2.2,-2.8 2,-2 1.9,-1.9 1,-5.2 -0.4,-1.4 -1.7,-3.1 -2.3,-3.1 -0.5,0.4 -1,0.9 -1.4,1.4 -2,2.6 -3.3,3.5 -7.6,5 -1.1,0.4 -2.1,1 -3,1.7 -1.1,1 -1.2,1.2 -1.4,3 -0.3,3.4 0.5,4 3.4,2.7 z m -5.6,-2.6 c 0.3,-4.6 0.3,-4.6 -0.8,-5.1 -0.7,-0.3 -1.3,-0.8 -1.8,-1.3 -0.9,-0.9 -3,-6.1 -3,-7.3 -0.2,-0.8 -0.5,-1.5 -0.9,-2.1 -0.7,-1.1 -1.1,-1.4 -1.8,-1.4 -1.2,0 -2,-0.6 -3.7,-3.1 -1.9,-2.7 -2,-3.1 -1.4,-4.5 0.4,-1 0.4,-1.2 -0.1,-2 -0.5,-0.8 -0.7,-0.9 -1.5,-0.8 -1.3,0.1 -2.5,-1.3 -2.5,-2.9 v -1.2 l -1.6,0.2 c -1.5,0.2 -1.7,0.1 -2.6,-0.6 -0.8,-0.7 -1.5,-1.4 -2.1,-2.2 -1,-1.3 -1.1,-1.6 -0.9,-2.6 0.1,-0.5 0.1,-1.1 0,-1.6 -0.2,-0.4 -0.3,-0.4 -1.1,0 -0.4,0.2 -0.8,0.3 -1.2,0.4 -1.3,-0.2 -2.5,-1 -3.2,-2.2 -0.6,-0.8 -0.9,-1.8 -0.8,-2.8 0.1,-1.9 -0.3,-2.2 -1.9,-1.1 -1.7,1.1 -3.9,0.8 -5.2,-0.7 -0.2,-0.3 -0.6,-0.5 -0.9,-0.6 -0.3,0 -0.2,2.3 0.4,8.1 0.9,9 1.1,22.8 0.5,27 -0.3,1.7 0,1.9 3.4,2.3 2.9,0.3 4.8,1.2 6.1,2.7 1.4,1.7 5.2,3.8 9.6,5.4 2.5,0.9 12.9,2.4 17,2.5 h 2 z m 76.6,-1.4 c -0.2,-1.3 -1,-2.5 -2.2,-3.1 -1.2,-0.8 -3.6,-1.8 -3.9,-1.5 -0.5,0.5 4.8,5.8 5.9,5.8 0.3,-0.1 0.3,-0.4 0.2,-1.2 z m -69.5,-5.6 c 2.5,-0.9 4.6,-2.5 6,-4.7 0.9,-1.3 0.7,-2 -0.3,-1.2 -0.3,0.2 -1.6,0.9 -2.8,1.6 -1.8,0.9 -3.4,2.1 -4.8,3.5 -0.9,0.8 -1.7,1.7 -2.5,2.6 0,0.1 0.4,-0.1 1,-0.4 1.1,-0.5 2.2,-1 3.4,-1.4 z m -2.9,-2.5 c 1.6,-1.5 3.3,-2.7 5.2,-3.7 1.2,-0.6 2.4,-1.3 3.5,-2.1 l 1,-0.8 -0.8,-1.5 c -1.3,-2.5 -1.7,-2.5 -3.7,-0.1 -1.8,2.1 -3.3,3.4 -4.6,3.8 -1.2,0.4 -2.4,-0.1 -3,-1.2 -0.5,-1.2 0.3,-2.8 2.8,-5.5 0.9,-0.9 1.8,-2 2.4,-3.2 0.5,-1.4 0.3,-2.3 -0.5,-2.4 -0.5,-0.1 -1,0.5 -2.4,2.5 -1,1.4 -2.9,3.9 -4.3,5.5 -1.4,1.6 -2.7,3.2 -3,3.4 -0.3,0.4 -0.3,0.7 0.3,1.9 0.5,1 0.8,2 1.1,3 0.5,1.9 0.6,2 3,2.7 0.3,0.1 1.5,-0.9 3,-2.3 z m 84.9,-0.6 c 1.5,-0.4 2.9,-1 4.2,-1.7 2.4,-1.4 5.5,-4.7 8.4,-8.8 1.1,-1.6 2.3,-3.2 3.6,-4.6 2.6,-2.5 6.8,-4.1 11.9,-4.6 1.1,-0.1 2.2,-0.3 3.3,-0.5 0.1,-0.3 0.2,-0.7 0.2,-1 -0.1,-0.6 -0.3,-0.7 -1.7,-0.8 -2.5,0 -5,0.5 -7.3,1.5 -3.6,1.3 -5.1,0.9 -5.5,-1.4 -0.7,-3.5 2.6,-12 5.6,-14.5 1.4,-1.2 1.4,-1.2 0.9,-1.8 -0.8,-0.9 -1.2,-0.7 -2.8,0.8 -3.4,3.4 -6,8.5 -6,11.8 -0.1,2.3 -0.6,4.7 -1.3,6.9 -1.6,4.2 -3.9,8.1 -6.6,11.7 -2.6,3.1 -7.5,4.9 -12.5,4.6 -3.6,-0.2 -5.5,-0.8 -9.1,-2.8 -4.3,-2.4 -7.1,-3.9 -7.3,-3.9 -0.2,0.7 -0.3,1.5 -0.2,2.2 v 2.2 l 2.5,1.2 c 5.6,2.7 8.9,3.8 12.6,4.3 2.4,0.2 4.8,-0.1 7.1,-0.8 z m -83.3,-6.9 c 2.3,-2.1 3.4,-3.5 3,-4.2 -0.3,-0.5 -0.5,-0.4 -2.2,1.4 -3.5,3.6 -4.1,5.8 -0.8,2.8 z m -7,-2.9 c 1.5,-1.8 2.9,-3.6 4.2,-5.5 l 1.3,-2 -0.9,-1.7 c -0.5,-0.9 -1.1,-1.9 -1.3,-2.3 -0.4,-0.6 -0.5,-0.6 -0.7,0.3 -0.7,4 -2.6,7.8 -5.4,10.8 l -1.7,1.7 0.7,1.1 c 0.4,0.6 0.8,1.1 0.8,1.1 0,0 1.4,-1.5 3,-3.5 z m 81.4,-0.4 c 0.6,-1 0.3,-1.4 -1.5,-2.7 -3.4,-2.3 -3.6,-3.7 -0.5,-4.6 1.7,-0.5 3.3,-1.9 3.3,-3 0,-0.7 -1.2,-2.5 -1.6,-2.4 -0.2,0 -0.7,0.8 -1.3,1.7 -0.6,0.9 -1.3,1.7 -2.1,2.3 -1,0.6 -1.3,0.7 -3.5,0.5 -2,-0.1 -2.6,-0.1 -3.6,0.4 -1.7,0.8 -4.1,1 -5.3,0.4 -1.3,-0.8 -1.9,-2.3 -1.6,-3.7 0.7,-2.3 1.9,-3 5,-3 2.8,0 4.1,-0.8 5.3,-3.2 0.6,-1 0.9,-2.1 0.8,-3.3 -0.2,-2 -0.7,-1.6 -1.5,1 -0.2,1.3 -0.9,2.5 -1.9,3.4 -2.2,2.1 -4.4,2 -4.4,-0.1 0,-0.7 0.1,-1.4 0.3,-2.1 0.5,-1.8 -0.1,-3.1 -2.7,-5.7 -1,-0.9 -1.9,-2 -2.6,-3.1 -0.2,-0.5 -0.3,-0.6 -0.7,-0.3 -0.9,0.7 -0.5,2 1.2,3.8 1.4,1.2 2.4,2.9 2.9,4.7 0.6,2.1 0.1,3 -2.9,5.2 -3,2.2 -2.9,1.9 -0.3,4.8 0.9,1 1.7,2 2.4,3.1 0.4,0.7 0.8,1.4 1.3,2 l 0.7,0.8 0.6,-0.6 c 1.3,-1.4 4.5,-1.9 6.7,-1 1.3,0.8 2.5,1.7 3.6,2.8 0.9,0.9 1.9,1.7 3,2.4 0.4,0.1 0.8,-0.1 0.9,-0.5 z m -85.5,-1.7 c 2.3,-2.4 3.8,-5.4 4.4,-8.6 0.9,-4.2 0.8,-4.1 1.7,-5.1 1.2,-1.3 2.8,-2 4.6,-2 0.9,0 1.5,-0.1 1.7,-0.4 0.5,-0.8 0.7,-3 0.3,-5 -0.5,-3.1 -0.4,-5.4 0.3,-7.1 0.5,-1.2 0.6,-1.5 0.3,-1.9 -1.2,-1.4 -3.5,0.7 -4.7,4.5 -1,3.1 -1.5,4.1 -2.5,5.2 -1,1.1 -1.8,1 -3.2,-0.3 -1.7,-1.6 -1.6,-2.4 0.5,-6.5 0.7,-1.1 1.2,-2.3 1.5,-3.6 -0.2,-0.4 -5,-2.7 -5.3,-2.4 0,0.9 0,1.9 0.2,2.8 0.6,4.5 0.5,8.8 -0.4,11.1 -1.5,4.2 -3.4,6.6 -6.2,8 -2.6,1.3 -3.2,1.8 -3.2,2.8 0,0.5 0.1,0.9 0.3,0.9 0.9,-0.5 1.7,-1 2.5,-1.7 3.1,-2.3 4,-2.6 5.3,-2 1.5,0.5 2.2,2.1 1.7,3.6 -0.8,1.8 -2.2,3.3 -3.9,4.3 -0.7,0.3 -1.3,0.8 -1.8,1.3 -0.5,0.5 -0.5,0.6 0.1,1.4 0.5,0.6 1.1,1.3 1.7,1.8 1.4,1.2 2,1 4.1,-1.1 z m 58.7,-3.6 c 1.2,-0.9 2.4,-1.6 3.7,-2.2 l 1.7,-0.8 -1.3,-1.7 c -2.8,-3.7 -3.3,-3.9 -6.3,-2.2 -2.1,1.2 -5.3,4.2 -5.3,4.8 0,0.8 2.3,4.2 3.2,4.8 l 0.9,0.5 0.7,-0.9 c 0.4,-0.4 1.6,-1.4 2.7,-2.3 z m 2.9,1.4 c 1.1,-0.4 2.2,-0.7 3.3,-0.9 l 2,-0.3 -0.7,-0.8 -0.7,-0.8 -2.1,1.1 c -1.2,0.6 -2.3,1.3 -3.4,2.1 -0.7,0.6 -0.9,0.9 -0.5,0.6 0.6,-0.4 1.4,-0.7 2.1,-1 z m -65.2,-4.3 c 1.5,-1.5 1.8,-2.3 1,-3 -0.4,-0.3 -0.8,-0.2 -2.2,0.8 -0.9,0.6 -1.8,1.3 -2,1.4 -0.3,0.4 0.7,2.2 1.3,2.2 0.7,-0.3 1.4,-0.8 1.9,-1.4 z m 52.2,-1 c 0.9,-2 1.5,-4.1 1.7,-6.3 -0.1,-1.5 -0.5,-3 -1.2,-4.4 -0.2,-0.5 -0.4,-0.9 -0.6,-1.4 -0.4,-1.2 -1,-1.4 -1.6,-0.4 -0.5,0.7 -1,1.5 -1.6,2.1 -1.5,1.5 -2.7,3.3 -3.4,5.3 l -0.7,1.9 2.3,1.6 c 3.2,2.4 4.3,2.8 5.1,1.6 z m 8.4,-5.4 1.2,-0.5 -1,-1.1 c -1.7,-1.8 -3.7,-3.4 -5.8,-4.8 l -0.8,-0.4 0.8,1.8 c 0.9,2.2 1.1,4.7 0.6,7 l -0.3,1.3 2,-1.4 c 1,-0.7 2.1,-1.4 3.3,-1.9 z m -62.7,-1.5 c 1.1,-1 2.8,-4.4 3.5,-6.8 0.5,-1.7 0.5,-2.4 0.2,-5.8 -0.5,-5.6 -0.7,-6.5 -1.1,-6.5 -0.4,0 -0.7,0.5 -1,3.6 -0.6,5.4 -2.4,10.6 -5.2,15.2 -0.8,1.1 -1.4,2.2 -1.9,3.4 1.9,-0.8 3.8,-1.9 5.5,-3.1 z m -7.4,1.2 c 3.8,-5.1 5.6,-9.6 6.7,-16.9 0.3,-2.2 0.7,-4.2 0.8,-4.5 0.3,-1.2 0.2,-2.5 -0.3,-3.6 -0.7,-1 -4.6,-3.2 -5.2,-3 -0.3,0.1 -0.5,0.6 -0.5,1.5 0,2.7 -1.8,6.5 -6,12.6 -1.9,2.8 -3.3,4.3 -4.7,5.2 -0.4,0.2 -0.6,0.6 -0.7,1 0,0.7 1.8,2.5 2.1,2.1 0.6,-0.9 1.1,-1.8 1.6,-2.8 1.6,-3.1 4.2,-6.4 5.3,-7 1.7,-0.9 3.8,-0.2 4.7,1.5 0.3,0.5 0.4,1.1 0.4,1.7 0,2.2 -1.3,4.2 -4.6,7.3 -3.5,3.2 -3.7,3.7 -2.1,5.3 0.4,0.4 0.8,0.7 1.2,1 0.2,0 0.7,-0.7 1.3,-1.4 z m 52.2,-0.5 c 0.1,-0.4 0.4,-1.9 0.8,-3.5 0.7,-3.1 0.6,-7.1 -0.2,-8.6 -0.2,-0.4 -0.3,-0.9 -0.4,-1.4 0,-0.5 -0.1,-0.6 -0.5,-0.3 -0.6,0.5 -0.6,1.4 0.2,2.5 1.3,2 0.1,3.1 -3.3,3 -1.7,-0.3 -3.4,0.6 -4.2,2.1 -0.7,1.1 -0.8,4.2 0,4.9 1.6,1.2 3.5,1.9 5.5,1.9 1.8,0.2 2,0.1 2.1,-0.6 z M 337,329.8 c 3.5,-0.5 4.1,-1.7 2.3,-4.3 -1.4,-1.8 -2.5,-3.8 -3.3,-6 -0.2,-0.8 -0.5,-1.5 -1,-2.2 -0.7,-0.6 -1.8,-0.7 -2.1,-0.3 -0.4,0.6 -0.3,3.8 0.1,6.1 0.3,1.4 0.3,2.8 0,4.2 -0.2,0.9 -0.3,1.7 -0.2,2.6 0.2,0.3 1.4,0.3 4.2,-0.1 z M 301.4,324 c 2.1,-2.2 2.8,-4.3 1.8,-5.3 -0.3,-0.3 -0.6,-0.5 -0.9,-0.6 -1,0 -3.7,3.4 -5.4,6.8 -0.8,1.5 -0.8,1.8 -0.4,2.4 l 0.4,0.7 1.8,-1.5 c 0.9,-0.7 1.8,-1.6 2.7,-2.5 z m 41.9,3 c 0,-1.8 2.1,-4.6 3.9,-5.3 0.9,-0.3 1.8,-0.4 2.7,-0.4 h 1.7 l -0.5,-1.1 c -0.6,-1.3 -0.3,-2.9 0.7,-3.9 1.2,-1.6 0.9,-4 -0.8,-5.8 -0.5,-0.6 -0.9,-1.3 -1.2,-2 -0.7,-1.7 -1.1,-2 -1.4,-0.9 -0.2,0.8 0.2,1.6 2.1,3.8 0.6,0.7 0.7,1.2 0.7,2.8 0,2.6 -0.8,4 -3.2,5.8 -3.3,2.4 -5,2.5 -8.3,0.3 -1.5,-1 -1.6,-1 -1.4,-0.4 0.7,1.5 1.5,2.9 2.5,4.2 0.5,0.7 1,1.5 1.3,2.3 0.7,1.5 1.2,1.8 1.2,0.6 z m 15.6,-1.8 c 0.9,-1.1 0.9,-1.1 -0.8,-1.8 l -1.2,-0.5 v 1.7 c 0,0.8 -0.1,1.7 -0.2,2.5 l -0.2,0.9 0.8,-0.9 c 0.4,-0.5 1.1,-1.4 1.6,-1.9 z m -27.9,1.5 c 0.1,-0.8 0.1,-1.6 0,-2.4 -0.1,-0.9 -0.3,-2.8 -0.4,-4.1 -0.1,-1.6 -0.3,-2.5 -0.6,-2.6 -0.8,-0.3 -1.1,1 -0.9,3.8 0.3,5.1 0.5,6.1 1.1,6.1 0.3,0.1 0.6,-0.2 0.8,-0.8 z m -11.3,-4.3 c 0.4,-0.8 0.8,-1.6 1,-2.4 0.2,-0.9 0.5,-1.8 0.9,-2.7 0.5,-1.2 0.5,-1.3 0,-1.3 -0.5,0 -3.4,5.2 -3.4,6.3 0,1.4 0.7,1.5 1.5,0.1 z m -26.2,-3.1 c 3.9,-4.8 7.1,-10.9 7.4,-13.9 l 0.2,-1.9 -1.4,-1.1 c -0.8,-0.6 -1.5,-1 -1.6,-0.8 -0.4,1 -0.6,2 -0.8,3 -0.8,3.8 -2.1,7.4 -3.9,10.8 -0.6,0.9 -1.7,2.4 -2.5,3.4 l -1.5,1.8 0.7,0.7 c 0.6,0.7 0.7,0.7 1.4,0.2 0.7,-0.7 1.4,-1.4 2,-2.2 z m -7.3,1.1 c 2.1,-1.7 3.9,-3.8 5.3,-6.1 2.1,-3.4 3.9,-9.4 4.5,-14.8 0.3,-1 0.1,-2.2 -0.4,-3.1 -0.9,-1.4 -2.2,-2.6 -3.7,-3.3 -0.7,-0.3 -0.9,-0.2 -1.7,1 -0.8,1 -0.9,1.4 -0.6,2.2 0.3,1.2 -0.4,4.6 -1.4,6.5 -1,1.5 -2.2,2.8 -3.5,4 -2.5,2.4 -3,2.7 -5.3,3.6 -1,0.4 -2.1,0.7 -3.2,0.9 -1.1,0 -1.1,0.3 -0.2,1.6 1,1.5 8.2,8.1 8.8,8.1 0.5,-0.1 1,-0.3 1.4,-0.6 z m 59.6,-1.4 c 2.4,-1.5 3.4,-2.9 3.4,-5 -0.1,-1 -0.5,-1.8 -1.2,-2.5 -1.6,-1.8 -2,-3.1 -1.6,-4.6 0.4,-1.5 1.3,-2.2 2.6,-2 1.5,0.2 1.8,0.6 2.4,2.3 0.3,0.8 0.7,1.6 1.2,2.3 0.5,0.6 0.9,1.2 1.3,1.9 l 0.6,1.1 0.4,-1 c 2.3,-6.2 3.4,-11.4 3.4,-16.4 0,-3.7 -0.6,-9.8 -0.9,-9.8 -0.4,0.4 -0.8,0.8 -1.2,1.3 -1.3,1.7 -2.5,2.3 -4.4,2.1 -0.9,0 -1.7,-0.4 -2.4,-0.9 -0.5,-0.4 -1,-0.7 -1.1,-0.5 -0.2,2.1 -0.2,4.2 -0.1,6.3 0.1,5.8 0,6.1 -0.8,8.6 -1.7,5.1 -5,11 -7.6,13.3 l -1.2,1.1 0.7,0.8 c 1.1,1.1 3.3,2.4 4.2,2.4 0.8,0 1.6,-0.3 2.3,-0.8 z m 71.5,-4 c 0.5,-0.5 1,-3.8 0.7,-5.4 -0.2,-0.9 -0.5,-1.7 -0.8,-2.5 -1.1,-2.4 -0.7,-4.2 1.4,-6.2 2.6,-2.5 7.1,-3.7 13.6,-3.8 3.8,0 4.3,0 5.5,0.6 0.5,0.3 1,0.5 1.5,0.6 0.1,-0.1 0,-0.5 -0.2,-0.9 -0.5,-1.2 -3.6,-2 -8.4,-2.2 -4.8,-0.2 -6.9,0.3 -11.3,2.7 -6.7,3.6 -8.5,4.2 -12.7,4.5 -3.7,0.2 -7.5,-0.6 -10.8,-2.3 l -2.7,-1.3 h -6 c -6.7,0 -7.1,-0.1 -9.8,-2.1 -1.9,-1.4 -3.4,-3.3 -4.3,-5.4 l -0.9,-1.8 -1.1,0.6 c -0.6,0.3 -2.5,1.1 -4.2,1.7 -1.4,0.5 -2.7,1 -4,1.7 l -0.9,0.6 1.5,0.5 c 2.4,0.8 4.6,2.1 6.4,3.8 4,3.4 6.7,4.1 12.4,3.4 5,-0.6 8.7,-0.6 10.8,0.1 1.6,0.6 3.1,1.2 4.6,2 3.8,1.8 4.7,2 8.1,1.4 1.4,-0.4 2.8,-0.4 4.2,-0.1 3.1,0.7 6,3 6.7,5.4 0.3,1.4 0.3,2.8 -0.2,4.1 -0.2,0.8 0.2,1 0.9,0.3 z m -49.2,-2.4 c 2.3,-0.8 3.6,-1.7 8.3,-5.4 l 3.3,-2.6 -1.9,-0.3 -1.9,-0.3 -1.2,1.1 c -1.6,1.5 -3.5,2.8 -5.6,3.7 -2.4,1.2 -5,1.8 -7.7,1.6 l -2.5,-0.1 -0.9,1.5 -0.9,1.5 1.7,0.1 c 3.1,0.4 6.3,0.1 9.3,-0.8 z m -96,-3.2 c 0.6,-0.5 1,-1.2 1.1,-2 1.2,-3.9 5.2,-8.2 10.3,-11.1 6,-3.4 6.4,-4.2 4.9,-9 -1.2,-3.8 -2,-5.5 -3.1,-6.6 -1.1,-1.1 -1.6,-1.1 -2.2,-0.1 -1,1.8 -2.4,2.6 -7.1,3.9 -3.6,0.9 -7,2.6 -9.8,5 -1.4,1.2 -2.9,2.3 -4.5,3.4 -1.8,1.2 -2.3,1.4 -3.9,1.5 -1.8,0.2 -3.7,-0.3 -5.2,-1.3 -0.6,-0.4 -1.1,-0.7 -1.1,-0.6 0.2,1.4 0.6,2.8 1,4.2 0.6,2.3 1.4,5.4 1.7,6.9 0.7,3.7 0.7,3.6 1.3,3.4 2.6,-1.1 7.4,-1.4 9.5,-0.5 0.9,0.4 1.7,0.9 2.5,1.5 2.5,1.9 3.4,2.2 4.6,1.4 z m 6.7,-1 c 3.2,-1.4 5.8,-3.8 7.5,-6.8 1,-1.9 1.6,-5 1.1,-5 -0.8,0 -7,4.1 -8.5,5.6 -1.7,1.8 -3,3.9 -3.7,6.3 -0.2,0.9 -0.1,0.9 0.7,0.8 0.4,-0.1 1.7,-0.5 2.9,-0.9 z m 143,-0.1 c 3.8,-1.8 9.1,-1.9 14.9,-0.1 1,0.3 0.9,-0.2 -0.2,-0.8 -1.9,-1.1 -5.2,-1.7 -9.4,-1.7 -5.7,0 -7.9,0.9 -7.1,2.8 0.3,0.6 0.4,0.6 1.8,-0.2 z m -54.2,-1.4 c 2.3,-1.1 5.5,-3.4 5.1,-3.6 -0.1,-0.1 -1.1,-0.5 -2.2,-1.1 -1.4,-0.7 -2.8,-1.6 -4.1,-2.5 -1.1,-0.8 -2.4,-1.7 -2.8,-2 -0.9,-0.6 -2.5,-0.7 -2.5,-0.1 -0.2,2.9 -0.6,5.8 -1.2,8.7 l -0.6,2.1 2.9,-0.1 c 1.9,0.1 3.8,-0.4 5.4,-1.4 z m 35.1,-15.8 c 1.2,-0.9 2.2,-1.8 2.1,-2 -0.3,-0.8 -1.5,-0.5 -3.6,0.8 -1.1,0.7 -3.9,2.2 -6.2,3.3 -3.6,1.7 -4.3,1.9 -5.3,1.8 -1.4,-0.2 -2.3,-1.6 -2.3,-3.3 0,-1 0.3,-1.6 1.7,-3.5 0.6,-0.8 1.2,-1.6 1.7,-2.4 0,-1 -6.9,6.3 -8.3,8.7 l -0.9,1.7 0.7,0.2 c 1.8,0.2 3.5,0.2 5.3,0.2 1.8,0 3.7,0 5.5,0.2 0.8,0.2 1.4,-0.1 4.1,-1.9 1.9,-1.2 4.3,-2.9 5.5,-3.8 z m -142.3,0.4 c 1.3,-0.9 2.5,-1.8 3.7,-2.8 3.3,-3.1 7.4,-5.2 11.8,-6.2 3.4,-0.9 3.8,-1.1 3.3,-1.7 -0.3,-0.5 -0.8,-0.5 -4.4,-0.5 -4.5,0.1 -5.1,0.2 -9.1,2.7 -5.2,3.2 -10.4,3.9 -15.7,2.2 -0.5,-0.2 -1,-0.3 -1.6,-0.3 0.1,0.7 0.3,1.4 0.7,2 0.5,1.4 1.4,2.5 2.7,3.2 4.3,3 5.7,3.2 8.6,1.4 z m 108.2,-3 c 1.8,-0.8 3.5,-1.7 5.2,-2.7 3.9,-2.4 7.2,-4 9.9,-4.6 4.2,-1 8.3,-2.4 12.2,-4.1 5.6,-2.6 9.8,-4.3 12.6,-4.9 2.6,-0.6 2.6,-0.7 2.5,-1.5 l -0.1,-0.9 h -2.1 c -2.4,0 -2.8,0.2 -8.4,3.3 -4.1,2.3 -7.6,3.7 -9.7,3.7 -1.8,0 -3.5,-0.8 -4.5,-2.3 -0.9,-1.3 -0.8,-4.7 0.2,-8.3 1.3,-5 2.8,-7.2 8.1,-12 1.9,-1.7 3.4,-3.3 3.2,-3.5 -0.6,-1 -3.4,0.4 -5.8,3 -3.4,3.5 -5.1,6.4 -8.2,13.5 -2.3,5.3 -3.8,8 -6.3,10.8 -1.9,2.3 -4.3,4.2 -7.1,5.3 -1.7,0.7 -2.4,0.8 -5.3,0.8 -3.6,0.1 -4.9,0.4 -4.6,1.3 0.1,0.8 0.2,1.5 0.3,2.3 0.1,1 0.3,2.3 0.3,3 l 0.2,1.2 2.7,-1.3 c 1.5,-0.8 3.1,-1.5 4.7,-2.1 z m -40,-2.8 c 0,-1 -0.8,-1.8 -1.8,-1.8 0,0 0,0 0,0 h -0.1 c -1.6,0.2 -0.7,2.6 1,2.6 0.8,0.1 0.9,0 0.9,-0.8 z m 25.8,0.1 c 1.3,-1.4 1.6,-2 1,-3 -0.6,-1 -6.4,-5.5 -8.4,-6.5 -2.5,-1.2 -7.9,-0.7 -13.6,1.4 -1.7,0.6 -5.8,3.2 -6,3.7 -0.1,0.2 0.4,0.6 1.1,0.9 0.7,0.4 1.3,1 1.7,1.7 0.3,0.6 0.6,1 0.7,1 0.8,-0.4 1.6,-0.8 2.3,-1.3 1.4,-0.8 2.9,-1.6 4.4,-2.3 1.5,-0.7 3.1,-1.1 4.7,-1 3.2,0 5.1,0.9 8.1,3.8 0.8,0.9 1.7,1.6 2.7,2.2 0.3,0.2 0.9,-0.2 1.3,-0.6 z m -93.9,-2.5 c 1.5,-0.5 2.9,-1.2 4.2,-2 4.8,-2.8 4.7,-2.8 9.8,-3 3.5,-0.1 4.6,-0.3 4.8,-0.6 0.4,-1.4 0.4,-2.8 0,-4.2 -0.4,-1 -0.8,-0.9 -1.2,0.3 -1,2.8 -3.4,3.9 -8,3.6 -2.6,-0.2 -5.2,-0.8 -7.6,-1.8 -2.3,-0.9 -4.8,-0.9 -7.1,0 -2.8,0.9 -4.6,0.8 -5.8,-0.2 -1.5,-1.3 -0.6,-4.3 1.5,-5.1 1.3,-0.3 2.7,-0.5 4.1,-0.6 1.7,-0.1 4,-0.4 5.1,-0.6 2.8,-0.4 5.7,-0.6 8.5,-0.7 6.1,-0.3 7.7,-0.5 7.7,-1.2 0,-0.9 -0.8,-2.6 -1.3,-2.6 -1.2,0.2 -2.4,0.5 -3.5,0.9 -4.7,1.4 -9.6,1.8 -14.5,1.2 -6.7,-0.6 -13.4,-1.6 -20,-3 -1.8,-0.4 -2.2,-0.5 -2.5,-0.1 -0.6,0.6 0.2,1.9 4.2,7.1 2,2.7 4.6,6.3 5.8,8.1 l 2.1,3.3 2.4,0.8 c 1.3,0.4 2.6,0.8 3.9,1.1 2.5,0.3 5,0.1 7.4,-0.7 z m 97.7,-8.7 c 0.9,-2.6 2.3,-5 4.3,-6.9 1.2,-1.3 2.2,-2.6 3.2,-4 1,-1.7 1.1,-1.8 1.1,-5 0,-1.6 0.1,-3.3 0.5,-4.9 0.9,-3 4.7,-6.1 6.9,-5.7 1,0.1 1.1,0 0.5,-0.7 -0.7,-0.9 -1.8,-1.4 -3,-1.4 -1,0 -1.4,0.2 -3.4,2.1 -2,1.9 -2.4,2.5 -4.8,7.3 -1,2.1 -2.1,4.1 -3.3,6.1 -0.7,0.9 -2.5,1.9 -5.3,2.9 -0.9,0.4 -1.7,0.9 -2.4,1.5 -0.5,0.6 -1.2,1 -1.5,0.9 -0.6,-0.4 -1,-1 -1.3,-1.7 -0.4,-0.9 -1.5,-2.9 -2.3,-4.6 -2.4,-4.6 -5.2,-9 -8.3,-13.1 -2.7,-3.7 -4.9,-7.7 -6.5,-12 -1.2,-4 -1.8,-8.1 -1.9,-12.3 0,-4.4 0.6,-8.8 1.7,-13.1 0.7,-2.5 2.6,-6.4 3.6,-7.2 0.8,-0.7 0.8,-1.5 0,-2 -0.6,-0.3 -0.7,-0.2 -1.2,0.4 -0.9,1 -1.8,2.9 -3.6,6.9 -3,6.5 -4.2,13.6 -3.7,20.7 0.3,3.6 1.1,7 2.6,10.3 2.3,6 5.3,11.8 9.1,17 3.1,4.7 5.3,10 6.6,15.5 0.2,1.1 0.4,2 0.4,2.1 0.6,0.2 1.1,0.4 1.6,0.7 3.1,1.8 6.1,4 8.8,6.4 l 0.8,0.8 0.2,-2.7 c 0,-1.4 0.2,-2.9 0.6,-4.3 z m -83,-0.1 c 1,-0.8 1.4,-2.3 0.9,-3.5 l -0.4,-0.9 -4.8,0.2 c -6.4,0.2 -8.1,0.4 -10.8,0.9 -1.7,0.3 -3.4,0.5 -5.1,0.6 -2.5,0.1 -2.8,0.2 -3.4,0.9 -1.5,1.6 0.2,2.1 3.5,1 1.2,-0.4 2.4,-0.6 3.6,-0.8 1.6,-0.1 2.3,0 5.2,1 4.3,1.5 4.3,1.5 7.7,1.4 2.5,-0.1 2.9,-0.2 3.6,-0.8 z m -8.6,-10 c 2.8,-0.4 7.2,-1.8 7.2,-2.2 0,-0.4 -0.2,-0.4 -0.7,-0.2 -1.8,0.7 -7,0.9 -12,0.6 -6,-0.4 -19.4,-2.1 -20.8,-2.6 -1.2,-0.4 -1.9,-0.4 -2.1,0.2 -0.1,0.3 -0.2,0.7 -0.4,1 -0.2,0.4 0.4,0.6 3.3,1.1 11.4,2.2 20.3,2.9 25.5,2.1 z m 89.9,-3.4 c 0.7,-0.6 0.7,-0.7 0.3,-1.8 -1.5,-3.7 -3.5,-7.2 -5.8,-10.5 -1.7,-2.2 -5.3,-4.7 -7.1,-5 -0.8,-0.2 -1,0 -2,1.1 -1.2,1.5 -1.1,1.8 1.1,2.9 2.2,1.2 4.2,2.7 5.9,4.5 2,2.8 3.3,6 3.9,9.3 l 0.2,1.4 1.4,-0.6 c 0.8,-0.3 1.5,-0.7 2.1,-1.3 z m -42.7,0.1 c 2.5,-2.7 5.8,-4 11.2,-4.4 3,-0.2 9.5,-1.1 10.6,-1.4 0.5,-0.1 -0.5,-2 -1.7,-3.2 -0.6,-0.6 -0.8,-0.7 -2.5,-0.5 -3.1,0.3 -6.1,1.1 -9,2.4 -2.8,1.3 -5.5,3 -8,4.9 -1.5,1.3 -2.9,3.7 -2.2,3.7 0.6,-0.3 1.2,-0.8 1.6,-1.5 z m 36.4,-1.3 c -0.8,-3 -2.8,-6.4 -4.5,-7.8 -1.5,-1.2 -1.5,-1.2 -1,-0.3 0.3,0.5 1.1,1.9 2,3.2 0.9,1.3 2,3.4 2.7,4.6 0.4,0.8 0.8,1.5 1.3,2.2 -0.1,-0.1 -0.2,-0.9 -0.5,-1.9 z m -80.1,0.8 c 2.4,-0.4 5.1,-1.3 5.3,-2 0.1,-0.3 -0.2,-0.7 -0.8,-1.3 -0.8,-0.6 -1.1,-0.8 -1.7,-0.5 -2.6,1 -8,0.7 -10.1,-0.5 -1.3,-0.7 -2.1,-2 -2.2,-3.5 0,-1.9 2.1,-2.8 7.4,-3.5 4.8,-0.6 5.4,-0.7 6.6,-1.8 0.9,-0.8 1,-1.1 0.8,-1.8 -0.3,-1 -0.5,-0.9 -4.4,0.4 -3.3,1.1 -6.3,1.5 -11.3,1.5 -6.8,0 -16.7,-1.4 -18.9,-2.8 -1.5,-0.9 -2.8,-1.1 -3.9,-0.6 -1.4,0.6 -1.6,1.2 -1.6,6.1 0,4.5 0.3,5.4 2.1,6.5 1.5,0.9 4.6,1.7 8.5,2.2 15.1,1.9 20.1,2.3 24.2,1.6 z m 2.1,-5.7 c 1.1,-0.3 1.1,-0.4 1.2,-2.2 l 0.1,-1.9 -1.6,0.2 c -7.1,0.8 -8.9,1.2 -9.1,2.1 -0.3,1.9 5.5,3 9.4,1.8 z m 4.9,-4.5 c 0,-0.4 -0.1,-0.7 -0.3,-0.7 -0.2,0 -0.3,0.4 -0.3,0.9 0,0.5 0.1,0.8 0.3,0.7 0.2,-0.1 0.3,-0.4 0.3,-0.9 z m 47.2,-6.2 c 1.2,-0.3 2.4,-0.4 3.6,-0.4 0.6,0.1 1.2,0.1 1.7,-0.1 -1,-3 -2.2,-5.9 -3.7,-8.7 -0.5,-0.2 -6.7,-4.2 -8.9,-5.8 -1.8,-1.3 -3.4,-2.8 -4.7,-4.6 -0.7,-1.1 -1.3,-8.1 -0.9,-10.9 0.6,-4.1 2.6,-8.5 4.8,-10.8 l 1.4,-1.5 -0.8,-0.3 c -1.1,-0.4 -1.7,0 -3.2,1.8 -3.3,4.3 -5.6,10.7 -5.5,15.3 0.1,1.8 0,2.4 -0.4,2.6 -0.9,0.4 -1.9,0.3 -2.7,-0.3 -0.6,-0.3 -1.1,-0.6 -1.1,-0.6 0,0 -0.3,0.4 -0.6,0.9 l -0.5,0.9 1.8,0.9 c 1.8,1.2 3.5,2.5 5,4.1 2.6,2.6 5.5,5.1 8.5,7.3 5.7,3.9 7.1,5.1 7.1,6.5 0,1.1 -1.7,2.6 -3.7,3.3 -1.7,0.6 -2.9,1.6 -2.6,2.1 0.6,0 1.2,-0.2 1.7,-0.5 1,-0.4 2.6,-0.9 3.7,-1.2 z m -58.1,1 c 1.5,-0.2 2.9,-0.5 4.3,-1 1.9,-0.7 1.9,-0.7 2,-1.9 0.1,-1.2 0,-1.2 -0.4,-1.1 -1.2,0.5 -5.3,0.5 -7.3,0.1 -1.5,-0.3 -5,-0.4 -12.2,-0.4 -5.6,0 -10.5,-0.1 -11,-0.2 -0.8,-0.2 -1,-0.2 -1.3,0.6 -0.3,0.8 -0.3,0.9 1.1,1.5 3,1.3 4.9,1.7 14.4,2.7 3.5,0.3 7,0.2 10.4,-0.3 z m 11.5,-4.5 c 0,-0.8 0,-0.8 -0.6,-0.3 -0.7,0.9 -0.8,2.1 -0.2,3.1 0.4,0.5 0.4,0.5 0.6,-0.7 0.1,-0.6 0.2,-1.3 0.2,-2.1 z m 62.5,2.4 c 1.5,-2.9 2.7,-5.9 3.6,-9 0.4,-1.8 0.6,-3.7 0.8,-5.5 0.7,-7.5 2.3,-10.5 7.5,-13.8 0.7,-0.4 1.3,-1 1.8,-1.7 0.3,-0.6 0.3,-0.8 -0.4,-1.5 -1.8,-1.8 -4.8,-0.1 -8.7,4.9 -3.7,4.7 -4.1,5.7 -4.9,12.2 -0.5,4.2 -1.5,7.3 -2.8,8.9 l -0.9,1.1 1.5,2.7 c 0.5,1 1,1.9 1.7,2.7 0.3,-0.3 0.6,-0.6 0.8,-1 z m -104,-2.7 c 0.2,-0.2 0.4,-0.4 0.5,-0.7 -0.6,-0.6 -1.4,-1 -2.3,-1.1 -0.3,0.3 0.5,2.3 0.9,2.3 0.3,-0.1 0.6,-0.3 0.9,-0.5 z m 35.2,-1.1 c 1.1,-0.2 1.9,-0.5 2,-0.9 0.5,-0.5 1,-1 1.6,-1.4 1.2,-0.8 1.4,-1 1.5,-2.3 0.3,-2.5 -0.1,-4 -1.7,-5.6 -0.6,-0.5 -1.1,-1.1 -1.5,-1.8 -0.1,-0.4 -0.7,-0.3 -3,0.5 -4.7,1.4 -9.5,2.1 -14.4,2 -5.6,0 -7.4,-0.3 -13.8,-2.2 l -3.8,-1.1 -0.9,0.7 c -0.3,0.3 -0.8,0.6 -1.2,0.7 -0.7,0 -1.2,2.1 -1,4.2 0.3,2.5 0.5,3.1 1.5,3.1 1.4,0.2 2.5,1.1 3.2,2.3 0.5,1.1 0.6,1.1 5.3,1.5 2.8,0.2 5.5,0.2 8.3,-0.1 2.8,-0.3 5.5,-0.3 8.3,0.1 4.8,0.7 7.4,0.8 9.6,0.3 z m -6.8,-12.1 c 1.7,-0.3 3.3,-0.7 4.9,-1.2 l 2.3,-0.7 -0.1,-2 c -0.1,-1.1 -0.2,-2 -0.2,-2.1 -0.6,0 -1.2,0 -1.7,0.2 -6.2,1.4 -22,1.6 -26.4,0.4 -1.9,-0.5 -2.1,-0.5 -2.1,-0.1 -0.1,0.6 -0.4,1.2 -0.7,1.8 l -0.7,1.3 3.7,1.1 c 2.6,0.8 5.2,1.4 7.9,1.8 4.4,0.2 8.8,0 13.1,-0.5 z m 15,-7 c -0.1,-0.1 -0.3,0.1 -0.5,0.4 -0.5,1.3 -0.6,2.8 -0.1,4.1 0.3,0.6 0.4,0.3 0.5,-1.9 0.2,-0.8 0.2,-1.7 0.1,-2.6 z M 259.9,220 c 9,-0.7 12.6,-1.6 14.1,-3.4 0.8,-1 0.9,-1.2 0.8,-4.2 -0.1,-3.4 -0.2,-4.1 -0.8,-4.1 -0.6,-0.2 -1.1,-0.5 -1.6,-0.8 -1.2,-0.8 -1.2,-0.8 -4,-0.4 -1.5,0.2 -3.6,0.5 -4.6,0.7 -1,0.2 -4.6,0.3 -8.1,0.4 -6.9,0 -9.3,-0.3 -13.1,-1.8 -1.9,-0.7 -2.1,-0.8 -2.9,-0.4 -0.6,0.4 -1.1,1 -1.5,1.6 -0.9,1.5 -0.9,2 0,0.8 0.4,-0.5 0.8,-0.9 1.4,-1.1 1.2,-0.3 5.2,0.5 9.1,1.7 2.6,1 5.3,1.4 8,1.4 3.7,0.1 4.5,0.3 5.2,0.8 1.3,0.8 2.1,2.2 2.2,3.7 0,1.3 -1,3.3 -1.8,3.7 -0.8,0.4 -11.6,1 -13,0.7 -2,-0.6 -4,-1.5 -5.8,-2.6 -1,-0.6 -2,-1.1 -3.1,-1.5 -2.2,-0.9 -2.8,-1.3 -3.2,-2.8 -0.3,-0.9 -0.3,-0.9 -0.3,1 v 2.1 l 1.9,1.7 c 1.1,1.1 2.4,1.9 3.9,2.2 3.9,0.9 10.6,1.1 17.2,0.6 z m 0.3,-3.1 c 1.4,-0.2 1.9,-0.7 1.9,-2 0,-2 -1.1,-2.5 -5.3,-2.6 -2.8,0.1 -5.6,-0.4 -8.2,-1.5 -1.7,-0.6 -3.4,-1 -5.1,-1.4 -2.7,-0.5 -2.8,-0.5 -3.5,0 -0.5,0.4 -0.6,0.8 -0.5,1.7 0.1,1.3 0,1.2 3.2,2.6 0.8,0.4 2.8,1.3 4.3,2.1 l 2.7,1.4 4.6,-0.2 c 2,0.2 3.9,0.2 5.9,-0.1 z M 260,206.1 c 2.4,-0.2 5.5,-0.6 6.9,-0.9 1.1,-0.2 2.2,-0.4 3.3,-0.4 0.7,0 0.8,-0.1 0.8,-0.9 0,-1 -0.1,-1.1 -2.8,-0.5 -4.4,1 -22.2,1.4 -25,0.6 -1.8,-0.5 -1.7,-0.5 -1.7,-0.2 0,0.6 6.4,2 11.3,2.5 2.3,0.2 2.8,0.2 7.2,-0.2 z m 0.5,-4.3 c 6.7,-0.4 10.8,-1.5 12.6,-3.4 0.6,-0.7 0.9,-1.5 0.9,-2.4 0.2,-1.2 -0.1,-2.4 -0.9,-3.3 -0.6,-1 -1.2,-2 -1.7,-3 -0.5,-1 -0.8,-1.2 -1.2,-1.1 -1.7,0.7 -4.8,1 -10.9,1.2 -7.6,0.2 -11.7,-0.1 -16.1,-1.2 -3.3,-0.8 -3.1,-0.9 -4.3,1.4 -0.6,1.2 -0.8,3.3 -0.7,7 l 0.1,2 1.8,0.9 c 2.5,1.2 3.9,1.5 8,1.8 4.1,0.4 8.3,0.5 12.4,0.1 z m 4.4,-14.1 c 3.8,-0.4 5.1,-0.9 5.1,-1.9 V 185 l -2.5,0.2 c -5.1,0.3 -17.9,0.8 -19.8,0.8 -1.4,0 -2.7,-0.2 -4.1,-0.4 -2.2,-0.3 -2.5,-0.3 -2.3,0.4 0.1,0.4 5,1.5 7.4,1.8 2.1,0.2 13.5,0.1 16.2,-0.1 z m -5.1,-4.7 c 7.9,-0.3 11,-0.8 12.3,-2 1.3,-1.2 2,-3.6 2,-6.1 0,-2.2 0,-2.2 -1.1,-2.8 -0.7,-0.4 -1.3,-0.9 -1.8,-1.5 l -0.7,-0.9 -1.9,0.6 c -4,1 -8.1,1.7 -12.2,2 -2.5,0.1 -5,-0.1 -7.5,-0.6 -2.5,-0.4 -5.1,-1 -5.8,-1.2 -1.8,-0.6 -2,-0.6 -3,0.4 -1.3,1.2 -1.6,2 -1.6,5 0,3.8 0.2,4.7 1.2,5.1 0.7,0.3 1.3,0.6 1.9,1 2.3,1.4 3.6,1.6 7.5,1.4 2,-0.1 6.8,-0.3 10.7,-0.4 z m 2.8,-13.4 c 6.3,-1.1 9.6,-2.6 5.1,-2.3 -1.1,0.1 -2.9,0.3 -3.9,0.4 -4.6,0.4 -9.3,0.4 -13.9,0 -1.5,-0.2 -3.1,-0.4 -4.6,-0.4 -2,-0.1 -2.3,0 -2.4,0.4 -0.1,0.7 0.6,0.9 5.4,1.8 2.5,0.5 5.1,0.8 7.7,0.6 2.2,0 4.4,-0.2 6.6,-0.5 z m 5,-4.9 c 1.1,-0.2 2.1,-0.6 3.1,-1 1.8,-0.9 2.2,-1.9 2.4,-6.3 0.1,-2.8 0.1,-3.4 -0.3,-3.8 -0.5,-0.6 -0.8,-1.2 -1.1,-1.9 -0.2,-0.6 -0.5,-1.1 -0.9,-1.5 -0.5,-0.1 -1.1,0 -1.6,0.2 -1.3,0.3 -8.1,1.5 -12,2.1 -1.7,0.2 -3.5,0.3 -5.2,0.2 -2.4,0 -4.7,-0.5 -6.9,-1.4 -4.5,-1.4 -6.1,-1.7 -6.8,-1.2 -0.9,0.6 -1.2,3.7 -0.7,6.6 0.6,3.3 0.7,3.6 2.3,4.3 0.9,0.4 1.6,1.1 2,1.9 0.6,1.2 0.6,1.2 2.8,1.5 1.2,0.2 3.7,0.3 5.5,0.4 1.8,0 3.6,0.1 5.4,0.3 4,0.2 8,0.1 12,-0.4 z m -7.3,-14.8 c 1.3,-0.2 4,-0.7 6.1,-1.1 l 3.8,-0.7 v -1.6 c 0,-1.8 -0.1,-1.9 -3.2,-1.1 -2.8,0.7 -21.9,0.4 -25,-0.3 -0.9,-0.2 -0.9,-0.1 -1.3,1.9 -0.2,0.8 -0.1,1 0.4,1 1.1,0.2 2.2,0.5 3.3,0.9 5.1,1.7 5.5,1.8 9.8,1.6 2,0 4.1,-0.2 6.1,-0.6 z m 7.6,-7.6 c 1.3,-0.3 2.5,-0.7 3.7,-1.2 1,-0.5 1.1,-0.7 1.3,-2.1 0.3,-2.3 0.2,-4.7 -0.1,-7 -0.2,-0.6 -0.5,-1.1 -0.9,-1.6 -0.6,-0.5 -0.7,-0.5 -2.1,0.1 -4.2,1.7 -11,2.5 -16.9,1.8 -3.2,-0.2 -6.3,-1 -9.3,-2.2 -1.2,-0.5 -2.4,-0.9 -3.7,-1.1 -0.5,0 -1,0.5 -2,1.9 -1.3,1.9 -1.3,2 -1.3,4.6 0,2.9 0.2,3.4 1.8,5 2.4,2.5 3,2.6 16,2.4 9.9,0.1 11.2,0 13.5,-0.6 z m -2.4,-12.6 c 1.3,-0.3 2.5,-0.7 3.7,-1.2 1.2,-0.5 1.4,-0.7 1.2,-1.2 -0.2,-0.7 -0.1,-0.7 -2.4,-0.2 -3.8,0.9 -19.7,0.4 -25.8,-0.9 -1.8,-0.4 -2.6,-0.2 -2,0.4 0.6,0.6 9.3,3.2 11.4,3.5 4.6,0.6 9.3,0.4 13.9,-0.4 z m 3.4,-5.7 c 1.4,-0.3 2.8,-0.8 4.1,-1.4 0.6,-0.8 1.2,-3.5 1.4,-5.5 0.2,-2.2 0.1,-2.3 -0.8,-3.6 -0.8,-1.1 -1.1,-1.4 -1.7,-1.3 -0.4,0.1 -3.2,0.8 -6.3,1.6 -5.6,1.4 -5.7,1.4 -9.9,1.4 -4.6,0 -9.1,-0.8 -13.4,-2.3 -4.2,-1.6 -4.2,-1.6 -4.8,-0.8 -0.6,0.8 -0.7,4 -0.1,7.1 0.4,2.3 1.1,3.2 3.5,4.1 4,1.5 9.9,2.1 18.5,2 5.5,-0.3 5.7,-0.3 9.5,-1.3 z m -3.2,-12.4 c 3,-0.7 5.7,-1.4 5.9,-1.5 0.5,-0.1 0.4,-1.8 -0.1,-1.7 -4.1,0.5 -8.3,0.7 -12.5,0.7 -5.7,0 -15.9,-0.6 -18.2,-1 -0.9,-0.2 -1,-0.2 -1,0.7 0,0.9 0.2,1 2.5,1.9 3.3,1.3 6.8,2.1 10.3,2.3 4.8,0.4 7.1,0.2 13.1,-1.4 z m 0.7,-5.6 c 8.6,-0.6 8.6,-0.6 8.6,-6 0,-4.1 -0.2,-5.2 -1.2,-5.4 -1.4,0.1 -2.9,0.5 -4.2,1 -3.9,1.3 -8.1,2 -12.2,1.8 -4.9,0 -9.8,-0.6 -14.5,-1.9 -3.5,-1 -3.7,-1 -4.3,-0.5 -0.4,0.4 -1,0.7 -1.5,0.9 -1.1,0.5 -1.3,1.5 -0.9,4.5 0.2,1.7 0.3,1.8 2,3.3 0.9,0.9 2.1,1.6 3.4,1.8 4.6,0.9 16,1.1 24.8,0.5 z m 1.7,-12.1 c 1.2,-0.3 2.3,-0.7 3.4,-1.2 -0.1,-0.8 -0.3,-1.5 -0.8,-2.2 -0.1,0 -1.2,0.2 -2.5,0.4 -1.3,0.2 -5.3,0.6 -8.9,0.8 -4.1,0.3 -8.3,0.3 -12.4,-0.1 -2,-0.2 -4,-0.3 -6,-0.3 -0.4,0.2 -0.6,1.4 -0.2,1.5 0.2,0.1 1.6,0.5 3.1,0.9 4.5,1.3 7.6,1.6 14.6,1.5 l 6.3,-0.1 z m -5.4,-5.4 c 1.9,-0.2 4.7,-0.5 6.1,-0.7 2.3,-0.4 2.7,-0.6 3.7,-1.6 0.5,-0.5 1,-0.9 1.7,-1.2 0.4,0 0.5,-0.3 0.5,-1.9 0,-2.3 -0.3,-3.1 -1.5,-3.9 -0.8,-0.6 -1,-0.6 -1.5,-0.3 -1.5,0.4 -3,0.6 -4.5,0.6 -2.1,0 -4.3,0.4 -6.3,1 -2.6,1 -5.4,1 -8,0.2 -1.2,-0.3 -2.3,-0.6 -3.5,-0.8 -1.5,-0.2 -6.2,-1 -9.3,-1.7 -1.3,-0.3 -1.7,-0.3 -2.1,0.1 -0.8,0.6 -1.3,2.1 -1.5,4.3 -0.2,1.9 -0.2,2 0.8,3.2 1.4,1.7 3.4,2.7 5.6,2.8 3.2,0.2 15.7,0.2 19.8,-0.1 z m -2.2,-10.1 c 2.1,-0.7 4.3,-1.1 6.5,-1.1 3.5,-0.2 3.5,-0.2 3.5,-0.9 0.1,-0.4 -0.3,-0.8 -0.7,-0.9 0,0 0,0 0,0 h -0.1 c -1.9,-0.5 -3.8,-0.2 -7.9,1.1 -3.9,1.2 -4.3,1.3 -7.5,1.3 h -3.4 l 2.5,0.7 c 3.2,0.9 3.6,0.9 7.1,-0.2 z m -11,-1 c -1.2,-0.4 -2.3,-0.9 -3.4,-1.5 -2.5,-1.4 -3.4,-1.6 -5.1,-1.4 -1.4,0.2 -2,0.8 -1.4,1.3 0.9,0.4 1.9,0.6 2.9,0.7 1.4,0.3 3.6,0.6 4.7,0.9 3,0.6 4.1,0.6 2.3,0 z m 11.1,-3.2 c 3.7,-1.4 5.4,-1.6 10.1,-1.6 1.6,0.1 3.2,0 4.8,-0.2 1,-0.3 1.5,-2.2 1.4,-5.6 0,-5.6 -0.2,-6.5 -1.6,-8.1 l -1.2,-1.4 -1.3,1.1 c -4.5,3.5 -10.4,5.3 -17.9,5.3 -3.9,0 -7.8,-0.6 -11.6,-1.7 -2.4,-0.5 -4.6,-1.4 -6.6,-2.7 -1.6,-1.1 -1.8,-0.7 -2,4.2 l -0.2,4.1 1.4,1.1 c 0.8,0.6 1.5,1.4 2,2.3 l 0.6,1.2 h 2.8 c 1.8,-0.1 3.6,0.2 5.3,1 2.3,0.9 4.6,1.6 7,2.1 2.4,0.2 4.8,-0.1 7,-1.1 z M 232.5,63.9 c 0.1,-1 0.2,-1.9 0.1,-2.9 -0.8,0.5 -1.6,1.2 -2.2,1.9 l -2.1,2 1.5,0.9 c 2.4,1.5 2.5,1.4 2.7,-1.9 z m 47.8,1.8 c 0.7,-0.5 0.7,-0.8 -0.4,-2 l -0.9,-1 0.2,1.2 c 0.1,0.6 0.2,1.1 0.2,1.7 -0.1,0.7 0.1,0.7 0.9,0.1 z m -50.1,-5.4 c 1.8,-1.8 3.9,-3.2 6.2,-4.1 2.9,-1.3 6.8,-2.2 8.3,-1.8 1.1,0.1 2.3,0 3.4,-0.3 1.5,-0.1 3,-0.6 4.3,-1.4 1,-0.7 2.3,-1 3.5,-0.9 1.2,0 2.4,0.2 3.5,0.6 1.4,0.5 1.8,0.5 5.6,0.2 4.5,-0.4 5.4,-0.3 7.8,0.9 1.8,0.9 3.4,2.3 7.5,6.4 1.7,1.7 2.5,2.3 2.7,2 0.1,-0.9 0.1,-1.8 -0.1,-2.7 -0.3,-4.5 -0.2,-9 0.5,-13.5 0.8,-4.3 1.9,-8.5 3.2,-12.7 1.7,-4.1 3.2,-6.3 7.7,-11.1 l 3,-3.2 -0.8,-1.2 c -0.9,-1.6 -4.4,-5.2 -4.9,-5.2 -0.4,0.1 -0.7,0.3 -1,0.6 -1.1,1.1 -2.3,1.6 -4.6,1.6 -2.9,0 -4.2,-0.6 -7.9,-3.8 -3.2,-2.7 -4.1,-3.2 -6.4,-3.9 -2.8,-0.8 -3.6,0 -4.8,5.5 -1.6,6.9 -3.6,11 -7,14.4 -3.1,3 -4.6,3.4 -8.7,2.3 -1.8,-0.7 -3.3,-1.9 -4.2,-3.6 -1,-2.2 -1.7,-4.6 -1.8,-7.1 -0.3,-3.2 -0.8,-6.4 -1.5,-9.6 -0.3,-1.3 -1.5,-2.6 -2.4,-2.6 -1.1,0 -3.1,1.2 -5.4,3.1 -3.2,2.5 -6.7,4.6 -10.5,6 -3.1,1.2 -4.3,1.3 -6,0.9 -1.9,-0.5 -2.7,-1.3 -2.7,-2.7 0,-0.5 -0.1,-1.1 -0.5,-1.5 -0.4,-0.3 -0.6,-0.2 -1.3,0.5 -2.8,2.9 -4.4,5.7 -4.6,8 -0.3,3 -0.1,3.5 3.4,7 4.7,4.7 7.8,10.1 10.8,18.4 l 1.5,4.1 v 5.9 c -0.1,2.2 0,4.5 0.3,6.7 l 0.2,0.8 0.9,-0.8 c 1,-0.6 2,-1.3 2.8,-2.2 z m 30.6,1.1 c 3.8,-0.5 9.2,-2.8 11.1,-4.8 l 0.7,-0.7 -0.9,-0.4 c -1.5,-0.8 -2.7,-0.8 -5.6,-0.4 -3.8,0.6 -4.9,0.6 -7.9,-0.1 l -2.5,-0.6 -2.3,0.9 c -3,1.2 -4,1.3 -8.7,1.4 -3,0 -4.3,0.2 -5.3,0.6 -0.5,0.2 -0.9,0.4 -1.3,0.7 0.4,0.4 0.9,0.8 1.5,1 3.1,1.1 6.3,2 9.6,2.5 3.9,0.3 7.7,0.3 11.6,-0.1 z"
           class="st11"
           id="path760"
           inkscape:connector-curvature="0" /></g></g></g></svg>
