<?xml version="1.0" encoding="UTF-8" standalone="no"?>
<svg
   xmlns:dc="http://purl.org/dc/elements/1.1/"
   xmlns:cc="http://creativecommons.org/ns#"
   xmlns:rdf="http://www.w3.org/1999/02/22-rdf-syntax-ns#"
   xmlns:svg="http://www.w3.org/2000/svg"
   xmlns="http://www.w3.org/2000/svg"
   xmlns:xlink="http://www.w3.org/1999/xlink"
   xmlns:sodipodi="http://sodipodi.sourceforge.net/DTD/sodipodi-0.dtd"
   xmlns:inkscape="http://www.inkscape.org/namespaces/inkscape"
   id="svg90"
   xml:space="preserve"
   style="enable-background:new 0 0 636.6 573.1;"
   viewBox="0 0 636.6 573.1"
   y="0px"
   x="0px"
   version="1.1"
   sodipodi:docname="lung.alveoli_section.svg"
   inkscape:version="0.92.2 5c3e80d, 2017-08-06"><sodipodi:namedview
     pagecolor="#ffffff"
     bordercolor="#666666"
     borderopacity="1"
     objecttolerance="10"
     gridtolerance="10"
     guidetolerance="10"
     inkscape:pageopacity="0"
     inkscape:pageshadow="2"
     inkscape:window-width="1280"
     inkscape:window-height="756"
     id="namedview66"
     showgrid="false"
     inkscape:zoom="0.56208577"
     inkscape:cx="383.49081"
     inkscape:cy="269.28283"
     inkscape:window-x="29"
     inkscape:window-y="20"
     inkscape:window-maximized="0"
     inkscape:current-layer="Outline"
     inkscape:document-rotation="0" /><metadata
     id="metadata96"><rdf:RDF><cc:Work
         rdf:about=""><dc:format>image/svg+xml</dc:format><dc:type
           rdf:resource="http://purl.org/dc/dcmitype/StillImage" /><dc:title /></cc:Work></rdf:RDF></metadata><defs
     id="defs94" /><style
     id="style2"
     type="text/css" /><g
     id="LAYER_EFO"
     style="display:inline"><g
       style="display:inline;fill:none;fill-opacity:1"
       id="EFO_0010668"
       inkscape:label="EFO_0010668"><desc
         id="desc925">lung capillary endothelial cell</desc><title
         id="title923">lung capillary endothelial cell</title><g
         style="fill-opacity:1"
         id="g6"><path
           style="fill-opacity:1"
           id="path4"
           d="m 62.2,484.4 c 0,2 1.4,3.9 3.3,4.6 1.9,0.7 4.2,0 5.4,-1.6 1.2,-1.5 1.4,-3.6 2.1,-5.5 2.2,-5.8 8.8,-8.5 14.9,-9.8 10.2,-2.2 22.1,-1.8 29.6,5.5 3.5,3.4 5.6,7.9 8.3,11.9 6.4,9.5 16.5,16.4 27.6,19 3.4,0.8 7,1.2 10.3,2.4 10.1,3.4 17.4,13.2 19.2,23.7 1.3,7.4 -1.7,16.1 -8.1,19.9 -2.8,1.7 -4.8,2.2 -8,2.7 -9,1.3 -18.5,2.4 -27,-0.8 -3.6,-1.4 -6.9,-3.6 -10.2,-5.7 -9.6,-6.3 -19.2,-12.6 -28.8,-18.9 -7,-4.6 -14,-9.2 -19.5,-15.5 -5.5,-6.2 -9.4,-14.4 -8.8,-22.7 0.1,-1.4 0.2,-3 -0.9,-3.8 -0.4,-0.3 -1,-0.4 -1.6,-0.6 -2.5,-0.5 -5,-1 -7.5,-1.4 -0.4,-0.1 -0.8,-0.1 -1.1,0 -0.4,0.2 -0.6,0.5 -0.8,0.9 -1,2 -0.8,4.5 -0.4,6.7 1.8,12.2 5.2,24.9 14.1,33.6 7.8,7.6 18.6,11 28,16.4 14.7,8.4 26.8,22.1 43.3,25.8 5,1.2 10.3,1.3 15.5,1.1 9.2,-0.3 19,-1.9 26,-8 7.1,-6.2 10,-16.3 9.3,-25.7 -0.7,-9.4 -4.7,-18.3 -9.5,-26.5 -8.3,-14.2 -20.5,-27.8 -36.7,-30.6 -4.9,-0.8 -10,-0.6 -14.8,-1.8 -12.2,-2.9 -21.1,-13.7 -33,-17.4 -10.3,-3.2 -22,-0.4 -30.6,6.2 -5.3,4.1 -9.8,10.3 -9.3,17"
           class="st0"
           inkscape:connector-curvature="0" /></g><g
         style="fill-opacity:1"
         id="g10"><path
           style="fill-opacity:1"
           id="path8"
           d="m 556,414.1 c 1,1.9 0.8,4.5 -0.5,6.2 -0.5,0.6 -1.2,1.2 -1.4,2 -0.7,2.2 -2.5,2.3 -0.5,3.5 5.8,3.7 11.8,13.1 11.7,19.9 -0.2,12.9 -5.1,26.3 -15.5,34 -5.8,4.3 -13.2,6.7 -17.9,12.2 -5.3,6.2 -6.4,15.1 -11.5,21.4 -2.4,3 -4.3,5.8 -7.5,7.9 -13.4,8.8 -32.8,12.5 -44.5,5.9 -3.4,-2.1 -5.3,-6.2 -6.5,-9.9 -1,-3 -1.5,-10.5 -0.8,-15.3 1.4,-10.1 8.5,-19.8 16.8,-25.7 8.4,-5.9 18.3,-8.8 22.6,-18.1 2.7,-5.8 0.4,-12.6 4.1,-18.7 1.1,-2.8 2.9,-5.3 4.9,-7.5 5.1,-5.7 11.7,-10.1 19.1,-12 7.4,-1.9 15.5,-0.2 22.3,3.3 0.7,0.4 1.6,-0.2 2.4,-0.5 0.5,-0.2 0.7,-0.7 1,-1.1 0.9,-1.4 1.8,-2.8 2,-4.5 0.2,-1.6 -0.4,-3.5 -1.9,-4.2 -2.1,-0.9 -4.3,0.8 -6.4,1.8 -2,1 -4.4,1.3 -6.6,0.9 0.9,-1.4 3.6,-2.7 3.6,-4.4 0,-1.4 -2.3,-2.4 -3.7,-2.8 -1.4,-0.4 -2.8,-0.1 -4.2,0.2 -4.7,0.9 -9.3,1.7 -14,2.6 -1.7,0.3 -3.4,0.6 -4.9,1.3 -1.7,0.8 -3.1,2 -4.5,3.2 -4,3.4 -7.8,7.2 -12.1,10.3 -9.3,6.8 -17.4,12 -25.6,22.2 -9.3,11.5 -14.7,27.7 -18.4,41.8 -2.1,7.9 -6.3,14.7 -8.6,22.2 -1.6,5.2 -1.8,11.8 1.4,16.3 1.9,2.7 5.3,4.1 8.4,5.3 2.9,1.1 5.7,2.2 8.6,3.3 4.1,1.6 8.3,3.2 12.6,3.7 3.5,0.4 7,0.1 10.4,-0.3 10.4,-1.2 20.6,-2.2 29.6,-9.4 4.4,-3.6 9.2,-5.8 14,-8.8 8.3,-5.2 15.7,-5.8 21,-14 0.8,-1.2 2.8,-3.6 3,-5 0.2,-1.5 1.4,-5.3 1.2,-6.8 -0.9,-8.5 3.5,-16.6 7.8,-24 0.5,-0.9 1,-1.8 1,-2.8 -0.1,-2.3 -3.1,-4.4 -1.8,-6.3 2,2 6.8,1.9 7,-1.9 0.2,-2.8 -0.2,-5.8 -2.4,-7.6 -1,-0.9 -1,-1.8 0.1,-2.5 1.8,1.4 4,0 4.3,-3 0.2,-2.3 0.2,-4.6 -0.4,-6.8 -0.6,-2.1 -1.2,-4.3 -1.8,-6.4 -1.2,-4.2 -2.5,-8.7 -5.7,-11.6 -2.1,-1.9 -5.2,-3 -7.7,-1.7 -0.9,0.5 -2.2,1.2 -2.8,0.3 -0.6,-2.2 3.1,-4.1 2.2,-6.3 -0.4,-1 -1.6,-1.3 -2.6,-1.8 -1,-0.5 -1.1,1.2 -0.6,0.3"
           class="st0"
           inkscape:connector-curvature="0" /></g><g
         style="fill-opacity:1"
         id="g14"><path
           style="fill-opacity:1"
           id="path12"
           d="m 589.9,121.4 c 2.6,2 1.8,6.4 -0.7,8.6 -2.5,2.2 -5.9,2.7 -9.1,3.4 -10.7,2.2 -22.2,7.6 -25.7,18 -2.3,6.7 -0.7,14.1 -1.7,21.2 -2.1,14.9 -15.5,27.8 -12.8,42.5 1.2,6.1 5,11.3 7.4,17.1 1.6,3.7 2.5,7.7 4.5,11.3 3.7,6.8 10.9,11.6 18.6,12.4 2.6,0.3 5.3,0.1 7.8,0.6 2.6,0.5 5.1,2 6.1,4.5 1.4,3.6 -1.6,7.8 -5.3,9 -3.7,1.2 -7.7,0.3 -11.5,-0.7 -9.6,-2.6 -19.5,-6.3 -26,-13.9 -1.5,-1.7 -2.9,-3.8 -2.9,-6.1 0,-1.5 0.6,-3 0.9,-4.4 1.9,-8.9 -5.8,-16.7 -9,-25.2 -4.6,-12.4 0.6,-26.6 -2.7,-39.4 -2.1,-7.9 -7.3,-16.1 -4,-23.6 2.6,-6 9.6,-8.5 14.9,-12.5 4.1,-3 7.3,-7.1 10.9,-10.6 9.7,-9.3 23.4,-14.6 36.7,-13 1.8,0.2 3.5,0.5 5.3,0.6 1.6,0.1 3.2,-0.2 4.7,-0.1 9.5,0.4 19.5,6.2 21.6,8.3 4,4 5,11.6 7,20 1.1,4.5 0.8,11.6 1.1,16.2 0.3,5.6 2.7,10.8 4.7,16 3.9,10.5 6,22.4 1.4,32.6 -1.4,3.2 -3.5,6.1 -5,9.3 -2.6,5.6 -3.4,11.9 -5.3,17.7 -3.9,11.6 -12.7,21.4 -23.8,26.5 -5.1,2.4 -10.9,3.7 -16.5,2.7 1.5,-3.5 2,-7.4 1.5,-11.1 10.8,-0.2 21.2,-6.8 26.5,-16.2 5.4,-9.4 5.9,-21.2 2.2,-31.4 -2.4,-6.7 -6.7,-13.6 -4.5,-20.4 1.4,-4.5 5.4,-7.7 7.6,-11.9 3.6,-7 1.7,-15.6 -0.9,-23.1 -3,-9 -7.8,-18.8 -16.8,-21.5 -1.8,-0.5 -3.7,-0.8 -5.3,-1.7 -1.6,-0.9 -2.9,-2.7 -2.4,-4.5"
           class="st0"
           inkscape:connector-curvature="0" /></g><g
         style="fill-opacity:1"
         id="g18"><path
           style="fill-opacity:1"
           id="path16"
           d="m 53.5,69.1 c 1.7,0 2.4,2.4 1.9,4.1 -0.4,1.7 -1.4,3.4 -0.8,5.1 0.7,1.9 2.9,2.5 4.6,3.4 6,3.2 7.6,11.1 6.9,17.9 -0.7,6.8 -2.9,13.5 -1.7,20.2 1.9,10.8 11.4,20.7 10.5,31.6 -0.6,6.6 -4.4,10.9 -9.4,15.2 -5,4.3 -10.7,8.1 -14.5,13.5 -2.7,3.8 -4.5,8.4 -8.1,11.4 -6.6,5.6 -16.3,4.4 -20.7,-3.2 -3.8,-6.7 -6.8,-13.7 -5,-21.8 1.6,-7.5 4.3,-14.7 7,-21.9 2.7,-7.2 5,-14.8 4.4,-22.4 -0.4,-4.3 -1.7,-8.5 -2,-12.9 -0.9,-12.8 8.1,-25.7 20.4,-29.2 3.5,-1 8.1,-2.2 8.6,-5.8 0.4,-2.7 -2.2,-5.1 -4.9,-5.6 -2.7,-0.5 -5.4,0.7 -7.9,1.9 -15.5,8 -26.5,24.1 -28.1,41.5 -0.7,7.1 0.1,14.3 -1.5,21.2 -1.8,8.3 -6.8,15.5 -9.5,23.5 -3.7,11.2 -2.5,24 3.3,34.3 4.7,8.4 12.6,15.4 22,17.5 9.4,2.1 21,-0.6 26.8,-8.4 3.6,-4.9 4.3,-11.4 6.8,-16.9 4.9,-10.9 11.4,-19.1 19.2,-28.1 2.4,-2.8 7.3,-6 8.5,-9.4 0.9,-2.5 1.3,-5.2 1.5,-7.8 C 92.9,123.2 90,108.2 83.5,94.9 77.3,82.3 67,70.7 53.3,67.4"
           class="st0"
           inkscape:connector-curvature="0" /></g></g><g
       style="display:inline;fill:none"
       id="CL_0002062"
       inkscape:label="CL_0002062"><desc
         id="desc921">type I pneumocyte</desc><title
         id="title919">type I pneumocyte</title><g
         id="g23"><path
           id="path21"
           d="m 226.9,52.4 c -2.9,0.9 -5.7,6.2 -4.6,9 1.1,2.8 4,4.5 6.9,5.1 2.9,0.5 6,0.1 8.9,-0.5 11.6,-2.1 22.9,-5.3 34.6,-7 11.7,-1.7 28.3,-3.9 39.2,0.4 19.4,7.7 29.3,21.7 46.9,28 8.4,3 17.1,5 26,5 2.8,0 5.7,-0.2 8.1,-1.7 2.4,-1.5 3.9,-4.7 2.7,-7.2 -1.5,-3.2 -5.8,-3.5 -9.3,-3.5 -6.2,-0.1 -12.5,-1 -18.2,-3.5 -7.7,-3.5 -13.6,-9.8 -18.9,-16.3 -5.3,-6.5 -10.3,-13.4 -16.7,-18.8 -6.4,-5.4 -14.9,-9.1 -23.2,-7.8 -5,0.8 -9.5,3.3 -14.1,5.3 -17,7.6 -36,9.3 -54.6,10.9 -6.3,0.5 -12.9,1.2 -17.9,5"
           class="st1"
           inkscape:connector-curvature="0" /></g><g
         id="g27"><path
           id="path25"
           d="m 134.6,72.9 c -7.3,5 -11,13.6 -15,21.5 -4.1,8.1 -9,15.9 -14.4,23.2 -3.4,4.5 -7,8.9 -9.9,13.8 -1.5,2.5 -2.8,5.2 -3.2,8.1 -0.4,2.9 0.3,6.1 2.3,8.2 0.5,0.6 1.2,1.1 2,1.1 0.7,0 1.3,-0.3 1.9,-0.6 5.7,-3.3 9.2,-9.2 13.1,-14.5 13.1,-17.4 32.4,-28.9 51.2,-40 6.4,-3.8 12.8,-7.5 19.6,-10.5 9.9,-4.4 20.4,-7.1 30.6,-10.4 2.7,-0.9 5.4,-1.8 7.4,-3.8 2,-2 2.9,-5.3 1.4,-7.7 -1.4,-2.2 -4.3,-2.8 -6.9,-2.5 -4.2,0.4 -8,2.5 -11.9,4.3 -11,5 -23.3,7.2 -35.3,6.2 -6,-0.5 -11.9,-1.7 -17.9,-1.5 -6,0.2 -12.3,1.9 -16.3,6.4"
           class="st1"
           inkscape:connector-curvature="0" /></g><g
         id="g31"><path
           id="path29"
           d="m 401.7,82.8 c -3.4,-0.1 -6.4,3.3 -5.9,6.7 0.6,3.3 3.9,5.4 7.1,6.2 3.2,0.8 6.7,0.6 9.9,1.6 5.9,1.7 10.3,6.7 13.9,11.7 3.6,5 6.8,10.5 11.8,14.1 0.8,0.6 1.7,1.1 2.7,1.2 2.4,0.3 4.4,-2.2 4.6,-4.6 0.2,-2.4 -1,-4.7 -2.1,-6.8 -3.6,-6.6 -7.7,-13.2 -14,-17.2 -4.6,-2.9 -10,-4.2 -14.8,-6.8 -4.5,-2.5 -8.7,-6.4 -13.8,-6.2"
           class="st1"
           inkscape:connector-curvature="0" /></g><g
         id="g35"><path
           id="path33"
           d="m 445.4,122.6 c -2.4,1.2 -2.8,4.6 -1.6,7 1.2,2.4 3.6,3.9 5.9,5.2 9.5,5.6 19.6,10.8 27.3,18.8 10.5,11.1 15.3,26.6 25.4,38.1 3.3,3.7 7,7 10.1,10.8 7.1,8.7 10.2,19.9 12.6,30.9 0.8,3.9 1.7,8.2 4.7,10.9 2.9,2.8 8.7,2.8 10.3,-0.9 0.9,-2 0.3,-4.3 -0.5,-6.3 -2.7,-7.1 -7.4,-13.5 -9.4,-20.8 -2.7,-10.5 0.5,-21.6 -1.2,-32.3 -1.1,-6.9 -4.2,-13.5 -9,-18.6 -12.4,-13.4 -33,-15.5 -47.4,-26.7 -4.3,-3.4 -8,-7.5 -12.4,-10.9 -4.4,-3.3 -9.7,-5.9 -15.2,-5.4 -0.3,0 -0.8,0 -0.9,-0.3 -0.1,-0.3 0.6,-0.4 0.4,-0.1"
           class="st1"
           inkscape:connector-curvature="0" /></g><g
         id="g39"><path
           id="path37"
           d="m 524.2,369.2 c -2.5,-0.3 -4.3,2.2 -5.5,4.4 -4.7,8.9 -7.7,18.6 -13,27.1 -6.6,10.7 -16.4,19.1 -26.7,26.4 -2.6,1.8 -5.6,4.4 -5,7.5 0.3,1.4 1.3,2.6 2.3,3.6 0.9,0.8 1.9,1.5 3,1.8 2.2,0.5 4.4,-0.9 6.2,-2.2 8.2,-6.1 15.8,-13.1 23.3,-20.1 3.2,-2.9 6.4,-5.9 8.7,-9.6 3.9,-6.1 5,-13.6 8.4,-20 1.3,-2.4 2.8,-4.7 3.9,-7.2 1,-2.5 1.5,-5.4 0.4,-7.9 -1.1,-2.5 -4,-4.3 -6.5,-3.5"
           class="st1"
           inkscape:connector-curvature="0" /></g><g
         id="g43"><path
           id="path41"
           d="m 349.9,530.5 c 0.8,-2.4 3.1,-4 5.5,-4.7 2.4,-0.7 5,-0.7 7.5,-0.7 7.4,-0.1 15,-1.1 21.6,-4.3 11.9,-5.8 19.2,-17.8 29,-26.7 5.1,-4.7 11,-8.5 16.8,-12.2 7.1,-4.4 14.5,-8.9 19.2,-15.9 4.6,-6.9 6.1,-15.5 10.7,-22.4 1.7,-2.6 4,-5 6.9,-6 2.9,-1 6.6,-0.5 8.5,1.9 1.9,2.4 1.8,5.9 0.6,8.7 -1.2,2.8 -3.3,5.1 -5,7.6 -11.5,16.2 -10.6,39.8 -25,53.5 -5.4,5.2 -12.5,8.3 -19.8,10.4 -4.6,1.3 -9.2,2.2 -14,2.7 -2.8,0.3 -5.5,0.4 -8.2,1.1 -3.4,0.9 -6.5,2.6 -9.6,4.2 -12.5,6.3 -26.4,10.9 -40.2,9.2 -1.6,-0.2 -3.5,-0.7 -4.2,-2.1 -0.4,-0.8 -0.4,-1.7 -0.3,-2.6 0.2,-2.9 -0.6,0.2 0.2,-2.7"
           class="st1"
           inkscape:connector-curvature="0" /></g><g
         id="g47"><path
           id="path45"
           d="m 288.5,531.4 c -3.3,1.8 -6,4.9 -7.4,8.4 -0.3,0.7 -0.5,1.5 -0.4,2.2 0.2,1.4 1.7,2.3 3.1,2.4 1.4,0.1 2.8,-0.4 4.2,-0.9 4.2,-1.4 8.5,-2.4 12.9,-2.9 6.6,-0.7 13.3,-0.3 20,0.4 8.5,0.8 17.8,1.9 25.2,-2.5 1.9,-1.1 3.7,-2.8 3.9,-5 0.2,-2.6 -1.9,-4.8 -4.3,-5.7 -2.4,-0.8 -5.1,-0.5 -7.6,-0.3 -13.7,1.5 -27.4,2.4 -41.2,2.7 -3.2,0.1 -6.6,0.2 -9.4,1.7"
           class="st1"
           inkscape:connector-curvature="0" /></g><g
         id="g51"><path
           id="path49"
           d="m 163.5,480.4 c -1,0.3 -3.5,3.7 -2.9,4.6 0.6,0.9 4.7,2.7 5.6,3.4 4.5,3.3 6.6,3.5 9.4,6.9 2.2,2.8 4.2,4.1 7,6.2 3.8,2.9 8.8,3.4 13.3,4.8 8.1,2.4 15.2,7.4 22.4,11.9 1,0.6 2.2,1.3 3.3,1 1.1,-0.2 1.8,-1.2 2.5,-2 1.2,-1.6 2.5,-3.3 2.4,-5.3 -0.1,-1.9 -1.3,-3.5 -2.6,-4.8 -4.4,-4.7 -10,-8.3 -16.2,-10.1 -3,-0.9 -6.1,-1.4 -9,-2.3 -8.4,-2.5 -15.7,-7.6 -23.2,-12.2 -2,-1.2 -4,-2.5 -6.3,-3 -2.3,-0.5 -4.9,-0.1 -6.6,1.5"
           class="st1"
           inkscape:connector-curvature="0" /></g><g
         id="g55"><path
           id="path53"
           d="m 60.5,347.7 c -4.2,0 -7.1,4.7 -7.2,8.9 -0.1,4.2 1.7,8.3 2.5,12.4 2.7,13.4 -4.3,26.7 -5.8,40.2 -0.9,7.7 0,15.6 3.2,22.6 3.2,7 8.8,13 15.8,16.2 6.3,2.8 13.4,3.2 19.8,5.7 3.4,1.3 6.9,5.4 10.1,7.3 6.6,3.8 12.9,5.3 19.4,9.1 7.7,4.4 14.7,10.7 24.4,9.9 5.3,0.6 10.9,-0.2 15.8,2.1 0.5,0.2 1,0.5 1.5,0.3 0.2,-0.1 0.3,-0.2 0.5,-0.3 1.8,-1.6 1.4,-4.7 -0.3,-6.5 -1.7,-1.8 -4.1,-2.5 -6.4,-3.2 C 135.4,467 117,459.5 103,446.3 98.1,441.6 93.8,436.3 89.9,430.7 75,409.2 66,383.7 64.3,357.6 64,353.7 63.5,349.1 60.1,347.1"
           class="st1"
           inkscape:connector-curvature="0" /></g><g
         id="g59"><path
           id="path57"
           d="m 92.3,147.3 c -2.7,-0.2 -4.8,2 -6.5,4 -9.1,10.8 -18.4,21.9 -24.4,34.7 -3.6,7.5 -6,15.9 -5,24.2 0.1,0.9 0.3,1.9 0.9,2.6 0.5,0.5 1.2,0.8 2,1 2.2,0.7 4.4,1.1 6.7,1.2 0.4,0 0.9,0 1.2,-0.2 0.4,-0.3 0.5,-0.8 0.6,-1.3 0.9,-6 1.2,-12.2 2.8,-18 3.5,-13.3 13.1,-24.1 22.2,-34.4 1.9,-2.2 3.9,-4.5 4.3,-7.4 0.4,-2.9 -1.8,-6.2 -4.6,-6"
           class="st1"
           inkscape:connector-curvature="0" /></g></g><g
       style="display:inline;fill:none"
       id="CL_0002063"
       inkscape:label="CL_0002063"><desc
         id="desc917">type II pneumocyte</desc><title
         id="title915">type II pneumocyte</title><g
         id="g64"><path
           id="path62"
           d="m 528.8,245.5 c -0.3,3.1 0.8,6.2 1.4,9.3 0.6,3.1 0.8,6.6 -1,9.2 -1.8,2.6 -7.6,4.8 -9.3,2.2 -0.7,0.8 0,0 -0.7,0.7 -0.9,-0.5 -1.7,-0.9 -2.6,-1.4 -2.9,1.4 -7.2,4.8 -8.6,7.7 -0.8,1.6 0.5,2.5 -0.7,3.7 -1.3,1.2 -3.7,1.5 -4.6,0 0.9,3.1 -0.5,7.7 -0.6,10.9 -0.1,1.8 -0.2,-0.5 -0.1,3.8 0,1.8 -5.6,2.4 -5.8,0.7 0,3.9 0.5,6.3 -1.5,9.7 -0.2,1.4 1.1,2.8 2.5,2.7 -1.2,1.1 -2.4,2.2 -3.6,3.3 1.1,0.4 1.6,1.7 1.2,2.7 1.3,-0.7 1.4,0.5 2.6,1.4 -1.6,1.2 -1.5,1.2 -3.1,2.5 0.8,0.4 1.5,1.2 1.6,2.1 0.3,2.9 -5.3,1.9 -7,4.3 -1.1,1.5 -0.1,3.7 -0.7,5.5 1.7,-1.8 5,-2 6.8,-0.3 1.9,1.7 2,5 0.3,6.8 2.6,0.3 3.6,3.3 4.6,5.6 0.9,1.5 3.2,1.8 4.9,2.2 -0.2,-2.4 2.3,-4.8 4.7,-4.2 2.4,0.6 3.1,4.5 1,5.7 1.9,0.8 3.9,1.6 5.8,2.4 0.7,-0.6 1.4,-1.2 2.1,-1.8 1.9,0.8 2.7,3.5 1.5,5.2 1.3,-1.4 2.5,-2.8 3.8,-4.3 1.3,0.3 0.4,3.8 1.4,4.7 -2.6,1.9 1,3 1.6,6.2 0.9,4.6 -0.5,9.4 -3.6,12.8 7,2 6.6,4.7 8.8,8.9 5,-7.8 5.4,-19 7,-28.1 0.4,-2.2 1,-4.4 2.3,-6.1 1.3,-1.7 3.2,-2.8 4.9,-4.1 8.8,-6.8 12.6,-18.6 12,-29.7 -0.6,-11.1 -5.2,-21.6 -10.4,-31.4 -2.1,-4 -4.5,-8 -5.6,-12.3 -1.2,-4.6 -1.1,-9.4 -0.9,-14.2 0,-0.8 0.1,-1.8 -0.4,-2.5 -0.5,-0.7 -1.5,-0.9 -2.4,-1.1 -3.2,-0.6 -6.3,-1.1 -9.5,-1.7"
           class="st2"
           inkscape:connector-curvature="0" /></g><g
         id="g68"><path
           id="path66"
           d="m 59.1,214.7 c -3.8,1.7 -5.4,6.2 -5.6,10.3 -0.2,4.1 0.7,8.3 -0.1,12.3 -1.2,6.6 -6.2,11.7 -10.2,17.1 -5,6.6 -8.9,14.1 -10.4,22.3 -1.5,8.1 -0.5,16.9 3.7,24 2.6,4.5 6.4,8.2 9,12.7 2.9,5 4.4,10.7 4.6,16.5 0.1,4.5 -0.5,9.2 1.3,13.3 1.8,4.1 7.7,6.8 10.9,3.7 1,-5.7 0.7,-9.9 1.2,-15.8 0.2,-2.3 -0.3,-6.7 1.3,-8.3 1.6,-1.6 5,-1.4 5.6,0.7 1.1,-1.2 1.8,-2.8 1.8,-4.4 1.3,1.1 4.5,3.7 5.3,5.2 1.3,-1.2 -0.7,-4.8 -1.8,-6.1 0.7,-0.1 1.5,-0.4 2.2,-0.7 2.4,-1 4.5,-3.3 4.1,-5.8 -0.2,-1.3 -0.9,-2.7 0,-3.7 1.1,-1.2 3,0.1 3.8,1.5 0.8,1.4 1.8,3.1 3.3,3 0.2,-2.6 -0.5,-5.2 -2.1,-7.3 0.5,-0.6 1.5,-0.8 2.2,-0.4 -0.8,-4.1 -1.4,-8.1 -1.9,-12.2 2.3,1.2 4,3.3 4.8,5.7 -0.1,-2.8 0.4,-5.6 1.4,-8.2 0.5,-1.4 3.3,0.1 3.2,-1.4 -0.1,-1.5 -3.4,-5.8 -4.8,-5.6 2,-1.4 2.5,-4.5 1.1,-6.5 1.3,-3.2 2.6,-6.4 3.9,-9.6 1.9,0.3 3.8,1 5.4,2.1 0.5,-1.1 0.4,-2.4 -0.3,-3.4 1,-0.3 1.9,-0.6 2.9,-0.9 -1.7,-1.2 -2,-4 -0.5,-5.6 -2.2,-1.1 -4.7,0.2 -7,1.1 -2.2,0.9 -5.4,1.3 -6.7,-0.8 2.3,-0.6 4.3,-2 5.8,-3.8 -2,-0.2 -3.9,-1.4 -5,-3.1 -1,-1.5 -1.3,-3.3 -2.3,-4.7 -1,-1.5 -2.9,-2.6 -4.5,-1.7 0.1,1.4 0.1,2.8 -0.6,4 -0.7,1.2 -2.3,2 -3.5,1.2 0.6,-1.9 1.2,-3.8 1.9,-5.7 -0.8,0.3 -1.7,0.5 -2.5,0.8 -0.1,-1.2 -0.4,-2.3 -1,-3.4 -2.5,0.8 -5.1,1.5 -7.7,2 0.9,-2 1.8,-4.1 2.7,-6.1 -1.1,-0.2 -1.8,1 -2.7,1.6 -1.9,1.4 -3.9,2.3 -5,0.2 -1,-2.1 -1.4,-6.8 -0.5,-9 0.9,-2.2 2.3,-4.1 3.1,-6.3 1.1,-3.1 0.9,-6.8 -1.2,-9.3 -2.1,-2.5 -6.4,-3.1 -8.7,-0.7"
           class="st2"
           inkscape:connector-curvature="0" /></g></g><g
       style="display:inline;fill:none"
       id="UBERON_0003456"
       overlap="EFO_0010667"
       inkscape:label="UBERON_0003456"><desc
         id="desc913">respiratory system lymphatic vessel</desc><title
         id="title911">respiratory system lymphatic vessel</title><path
         id="path71"
         d="m 180.2,29.3 c 2.4,-4.5 5.3,-8.6 9.2,-11.8 2.9,-2.4 6.3,-4.2 9.7,-5.9 12,-5.8 24.9,-9.9 38.1,-11.1 13.2,-1.2 26.8,0.6 38.9,6.2 2.9,1.3 5.7,2.9 7.8,5.3 2.1,2.4 3.5,5.7 2.9,8.8 -0.8,4.4 -4.8,7.2 -8.6,9.3 -5.3,2.8 -11,5.1 -16.8,6.6 -10.6,2.8 -21.7,3.2 -32.3,6.1 -6.6,1.8 -12.9,4.5 -19.5,6.3 -4.9,1.3 -10.1,2 -15.1,1.1 -5,-0.9 -9.9,-3.5 -12.7,-7.9 C 179,38 178.5,31.8 181.4,27.5"
         class="st3"
         inkscape:connector-curvature="0" /></g><g
       style="display:inline;fill:none"
       id="EFO_0010667"
       inkscape:label="EFO_0010667"><desc
         id="desc909">endothelial cell of respiratory system lymphatic vessel</desc><title
         id="title907">endothelial cell of respiratory system lymphatic vessel</title><path
         id="path74"
         d="m 184.9,22.4 c 2.5,-2.5 5.4,-5.3 8.4,-7.2 12.3,-7.8 26.4,-13 40.9,-14.5 14.5,-1.5 29.5,0.9 42.6,7.2 2.5,1.2 4.9,2.6 6.8,4.6 1.9,2 3.1,4.8 2.8,7.5 -0.3,2.7 -2.1,5 -4.1,6.8 -7.8,7.3 -18.7,9.7 -29.1,11.9 -2.9,0.6 -5.7,1.2 -8.6,1.2 -1.5,0 -3,-0.2 -4.5,0 -2,0.2 -3.9,0.8 -5.8,1.4 -5.6,1.9 -11.1,3.7 -16.7,5.6 -3.7,1.2 -7.5,2.5 -11.3,3.1 -3.3,0.5 -6.6,0.6 -9.9,0.2 -4.6,-0.5 -9.4,-1.9 -12.5,-5.3 -4.8,-5.2 -5.8,-15.5 0.2,-21.5 1.8,-1.8 8.5,-7.9 15,-11.5 9.5,-5.2 19.9,-8.5 30.5,-10.5 -0.7,0.3 -0.6,1.4 -0.1,2 0.5,0.6 1.2,1.2 1.3,1.9 0.2,1.3 -1.3,2.2 -2.5,2.4 -9.1,1.7 -16,2.8 -21.1,5.7 -9,5 -10.1,5.9 -12,9 -4.3,7 -4.5,14.8 2,17 6,2 9,2 13,1 7.8,-2 3.6,-0.2 6,-1 4.7,-1.6 8.3,-3.5 13.2,-4.5 7.3,-1.5 14.8,-1.4 22.2,-2 8.7,-0.6 17.7,-2.3 24.6,-8 0.9,-0.7 1.6,-1.7 1.9,-2.8 2,-5.6 -2,-8.1 -5.7,-9.8 -8.6,-3.9 -18,-5.9 -27.5,-5.8 -5,0 -10.1,0.7 -15,-0.4"
         class="st4"
         inkscape:connector-curvature="0" /></g><g
       style="display:inline;fill:none"
       id="EFO_0010669"
       inkscape:label="EFO_0010669"><desc
         id="desc905">lung pericyte cell</desc><title
         id="title903">lung pericyte cell</title><g
         id="g79"><path
           id="path77"
           d="m 571.9,426.4 c -0.7,0 -0.9,1.1 -0.8,1.8 1.1,6.5 3.7,13 3.1,19.6 -0.1,0.9 -0.2,1.9 -0.7,2.8 -0.9,1.8 -3.1,2.7 -5,2.2 2.6,2.4 3.6,6.3 2.9,9.9 -0.2,1.1 -0.6,2.1 -1.3,2.9 -0.8,0.7 -2,1 -2.9,0.5 -0.6,-0.4 -1,-1.1 -1.7,-1.2 -0.9,-0.1 -1.5,1.2 -1.2,2.2 0.2,0.9 0.9,1.7 1.2,2.6 0.5,1.8 -0.6,3.6 -1.5,5.3 -4.4,7.5 -6.9,16.1 -7.2,24.8 2,-3.2 5,-7.6 6,-11.3 0.6,-2.2 1.4,-4.9 3,-6.5 2,-2.1 3.4,-1.1 6.2,-2 4.1,-1.2 7.8,-4 10,-7.8 2.2,-3.8 3.6,-7.4 2.2,-11.6 -1.1,-3.3 -3,-7.3 -4.4,-10.5 -1.6,-3.9 -2.9,-8 -3.3,-12.1 -0.4,-4.1 -1.5,-8.6 -4.5,-11.4"
           class="st5"
           inkscape:connector-curvature="0" /></g><g
         id="g83"><path
           id="path81"
           d="m 525.4,405.3 c -1.6,0.3 -3.2,0.9 -4.7,1.8 -0.9,0.6 -1.9,1.5 -1.7,2.6 0.4,1.6 2.6,1.4 4.1,0.8 5.4,-2.1 10.5,-1.7 16.8,-3.2 1.3,-0.3 2.7,0.4 3.8,1.2 1.1,0.9 1.7,2.5 1,3.7 -0.7,1.4 -2.8,2 -2.9,3.6 2.3,0 4.4,-1 6.6,-1.7 2.2,-0.7 4.5,-1.2 6.6,-0.3 2.1,0.9 3.6,3.7 2.4,5.7 -0.6,1.1 -1.9,2.4 -1.1,3.4 0.5,0.6 1.5,0.4 2.1,0 0.6,-0.5 1.1,-1.2 1.8,-1.5 1.9,-1 4,0.7 5.3,2.4 1.3,1.7 2.7,3.8 4.8,3.9 0.2,0 0.5,0 0.7,-0.2 0.4,-0.3 0.4,-0.8 0.4,-1.3 -0.1,-2.2 -0.2,-4.4 -0.3,-6.6 -0.1,-3 -0.3,-6.1 -1.3,-9 -1.2,-3.1 -2,-6.5 -4.8,-8 -3.7,-2 -7.6,-2.9 -11.7,-2.4 -4.1,0.5 -9.9,3.3 -14,3.6 -5.2,0.4 -10.7,-0.4 -15.3,2.1"
           class="st5"
           inkscape:connector-curvature="0" /></g></g></g><g
     id="Outline"
     style="display:inline"><a
       id="a4174"
       xlink:href="https://www.ebi.ac.uk/gxa/licence.html"
       transform="matrix(11.357568,0,0,11.124786,-838.51266,-53.309267)"><g
         id="g3"
         transform="matrix(0.07645089,0,0,0.07645089,123.6957,51.617633)"><circle
           id="circle5"
           r="28.275999"
           cy="28.806"
           cx="37.637001"
           style="fill:#ffffff" /><g
           id="g7"><path
             style="fill:#009600;fill-opacity:1"
             id="path9"
             d="m 37.443,-3.5 c 8.988,0 16.57,3.085 22.742,9.257 6.208,6.21 9.315,13.791 9.315,22.743 0,8.991 -3.049,16.476 -9.145,22.456 C 53.879,57.319 46.242,60.5 37.443,60.5 28.794,60.5 21.29,57.356 14.929,51.07 8.644,44.784 5.5,37.262 5.5,28.5 5.5,19.739 8.644,12.158 14.929,5.758 21.101,-0.415 28.604,-3.5 37.443,-3.5 Z m 0.114,5.772 c -7.276,0 -13.428,2.553 -18.457,7.657 -5.22,5.334 -7.829,11.525 -7.829,18.572 0,7.086 2.59,13.22 7.77,18.398 5.181,5.182 11.352,7.771 18.514,7.771 7.123,0 13.334,-2.607 18.629,-7.828 5.029,-4.838 7.543,-10.952 7.543,-18.343 0,-7.276 -2.553,-13.465 -7.656,-18.571 C 50.967,4.824 44.795,2.272 37.557,2.272 Z m 8.572,18.285 V 33.642 H 42.473 V 49.184 H 32.529 V 33.643 H 28.873 V 20.557 c 0,-0.572 0.2,-1.057 0.599,-1.457 0.401,-0.399 0.887,-0.6 1.457,-0.6 h 13.144 c 0.533,0 1.01,0.2 1.428,0.6 0.417,0.4 0.628,0.886 0.628,1.457 z M 33.042,12.329 c 0,-3.008 1.485,-4.514 4.458,-4.514 2.973,0 4.457,1.504 4.457,4.514 0,2.971 -1.486,4.457 -4.457,4.457 -2.971,0 -4.458,-1.486 -4.458,-4.457 z"
             inkscape:connector-curvature="0" /></g></g></a><g
       transform="translate(304.33072,106.15262)"
       id="layer2"
       sodipodi:insensitive="true"><path
         d="m -151.8,466.7 c -7.5,-0.5 -12.1,-1.8 -20.6,-6.3 -6,-3.1 -9.3,-5.2 -12.9,-8 -2,-1.5 -7.9,-5.6 -15.7,-10.8 -3,-2 -7,-4.2 -12.3,-6.8 -13.5,-6.6 -16.3,-8.4 -20.2,-13.2 -5.9,-7.3 -8.5,-12.7 -10.6,-22.7 -1.7,-8 -1.7,-13.6 0.2,-17.9 0.5,-1.2 0.9,-3 1.1,-4.5 0.3,-3.4 1.2,-5.7 3.4,-9 2.6,-3.9 7.1,-7.7 12,-10.2 2.6,-1.3 8.8,-3.4 11.8,-3.9 1.7,-0.3 3.6,-0.4 4.9,-0.3 2.3,0.2 2.3,0.2 0.1,-1.6 -3.2,-2.5 -7.8,-4.1 -16.6,-5.9 -9.9,-2 -15.8,-5.4 -20.7,-11.9 -3.5,-4.7 -6.7,-12.1 -7.6,-17.9 -1.2,-7.7 -0.2,-15 3.6,-27.7 0.5,-1.7 1.4,-5.1 2.1,-7.5 1.1,-4.4 1.1,-4.6 1,-9 -0.1,-3.1 -0.4,-5.2 -0.9,-6.9 -2.1,-7.3 -2.4,-9.1 -2.4,-12.6 0,-3.1 0.1,-3.7 0.8,-5.3 0.5,-1 1.3,-2.3 1.8,-2.9 0.6,-0.6 1,-1.2 1,-1.3 0,-0.1 -0.5,-0.2 -1.2,-0.2 -1.6,0 -2.6,-1 -3.7,-3.8 -1.4,-3.5 -1.8,-5.6 -2.2,-11.5 -0.4,-7.2 -0.7,-9.4 -1.9,-12.9 -1.3,-3.7 -3.4,-7.4 -6.2,-10.7 -4,-4.8 -5,-6.2 -6,-8 -2.6,-4.6 -3.6,-9.4 -3.6,-17.8 0,-4.7 0.1,-5.4 0.9,-8.5 1.1,-4 3.1,-9.4 4.5,-12.2 1.4,-2.9 4.1,-6.7 9.5,-13.5 2.7,-3.4 5.2,-6.8 5.6,-7.7 1.5,-3.2 1.5,-5.3 0.5,-15.7 -0.1,-1.4 -0.1,-2.9 0.2,-3.8 0.5,-1.8 2.2,-4.9 3.9,-6.7 1.2,-1.3 1.2,-1.4 0.7,-2.1 -1,-1.5 -1.6,-4.8 -1.4,-7.7 0.1,-1.5 0.1,-2.8 0.1,-2.8 0,0 -0.9,0.5 -1.9,1.1 -1.9,1.1 -7.8,3.8 -10.4,4.6 -0.8,0.3 -2.8,0.6 -4.5,0.7 -1.7,0.1 -4.4,0.4 -6,0.6 -5.3,0.6 -9.4,-0.4 -13.2,-3.2 -3.9,-2.9 -7.3,-6 -8.6,-7.7 -1.6,-2.1 -6.6,-10.5 -7.7,-12.9 -0.4,-1 -1.3,-4 -2,-6.6 -1.8,-7.6 -1.7,-13.7 0.5,-21 0.7,-2.2 2.2,-5.4 7.3,-15.4 4.5,-8.7 4.4,-8.4 4.7,-23.2 0.2,-12.9 0.4,-14.8 2.2,-20.3 0.9,-2.7 3.7,-8 5.9,-11.1 2.8,-3.9 9.7,-10.8 15.4,-15.2 2.1,-1.6 6.7,-4.3 9.7,-5.6 3.3,-1.4 5.9,-1.6 7.1,-0.4 0.5,0.5 1,0.7 1.4,0.6 0.8,-0.2 4.1,0.7 5.5,1.6 5.3,3.2 15.9,13.1 19.1,17.8 4.8,7.1 12,29.3 12.6,39 0.1,1.8 0.3,4 0.4,4.7 l 0.2,1.4 1.8,-2.7 c 3.3,-4.8 5.7,-8.2 8.1,-11.4 1.3,-1.7 3.6,-4.8 5,-6.7 2.5,-3.3 8.6,-13.8 10.1,-17.5 0.4,-0.8 1.3,-2.6 2,-3.9 0.8,-1.3 2,-3.5 2.7,-5 2,-4 3.4,-6 6.2,-9 4.8,-5.1 10,-8.6 14.7,-9.9 2.5,-0.7 10.8,-0.7 15.9,0 2,0.3 5.1,0.7 6.8,0.9 5,0.7 12.5,0.9 15.4,0.4 6.3,-1 12.9,-3.2 20.9,-7 6.1,-2.9 7.7,-3.4 11.5,-3.6 2.7,-0.2 4.1,0 5.8,0.7 0.4,0.2 0.6,-0.1 0.9,-1.1 0.4,-1.7 2.4,-3.9 4.2,-4.7 2.4,-1.1 9.5,-3 13.5,-3.5 2.1,-0.3 6.1,-0.7 8.8,-1 2.7,-0.3 6.4,-0.7 8.2,-0.8 18.3,-1.9 18,-1.8 26.9,-4.4 6.6,-1.9 8,-2.5 15.3,-6.2 7,-3.5 9.8,-4.3 15.3,-4.3 4.9,0 9.2,1.2 14.6,4.3 7.6,4.3 10.1,6.9 23.3,23.7 3.2,4.1 7.6,8.9 9.1,10.3 2.1,1.8 5.8,4 8.4,5.2 4.1,1.8 6.9,2.4 15.6,2.8 5.3,0.3 8.2,0.6 9,0.9 1.3,0.5 3.5,2.9 3.5,3.8 0,0.7 0.1,0.7 1.7,-0.1 1.1,-0.6 1.9,-0.7 3.7,-0.7 2.9,0 4.2,0.5 9.8,4 4.7,2.9 6.3,3.8 10.9,5.6 6.3,2.6 8,3.6 11.5,7.2 1.8,1.8 4.2,4.5 5.3,6.2 1.1,1.6 2.7,3.9 3.6,5 0.8,1.1 1.9,3.2 2.5,4.5 0.9,2.1 1,2.7 1,4.8 l -0.1,2.3 2.9,0.2 c 5.6,0.3 7.9,1.7 16.4,10 3.3,3.2 7.2,6.7 8.6,7.8 3.4,2.5 8.4,4.9 19.1,9 14.4,5.5 18,7.7 25.1,14.8 l 3.1,3.1 v -3 c 0,-7.5 3,-12.2 10.2,-15.9 4.8,-2.5 8.2,-5.2 15.3,-12.3 9.5,-9.4 14.2,-12.6 22.3,-15.2 4.5,-1.4 5.9,-1.7 10.2,-2 3.7,-0.3 6.6,0.2 9.3,1.5 1.3,0.7 1.6,0.7 2.8,0.3 4.9,-1.5 16,1.1 21.3,5.1 7.7,5.8 13.2,15.5 14.1,24.9 0.2,1.9 0.4,6.3 0.6,9.6 0.1,3.3 0.4,7.1 0.6,8.3 0.2,1.2 1.8,6.7 3.7,12.1 4,11.9 4.6,14.7 4.3,21.7 -0.3,7.3 -1.6,12 -4.4,15.9 -3.1,4.3 -5.9,10 -5.9,11.9 0,0.5 -3,10.7 -4.1,13.7 -1,3 -3.3,7.7 -4.7,10 -2.1,3.3 -3.8,5.2 -6.9,7.6 -3.5,2.8 -6.6,4.6 -11.9,7.1 -7.3,3.3 -13.3,4.5 -16.5,3.1 -1.1,-0.5 -1.6,-0.6 -2.2,-0.3 -1.3,0.6 -11.6,0.5 -14.9,-0.1 -7.3,-1.3 -13.5,-4.2 -18.6,-8.7 -1.8,-1.6 -3.8,-3.6 -4.4,-4.4 -0.6,-0.8 -1.1,-1.3 -1.2,-1.1 -0.2,0.5 0.5,7.1 1,9 0.4,1.8 3.6,8.2 5.8,11.8 2.5,4.1 4.7,8.2 5.6,10.3 1.3,3.2 3,9 3.4,11.7 1.7,12.4 2.1,19 1.2,23 -1.6,7.6 -5.5,13.4 -12.1,17.9 -2,1.4 -4,2.9 -4.3,3.3 -2.2,2.8 -3.2,7.4 -3.8,17.8 -0.3,5.6 -0.9,9.6 -1.7,12.6 -0.5,1.9 -2.7,4.5 -3.9,4.8 -0.5,0.1 -0.8,0.4 -0.8,0.8 0,1.1 -1.6,5.6 -2.9,8 -2.8,5.4 -5.7,11.5 -6.5,14.1 -0.5,1.5 -1.1,3.4 -1.5,4.1 -0.3,0.8 -0.5,1.5 -0.5,1.5 0.1,0.1 1.3,-0.3 6.2,-2 1.4,-0.5 3.5,-1.1 7,-1.1 4.5,0 8.5,-0.6 13,-1.9 12.7,-3.7 22.6,-0.2 25.1,9 0.3,0.9 0.6,4.2 0.8,7.2 0.4,6.4 0.5,7.1 2.1,9.2 1.8,2.5 3,6.5 3.6,12.2 0.6,5.7 1,7.1 3.6,11.4 1,1.6 2.2,4.1 2.8,5.4 1,2.3 1.5,2.7 1.6,6.6 0,3.9 -0.5,4.3 -1.4,6.1 -1.1,2.3 -3.6,6.4 -6,8.3 -2.3,1.9 -5,2.6 -8.3,3.4 -4.5,1.2 -5.9,2.8 -7.7,9.4 -0.5,1.9 -1.4,4.5 -2,5.8 -0.6,1.3 -1.2,3 -1.3,3.7 -0.3,1.9 -1.9,5.9 -3.3,8.2 -1.5,2.5 -2.9,4 -5.9,6.3 -2.6,2 -11.6,7.3 -14.6,8.6 -3.8,1.7 -8.9,4.8 -13.5,8.3 -5.7,4.3 -8,5.6 -13,7.4 -4,1.4 -7.4,2.2 -13.9,3.3 -3.7,0.6 -5,0.7 -11.2,0.6 -6.4,-0.1 -7.3,-0.2 -10.1,-1 -1.7,-0.5 -4.6,-1.6 -6.4,-2.5 -3.3,-1.6 -3.4,-1.6 -6.4,-1.7 -3.1,0 -3.1,0 -6.2,-1.6 -4.7,-2.4 -5.9,-3.4 -7.3,-6.2 -1.7,-3.3 -2.3,-6.9 -2.1,-11.8 0.1,-2 0.3,-4.2 0.5,-4.9 0.2,-0.7 0.3,-1.3 0.2,-1.4 -0.1,-0.1 -1.1,0.5 -2.3,1.4 -8.2,5.6 -17.2,8.3 -34.2,10.3 -5.1,0.6 -6.6,1.2 -15.8,5.9 -3.8,1.9 -7.7,3.8 -8.8,4.1 -1.1,0.3 -3.2,1 -4.8,1.6 -3.8,1.4 -5.9,2 -8.6,2.2 -1.2,0.1 -3.1,0.4 -4.2,0.7 -2.7,0.6 -13.1,0.5 -15.4,-0.2 -0.9,-0.3 -1.8,-0.7 -2,-0.8 -0.3,-0.3 -0.5,-0.1 -0.9,0.5 -0.3,0.4 -0.8,0.9 -1.2,1 -0.4,0.1 -1.3,0.6 -2.1,1.2 -3.1,2.2 -7.2,3.2 -12.6,3.2 -2.1,0 -4.5,-0.1 -5.3,-0.3 -0.8,-0.2 -5.1,-0.5 -9.7,-0.8 -6.4,-0.4 -9.4,-0.4 -13.8,-0.1 -4.8,0.3 -10.5,1.2 -11.5,1.8 -0.7,0.4 -7.6,1.8 -9,1.8 -1.4,0 -1.7,-0.1 -2.7,-1.1 -1,-1 -1.1,-1.3 -1.1,-2.7 0,-2.9 2.7,-6.9 6.2,-9.2 1.5,-0.9 1.7,-1.2 1.8,-2.5 0.2,-1.1 0,-1.7 -0.4,-2.8 -1.2,-2.6 -0.6,-6 1.3,-7.9 0.6,-0.5 2,-1.4 3.3,-1.9 2.4,-1 2.3,-1 10.7,-0.8 4.4,0.1 7.5,-0.4 13.6,-2 7,-1.9 7.4,-1.9 24.5,-2.1 20.7,-0.2 24.3,-0.7 31.3,-3.8 3.9,-1.7 5.8,-2.8 9.1,-5.3 2.8,-2.1 12.2,-10.7 18.3,-16.7 6.5,-6.4 10.8,-10.1 14.7,-12.7 17.9,-11.8 22.6,-16.2 27.5,-26 2.9,-5.9 6.1,-9.8 12.1,-15 4.9,-4.3 7.3,-6.7 9.3,-9.5 0.8,-1.1 2.1,-2.7 3,-3.6 1.8,-1.9 9.5,-8.7 13.2,-11.7 2.4,-1.9 8.6,-8.6 11.4,-12.1 5.6,-7.2 8.9,-14.3 13.5,-29.6 2.2,-7.3 3.5,-13 3.5,-15.7 0,-1 -0.2,-1.6 -0.8,-2.2 -0.7,-0.7 -0.8,-1 -0.6,-2.3 0.1,-0.8 0.6,-2.3 1.1,-3.3 1.2,-2.4 1.4,-3.3 0.8,-3.8 -0.3,-0.2 -0.8,-0.4 -1.2,-0.3 -0.6,0.1 -0.8,0.5 -1.3,2.1 -0.7,2.5 -0.8,2.7 -1.8,2.7 -0.5,0 -1.1,0.2 -1.4,0.6 -0.8,0.7 -1.5,0.3 -2,-1.1 -0.3,-0.8 -0.4,-0.9 -0.9,-0.7 -1.2,0.7 -2.1,-0.5 -1.7,-2.3 0.2,-1 0.2,-1 -0.4,-0.5 -1.5,1.4 -2.9,0.3 -2.1,-1.8 0.2,-0.7 0.4,-1.3 0.4,-1.4 0,-0.1 -0.8,0.3 -1.7,0.7 -1.4,0.6 -1.9,0.7 -2.4,0.5 -0.9,-0.5 -0.8,-1.4 0.5,-2.9 1,-1.2 1.1,-1.4 0.6,-1.6 -0.8,-0.4 -0.6,-1.7 0.3,-2.4 0.9,-0.7 1,-1 0.3,-1 -0.3,0 -0.6,-0.2 -0.8,-0.5 -0.3,-0.5 -0.4,-0.4 -1.3,0.2 -1,0.8 -2.3,0.7 -2.3,-0.2 0,-0.8 -0.6,-0.5 -1.8,1 -0.8,1 -1.4,1.4 -1.9,1.4 -1.1,0 -1.3,-0.8 -0.4,-2.5 0.6,-1.1 0.6,-1.5 0.3,-1.6 -0.6,-0.2 -1.4,-1 -1.4,-1.4 0,-0.2 0.4,-0.6 1,-0.9 0.9,-0.5 1,-0.6 0.8,-2.2 -0.2,-1.5 -0.1,-1.7 0.4,-1.9 0.4,-0.1 0.7,-0.4 0.8,-0.7 0.2,-0.6 1.6,-0.6 2.5,-0.1 0.5,0.2 0.9,0.3 1.3,0 0.4,-0.2 1.1,-0.5 1.6,-0.6 1.1,-0.3 1.3,-1.2 0.3,-1.3 -0.9,-0.1 -1.5,-0.8 -1.2,-1.4 0.1,-0.3 0.9,-0.7 1.7,-1.1 1.9,-0.7 2.9,-1.4 3.3,-2.1 0.3,-0.6 0.3,-0.6 -1,0.1 -1.7,0.9 -3,0.8 -3.1,-0.3 -0.1,-0.4 0.1,-1 0.4,-1.3 0.5,-0.6 0.5,-0.6 -0.4,-0.8 -2.2,-0.5 -2,-1.9 0.4,-3.1 l 1.5,-0.8 -1,-0.2 c -1.1,-0.2 -1.5,-0.9 -1,-1.9 0.2,-0.5 0.2,-0.7 0,-1 -0.6,-0.6 -0.4,-2 0.4,-2.9 0.7,-0.7 0.7,-0.9 0.3,-1.2 -1.2,-1 -0.4,-2.3 1.7,-2.9 0.7,-0.2 0.8,-0.3 0.7,-1.8 -0.1,-0.9 -0.3,-2.1 -0.5,-2.8 -0.3,-1 -0.3,-1.3 0.1,-1.7 0.7,-0.7 1.7,-0.3 2.9,1.4 l 1,1.5 0.9,-1.6 0.9,-1.6 -0.1,-1.4 c -0.5,-1 -0.6,-1.4 -0.2,-2.1 0.2,-0.5 0.6,-1 0.8,-1.1 0.4,-0.2 0.4,-0.3 -0.1,-1.1 -0.6,-1.1 -0.4,-2 0.5,-2 1,0 0.8,-0.6 -0.8,-3.1 -1.2,-1.8 -1.4,-2.3 -1,-2.6 0.3,-0.3 0.8,-0.2 2.6,0.6 2.2,1 2.2,1 2.6,0.3 0.3,-0.4 0.6,-0.7 0.9,-0.7 0.3,0 0.5,-0.6 0.6,-1.6 0.1,-0.9 0.4,-1.9 0.7,-2.2 0.3,-0.3 0.5,-1 0.5,-1.6 0,-1.1 0.6,-1.9 1.8,-2.2 0.7,-0.2 0.7,-0.3 0.6,-1.3 -0.2,-1.1 -0.2,-1.1 0.9,-1 0.6,0.1 1.3,0.2 1.5,0.3 0.3,0.1 0.6,-0.3 0.7,-0.9 0.2,-0.6 0.5,-1.1 0.9,-1.2 0.5,-0.1 0.6,-0.7 0.8,-4.5 0.3,-5.6 -0.1,-13.8 -0.7,-17.5 -1.5,-8.6 -5.9,-19.3 -11.4,-28.1 -2.3,-3.7 -6.7,-9.6 -9.2,-12.4 -2.8,-3.2 -3.4,-4 -8.5,-11.5 -2.6,-3.8 -5.7,-8.9 -7.2,-11.8 -3,-5.8 -5.8,-10.5 -7.8,-13.2 C 162,55.6 154.7,49.9 147.6,46.3 137.7,41.4 131,37.1 127.5,33.5 125.7,31.6 122.6,27.8 117.1,20.6 110.8,12.4 109.2,11 101.9,6.9 99.8,5.7 96.6,3.9 94.8,2.9 93,1.9 90.8,0.8 89.8,0.4 87.5,-0.4 81.5,-1.4 77.3,-1.7 72.7,-2 69,-2.6 60.8,-4.5 56.1,-5.6 52.5,-6.7 50.1,-7.6 c -2,-0.8 -4.8,-1.9 -6.3,-2.4 -3.1,-1.1 -10.2,-5 -17.8,-9.7 -11.1,-6.9 -11.4,-7 -18.6,-9.8 -7.3,-2.9 -8.4,-3 -17.5,-3 -8.8,0 -13.3,0.5 -20.9,2.1 -2.9,0.6 -7.1,1.5 -9.3,2 -2.2,0.5 -6.6,1.4 -9.8,2.2 -18.5,4.2 -24.1,5.7 -32.9,8.9 -9.9,3.5 -9.5,3.4 -18.1,5.3 -2.2,0.5 -4.6,1.1 -5.4,1.3 -2.4,0.6 -8.8,2.9 -11.1,3.9 -3.7,1.7 -6.5,2.8 -10.6,4.4 -5,1.8 -18.1,8.3 -23,11.4 -2,1.3 -5.2,3.5 -7,4.9 -1.8,1.4 -5.1,4 -7.3,5.6 -3.7,2.9 -8.8,7.7 -11,10.5 -0.5,0.7 -1.5,2.2 -2.2,3.3 -1.5,2.4 -3.2,4.6 -8,10.5 -2,2.4 -4.4,5.6 -5.4,7.2 -4.3,6.7 -12,17.6 -16.9,24 -5.6,7.2 -7.9,11.5 -9.6,18 -2,7.8 -3.5,17.9 -3.4,23.8 0,3.8 0.4,6.2 1.8,12.5 0.5,2.1 1.1,5.3 1.4,7 l 0.5,3.2 1.4,0.1 c 0.8,0.1 1.6,0.2 1.8,0.4 0.2,0.1 0.8,0.4 1.4,0.5 1.4,0.3 1.9,1.3 1.2,2.8 -0.5,1.1 -0.3,1.8 0.4,1.3 0.6,-0.3 1.6,0.2 1.6,0.8 0,0.3 -0.3,0.8 -0.6,1 -1.3,0.9 -0.9,1.2 1.3,1.3 2.2,0.1 3.5,0.7 3.5,1.8 0,1 -1.2,2.2 -2.8,2.7 -1.6,0.6 -2.7,1.3 -2.7,2 0,0.6 0.6,0.5 3.5,-0.2 1.3,-0.4 3.4,-0.8 4.7,-1.1 1.3,-0.3 2.7,-0.6 3.3,-0.9 1.3,-0.5 2,0 2,1.5 0,0.8 -0.3,1.3 -1.1,2 l -1.1,1 1.1,0.9 c 1.2,1 1.4,2.2 0.4,2.8 -0.4,0.2 -0.6,0.6 -0.6,1 0,0.8 -0.9,1.2 -1.6,0.7 -0.5,-0.3 -0.6,-0.3 -0.6,0.7 0,0.6 -0.1,1.3 -0.2,1.6 -0.3,0.7 -1.6,0.6 -1.9,-0.1 -0.3,-0.8 -1.7,-2.6 -2.1,-2.6 -0.2,0 -0.3,0.7 -0.2,1.5 0.1,1.4 0.1,1.5 -0.8,1.7 l -0.9,0.2 0.9,0.6 c 1.3,0.9 1.1,1.9 -0.5,2.1 l -1.2,0.1 0.7,0.8 c 0.6,0.7 0.7,0.9 0.3,1.4 -0.3,0.5 -0.3,0.8 0,1.1 0.5,0.5 -0.1,1.4 -0.9,1.4 -0.4,0 -0.3,0.1 0.2,0.5 0.4,0.3 0.7,0.8 0.7,1.1 0,0.7 -1.3,2.8 -2.1,3.4 -0.6,0.5 -0.6,0.5 0.7,1 0.6,0.2 1,0.6 1.1,0.9 0.1,0.3 0.3,0.9 0.4,1.3 0.5,1.1 0.1,2.3 -1.2,3.1 l -1.2,0.7 0.7,0.6 c 0.9,0.8 0.7,1.7 -0.4,1.8 -1,0.1 -1,0 -0.4,1.5 1.1,2.6 0.2,4.2 -2.2,4.1 -0.7,0 -1.5,-1.8 -1.5,-3.2 0,-0.9 -0.5,-1.7 -1.1,-1.7 -0.2,0 -0.3,0.8 -0.3,2.4 v 2.4 l 1.1,0.6 c 1.5,0.8 1.7,2.2 0.5,3.2 l -0.9,0.7 0.7,0.8 c 1.1,1.1 0.8,1.9 -0.8,2.1 -1.5,0.2 -1.5,0.4 0.2,2.9 0.8,1.1 1.3,2.2 1.3,2.8 0,1.2 -1.4,2.9 -2.4,2.9 -0.9,0 -1.5,-0.6 -2.7,-3.1 -0.5,-1.1 -1.1,-2.1 -1.3,-2.2 -0.2,-0.1 -0.7,0 -1.2,0.1 -0.8,0.3 -0.9,0.4 -0.6,1.7 0.1,0.7 0.3,2.2 0.3,3.3 0,1.8 0,1.9 -0.8,2.3 -0.6,0.3 -0.9,0.7 -0.9,1.2 0,1.1 -1.1,1.8 -2.4,1.5 l -1.1,-0.2 0.5,1.2 c 0.4,0.8 0.4,1.6 0.3,2.4 -0.5,2.5 -0.2,9.4 0.6,14.4 0.5,2.7 0.9,6.1 1.1,7.5 1,12.2 3.8,28 6.4,36.8 2.1,7 5.8,15.4 9,20.9 2.9,4.9 9,13.9 10.7,15.9 8,9.3 17.7,17.8 30.7,27 11.3,8 17.9,12.2 21.9,13.9 1.7,0.7 15.6,6.1 19,7.4 2.5,0.9 6.4,2.7 9.5,4.5 14.1,8 26,13.9 38.1,19 5.1,2.1 9.2,4.5 11.5,6.5 l 1.8,1.6 v 2 c 0,2 0,2 -1.6,3.4 -1.8,1.7 -4.3,2.9 -5.8,2.9 -1.2,0 -2.5,1.4 -2.9,3.1 -1,4.6 -1.5,5.8 -2.3,7.2 -0.5,0.8 -1.5,2 -2.1,2.5 -2.4,2.2 -4.8,1.6 -10.9,-2.6 -4.8,-3.3 -11.6,-6.8 -17,-8.6 -3.2,-1.1 -11.4,-3.1 -11.6,-2.9 -0.1,0.1 0.6,1.2 1.5,2.6 2.5,4 4.8,8.9 5.9,12.2 2.4,7.7 4.2,16.9 4.2,21.6 0,1.2 -0.3,3.9 -0.6,5.9 -0.3,2 -0.8,4.8 -0.9,6.1 -0.4,3 -0.6,3.8 -2,6.6 -1.2,2.3 -3.1,4.5 -6.1,6.7 -0.9,0.7 -3.6,2 -6.4,3.1 -8,3.2 -7.3,3 -16.2,3.2 -4.3,0 -9.7,-0.1 -11.9,-0.2 z m 17.1,-3.9 c 4.2,-0.7 9.9,-2.6 13.4,-4.2 5.1,-2.4 9.7,-9.6 8.5,-13.3 -0.9,-2.7 -4.8,-6.2 -6.8,-6.2 -1.5,0 -2.1,0.5 -3.1,2.7 -1.1,2.4 -3.5,5.1 -5.2,6 -3.1,1.6 -10.2,3.7 -15.5,4.5 -2.9,0.5 -9.9,0.5 -13.1,0.1 -5,-0.7 -11.6,-3.4 -19.3,-7.9 -7.5,-4.4 -13,-7.7 -17.2,-10.4 -2.5,-1.6 -5.6,-3.6 -7.1,-4.5 -3.5,-2.1 -6.4,-4.2 -10.6,-7.7 -1.9,-1.6 -4.2,-3.4 -5,-4 -5.5,-3.7 -12.4,-12 -14.7,-17.6 -1.4,-3.5 -1.8,-5.4 -1.8,-11.3 0,-3 -0.2,-5.6 -0.3,-5.7 -0.1,-0.1 -0.7,0.1 -1.2,0.4 -1.7,0.9 -4.7,0.6 -6.6,-0.7 -1.1,-0.8 -1.6,-1 -1.9,-0.7 -0.9,0.7 -1.2,2.7 -1.2,6.7 0,3.6 0.1,4.5 1.3,8.8 2.1,7.9 5.9,16.8 9.1,20.7 2.7,3.4 9.9,8.9 14.6,11.1 16.1,7.6 23.4,11.8 31.7,18.2 6.6,5 7.8,5.9 11.3,7.9 5,2.9 6.7,3.6 11.4,4.8 13.7,3.4 20.3,3.9 29.3,2.3 z m -6.3,-12.9 c 2.2,-0.5 5.8,-1.4 7.9,-2.1 3.5,-1.1 4.1,-1.5 5.7,-2.9 1.4,-1.3 2.1,-2.3 3.2,-4.6 0.8,-1.6 1.5,-3.5 1.6,-4.1 0.3,-1.8 -0.5,-7.3 -1.6,-11.6 -2.2,-8 -5.9,-13.3 -11.8,-17.1 -2.5,-1.6 -4.6,-2.3 -10.1,-3.6 -4.8,-1.1 -12,-3.5 -15.5,-5.3 -2.7,-1.3 -9.4,-6 -12.4,-8.5 -3.6,-3.1 -5.6,-5.4 -9.5,-11 -6.1,-8.8 -9.7,-11.4 -17.6,-12.8 -5.8,-1 -13.7,-0.1 -19.9,2.4 -4,1.6 -5.5,2.8 -7,5.4 -1.3,2.3 -3.1,7 -3,7.8 0,0.3 0.2,3.3 0.3,6.7 0.3,6.9 0.7,8.6 2.5,12.3 2.5,4.9 8.4,11.7 13.5,15.4 1.4,1 3.9,3 5.6,4.5 3.6,3.1 6.7,5.3 10,7.2 1.3,0.8 4.7,2.9 7.5,4.7 2.8,1.8 7.3,4.6 9.9,6.2 2.6,1.5 6,3.5 7.4,4.3 6.1,3.6 12.4,6.2 16.8,7.1 1.2,0.2 4.4,0.4 7.3,0.4 4.4,0 5.8,-0.2 9.2,-0.8 z m 30.3,-12 c 0.3,-5.6 -0.3,-11 -1.7,-15.1 -1.6,-4.7 -4.5,-11.4 -6.8,-15.2 -1,-1.8 -2.5,-4.3 -3.2,-5.6 -2,-3.5 -3.2,-5.2 -6.2,-8.8 -3,-3.7 -8.3,-8.4 -11.2,-10.1 -5.4,-3.2 -6.5,-3.8 -7.7,-4.3 -2.1,-0.9 -8.8,-2 -14.3,-2.5 -9.4,-0.8 -15.1,-3 -21.9,-8.2 -3.4,-2.6 -9.8,-6.6 -13.9,-8.7 -2,-1 -10,-3.5 -12.1,-3.7 -5.9,-0.5 -14.3,2.1 -21.3,6.8 -3.5,2.4 -5.7,4.6 -7.3,7.6 -2.8,5.2 -3.3,7.7 -2.2,9.9 1.6,3.1 5,3.4 7.1,0.8 0.3,-0.4 0.8,-1.5 1,-2.5 0.8,-3 3.2,-7.4 4.6,-8.6 3.9,-3.4 13.2,-6.1 21,-6.1 3.9,0 8.7,0.7 11.7,1.9 4.6,1.7 8.7,5.5 13.3,12.1 3.8,5.6 5.8,7.9 9.3,10.8 3.4,2.9 9.1,6.7 12.1,8.2 3.3,1.7 10.4,4.1 14.7,5 5.2,1.1 5.9,1.4 8.5,2.6 2.4,1.1 5.8,3.7 8.3,6.4 4.6,4.9 8.2,15 8.3,23.3 v 3.4 h 1 c 2.2,0 5.8,2.8 7.5,5.8 l 0.6,1.1 0.3,-1.1 c 0.2,-0.8 0.4,-3.1 0.5,-5.2 z m -43.6,-44.4 c -2.2,-0.7 -5,-2.5 -6,-3.9 -1.6,-2.1 -1.5,-4.5 0.3,-6.5 0.7,-0.8 1.4,-1.2 2.7,-1.5 2,-0.4 3.1,-0.3 6.6,0.8 4.3,1.4 6.9,4.1 6.5,7.1 -0.2,1.9 -1,3.2 -2.2,3.9 -1.3,0.8 -5.3,0.9 -7.9,0.1 z m 7,-1.9 c 0.4,-0.3 0.9,-1 1.1,-1.6 0.5,-1.4 0.1,-2.5 -1.6,-4.1 -2.5,-2.4 -7.2,-3.4 -10,-2.2 -2.5,1.1 -2.7,2.5 -0.8,4.7 1.2,1.3 3.2,2.6 5.2,3.2 1.8,0.7 5.2,0.6 6.1,0 z m 129.7,44.7 c 1.1,-0.3 3.2,-0.9 4.7,-1.3 7.6,-2.2 14.4,-2.7 27.3,-2 4.8,0.3 9.8,0.6 11.2,0.7 3.9,0.4 9.4,-0.1 12.3,-1.2 3.9,-1.4 5.2,-2.8 5.6,-5.7 0.3,-2.6 -1.4,-3.8 -5.6,-3.7 -3,0 -12.1,0.6 -20.6,1.4 -4.4,0.4 -11.8,0.8 -18.4,0.9 -10.6,0.2 -11.1,0.3 -13,1 -2.7,1.1 -4,1.9 -5.6,3.8 -2.3,2.6 -3.1,4.9 -2,6 0.6,0.8 1.6,0.7 4.1,0.1 z m 210.4,-2.9 c 8.1,-1.4 14.1,-3.5 17.9,-6.1 1.1,-0.8 3.6,-2.8 5.4,-4.4 3.8,-3.5 6.6,-5.2 12.3,-7.7 5.5,-2.4 7.5,-3.6 12.9,-7.3 5.6,-3.9 7.9,-6.3 9.8,-10.3 1.3,-2.6 1.4,-3.1 1.1,-3.9 -0.7,-1.8 -0.3,-5 1.6,-12 1.3,-4.9 2.6,-8.2 4.1,-10.2 1.7,-2.3 3.2,-5.3 3.2,-6.5 0,-0.6 -0.3,-1.9 -0.7,-2.9 -0.5,-1.5 -0.6,-2.1 -0.4,-3.1 0.3,-1.4 1.1,-1.7 2.7,-0.9 1.2,0.6 2.6,0.6 3.1,0.1 0.6,-0.7 1.3,-3.8 1.3,-5.5 0,-1.7 -0.5,-2.6 -2.5,-4.6 -1.7,-1.7 -1.3,-2.2 2,-2.8 1.3,-0.2 1.7,-0.4 2.2,-1.3 1.3,-2.3 0.9,-8.3 -1.1,-14.6 -0.6,-1.8 -1.3,-4.1 -1.6,-5.2 -0.5,-1.7 -0.7,-2.1 -1.9,-2.9 -0.7,-0.5 -2.2,-1.9 -3.3,-3.1 -1.1,-1.2 -2.4,-2.4 -2.9,-2.7 -0.9,-0.4 -1,-0.4 -2.2,0.7 -2.1,1.9 -4.1,2.1 -4.6,0.3 l -0.3,-1 -0.9,1.2 c -0.5,0.7 -0.9,1.4 -0.9,1.5 0,0.4 1.7,1.6 4.2,3 5.7,3.1 7.8,8.4 7.8,20.1 v 5.9 l -1.3,5.1 c -0.8,3.2 -2,6.5 -3.1,9 -1,2.2 -1.8,4.1 -1.8,4.3 0,0.6 -3.6,4.9 -6,7.2 -1.2,1.2 -3.3,2.7 -4.6,3.5 -4.4,2.5 -14.2,9.3 -16.3,11.2 -2.5,2.3 -3.7,4.4 -6.9,12.6 -2.7,7 -3.1,7.8 -5.5,11.1 -3.1,4.4 -6.2,6.6 -11.8,8.8 -5.9,2.3 -12.4,3.8 -18.8,4.5 -6.3,0.7 -15,-0.2 -19,-2 l -1.2,-0.5 0.2,1.4 c 0.3,2.1 -0.3,3.6 -2,5.4 -1.5,1.5 -1.5,1.6 -0.9,1.9 0.4,0.1 1.8,0.7 3.1,1.2 3.4,1.4 5.6,1.9 10.5,2.4 5.7,0.3 11.2,0.1 17.1,-0.9 z m 38.6,-30.3 c -1.5,-0.8 -2.1,-2.1 -1.9,-4.3 0.3,-2.7 1.4,-5.6 3.4,-8.4 2,-3 3.8,-4.6 6.2,-5.8 2.1,-1 2.5,-1 5,-0.3 2.7,0.7 3.2,1.5 3.1,4.4 -0.2,4.3 -3.3,9.3 -7.7,12.5 -3.3,2.5 -5.8,3 -8.1,1.9 z m 6,-3.2 c 4,-2.7 7.4,-7.6 7.7,-11.3 0.1,-1.5 0.1,-1.7 -0.8,-2.3 -2,-1.4 -3.4,-1.2 -6.4,0.9 -3,2.2 -5.7,7.2 -6.3,11.6 -0.4,2.9 2.4,3.4 5.8,1.1 z M 61.9,429.3 c 7.4,-0.9 9.6,-1.4 14.1,-3.2 2.4,-0.9 5.2,-2 6.2,-2.3 1,-0.3 4.8,-2.1 8.3,-3.9 8.1,-4.1 9.3,-4.6 13.9,-5.2 14.5,-1.8 21.9,-3.7 28.9,-7.4 3.5,-1.8 8,-4.9 9.8,-6.7 1,-1 5.8,-9.3 7,-12 0.5,-1.2 1.5,-4.5 2.2,-7.4 2.6,-10.5 8.6,-24.1 14.1,-32.3 4.6,-6.9 6,-10.3 5,-13.1 -0.5,-1.5 -1.7,-2.9 -3,-3.6 -1.2,-0.6 -3.5,-0.4 -5,0.4 -1.9,1 -5.7,4.9 -7.1,7.5 -1.3,2.3 -2,3.9 -6.1,13.4 -2.2,5.2 -3.2,6.9 -5.5,9.7 -4.1,5 -12.7,11.6 -20.8,15.9 -10.7,5.8 -17.7,11.7 -25.8,21.7 -7.2,9 -14.5,14.4 -23.9,17.5 -4,1.4 -7.1,1.7 -16,2 -6.4,0.2 -6.7,0.2 -8.4,1 -2.3,1.1 -3,2.2 -3,5 0,1.6 0.1,2.2 0.5,2.5 1.5,1.4 6.6,1.5 14.6,0.5 z m 62.3,-26.2 c -2.3,-0.2 -3.7,-0.8 -5,-2.1 -0.7,-0.7 -0.8,-1.2 -0.8,-2.7 0,-3.5 1.6,-5.3 7.8,-9.2 5.7,-3.6 8.1,-4.7 10.1,-4.8 3.9,-0.3 5.6,1.8 5.4,6.2 -0.5,7.4 -8.7,13.4 -17.5,12.6 z m 4.9,-2.3 c 6.2,-1.6 10.3,-5.5 10.7,-10.3 0.3,-3 -0.7,-4.3 -3,-4.5 -1.6,-0.1 -3.2,0.7 -7.5,3.5 -7.8,5.2 -9,6.3 -9,8.5 0,1.5 0.6,2.1 2.6,2.8 2.2,0.8 3.2,0.8 6.2,0 z m 30.7,25.3 c 1.7,-1 2.4,-2.6 2.2,-5 0,-0.3 -1.1,-1.8 -2.4,-3.2 -2.9,-3.3 -4.1,-5.6 -4.8,-9.7 -1.3,-7.1 0,-15 4,-23.9 1.6,-3.4 2.8,-5.1 5.9,-8.2 3.5,-3.4 12.8,-9.6 20.1,-13.3 2.3,-1.2 3.9,-2.7 6.2,-6 3.2,-4.5 4.4,-7.9 4.3,-12.9 0,-4.5 1.4,-9.3 3.8,-13 2,-3 8.4,-9.3 11.8,-11.6 7,-4.7 11.3,-6.1 18.4,-6.4 5.8,-0.2 8,0.2 12.5,2.2 4.8,2.2 4.8,2.2 6.3,0.2 1.5,-2 1.5,-6.6 0,-7.2 -1,-0.4 -4.6,0.5 -6.9,1.7 -2.3,1.2 -3.7,1.4 -4.4,0.8 -0.8,-0.7 -0.4,-1.9 1.1,-3.5 1.7,-1.8 1.7,-2.4 0.2,-3.4 -1.3,-0.9 -2.6,-0.9 -8.6,-0.2 -3.1,0.4 -5.2,0.8 -7.5,1.6 -4.5,1.5 -5.6,1.8 -7.4,1.4 l -1.5,-0.3 -3,3.2 c -1.6,1.8 -4.7,4.5 -6.8,6 -2.1,1.6 -5.1,4.2 -6.8,5.8 -6.8,6.5 -11,10.2 -13.1,11.4 -5.6,3.3 -15.5,16.1 -20.3,26.1 -3.8,7.9 -6.9,16.5 -8.6,23.5 -1.7,7.2 -3.5,11.6 -7,17.6 -3,5.1 -3.7,8 -3.5,14 0.2,3.8 1,6.5 2.6,8.6 1,1.3 4.4,3.7 5.9,4.2 2,0.5 6,0.3 7.3,-0.5 z m 13.6,-65.4 c -2.9,-1.3 -3.6,-3.1 -2.9,-7 0.9,-4.7 4.2,-9 8.4,-11.1 1.8,-0.9 2.5,-1 4.4,-1 2.8,0 4.2,0.7 5.1,2.5 1.2,2.4 0.4,7.3 -1.7,10.5 -1.1,1.6 -5.3,5.1 -7.5,6.1 -1.6,0.7 -4.1,0.7 -5.8,0 z m 6,-2.9 c 3.1,-1.9 5.5,-4.4 6.4,-6.7 1,-2.7 1.2,-5.3 0.5,-6.4 -0.7,-1 -2.3,-1.7 -4,-1.7 -3.6,0 -8.7,4.8 -9.8,9.2 -0.9,3.6 -0.5,5.5 1.6,6.4 1.7,0.7 3.1,0.5 5.3,-0.8 z m -191.7,65.9 c 0.7,-0.2 5.9,-0.5 11.5,-0.7 5.6,-0.2 13.3,-0.7 17.1,-1 3.8,-0.4 10.2,-0.9 14.2,-1.2 8,-0.5 10.7,-0.4 12.9,0.7 1.2,0.6 1.3,0.6 1.7,0.2 0.6,-0.7 4.1,-2.7 6,-3.5 1.6,-0.6 2.6,-0.7 9,-0.7 7.5,-0.1 8.5,-0.2 13,-1.7 6.6,-2.2 11,-4.9 16.7,-10.5 2.2,-2.2 5.8,-6 7.9,-8.5 3.8,-4.6 8.8,-9.4 13.3,-12.9 3,-2.3 8.2,-5.7 10.4,-6.9 4.7,-2.4 14.2,-8.9 17.6,-12 1.8,-1.7 5.3,-6.5 6.4,-9 0.5,-1.2 1.8,-4.4 2.9,-7.2 1.9,-5 4.3,-9.8 6.8,-13.3 2.9,-4.1 6.1,-6.2 10.3,-6.5 1.1,-0.1 2,-0.3 2,-0.5 0,-0.2 0.2,-1.1 0.5,-2.1 0.7,-2.6 3,-4.8 9.4,-9.2 6.5,-4.5 7.5,-5.4 12.1,-10.2 5.5,-5.9 9.5,-11.4 13.5,-18.8 2.8,-5.3 4,-7.9 5.5,-12 1.9,-5.2 4.1,-9.4 5.9,-11.4 0.9,-1 1.6,-2 1.6,-2.3 0,-0.3 0.8,-1.9 1.8,-3.6 l 1.8,-3.2 v -3.2 c 0,-2.8 -0.2,-3.6 -1.1,-5.9 -1.2,-3.1 -1.2,-3.6 -0.4,-5.2 0.4,-0.7 0.5,-1.3 0.3,-1.6 -0.4,-0.7 -1.8,0.8 -2.4,2.6 -0.3,0.9 -0.9,2 -1.4,2.5 -0.9,1 -0.9,1 -1.9,9.4 -0.3,2.6 -1.7,8.5 -2.6,10.9 -1,2.7 -5.6,12.9 -7,15.5 -0.9,1.7 -2.6,4.5 -3.8,6.3 -1.2,1.8 -3.8,5.6 -5.7,8.6 -4.3,6.6 -8.3,11 -15.6,17 -4.9,4 -6,5.1 -10.9,10.6 -2.5,2.8 -4.9,4.9 -9.7,8.3 -4.4,3.2 -6.1,5.6 -10,14.6 -2.8,6.3 -4.6,9.6 -7,12.3 -2.7,3.2 -10.2,9.4 -17,14.2 -3.4,2.4 -7.2,5.2 -8.5,6.2 -1.3,1.1 -4.3,3.4 -6.6,5.2 -5.3,4.2 -14.7,12.8 -20.3,18.6 -4.4,4.5 -8,7.3 -12.4,9.5 -3.5,1.8 -12.7,3.6 -20.6,4.1 -3,0.2 -5.8,0.4 -6.3,0.5 -3.5,0.7 -11.2,1.2 -28.5,1.9 -9.8,0.4 -13.3,0.7 -23.7,2 -9.3,1.2 -9.9,1.3 -10.7,2.6 -0.6,1 -0.6,1.1 0,0.9 0.5,0 1.3,-0.3 2,-0.4 z m 198.1,-2.2 c 1.2,-0.3 3,-0.6 4,-0.8 3.2,-0.6 7.1,-1.9 12,-4.1 9.5,-4.2 13.1,-7.9 16.6,-17 3.4,-8.9 4.7,-11.2 8.6,-15.4 2.4,-2.6 6.2,-5.3 10,-7 4.6,-2.1 10,-6.1 13.1,-9.7 3.9,-4.6 7.9,-15.6 8.3,-23.1 0.2,-3.7 -0.5,-10.5 -1.4,-13.1 -1.4,-4.1 -3.5,-7.2 -6.2,-9 -1,-0.7 -2.3,-1.8 -2.8,-2.4 -0.7,-0.8 -1.3,-1.1 -2.3,-1.3 -0.8,-0.1 -2.4,-0.7 -3.6,-1.3 -4.4,-2.2 -5.8,-2.5 -11.1,-2.5 -6.2,0 -8.4,0.5 -13.8,3.2 -4.6,2.3 -7.3,4.4 -12.1,9.3 -5.5,5.6 -6.9,8.7 -7.4,16.7 -0.4,6.3 -1.2,8.7 -4.7,13.6 -2.3,3.4 -4.2,5.2 -6.7,6.5 -3.2,1.7 -8.6,4.9 -13.2,7.8 -2.9,1.9 -4.8,3.4 -7,5.6 -3.4,3.4 -4.4,5 -6.5,10.1 -3,7.5 -3.9,14 -2.9,19.5 0.9,4.5 1.5,5.9 4.1,8.7 1.3,1.4 2.5,2.8 2.7,3.1 0.3,0.4 0.8,0.6 1.5,0.6 0.6,0 1.6,0.3 2.3,0.6 1.5,0.8 2.6,1 7,1.5 5,0.5 9,0.5 11.5,-0.1 z M -7.4,420.1 c 2.5,-0.4 5.8,-0.9 7.5,-1.1 5.1,-0.8 9,-1.2 17.6,-1.5 15.5,-0.7 26.4,-1.3 29.3,-1.8 1.6,-0.3 5.1,-0.6 7.7,-0.8 4.8,-0.3 7.5,-0.8 13.6,-2.2 4.7,-1.1 6.2,-1.7 10.3,-4.5 2.9,-1.9 4.7,-3.5 9.9,-8.7 7.1,-7.2 13.2,-12.7 19.8,-17.9 6.9,-5.5 8.3,-6.6 13.7,-10.4 7.7,-5.4 13.9,-10.5 16.9,-14.1 2.1,-2.5 4.4,-6.7 7,-12.7 3.5,-8.3 5.8,-11.3 11.8,-15.6 3.9,-2.8 6,-4.8 11.1,-10.4 1.8,-1.9 5,-5 7.7,-7.1 7.1,-5.8 11.3,-10.3 15.5,-16.8 1.9,-3 4.5,-6.9 5.7,-8.6 2.8,-4.1 4.7,-7.6 7.6,-14.4 2.9,-6.6 4.6,-12.2 5.3,-16.8 0.3,-1.9 0.7,-4.5 0.9,-5.8 0.2,-1.3 0.3,-3.3 0.3,-4.4 -0.1,-1.5 0.1,-2.3 0.6,-3.3 1.3,-2.6 0.4,-3.8 -1.4,-1.8 -1.2,1.3 -1.4,1.4 -2.3,0.7 -0.3,-0.3 -0.9,-0.5 -1.1,-0.5 -0.3,0 -0.6,-0.2 -0.7,-0.5 -0.5,-1.2 -0.8,0.1 -0.8,2.9 0,3.8 -0.8,9.8 -1.7,13.6 -2.2,8.6 -7,21.4 -10.3,27.6 -4,7.4 -14.7,20 -21.3,25 -3.7,2.9 -6.6,5.7 -10.1,9.8 -4,4.8 -4.9,5.7 -9.3,9.5 -7.4,6.4 -8.4,7.6 -11.6,13.8 -6,11.6 -10,15.9 -21.7,23.2 -8.9,5.6 -14.7,10.2 -23.5,18.7 -7.4,7.2 -16.4,15.3 -19.3,17.4 -4.6,3.5 -8.4,5.1 -15.7,6.7 l -4.2,0.9 -16.4,0.1 c -18.7,0.1 -21.4,0.3 -32.2,3 -3.3,0.8 -4,0.9 -11,0.9 -9.9,0.1 -11.7,0.6 -12.7,3.7 -0.5,1.5 -0.5,2.2 0.4,3.8 0.7,1.3 0.8,1.4 1.7,1.2 0.4,0 2.9,-0.4 5.4,-0.8 z m -74.1,-9.4 c 2.2,-2.4 2.5,-4.7 1.1,-7.2 -1.1,-1.9 -2.7,-3.4 -5.8,-5.6 -4.9,-3.5 -5.7,-3.8 -20.3,-8.3 -4,-1.2 -9,-3.3 -11.3,-4.6 -1.4,-0.8 -8.6,-5.6 -13,-8.6 -1.2,-0.9 -2.8,-1.7 -3.6,-1.9 -2,-0.5 -4.6,-0.4 -5.8,0.2 -1.3,0.6 -2,2.3 -1.3,2.7 6.9,4 13.2,9.4 17.2,14.6 2.3,3 2.3,3.1 4.7,3.9 1.3,0.5 3.7,1.1 5.4,1.5 4.9,1.1 9.8,2.8 14.7,5.1 2.5,1.2 4.7,2.2 4.8,2.2 0.1,0 2,1.3 4.1,2.8 6.5,4.6 7.5,5 9.1,3.2 z m 5.2,-10.3 c 0.5,-0.7 0.8,-1.4 0.7,-1.7 -0.2,-0.6 -3.3,-3 -5.1,-3.8 -0.8,-0.4 -2.4,-1.3 -3.4,-2 -1.1,-0.7 -3.9,-2.1 -6.3,-3.2 -2.4,-1.1 -11.5,-5.4 -20.2,-9.7 -8.7,-4.3 -18.2,-8.8 -21.2,-10.1 -3,-1.3 -7,-3 -8.9,-3.9 -1.9,-0.9 -5.4,-2.3 -7.7,-3.2 -15.2,-5.7 -36.9,-20.2 -48.2,-32.2 -2.7,-2.9 -7.3,-8.5 -11,-13.3 -10.6,-13.9 -13.4,-19 -18.3,-33.5 -3.8,-11.4 -7.7,-27.8 -8.7,-36 -0.1,-1.1 -0.6,-4.4 -1,-7.5 -2.1,-15.2 -2.4,-18.6 -1.7,-21.2 0.5,-1.8 0.4,-1.8 -0.1,-1.8 -0.8,0 -2,2.2 -2.7,5 -0.4,1.8 -0.5,3.7 -0.4,10.1 0.1,7.7 0.1,7.9 -0.6,8.9 l -0.7,1 0.8,1.5 c 0.6,1.1 1.1,3.3 1.8,7.9 1,6.5 2.7,15.4 3.9,20.9 0.6,2.8 6.7,21.3 8.4,25.6 2.5,6.3 6.7,14.9 9.6,19.6 5,8.2 15.8,20.5 22.7,26 10,8 18.6,12.5 32.5,17.4 5.3,1.8 7.4,2.5 14.4,4.5 1.1,0.3 2.7,1.1 3.5,1.7 1.3,1 2.9,3.5 2.9,4.6 0,0.4 0.2,0.5 1.2,0.2 0.7,-0.2 2.5,-0.3 4.1,-0.3 3.7,0 4.9,0.6 10.9,4.9 7.2,5.2 14.4,8.7 23.6,11.3 11.2,3.2 14.6,4.5 18.1,7.1 1.8,1.4 5,4.6 5.6,5.7 0.2,0.4 0.5,0.7 0.5,0.6 0.1,0.2 0.5,-0.4 1,-1.1 z m 6.2,-3.8 c 0.9,-0.7 2.2,-2.7 2.2,-3.4 0,-0.5 -0.6,-1.1 -2,-2.1 -2.9,-2.1 -5.4,-3.4 -10.9,-5.7 -14.4,-5.9 -19,-8.1 -25.9,-12.2 -5.6,-3.3 -14.4,-8 -17.8,-9.4 -6.2,-2.6 -9.5,-3.9 -13.9,-5.6 -7.9,-3 -9.9,-4 -14.8,-7 -4.9,-3.1 -11.6,-7.5 -14.4,-9.7 -1,-0.7 -3.5,-2.5 -5.6,-4 -6.1,-4.2 -10.8,-8.1 -17.3,-14.6 -7.4,-7.3 -9.7,-10 -13.9,-16.2 -8.5,-12.7 -12.6,-21.4 -16.2,-34 -1.3,-4.7 -3.7,-17.3 -4.5,-23.9 -0.4,-3 -0.9,-7.4 -1.2,-9.8 -0.3,-2.4 -0.6,-5.4 -0.8,-6.7 -0.6,-4.6 -1.1,-11.8 -0.9,-12.8 0.1,-0.7 0.1,-1 -0.3,-1 -0.3,0 -1,-0.5 -1.6,-1.1 l -1.1,-1.1 -0.3,1 c -0.7,2.1 -2,2.7 -3.2,1.5 -0.6,-0.7 -0.6,-0.6 -1,0.8 -0.7,2.7 -0.3,7.8 1.3,19.4 0.2,1.3 0.6,4.6 1,7.2 1.5,11.3 4.6,24 8.7,36.5 4.9,14.6 7.5,19.6 17.3,32.4 6.6,8.7 12.3,15.2 16.5,18.9 1.4,1.2 2.9,2.6 3.4,3.1 0.5,0.5 2.3,2 4,3.3 11.8,9.2 25.5,17.3 36.1,21.1 1.8,0.6 4.7,1.9 6.6,2.7 1.9,0.8 5.7,2.5 8.5,3.7 4.4,1.8 23.1,10.7 29.2,13.8 5.7,2.9 10.9,5.4 13.4,6.5 5.6,2.3 13.8,6.3 15.4,7.5 1.7,1.3 3.1,1.6 4,0.9 z m 328.6,-17.1 c 1.5,-3.5 0.9,-2.9 1.5,-3.5 1.3,-1.8 3,-2.1 6.7,-3 6.8,-1.2 7.5,-3.5 10.8,-8 1.8,-2.9 2.3,-3.8 2.3,-7.8 0,-3.2 -1,-4.4 -1.9,-6.6 -0.6,-1.3 -1.5,-3.1 -2.4,-4.7 -2.4,-4.2 -2.8,-5.8 -3.2,-10.8 -0.2,-2.4 -0.6,-5.3 -0.8,-6.4 -0.5,-2.4 -2.4,-6.3 -3.3,-7.2 -0.7,-0.6 -0.7,-0.6 -0.7,0.4 0,0.5 -0.3,1.4 0.3,2.4 0.8,2 1.3,4.1 1.9,6.6 1,3.8 1.1,6.9 1.1,10 0.1,3 0.2,2.7 -0.3,4.3 -0.4,1.1 -1,1.9 -2.4,2.1 l -2.9,-0.3 2,1.4 c 2.4,1.2 2.8,8.1 0.3,10.8 -1.1,1.2 -2.5,2.1 -4.3,1.3 l -1.9,-1.5 1.4,3.1 c 1.1,2.7 1.1,3.4 -2.6,8.6 -2.8,3.9 -5.3,10.8 -5.7,16.3 l -0.7,4.2 2,-4.2 c 0.2,-0.7 1.3,-2.3 2.3,-5.8 z m -402.6,-4.2 c 1,-2.2 0,-4.6 -2.3,-5.4 -0.8,-0.3 -3.3,-1.2 -5.7,-2.1 -2.4,-0.9 -7.4,-2.7 -11.2,-4 -7.9,-2.6 -11.5,-4.2 -16.1,-6.7 -1.8,-1 -4.5,-2.5 -6.1,-3.3 -3.9,-2.1 -7.9,-4.8 -10.6,-7.1 -4.6,-3.9 -16.1,-15.6 -18.4,-18.7 -4.3,-5.9 -11,-17.5 -14.5,-25.2 -5.2,-11.4 -10.1,-28.9 -11.6,-41.3 -1.8,-14.7 -2,-15.8 -3.2,-17.2 -0.5,-0.6 -1.2,-1.1 -1.6,-1.1 -1.6,0 -4,2.2 -5,4.5 -0.3,0.7 -0.5,2.2 -0.5,3.7 0,2.2 0.2,3.4 1.6,8.1 1.8,6.1 2.3,9 2.4,13.4 0,3.9 -0.4,6.1 -3.3,16 -2.9,10.3 -3.7,13.9 -3.9,18.9 -0.2,5.1 0.3,8.7 1.9,13.4 2.4,6.9 4.5,10.5 8.9,14.9 4.2,4.1 8.6,6.1 17.7,7.9 4.9,1 9.5,2.4 12.3,3.7 1.5,0.7 4,2.5 7.6,5.3 0.7,0.6 2.6,1.5 4.2,2.1 5.2,1.9 12.4,5.8 17.8,9.7 4.7,3.4 9.3,5.8 14.9,7.7 2,0.7 3.1,0.8 9.3,1 6.1,0.2 7.4,0.4 10,1.1 1.6,0.5 3.2,1 3.5,1.1 1.1,0.6 1.5,0.5 1.9,-0.4 z M -235.2,327 c -2.8,-1 -7.6,-4.9 -9.1,-7.4 -1.2,-2 -1.4,-5.4 -0.6,-8.8 0.5,-2 0.8,-2.6 2.1,-3.9 1.6,-1.6 2.3,-1.8 4.5,-1.2 3.6,1 9.6,11.1 9.6,16.2 0,2 -1,4.1 -2.3,4.9 -1.2,0.7 -2.5,0.8 -4.2,0.2 z m 3.1,-1.7 c 0.8,-0.3 1.4,-1.9 1.4,-3.6 0,-4.5 -5.7,-13.8 -8.9,-14.6 -1.8,-0.5 -3.3,1.2 -4.2,4.7 -1,4.1 0,6.9 3.5,9.9 3.7,3 6.5,4.3 8.2,3.6 z m 407.2,11.9 1.6,-2.1 -1.6,-0.1 -1.6,-0.1 -0.1,2.2 c -0.1,1.2 -0.1,2.2 -0.1,2.2 0.1,-0.1 0.9,-1 1.8,-2.1 z m 2.9,-5 c 2.6,-0.8 4.3,-2.1 8.9,-6.4 2.1,-2 4.6,-4.2 5.5,-4.9 0.9,-0.7 2.7,-2.2 4,-3.4 3.3,-3.1 6.2,-5.6 8.1,-6.9 2.2,-1.6 4.3,-3.9 6.1,-6.7 1.4,-2.2 5.2,-10.5 6.3,-13.9 0.3,-0.9 1.4,-3.2 2.5,-5.1 2.7,-5 5.4,-11.8 5.4,-13.8 0,-1.6 -0.9,-4.2 -1.8,-5.2 -1.1,-1.3 -2.8,-1.8 -4.3,-1.3 -2.6,0.8 -4.9,4.5 -7.5,11.9 -2.8,7.9 -5,12.7 -9.5,20 -2.6,4.3 -6.8,9.3 -11.9,14.3 -4.1,4 -6.2,5.8 -11,8.9 -6.3,4.2 -8,6 -8,8.5 0,2 2.6,4.7 4.7,4.7 0.2,-0.1 1.4,-0.4 2.5,-0.7 z m 88.6,-15.1 c -0.2,-1.1 -0.3,-3.6 -0.4,-5.4 0,-3.8 -0.6,-7 -1.6,-9 -1.8,-3.6 -5.7,-6 -10.3,-6.7 -2.9,-0.4 -8.3,0.1 -10.9,1 -4.1,1.4 -8.3,1.7 -13.3,1.7 -3.3,0 -6.6,0.7 -8.6,1.5 -1.2,0.5 -4.2,1.3 -4.2,1.3 -2.1,0.5 -2.4,1.6 -2.4,2.5 0,0.5 2,0.1 5,-0.9 3.5,-1.2 6.2,-1.6 11.9,-2.1 4.9,-0.4 5,-0.4 6.6,0.3 2.5,1.1 4.2,4 2.9,5.1 -3.4,2.8 -3.5,3.4 2.8,0.7 3.4,-1.4 3.4,-1.4 6.4,-0.5 3.9,1.2 4.7,3.2 4.4,5.6 -5.6,7.5 1.1,1.5 1.8,1.4 1.2,-0.3 3.6,0.4 5.4,2.5 1.9,2.2 4,3.9 4.4,3.5 0.4,-0.3 0.3,-1.4 0.1,-2.5 z m -13.4,-6.2 c 0,-0.6 -1,-1.7 -1.6,-1.7 -0.1,0 -0.2,0.9 -0.2,2 0,1.1 -0.1,2.4 -0.2,2.8 -0.2,0.5 0.1,0.3 0.9,-0.8 0.5,-0.9 1.1,-1.9 1.1,-2.3 z m -24.9,-44.3 c 1.3,-3 1.8,-5.7 2.4,-12.9 0.8,-11.3 1.1,-13.2 2.5,-16.3 0.9,-2.1 2.4,-3.7 4.8,-5.5 3,-2.2 5,-4.3 6.9,-7.3 2.1,-3.3 3.4,-6.3 4.8,-11.8 1,-3.9 1,-4 0.8,-9.9 -0.2,-5.3 -0.3,-6.5 -1.3,-10.9 -0.6,-2.7 -1.5,-5.9 -1.9,-7 -1,-3 -3.7,-8.7 -6.2,-12.9 -2.7,-4.7 -5.5,-10.4 -6.1,-12.8 -0.3,-1.3 -0.6,-4.1 -0.8,-8.5 -0.3,-8.2 -0.4,-8.5 -3.2,-8.7 -1.3,-0.1 -2.5,-0.4 -3.9,-1.1 -1.1,-0.6 -2.1,-0.9 -2.2,-0.8 -0.1,0.1 -0.2,1.2 -0.1,2.5 0,1.7 0.3,2.9 1,4.5 0.8,1.9 0.9,2.7 0.9,5.3 0,4.6 -1.2,7.1 -4.7,9.7 -1,0.8 -1.6,0.9 -3.1,0.9 -1.7,0 -2,-0.1 -2.8,-0.9 l -0.9,-0.9 -0.5,0.7 c -0.7,1.1 -1.6,1.2 -3.1,0.5 -1.3,-0.6 -1.4,-0.6 -1.8,0 -0.2,0.4 -0.8,0.6 -1.1,0.6 -0.4,0 -0.8,0.3 -1,0.7 -0.2,0.4 -0.8,0.8 -1.4,1 -1,0.3 -1.1,0.5 -1.2,1.9 -0.1,1.1 -0.2,1.6 -0.7,1.7 -0.5,0.2 -0.6,0.6 -0.7,2.2 -0.1,1.8 -0.2,2 -0.8,2.1 -0.4,0.1 -0.9,0.4 -1,0.7 -0.4,0.7 -2.2,0.9 -2.8,0.2 -0.5,-0.5 -0.5,0 0.1,1 0.5,0.9 0.6,3.2 0.2,3.2 -0.2,0 -0.3,0.5 -0.3,1.2 0,0.7 -0.2,1.4 -0.6,1.9 l -0.7,0.7 0.7,1.2 0.7,1.2 -1,2 c -0.5,1.1 -1,2.3 -1.1,2.6 -0.1,0.8 -1.3,1 -2.3,0.4 -0.4,-0.3 -0.8,-0.5 -0.9,-0.5 -0.1,0 -0.1,0.9 -0.1,2 l 0.1,2 -1,0.1 c -1,0.1 -1,0.2 -0.8,1.2 0.1,0.9 0,1.2 -0.7,1.8 l -0.9,0.7 0.7,0.6 c 0.4,0.4 0.7,0.9 0.7,1.1 0,0.3 0.3,0.5 1.1,0.5 2.4,0 2.4,1.9 0,3.4 l -1.7,1 1.1,0.9 c 0.6,0.5 1.3,0.9 1.5,0.9 1.5,0 1.7,2.7 0.2,4.3 -0.5,0.6 -1.2,1.2 -1.6,1.3 -0.5,0.2 -0.6,0.4 -0.4,1.4 0.2,1.6 -0.5,2.7 -2,3.2 -0.7,0.2 -1.4,0.7 -1.7,1.1 -0.5,0.6 -0.6,0.6 -1.6,0.3 -1,-0.4 -1.1,-0.3 -1.6,0.3 -0.5,0.7 -1.3,2.9 -1.1,3.1 0.1,0.1 0.7,-0.2 1.4,-0.6 1.2,-0.6 1.4,-0.7 2.1,-0.2 0.5,0.3 0.9,0.4 1.2,0.2 0.6,-0.4 2,-0.4 2.5,0.1 0.2,0.2 0.4,0.7 0.4,1.2 0,0.6 0.1,0.7 0.5,0.6 0.3,-0.1 0.8,-0.1 1.3,0.1 1.1,0.4 1.1,1.9 0.1,2.8 -1.1,1 -1.1,3.2 -0.1,3.2 1,0 1.5,0.6 1.5,1.7 0,0.7 0.2,1.1 0.7,1.3 0.5,0.2 0.8,0.7 0.9,1.4 0.1,0.8 0.4,1.1 0.9,1.3 0.4,0.1 0.9,0.5 1.1,0.9 0.6,1.1 1.7,0.5 2,-1.2 0.3,-1.6 1.6,-2.6 3.5,-2.6 1,0 1.5,0.2 2.4,1.1 1.1,1.1 1.1,1.2 0.9,2.9 -0.2,1.4 -0.1,1.7 0.3,1.7 0.3,0 0.8,0.3 1.1,0.6 0.9,0.9 1.8,1.1 2.3,0.5 0.2,-0.3 0.9,-0.5 1.8,-0.5 1.4,0 2.5,0.7 2.9,2 0.2,0.6 0.2,0.6 1.1,-0.1 2.8,-2 5.9,0.9 4.2,4.1 l -0.7,1.3 0.7,1.7 c 1.2,2.9 1.6,4.8 1.6,7.8 0,2.9 0,3 -1.4,5.7 -0.8,1.5 -1.4,2.8 -1.4,2.9 0,0.1 0.4,0.1 0.8,0.1 1.6,0 3.6,0.7 4.7,1.6 1.2,1 2.5,3.3 2.5,4.6 0,0.4 0.1,0.8 0.2,0.8 -0.7,-0.1 -0.3,-1 0.2,-2.1 z m -6.8,-36.9 c -1.4,-0.7 -2.6,-2.4 -2.6,-3.8 0,-3.1 3.1,-6.5 5.3,-6 2.6,0.6 4.6,2.7 4.6,4.8 0,1.2 -1.1,3.3 -2.2,4.4 -1.2,1.2 -3.4,1.4 -5.1,0.6 z m 3.5,-1.9 c 1.1,-0.8 2,-2.9 1.6,-3.9 -0.3,-0.8 -1.7,-2.1 -2.6,-2.4 -0.7,-0.3 -2.5,1.1 -3,2.2 -0.6,1.4 -0.6,2.8 0,3.4 1,1.3 2.8,1.6 4,0.7 z m 7.4,-0.5 c -1.8,-0.7 -2.5,-3.2 -1.5,-5.6 0.6,-1.6 3.5,-4.3 4.8,-4.5 1.2,-0.2 2.8,0.5 3.4,1.4 0.5,0.9 0.4,3.4 -0.1,4.7 -1.4,3.4 -4,5 -6.6,4 z m 3.3,-2.5 c 1.3,-1.4 1.9,-2.9 1.8,-4.3 -0.1,-1.7 -0.8,-2.2 -2.3,-1.5 -2.2,1.1 -3.5,3.8 -2.8,5.8 0.3,0.7 0.5,0.9 1.4,0.9 0.7,0 1.3,-0.2 1.9,-0.9 z m -27.2,-5.7 c -2.8,-1.4 -5.9,-6.5 -6.6,-10.8 -0.5,-2.8 -0.2,-10.2 0.5,-12.8 1.2,-4.5 3.5,-8.4 6.5,-10.7 3.5,-2.7 10,-2.4 12.6,0.7 1,1.2 2.1,3.9 2.6,6.4 0.8,4.3 -0.9,15.9 -2.9,19.8 -3.1,6 -8.8,9.4 -12.7,7.4 z m 4.9,-2.3 c 1.8,-0.9 4.8,-4.2 5.9,-6.6 2.2,-4.9 3.5,-15.6 2.3,-19.5 -1,-3.5 -1.7,-4.5 -3.5,-5.4 -2.1,-1 -4.9,-1.1 -6.8,-0.1 -2.8,1.3 -5.6,5.6 -6.9,10.1 -0.6,2.1 -0.7,3.4 -0.7,7.6 0,5 0,5.2 1.1,7.7 1.1,2.7 3.1,5.6 4.6,6.3 1.1,0.8 2.4,0.7 4,-0.1 z m -1.7,-13.5 c -0.6,-0.8 -0.6,-1.5 -0.1,-2.6 0.5,-1.1 1.4,-1.3 2.4,-0.7 1.5,1 0.7,4 -1,4 -0.5,0 -1,-0.3 -1.3,-0.7 z m 16.2,11.1 c -0.9,-0.6 -1.7,-2.1 -1.7,-3 0,-1.4 1,-2.8 2.3,-3.3 1.9,-0.8 2.7,-0.6 4,0.5 0.9,0.8 1.2,1.3 1.2,2.3 0,2.6 -1.3,4.1 -3.8,4.1 -0.7,-0.1 -1.6,-0.4 -2,-0.6 z m 3.3,-1.5 c 1.1,-0.9 1,-2.3 -0.2,-3.3 -0.9,-0.6 -0.9,-0.6 -1.9,0 -0.6,0.3 -1.2,1 -1.4,1.5 -0.3,0.8 -0.2,1 0.6,1.7 1.1,1 1.8,1 2.9,0.1 z m 7.5,1.4 c -1,-1.1 -1.3,-2 -1.1,-3.3 0.3,-1.6 1.4,-2.6 3.1,-2.8 1.2,-0.1 1.5,-0.1 2.1,0.7 1,1.3 1,3.6 -0.1,4.9 -0.7,0.8 -1.1,1 -2.2,1 -0.9,0 -1.5,-0.2 -1.8,-0.5 z m 2.2,-1.2 c 1.4,-1 1.2,-3.4 -0.4,-3.4 -1.4,0 -2.3,2.1 -1.3,3.2 0.7,0.8 0.8,0.8 1.7,0.2 z m -1.7,-8.5 c -0.6,-0.2 -1.5,-0.8 -2,-1.4 -1.2,-1.4 -1.4,-3.5 -0.3,-5.2 1.7,-2.8 6.8,-3.5 8.6,-1.2 1,1.2 0.8,4.5 -0.3,5.7 -1.5,1.6 -4.3,2.5 -6,2.1 z m 2.1,-1.7 c 2.3,-0.8 3.7,-3.1 2.9,-4.7 -0.5,-0.9 -2.1,-1.3 -3.5,-0.9 -1.2,0.4 -2.8,2.1 -3.1,3.3 -0.2,0.7 0,1 0.8,1.8 1.1,1 1.4,1.1 2.9,0.5 z m -11.1,-6.3 c -0.9,-0.4 -1.4,-1.6 -1.4,-3.3 0,-1.1 0.2,-1.6 1,-2.4 1.2,-1.2 2.3,-1.3 3.8,-0.3 0.9,0.6 1.1,0.9 1.2,2.2 0.1,1.8 -0.3,2.6 -1.6,3.5 -1.2,0.7 -2,0.8 -3,0.3 z m 2.1,-2.2 c 0.9,-0.9 0.8,-1.7 -0.3,-2.3 -1.3,-0.8 -2,-0.4 -1.9,1 -0.1,1.9 1,2.5 2.2,1.3 z m 3.4,-4.5 c -0.9,-0.8 -1,-1.1 -1.2,-3 -0.2,-2.3 0.5,-3.8 2,-4.8 1.6,-1.1 4.2,-0.5 5.6,1.3 0.8,1 0.9,3.5 0.2,4.9 -1.2,2.5 -4.7,3.3 -6.6,1.6 z m 3.8,-1.5 c 1,-0.7 1.6,-2.5 1.1,-3.5 -0.5,-0.9 -1.5,-1.5 -2.7,-1.7 -1.1,-0.1 -1.9,1 -1.9,2.8 0,2.5 1.6,3.6 3.5,2.4 z m -8.2,-9 c -1.8,-1.6 -1.6,-4.7 0.3,-7.4 0.9,-1.3 1,-1.3 2.8,-1.3 1.8,0 2,0.1 2.9,1.1 1.2,1.3 1.3,3.1 0.4,5.1 -1.4,3.2 -4.4,4.3 -6.4,2.5 z m 3,-1.7 c 0.9,-0.7 1.8,-2.4 1.8,-3.3 0,-0.8 -1.2,-1.8 -2.2,-1.8 -1.3,0 -2,1.1 -1.9,3.3 -0.1,2.5 0.7,3.1 2.3,1.8 z M -242.9,240 c 0.6,-0.9 0.7,-3.9 0.3,-9.8 -0.2,-3.9 -0.2,-5.1 0.2,-7.4 1,-5.3 2.7,-7.7 5.4,-7.7 0.7,0 1.9,0.2 2.5,0.4 1.4,0.5 1.5,0.4 1.5,-0.8 0,-1.6 1.5,-2.4 2.6,-1.5 0.3,0.2 0.9,1 1.4,1.8 0.6,1 1,1.3 1.2,1 0.3,-0.3 0.2,-0.8 -0.4,-2.1 -0.4,-1 -0.6,-2 -0.5,-2.4 0.2,-0.8 1.7,-1.3 2.8,-1.1 0.8,0.1 0.9,0.1 0.8,-0.8 0,-1.1 0.5,-1.7 1.3,-1.7 0.7,0 0.7,-0.7 0.2,-2.7 -0.5,-1.9 0,-3.5 1.3,-4.2 1.1,-0.6 3.5,-0.6 4,-0.1 0.2,0.2 0.2,0 0,-1 -0.3,-1.3 -0.3,-1.4 0.5,-2.1 0.6,-0.5 0.8,-0.9 0.7,-1.5 -0.1,-0.6 0.1,-1 0.6,-1.5 0.5,-0.5 0.6,-0.8 0.4,-0.9 -1.7,-0.6 -2.6,-2.4 -1.5,-3.3 0.4,-0.3 0.4,-0.8 0.3,-2.4 -0.2,-1.4 -0.1,-2.2 0.2,-2.5 0.5,-0.6 2.9,-0.6 3.8,0 0.7,0.5 0.7,0.5 0.7,-0.1 0,-0.4 0.1,-0.7 0.3,-0.8 0.2,-0.1 0.3,-0.5 0.3,-0.8 0,-0.4 0.5,-1 1.3,-1.5 0.7,-0.5 1.3,-0.9 1.3,-1 0,-0.4 -1.9,-2.3 -2.3,-2.3 -0.3,0 -0.8,-0.3 -1.2,-0.6 -1,-0.8 -0.6,-1.7 1,-2.5 1,-0.5 1.2,-0.7 0.9,-1 -0.2,-0.2 -0.3,-0.7 -0.2,-1 0.1,-0.3 -0.1,-0.8 -0.6,-1.3 -0.5,-0.4 -0.7,-0.9 -0.6,-1.2 0.1,-0.3 0,-0.6 -0.2,-0.7 -0.5,-0.3 -0.4,-1.6 0,-2 0.2,-0.2 0.7,-0.4 1.1,-0.4 0.6,0 0.7,-0.2 0.7,-1.2 0,-0.9 0.1,-1.3 0.6,-1.5 0.6,-0.3 0.6,-0.5 0.3,-1.2 -0.4,-1.1 0,-1.9 1,-2.1 0.5,-0.1 0.7,-0.3 0.7,-1 0,-1.9 1.5,-2.8 3.2,-1.8 1.1,0.6 1.4,0.6 1.1,-0.1 -0.1,-0.3 0,-0.9 0.3,-1.2 0.4,-0.5 0.6,-0.6 1.1,-0.2 0.4,0.2 0.9,0.4 1.2,0.4 0.4,0 0.2,-0.3 -0.7,-1 -1.5,-1.2 -1.5,-2.1 0.1,-2.9 0.6,-0.3 0.8,-0.5 0.5,-0.4 -0.4,0.1 -1.9,0.4 -3.4,0.7 -1.5,0.3 -3.4,0.7 -4.3,1 -0.9,0.3 -1.9,0.5 -2.3,0.5 -1,0 -2.3,-1.3 -2.3,-2.4 0,-1.2 1.7,-3 3.5,-3.6 0.9,-0.3 1.6,-0.7 1.6,-0.8 0,-0.2 -1.1,-0.3 -2.4,-0.3 -2.7,0 -3.3,-0.3 -3,-2 0.1,-0.8 0,-1.2 -0.4,-1.6 -0.7,-0.7 -0.8,-1.5 -0.1,-2.7 0.5,-0.9 0.5,-0.9 -0.4,-0.9 -0.5,0 -1.1,-0.2 -1.3,-0.5 -0.6,-0.7 -0.9,-0.3 -1.9,1.9 -1,2.3 -2.3,3.6 -3.8,4.1 -2.6,0.7 -3.3,-1.5 -1.6,-5.2 0.5,-1.1 0.9,-2.1 0.8,-2.2 -0.1,-0.1 -0.6,0.2 -1.1,0.6 -1.4,1 -2.1,0.6 -2.1,-1.4 0,-2.2 -0.5,-2.5 -1.8,-1.1 -1,1.2 -1.8,1.4 -2.5,0.8 -0.3,-0.3 -0.6,-0.3 -1.5,0 -0.6,0.2 -1.3,0.3 -1.4,0.2 -0.6,-0.4 -0.3,-1.7 0.8,-3.2 0.6,-0.9 1.1,-1.8 1.1,-2.2 0,-0.5 -0.1,-0.5 -0.9,-0.1 -0.5,0.2 -1.2,1 -1.7,1.7 -1.1,1.6 -2.4,2.1 -3.5,1.2 -1.9,-1.4 -2.1,-2.4 -2.1,-7.4 0,-5 -0.1,-4.7 2.8,-12.3 1.2,-3.2 1,-6.3 -0.4,-6.3 -0.3,0 -0.7,-0.1 -0.8,-0.2 -0.1,-0.1 -0.9,-0.2 -1.8,-0.1 -1.2,0.1 -1.9,-0.1 -2.7,-0.6 -0.6,-0.4 -1.6,-0.7 -2.2,-0.7 -1,0 -1.4,0.3 -2.5,1.4 -1.6,1.6 -3.3,4.7 -3.5,6.5 -0.1,0.7 0,2.5 0.3,3.9 0.7,3.9 1,9.8 0.6,12.1 -0.6,3 -1.6,4.8 -6,10.4 -5.8,7.4 -9,11.8 -10,13.9 -1.3,2.6 -3.5,8.5 -4.6,12.2 -0.8,2.9 -0.9,3.6 -0.9,8.2 0,6 0.6,9.9 1.8,13.2 1.2,3.1 2.6,5.3 6.4,9.7 5.8,6.9 8.4,12.5 9.2,20.4 0.3,2.3 0.5,5.3 0.5,6.8 0,1.4 0.2,3.7 0.5,5 0.5,2.4 1.9,6.2 2.6,6.9 0.2,0.2 1.5,0.5 2.8,0.7 3.6,0.4 3.8,0.3 4.4,-0.5 z m -11.4,-33.6 c -2.5,-1.1 -2.8,-6.6 -0.5,-7.9 0.3,-0.2 1.2,-0.3 1.9,-0.3 1,0 1.5,0.2 2.2,0.9 1.1,1.1 1.4,2.2 1.1,4.1 -0.2,1.1 -0.5,1.8 -1.3,2.6 -1,1.2 -1.8,1.3 -3.4,0.6 z m 2.4,-1.8 c 0.9,-1 1,-3.2 0.1,-4.2 -0.6,-0.6 -2.3,-0.7 -2.9,-0.2 -0.2,0.2 -0.4,1.1 -0.4,1.9 0,1.2 0.2,1.7 0.8,2.3 1,1.1 1.6,1.1 2.4,0.2 z m -6.9,-8.1 c -1.3,-0.6 -2,-2 -2,-3.9 0,-4.1 2.2,-6.3 4.8,-5.1 2.1,1 2.8,3.8 1.5,6.4 -1.1,2.5 -2.6,3.3 -4.3,2.6 z m 2.5,-2.4 c 0.5,-0.6 1,-1.6 1.1,-2.3 0.2,-0.9 0.1,-1.3 -0.6,-2 -0.5,-0.6 -1.1,-0.9 -1.5,-0.8 -1.7,0.3 -2.8,3.9 -1.7,5.6 0.6,1.1 1.5,0.9 2.7,-0.5 z m 20.4,1.1 c -2.7,-0.8 -3.6,-1.3 -4.9,-2.7 -2.9,-3.1 -3.7,-13.4 -1.5,-20.9 0.5,-1.8 1.6,-4.6 2.3,-6 2.2,-4.5 7,-9 9.6,-9 1.1,0 2.4,0.5 4.3,1.8 1.4,0.9 1.9,1.6 2.8,3.4 3,6.1 3.2,13.6 0.7,21.6 -0.6,2 -1.5,4.5 -2,5.4 -1.1,2.2 -4.6,5.9 -6.2,6.6 -1.6,0.7 -2.2,0.6 -5.1,-0.2 z m 5.1,-2.9 c 1,-0.6 3.2,-3.2 4,-5 1,-2.1 2.6,-7.3 3,-10 0.5,-3.6 0.2,-8.8 -0.8,-12 -1.1,-3.4 -1.9,-4.5 -4,-5.6 -1.5,-0.8 -1.8,-0.8 -3,-0.5 -2.6,0.7 -7,6.3 -8.2,10.4 -2,6.8 -1.6,16.7 0.7,20.1 0.8,1.2 2.4,2.3 3.7,2.7 1.4,0.4 3.7,0.4 4.6,-0.1 z m -2.6,-13.7 c -1.5,-1.4 0.2,-5.1 2,-4.7 1.4,0.3 1.9,3.5 0.8,4.9 -0.5,0.7 -2.1,0.6 -2.8,-0.2 z m -18.6,9.7 c -1.6,-0.9 -2.1,-4.9 -0.9,-6.5 0.6,-0.7 0.9,-0.8 2.3,-0.9 2.2,0 3.2,0.9 3.2,3 0,1.7 -0.8,3.9 -1.6,4.4 -0.8,0.4 -2.3,0.4 -3,0 z m 2.2,-1.6 c 0.8,-0.9 1,-3.3 0.4,-3.8 -0.8,-0.6 -2.2,-0.3 -2.7,0.6 -0.4,0.9 -0.1,2.4 0.7,3.3 0.7,0.7 0.9,0.7 1.6,-0.1 z m -11.9,-4.7 c -1.5,-0.9 -1.8,-1.7 -1.7,-4.3 0.1,-2.5 0.9,-4 2.6,-4.9 1.6,-0.8 2.8,-0.6 4.1,0.8 1.2,1.1 1.2,1.4 1.3,3 0,4.3 -3.4,7.2 -6.3,5.4 z m 3.4,-2 c 0.4,-0.6 0.8,-1.7 0.9,-2.6 0.1,-1.3 0,-1.7 -0.6,-2.4 -0.9,-1 -1.8,-1 -3.2,-0.1 -1.2,0.8 -1.7,2.3 -1.4,4 0.4,2.2 3,2.8 4.3,1.1 z m -3.4,-9.7 c -1,-1 -1.1,-1.3 -1.1,-3 0,-3.4 1.9,-5.5 4.3,-4.9 1.9,0.5 2.4,1.3 2.5,3.5 0,1.5 -0.2,2.3 -0.8,3.4 -1.5,2.4 -3.2,2.8 -4.9,1 z m 3.2,-1.8 c 1,-1.5 1,-3.6 0,-4.3 -1,-0.7 -1.7,-0.6 -2.3,0.2 -1,1.5 -1,3.8 0,4.9 0.8,0.7 1.5,0.5 2.3,-0.8 z m 8.1,1.7 c -1.4,-0.5 -1.9,-1.5 -1.9,-3.3 0,-2.4 0.7,-3.4 2.7,-3.7 2.8,-0.4 4.6,1.4 4.1,4 -0.6,2.4 -2.7,3.7 -4.9,3 z m 2.3,-2.1 c 0.4,-0.4 0.6,-1.1 0.6,-1.6 0,-0.7 -0.2,-1 -1.1,-1.4 -1.4,-0.7 -2,-0.4 -2.2,1 -0.2,1.4 0,2.1 0.9,2.4 1,0.4 1.1,0.3 1.8,-0.4 z m -8.8,-9.6 c -1.6,-1.9 -0.8,-6.1 1.5,-7.8 0.9,-0.7 3,-0.8 4.1,-0.2 0.7,0.4 1.6,1.9 1.6,2.8 0,1.6 -0.8,3.2 -2.3,4.7 -1.3,1.3 -1.8,1.5 -2.8,1.5 -1,0 -1.5,-0.2 -2.1,-1 z m 3,-1 c 1.2,-0.8 2.5,-2.9 2.5,-3.9 0,-0.8 -1.2,-1.9 -2.3,-2.2 -0.7,-0.2 -1,0 -1.6,0.9 -0.9,1.2 -1.6,3.5 -1.3,4.4 0.2,0.7 1,1.6 1.4,1.6 0.1,-0.1 0.7,-0.4 1.3,-0.8 z m 9.4,0.7 c -1.6,-0.5 -2.3,-1.7 -2.3,-3.8 0,-3.4 1.7,-5.7 4.8,-6.4 1.4,-0.3 1.7,-0.3 2.4,0.1 1.4,0.9 1.9,2.3 1.7,4.8 -0.4,4.4 -2.8,6.4 -6.6,5.3 z m 3.4,-2.2 c 1,-0.9 1,-1.1 1.1,-3.3 0.1,-2 0,-2.4 -0.5,-2.9 -1.5,-1.3 -4.6,1.1 -5,3.9 -0.3,2.1 0.5,2.8 3.1,3.2 0.2,0 0.8,-0.4 1.3,-0.9 z m 25.5,48.4 c -0.3,-0.3 -0.4,-0.3 -0.2,0.2 0.1,0.3 0.3,0.5 0.4,0.4 0.1,-0.1 0,-0.4 -0.2,-0.6 z m 498.8,-41.7 c 8.8,-1.7 20.7,-8.9 25.5,-15.4 4.5,-6 7.7,-13.1 9.4,-20.9 1.1,-4.8 1.9,-7.2 3.4,-10.2 1.3,-2.7 3.5,-6 4.2,-6.5 0.7,-0.4 2.2,-3.9 2.9,-6.7 1,-3.9 1,-13.1 0.2,-16.8 -0.8,-3.3 -2.9,-10.1 -4.4,-13.9 -3,-7.7 -3.7,-11.9 -3.5,-20.3 0.3,-8.8 -0.4,-12.9 -3.2,-19 -1.4,-3.1 -5.6,-8.7 -8.1,-11 -3.3,-3 -8.7,-5.4 -14,-6.3 -2,-0.4 -7,-0.4 -7.3,-0.1 -0.1,0.1 0.2,1 0.8,1.9 1.4,2.6 1.3,4.1 -0.4,6.2 -1.7,2.2 -1.8,2.1 5.8,4.5 6.3,1.9 8.5,4.3 13.6,14.2 4.3,8.6 5.6,12 6.1,17 0.7,7.5 -0.6,12.8 -4.9,19.1 -3.8,5.6 -4.6,8.1 -4.6,13.2 0,5 0.9,7.6 3.7,11.7 0.9,1.2 1.8,3.2 2.5,5.1 0.9,2.7 1,3.5 1.2,7.7 0.2,5 -0.2,8.6 -1.5,13.4 -0.7,2.8 -4.1,10.1 -5.9,12.7 -4.5,6.6 -14,11.7 -22,11.7 h -1.9 l 0.1,3 c 0.1,2.7 0.1,3.1 -0.7,4.5 -1.3,1.9 -1.1,2 3,1.2 z m 31.5,-59.1 c -4,-2.1 -6,-8.8 -4.5,-15.1 1.2,-5.1 5,-8.4 8,-7 1,0.5 2.9,2.5 3.7,4 0.8,1.6 1.6,5.3 1.6,7.8 0,6.4 -2.6,10.8 -6.4,10.7 -0.8,0.1 -1.9,-0.1 -2.4,-0.4 z m 4.1,-2 c 1.6,-1.4 2.4,-3.3 2.7,-6.4 0.3,-2.3 0.2,-3 -0.4,-5.4 -0.8,-3.1 -1.2,-4 -2.6,-5.6 -1.7,-2 -3.7,-1.4 -5.7,1.6 -2,3 -2.3,7.6 -0.7,11.7 1.1,2.7 1.9,3.8 3.3,4.5 2,0.7 2.1,0.7 3.4,-0.4 z m -43.9,60.6 c 2.2,-0.6 2.8,-1.6 2.6,-4.6 -0.2,-4.1 -1.6,-5.2 -7.4,-5.6 -4.8,-0.4 -7.3,-1.2 -11.7,-3.5 -5.5,-2.9 -7.5,-4.2 -9.4,-6.3 -3.5,-3.8 -4.9,-6.5 -6.8,-12.9 -1.4,-5.1 -1.6,-5.5 -4.4,-10.4 -3.7,-6.7 -4.4,-9.3 -3.9,-15.9 0.4,-5.8 2,-10.5 6.3,-18.7 4.6,-8.8 5.2,-10.2 6.5,-15.5 0.6,-2.6 0.7,-3.6 0.6,-9.6 -0.1,-10.9 0.8,-14.8 4.6,-19.8 3.5,-4.6 6.8,-7.1 11.7,-9 5.5,-2.1 14.2,-4.7 15.8,-4.8 1.6,0 5,-1.4 6.2,-2.5 1.5,-1.3 1.6,-2.5 0.7,-4.9 -0.7,-1.7 -2,-2.6 -5.2,-3.4 -3.5,-0.9 -7.4,-0.3 -14.4,2.2 -7.4,2.7 -10.7,4.8 -18,11.6 -4.9,4.6 -9.7,8.7 -12.8,11.1 -1.4,1.1 -5.6,3.2 -8.8,4.6 -1.1,0.5 -2.5,1.4 -3.7,2.6 -1.8,1.7 -2,2.1 -2.9,4.9 -1.6,5.1 -1.3,8.1 1.4,14.1 3.6,8 4.9,18.3 3.7,31.1 -0.6,6.1 -0.4,8.1 1.2,13.7 1.2,4.3 2.6,7.2 5.7,12 3.6,5.6 5,9.4 5,13.4 0,1.5 -0.7,4 -1.3,4.7 -0.2,0.3 -0.2,0.7 0,1.3 0.2,0.5 0.4,1.7 0.6,2.6 0.2,1.7 0.3,1.9 3.3,4.9 5.3,5.5 8.6,7.6 16.3,10.5 2,0.8 4.6,1.6 5.8,1.9 2.3,0.6 10.7,0.7 12.7,0.2 z M 231.1,77.9 c -2.6,-1.2 -3.9,-3.7 -4.2,-8.4 -0.4,-4.5 1.4,-10.3 3.9,-13.1 1.5,-1.7 2.6,-2.3 4.5,-2.3 2.2,0 3.3,0.8 4.6,3.4 0.9,1.9 1.1,2.6 1.2,4.9 0.2,3.8 -0.4,7.8 -1.3,10 -0.9,2.1 -3.4,4.9 -4.9,5.6 -1.4,0.7 -2.3,0.6 -3.8,-0.1 z m 4,-3.1 c 3.7,-3.3 5,-11.8 2.6,-16.4 -1.7,-3.3 -3.9,-3 -6.1,0.8 -1.7,3 -2.1,4.4 -2.1,9.1 0,4.7 0.1,5.3 1.5,6.6 1.3,1.4 2.4,1.4 4.1,-0.1 z M 213.5,160 c 0.5,-1.9 1.2,-2.1 2.6,-0.7 0.7,0.6 1.7,1.2 2.3,1.3 l 1.1,0.2 -0.2,-4.6 c -0.1,-2.5 -0.5,-6.4 -0.9,-8.6 -1.1,-6.4 -2.6,-14.4 -3.2,-16.8 -1.1,-4.7 -6.8,-20.5 -8.9,-24.6 -1,-2 -4.7,-7.2 -8.6,-12.3 -7,-9 -9.8,-13.5 -13,-21 -3.3,-7.6 -7,-13.3 -13.8,-21.5 -5,-6 -8.7,-8.6 -20.5,-14.4 -9.2,-4.6 -12,-6.5 -17.3,-11.8 -3.7,-3.7 -5,-5.3 -7.7,-9.5 -2,-3.2 -5.1,-6.9 -7.7,-9.1 -6.4,-5.4 -12,-9.5 -15.6,-11.4 -5.1,-2.6 -12.9,-4.7 -19,-5.2 -2.1,-0.2 -4.9,-0.5 -6.1,-0.6 -1.2,-0.2 -4,-0.5 -6.1,-0.8 -2.1,-0.3 -4.8,-0.7 -5.9,-1 -3.6,-0.8 -13.5,-3.6 -17,-4.8 -6.6,-2.2 -14.1,-6.2 -17.6,-9.4 -8.2,-7.5 -18.9,-12.6 -31,-14.7 -4.4,-0.8 -17.7,-0.9 -23.2,-0.2 -3.8,0.5 -12,2.4 -13.4,3.1 -0.3,0.1 -2.7,0.9 -5.4,1.8 -5.5,1.7 -16,4 -29.9,6.5 -5,0.9 -14.3,3.8 -16.7,5.2 -3.2,1.9 -9.8,4.4 -13.8,5.2 -3.1,0.7 -9.4,2.8 -16.1,5.6 -17.5,7.1 -20.7,8.5 -21.5,9.1 -0.5,0.4 -3.8,2.1 -7.4,3.9 -7.2,3.6 -14.3,7.7 -18,10.5 -1.4,1 -3.5,2.5 -4.7,3.4 -1.2,0.9 -3.2,2.5 -4.5,3.7 -1.2,1.2 -4.3,3.9 -6.9,6.2 -4.3,3.7 -7,6.5 -10,10.2 -2.3,2.9 -7.5,10.4 -10.1,14.6 -5.7,9.2 -8.6,13.3 -14.2,20.5 -6.7,8.5 -10.1,15.4 -12.5,25.7 -1.5,6.1 -1.8,10.6 -1.1,15.3 0.3,2.1 0.7,7.5 0.9,12 0.5,10.7 1.2,13.6 3.5,14.5 1.3,0.5 1.8,1.4 1.5,2.5 -0.2,0.6 -0.2,0.7 0.6,0.1 0.5,-0.3 1.1,-0.5 1.6,-0.4 l 0.8,0.2 -0.4,-2 c -0.2,-1.1 -0.8,-3.7 -1.2,-5.7 -2.7,-12 -2.5,-20.4 0.5,-33.6 1.3,-5.8 1.8,-7.4 3.1,-10.4 1.7,-4.1 4.4,-8.2 8.2,-12.7 2.9,-3.5 7.8,-10.3 10,-14 2.1,-3.5 8.7,-12.6 11.8,-16.3 0.7,-0.9 2.3,-2.9 3.4,-4.5 1.1,-1.6 3,-4.1 4.3,-5.5 1.2,-1.4 3.1,-3.7 4.2,-5.1 2.4,-3.1 6.8,-7.4 9.8,-9.6 1.2,-0.9 3.4,-2.6 5,-3.8 9.3,-7.5 19.4,-13.3 34.5,-19.6 17.4,-7.2 20.1,-8.1 31.2,-10.3 1.9,-0.4 7.7,-2.3 12.5,-4.1 6,-2.3 9.1,-3.3 15.5,-5 7.1,-1.9 10.5,-2.7 26,-6.2 18.8,-4.3 20.5,-4.5 32.5,-4.6 h 9.4 l 4.2,1 c 9.2,2.3 11.1,3.2 22.6,10.8 4.9,3.3 7.8,4.9 14.3,8 11,5.3 14.2,6.5 22.6,8.4 8.6,1.9 9.6,2.1 15,2.4 8.2,0.4 12.4,1.5 19.6,5 4.4,2.1 12.5,7.6 15.9,10.7 1.1,1 4,4.5 6.4,7.7 10.2,13.4 12.7,15.6 25.9,23 9.2,5.1 13.7,8 17.2,11.3 3.3,3.1 5.5,5.8 8.6,11.2 1.3,2.2 2.8,4.7 3.4,5.6 0.6,0.9 1.2,2 1.3,2.4 0.6,1.9 2.7,5.5 6.8,11.6 5.5,8.2 6.3,9.1 10.8,13.8 9.8,10.3 16.9,25.7 19,41 0.4,3.2 0.6,18.3 0.2,20.9 -0.4,1.7 0.1,2 0.5,0.3 z m 9.4,-3.3 c 1.1,-2.4 1.2,-5.2 0.1,-9.2 -1,-3.8 -1,-6.3 0,-8.1 0.5,-1 0.5,-1.1 0,-1.4 -0.6,-0.3 -1.9,-3 -2.6,-5.4 -0.2,-0.8 -1.1,-4.6 -1.9,-8.5 -1.7,-8.1 -2.1,-9.3 -4.6,-14.4 -3.1,-6.2 -9,-14.5 -16.6,-23.1 -4.5,-5.1 -5.9,-7.3 -11.4,-17.4 -0.7,-1.2 -1.8,-3.1 -2.6,-4.2 -0.7,-1.1 -2,-3 -2.7,-4.3 -0.8,-1.3 -2.1,-3.5 -2.9,-4.9 -1.5,-2.6 -4.5,-6.2 -7.9,-9.7 -3.9,-4 -11.1,-8.7 -20.7,-13.6 -2.9,-1.5 -6.2,-3.4 -7.3,-4.3 -2.5,-2 -4.3,-4.6 -4.5,-6.5 -0.1,-1.2 -0.3,-1.4 -0.8,-1.4 -1,0 -4.5,-1.5 -5.3,-2.3 -1.3,-1.2 -7.6,-8.9 -9.2,-11.4 -1.9,-2.9 -6.9,-8.3 -9.4,-10.4 -1,-0.8 -2.5,-1.8 -3.3,-2.2 -1.3,-0.7 -6.8,-2.3 -12.5,-3.8 -3.6,-0.9 -6,-3 -6,-5.1 0,-0.7 -0.3,-0.6 -1.9,0.5 -1.9,1.3 -5.1,2.3 -7.3,2.3 -2.8,0 -1.9,0.2 2.5,0.6 7.4,0.7 15.8,3.4 20.4,6.6 1.4,1 3.4,2.4 4.5,3 1.1,0.7 4,2.9 6.5,4.9 5.9,4.7 8.3,7.3 12.3,13.2 3.6,5.2 8.6,10.3 14.2,14.2 1.1,0.8 5,2.9 8.8,4.8 10.2,5.1 15.8,9.3 22.2,16.9 6.3,7.5 9.5,12.6 14.4,23 2.9,6.1 4.6,8.7 12.3,18.5 5.7,7.3 8.4,11.5 10.4,16.2 2,4.8 7.2,20.3 7.5,22.3 0.1,0.8 0.6,3.3 1,5.6 1.8,9.4 2.4,13.6 2.6,17.4 0.2,4.2 0.4,4.4 1.7,1.6 z m 64.4,-6.2 c 1.2,-0.3 3.4,-1 4.9,-1.8 6.2,-2.9 9.4,-6.2 12.7,-13 3.2,-6.6 3.3,-7 4.3,-17 0.5,-5.2 -0.4,-9.3 -3.2,-13.9 -3,-4.9 -3.7,-7.6 -3.7,-12.9 0,-6.4 0.9,-9.3 4.2,-13.3 1.2,-1.4 2.6,-3.8 3.6,-5.8 1.6,-3.3 1.6,-3.5 1.7,-6.6 0.1,-3.8 -0.6,-9.7 -1.6,-12.6 -0.4,-1.1 -2.4,-5.5 -4.5,-9.6 -3.5,-6.9 -4,-7.7 -5.9,-9.6 -2.4,-2.4 -4.1,-3.4 -7.6,-4.4 -2.9,-0.9 -5,-1.9 -6,-2.9 l -0.7,-0.8 -1.6,0.6 c -0.9,0.3 -2.7,0.8 -4.1,1.1 -9.6,2 -18,6.2 -23.5,11.9 -2.8,2.8 -4.4,5.3 -5.4,8.1 -0.6,1.6 -0.7,3 -0.8,11.2 -0.2,9.9 -0.3,10.4 -2,15.3 -1.1,3.1 -3.5,8.2 -5.8,12.3 -3.8,6.7 -5.5,11.8 -5.7,17.5 -0.1,2.4 0,4.3 0.2,5.4 0.5,2.3 2.2,5.9 4.2,8.9 2.4,3.7 3,5 3.6,8.3 1.3,6.3 2.8,9.4 6.4,13.1 3.7,3.8 7.3,5.3 15.3,6.7 7,1.2 7.8,1.4 11.9,3.6 1.1,0.9 6,0.9 9.1,0.2 z m -508.6,-5.4 c 0.7,-0.7 0.9,-1.1 0.9,-2.3 0,-1.6 -0.5,-3.6 -0.6,-2.4 0,0.4 -0.5,1.6 -1,2.7 -1.4,3 -1.1,3.8 0.7,2 z m 454,-6.4 c 1.5,-0.5 2.4,-2.5 2.1,-4.5 -0.4,-3.1 -1.5,-5.6 -4.1,-9.7 -3.4,-5.3 -4.3,-7.2 -5.6,-11.1 -2.3,-6.9 -2.4,-9.2 -1.5,-21.4 0.5,-6.1 0.2,-10.2 -1.2,-16.6 -1.5,-7.3 -3.7,-11.1 -9.7,-17.1 -4.6,-4.5 -7.9,-7 -12.8,-9.5 -2.2,-1.1 -3.8,-1.7 -14.9,-6.1 -7.1,-2.8 -11.5,-4.9 -14.6,-6.9 -1.6,-1.1 -5.1,-4.2 -9.4,-8.4 -3.8,-3.7 -7.6,-7.2 -8.5,-7.8 -2.3,-1.6 -4.5,-2.3 -7.6,-2.5 l -2.8,-0.2 -1.3,1.3 c -2.3,2.4 -1.6,4.8 2.5,7.8 2.5,1.8 3.5,2.4 11,5.9 4.2,1.9 10.4,5.7 14.3,8.5 4.4,3.3 7.5,6.8 12,14 0.9,1.4 2.7,4.4 4.1,6.5 1.4,2.2 3.9,6.5 5.5,9.6 4,7.7 5.8,10 12.2,16.4 6.9,6.9 10.1,11.1 13.7,18.2 2.6,5.1 3.6,8.4 4.9,15.8 1.4,7.7 2,9.8 3.8,13.3 2.2,4.2 4.8,5.6 7.9,4.5 z M 205.6,79.9 c -1.3,-0.7 -2,-1.5 -4.9,-5.7 -1,-1.5 -2.5,-3.4 -3.3,-4.3 -2.7,-3.2 -3.8,-7.1 -2.6,-9.3 0.5,-1 1.9,-2.4 3,-2.9 1,-0.5 4,-0.5 5.4,0.1 2.1,0.9 7.4,4.6 8.6,6 2.3,2.8 2.6,3.8 2.6,8.2 0,3.9 0,4.1 -0.9,5.6 -1.4,2.2 -2.7,3 -4.9,3 -1.2,-0.1 -2.2,-0.3 -3,-0.7 z m 4.8,-2.1 c 0.5,-0.3 1.2,-1 1.7,-1.7 0.7,-1.1 0.7,-1.6 0.7,-4.6 0,-3.6 -0.2,-4.4 -2.2,-6.8 -0.8,-1.1 -5,-4.1 -7.5,-5.4 -3.4,-1.8 -6.4,-0.6 -7.1,3 -0.3,1.6 0.4,3 2.9,5.9 1.2,1.4 3.2,3.9 4.5,5.7 3.1,4.2 4.7,5.1 7,3.9 z m -439.1,57.6 c -0.2,-0.5 -0.5,-0.9 -0.6,-0.9 -0.1,0 -0.4,0.6 -0.7,1.3 -0.5,1.2 -0.5,1.3 0.2,1.5 1,0.4 1.6,-0.6 1.1,-1.9 z m -5.9,-1.6 c 1.2,-1.2 2.6,-2 3.7,-2 h 0.8 l -0.4,-2 c -0.2,-1.1 -0.5,-5.2 -0.6,-9.1 -0.1,-3.9 -0.4,-8.8 -0.7,-10.8 -0.8,-6.3 0,-13.1 2.7,-22.2 1.9,-6.5 6.1,-14.1 11.8,-21.2 2.8,-3.6 7.5,-10 9,-12.5 2.5,-4.1 9.1,-13.9 11.1,-16.6 1.3,-1.7 3.1,-4.2 4.2,-5.6 1.1,-1.4 2.5,-3.2 3.2,-4.1 0.7,-0.9 1.4,-1.6 1.4,-1.8 0,-0.2 1.5,-1.5 3.3,-3 7.9,-6.7 10.5,-8.9 12.4,-10.7 2,-1.9 3,-2.6 9.8,-7.1 3.3,-2.2 14.9,-8.5 20.7,-11.3 2.9,-1.4 4.1,-1.9 12.7,-5.4 2.3,-0.9 6.7,-2.7 9.7,-4 6.5,-2.7 13.1,-4.9 16.9,-5.8 1.5,-0.3 4.2,-1.2 5.9,-1.9 10.2,-4.3 17.8,-6.8 23,-7.8 17.7,-3.3 29.2,-6.1 36.4,-8.8 3.2,-1.2 9.4,-2.6 13.9,-3.1 6.3,-0.7 18.4,-0.5 23.5,0.4 7.8,1.4 14,3.5 20.4,7.1 4.2,2.3 5.8,3.4 9.5,6.5 3.9,3.2 6.2,4.8 9.8,6.7 4.4,2.3 13.5,5.6 14,5.1 0.1,-0.1 0,-0.2 -0.3,-0.2 -1.2,0 -8.9,-4.4 -16.3,-9.4 -15.4,-10.5 -21,-13.8 -28,-16.4 -4.7,-1.9 -8.6,-3 -12.2,-3.6 -2.5,-0.4 -19.9,-0.3 -23.6,0.1 -5.1,0.6 -12.7,2 -17.1,3.1 -2.3,0.6 -7.6,1.8 -11.8,2.6 -4.2,0.8 -9,1.8 -10.6,2.1 -6.2,1.2 -10.7,1.1 -13.6,-0.2 -1.3,-0.6 -1.8,-0.5 -1.8,0.5 0,0.8 -2,3.1 -3.9,4.5 -3.1,2.3 -6.4,3.8 -10.5,4.8 -8.8,2.1 -15,4.3 -26.9,9.3 -9.8,4.2 -25.7,12.9 -37.8,20.8 -1.2,0.8 -4.1,2.6 -6.4,4 -5.3,3.2 -6.3,4.1 -12.1,9.9 -5.6,5.5 -11.7,12.5 -17.7,20.1 -1.4,1.8 -3.7,4.5 -5.2,6 -2.2,2.3 -2.9,2.8 -3.9,3 l -1.3,0.2 v 2.1 c 0,1.9 -0.1,2.4 -1.4,4.9 -1.8,3.5 -3.1,5.2 -7.3,9.9 -13,14.3 -17.5,24.2 -18.5,40.8 -0.2,3 -0.4,5.7 -0.6,6.1 -0.2,0.5 0,1 0.7,2.1 0.9,1.3 1,1.6 1,3.9 0,2.1 -0.2,3 -1.5,6.4 -2.1,5.4 -2.6,8.3 -2.2,11.4 0.3,2.2 0.8,3.3 1.3,3.3 0.3,-0.1 0.9,-0.5 1.4,-1.1 z m -3.3,-26 c 0.3,-0.3 0.5,-0.5 0.5,-0.6 0,0 0.1,-3.4 0.3,-7.6 0.3,-8.5 0.6,-10.4 3.4,-17.3 3.4,-8.5 5,-11 12.8,-20.3 8.7,-10.3 10.6,-12.8 11.3,-15.4 0.6,-2.2 0.4,-3.2 -1.2,-4.2 l -1.2,-0.8 -1.5,0.6 c -0.8,0.3 -2,1 -2.6,1.6 -2,1.8 -6.4,6.9 -9.7,11.4 -1.8,2.4 -4.3,5.6 -5.5,7.1 -6.3,7.6 -9.9,14 -12.8,23.2 -1.8,5.5 -2.5,9.2 -2.7,13.6 -0.1,3.3 -0.1,3.9 0.6,5.8 l 0.7,2.1 1.9,0.4 c 1,0.2 2,0.5 2.2,0.7 0.4,0.4 2.9,0.2 3.5,-0.3 z m -32.6,-6.2 c 2.5,-0.4 3.3,-1 4.4,-3.1 0.7,-1.4 0.8,-2 0.7,-3.5 -0.1,-1 -0.5,-2.3 -0.8,-2.9 -0.9,-1.9 -2.1,-2.3 -6.6,-2.6 -3.5,-0.2 -4.1,-0.3 -5.6,-1.1 -3.9,-2.1 -6.7,-5.8 -8.7,-11.4 -2.1,-6 -2.4,-10.9 -1.2,-19.1 0.6,-4.1 1.5,-6.7 5.7,-17.5 5.4,-13.8 5.8,-15.4 5.3,-22.1 -0.2,-2.3 -0.7,-5.4 -1.1,-7 -0.6,-2.4 -0.7,-3.5 -0.6,-6.9 0.2,-5.4 2,-12.8 4,-16.5 2.7,-4.9 6.7,-9.6 11,-12.9 2.9,-2.2 4.8,-3 8.3,-3.6 1.7,-0.3 3.4,-0.7 3.7,-0.8 0.3,-0.2 1,-1 1.4,-1.8 0.8,-1.4 0.8,-1.5 0.4,-2.9 -1.3,-4.4 -3.5,-4.4 -11.6,0.3 -3.3,1.9 -9,6.6 -13.6,11.2 -7.3,7.2 -11.6,15.7 -12.7,25.1 -0.2,1.5 -0.4,7.3 -0.4,13.1 -0.1,9.4 -0.1,10.7 -0.8,13 -0.6,2.5 -2.7,6.8 -8.2,17.5 -3.8,7.4 -5.1,12.8 -4.8,19.5 0.2,4.4 1.8,11.2 3.4,14.4 1.9,3.9 6.4,11 7.9,12.8 2.1,2.3 7.6,6.6 9.9,7.8 3.1,1.3 6.6,1.7 10.6,1 z m 8.1,-0.4 c 3.7,-1.2 9.2,-3.7 11.7,-5.4 l 2.3,-1.5 0.4,-2.2 c 0.5,-2.6 3,-10.5 4.5,-14.1 2,-4.8 6.6,-11.9 11.3,-17.4 1,-1.1 3.2,-4 5,-6.4 3.7,-5 8.9,-10.8 10.6,-12 1,-0.7 1.3,-1.1 1.7,-2.7 1.2,-4.3 1.5,-8.3 1.3,-15.3 -0.2,-6 -0.3,-7.2 -1.2,-11 -2.8,-12.2 -7.8,-25.8 -11.4,-31.2 -2.1,-3.1 -11.7,-12.5 -15.8,-15.4 -2,-1.4 -3.9,-2.5 -4.9,-2.8 l -1.7,-0.5 0.2,0.7 c 0.1,0.4 0.3,1.8 0.4,3.1 0.2,2.2 0.1,2.5 -0.7,3.4 -0.5,0.5 -0.8,1.2 -0.8,1.5 0,0.3 1.4,1.2 3.9,2.5 4.6,2.3 5.9,3.5 7.5,6.8 1.2,2.4 1.2,2.6 1.3,6.2 0.1,3.5 0,3.9 -1.3,9.1 -1.9,7 -2.2,10.4 -1.5,15.4 0.9,7.2 2,10.1 5.3,15.2 2.3,3.6 3.3,5.6 4.4,9.3 1.7,5.9 1.5,10.2 -0.9,14.9 -2,3.9 -5.8,8.4 -9.1,10.8 -3.3,2.3 -7.3,5.5 -9.3,7.5 -2.2,2.2 -3.6,4.3 -4.7,7.5 -1.9,5.5 -4.8,9.3 -8.2,10.8 -1.1,0.5 -2.3,1 -2.6,1 -0.5,0 -0.5,0.1 0.2,1.4 1.7,3.1 1.7,7.3 0,9.9 -1.2,2 -1.3,1.9 2.1,0.9 z m 36.3,-74.3 c -3.4,-1.6 -6,-7.1 -6.4,-13.6 -0.1,-2.1 -0.1,-3.8 0.2,-5 1.3,-5.4 4.7,-7.7 8.1,-5.4 1.6,1.2 3.7,6.1 4.9,11.6 1,4.5 0.2,9.6 -1.9,11.8 -0.9,1 -1.3,1.2 -2.3,1.2 -0.7,0.1 -1.9,-0.2 -2.6,-0.6 z m 3.7,-2.3 c 2.3,-3.8 1.6,-11.2 -1.8,-17.8 -1.2,-2.4 -1.7,-2.9 -2.9,-2.9 -3.6,0 -5.2,7.1 -3.1,13.7 0.9,2.8 1.1,3.3 2.6,5.6 0.8,1.1 2.9,2.5 4,2.5 0.3,0 0.8,-0.5 1.2,-1.1 z m -42.8,62.5 c 4.1,-0.8 7.3,-4.3 9.4,-10.3 0.5,-1.4 1.3,-3.3 1.8,-4.1 1.6,-2.7 7.4,-8.1 12.5,-11.6 5,-3.4 9.8,-10.4 10.6,-15.4 0.4,-2.3 0,-5.5 -1,-8.9 -0.8,-2.6 -1.9,-4.9 -4,-8.1 -3.4,-5.2 -4.5,-8.5 -5.5,-15.6 -0.8,-5.7 -0.5,-9.2 1.3,-16 1.3,-4.9 1.5,-5.8 1.5,-9 0,-3.5 0,-3.6 -1.3,-6 -1.5,-3 -2.8,-4.1 -7.2,-6.4 -1.9,-1 -3.1,-1.8 -3.5,-2.4 -0.4,-0.7 -0.7,-0.8 -1.1,-0.6 -0.3,0.2 -1.7,0.5 -3.1,0.8 -3,0.5 -4.9,1.3 -7.2,3 -4.6,3.3 -8.3,7.6 -10.9,12.5 -1.7,3.2 -3.5,9.8 -3.9,14.7 -0.3,3 -0.2,3.5 0.7,8 0.9,4.5 1,5.1 0.9,10.1 -0.1,5.1 -0.2,5.5 -1.3,8.8 -0.6,1.9 -2,5.7 -3.1,8.3 -3.3,8.1 -5.8,14.9 -6.4,17.5 -0.9,3.9 -1.4,10.4 -1,13.7 0.7,5.7 4,12.4 7.4,15 2.6,2.1 3.4,2.3 7.3,2.5 2,0.1 3.9,0.3 4.2,0.4 0.4,0.1 0.8,0.1 1.1,-0.2 0.3,-0.3 1.1,-0.6 1.8,-0.7 z m 59.8,-47 c 1,-0.8 7.7,-8.9 10.3,-12.5 0.8,-1.1 2.6,-3.2 4.1,-4.8 1.5,-1.6 3.4,-3.8 4.2,-4.8 3.3,-4.2 12.5,-12.3 17.3,-15.2 1.9,-1.1 4.9,-3 6.7,-4.2 1.8,-1.2 4.2,-2.7 5.4,-3.4 1.2,-0.7 3.5,-2 5.1,-3 11,-6.7 21.2,-12.2 27.2,-14.7 1.4,-0.6 3.7,-1.6 5.1,-2.2 4.5,-2 10.1,-4.1 13.3,-4.9 5.2,-1.4 16.1,-5.1 18,-6 1,-0.5 2.3,-1.3 2.9,-1.9 1.5,-1.3 2.6,-3.9 2.3,-5.7 -0.3,-2.7 -1.9,-3.5 -6.5,-3.2 -3.3,0.2 -5.1,0.8 -10.6,3.5 -7.5,3.6 -15.5,6.2 -22.2,7.2 -1.7,0.2 -5.1,0.4 -7.7,0.4 -4.2,0 -5,-0.1 -8.3,-1 -4.5,-1.2 -8.1,-1.7 -14.3,-1.7 -3.7,0 -5.2,0.1 -6.8,0.5 -4.4,1.2 -7.9,3.6 -13.1,8.7 -3.7,3.7 -4,4.2 -11.7,18.8 -5.7,10.8 -7,12.9 -12.7,20.7 -3.2,4.2 -6.3,8.5 -6.9,9.5 -0.7,1 -2,2.9 -3,4.3 -2.4,3.4 -3.9,6.6 -4.1,8.7 -0.3,2.3 0.9,6.4 2.2,7.6 1.2,0.9 1.9,0.8 3.8,-0.7 z m 37.5,-54.6 c -1.6,-0.3 -3.5,-1.4 -4.1,-2.6 -0.5,-1 -0.2,-3.7 0.6,-5.5 1.6,-3.4 6,-7 9.7,-8.1 3.9,-1.1 9.5,-0.2 11.5,2 1.2,1.3 1,4.7 -0.5,6.9 -1.2,1.9 -7.5,5.8 -11,6.9 -2.1,0.7 -3.6,0.8 -6.2,0.4 z m 4.9,-2.5 c 2.9,-0.8 8.8,-4.4 10.3,-6.2 0.8,-1 1.3,-2.6 1.1,-3.7 -0.1,-0.3 -0.8,-1 -1.6,-1.5 -1.4,-0.9 -1.5,-1 -5.3,-0.9 -3.7,0 -4,0.1 -5.4,1 -1.9,1.1 -4.7,3.7 -5.6,5.2 -0.9,1.5 -1.6,4.2 -1.2,4.9 0.5,0.9 1.3,1.4 2.8,1.6 2.5,0.2 3.1,0.2 4.9,-0.4 z m 301.8,33.6 c 1.3,-1.1 2.1,-3.3 1.8,-4.8 -0.3,-1.7 -2.5,-5.8 -4.3,-8.2 -0.9,-1.1 -2.1,-2.8 -2.7,-3.6 -2.1,-3 -5.8,-7.1 -7.7,-8.4 -2,-1.4 -7,-3.8 -9.9,-4.8 -1.9,-0.7 -6.2,-3 -10.3,-5.6 -4.7,-3 -7.5,-3.8 -10,-2.8 -2,0.8 -2.8,1.7 -3.2,3.5 -0.4,1.6 -0.3,1.8 0.4,3.1 1.3,2.4 3.8,3.3 11.3,4.1 1.7,0.2 3.9,0.6 4.9,1 7.5,2.5 9.8,4.9 18.2,17.8 5.7,8.4 8.9,10.9 11.5,8.7 z m -53.9,-33 c 2.4,-0.6 5.6,-4 5.6,-6 0,-0.4 -0.4,-1.1 -0.9,-1.6 -1.2,-1.3 -2.5,-1.5 -8.4,-1.5 -10,0 -16.2,-1.6 -22.8,-5.9 -4.4,-2.9 -7.2,-5.7 -14.1,-14.4 -11,-13.9 -13,-16 -17.9,-19.5 -3.8,-2.7 -7.7,-4.7 -11.2,-5.7 -2.4,-0.7 -3.4,-0.9 -6.4,-0.8 -4.8,0 -7.5,0.8 -13.2,3.7 -6.5,3.4 -10.1,4.8 -16.6,6.7 -8.9,2.5 -13.1,3.2 -23,3.9 -2.5,0.2 -5.8,0.5 -7.4,0.8 -1.5,0.3 -5.3,0.6 -8.4,0.8 -6.5,0.4 -10.5,1.2 -15.3,2.8 -5.2,1.8 -6.5,3.6 -5.9,8 0.2,1.9 1,3.1 2.5,3.9 0.8,0.4 1.8,0.5 4.5,0.5 3.5,0 10.2,-1.2 20.3,-3.6 12.2,-2.8 18.7,-4.1 28.1,-5.5 5.8,-0.9 11.7,-0.8 21,0.1 8.4,0.9 18.6,4.7 28.4,10.8 2,1.2 7.4,4.7 12,7.8 7.4,4.9 9,5.8 13.5,7.7 2.8,1.2 7,2.8 9.3,3.5 9.2,2.9 22,4.6 26.3,3.5 z M 7.8,-54.3 c -6.1,-1.4 -9.7,-3.9 -9.7,-6.6 0,-1.5 0.8,-3.1 2,-3.9 1,-0.6 5.1,-1.7 7.4,-2 3.7,-0.4 9.7,1.5 11.5,3.7 0.7,0.8 0.8,1.3 0.8,3.1 0,2.7 -0.8,4.1 -3.3,5.3 -2.3,1.2 -4.7,1.3 -8.7,0.4 z m 6.1,-1.8 c 3.2,-0.7 5.4,-3.8 4.3,-6 -0.9,-1.7 -6.4,-3.4 -10.1,-3.1 -2.7,0.2 -6.5,1.4 -7.4,2.3 -0.9,0.9 -0.8,2.5 0.1,3.4 1.6,1.5 5.3,2.8 10.2,3.7 0.4,0.1 0.9,0.2 1,0.2 0.1,-0.2 1,-0.3 1.9,-0.5 z m -121.3,1.7 c -8.3,-0.8 -13.7,-4.2 -17,-10.8 -1.3,-2.7 -2,-7.3 -1.3,-10.1 1.2,-5.2 5.6,-11 11.7,-15.1 4.2,-2.9 18.3,-9.6 23.4,-11.3 6.5,-2.1 13.2,-3.7 16,-3.8 1.2,-0.1 4.5,-0.3 7.4,-0.5 5.9,-0.4 15.4,-0.1 20.5,0.8 4,0.7 11.4,2.4 14.3,3.4 2.6,0.9 6.9,3.1 9.7,5 3.3,2.2 5.1,5.2 5.4,8.8 0.1,2 0.1,2.5 -0.7,4 -1.8,3.7 -6.6,8.2 -11.1,10.5 -3.5,1.7 -10.9,4.4 -16.9,6.1 -4.2,1.2 -13,2.4 -15.6,2.2 -2.1,-0.2 -2.6,-0.1 -4,0.6 -0.9,0.4 -3.4,1.1 -5.5,1.5 -5.3,1 -8.4,2 -13.1,4.2 -8.3,3.7 -15.8,5.2 -23.2,4.5 z m 9.9,-3.5 c 4.3,-0.8 8.5,-0.7 15,-3.9 7,-2 6,-2 12,-4 2.7,-0.4 4.5,-1.9 4.6,-2 0.2,-0.1 -0.1,-0.6 -0.5,-1.2 -0.5,-0.6 -0.8,-1.3 -0.7,-1.8 0.1,-0.8 0.1,-0.8 -2,-0.7 -2.2,0.1 -4.5,0.8 -11,3.1 -3.8,1.3 -7,2.1 -14.5,3.6 -3.8,0.7 -7.8,0.7 -10.2,-0.1 -5.4,-1.8 -7.8,-4.8 -8.1,-10.2 0.5,-7.3 3.8,-11.2 12.4,-16.7 3.5,-1.7 7,-3.6 14,-5 8,-1.6 9.3,-2.2 10.8,-3 1,-0.5 1.4,-1.1 0.7,-1.1 -0.7,0 -1.5,-1 -1.6,-1.8 0,-0.6 -0.1,-0.7 -0.7,-0.6 -9.3,2.2 -12.8,2.6 -19.2,5.5 -15.8,7 -22.4,11.2 -26,19 -1.2,2.5 -2.1,3.8 -2,7 0,2.8 1.3,5.4 2,7 1.2,2.5 3.3,3.9 5,5 1.5,1 4.6,1.5 6.9,2.1 2.2,0.6 8.9,0.5 13.1,-0.2 z m -20.2,-5.8 c -0.4,-0.2 -1.3,-1.1 -1.8,-1.9 -2.3,-3.4 -1.6,-8.9 1.2,-8.9 2.3,0 4.4,2.9 4.7,6.4 0.3,3.7 -1.5,5.6 -4.1,4.4 z m 2.1,-2 c 0.7,-1 0.6,-2.1 -0.2,-4.2 -0.7,-1.9 -1.8,-2.9 -2.8,-2.6 -0.6,0.2 -0.7,0.5 -0.6,1.9 0,2.1 0.4,3.2 1.7,4.6 1.1,1.3 1.2,1.3 1.9,0.3 z m 22.6,-1.7 c 6.5,-1.3 9.3,-2 13.9,-3.7 6.5,-2.4 7.3,-2.6 15,-2.6 20,-0.1 30.7,-2.8 35.7,-9.2 1,-1.3 1.2,-1.8 1.2,-3.1 0,-3.3 -0.8,-4.5 -4.3,-6.6 -3.9,-2.3 -8.4,-3.9 -14.5,-5.1 l -5.8,-1.2 -10.7,-0.2 c -10.6,-0.1 -10.7,-0.1 -12.2,0.6 -1.9,0.9 -5.2,1.7 -12.8,3.2 -3.4,0.7 -6.9,2.2 -8,2.5 -4.7,1.6 -9,5 -12,8 -1.9,2.7 -3.5,3.9 -3.6,7.5 -0.2,3.8 0.5,6.1 2.3,7.7 1.2,1.1 3.7,2.5 5.6,2.9 1.8,0.5 5.5,0.2 10.2,-0.7 z m 38.6,-0.4 c 4.5,0 20.7,-4.7 24,-7 2,-1 4.5,-1.9 8,-5 3,-3 3.6,-4.5 4,-7 0.3,-3.2 -2.4,-6.7 -6,-9.1 -4.8,-3.2 -8.1,-4.6 -15.3,-6.4 -6,-1.5 -9.9,-2.1 -17.1,-2.5 -7,-0.4 -15.8,0.1 -17.2,1.1 -1.1,0.8 -1.1,1 -0.1,1.5 0.4,0.2 1,0.7 1.1,1.1 l 0.3,0.7 h 10.3 10.3 l 5.4,1 c 6.6,1.3 9.2,2.1 13.8,4.3 6,2.9 7.5,4.9 7.6,9.4 0,1.6 -0.1,2 -1.3,3.6 -4.6,6.5 -14.1,9.5 -31.9,10.2 -5.1,0.2 -5.9,0.3 -6,0.8 -0.1,0.3 0.3,0.9 0.7,1.3 0.4,0.4 0.8,1 0.8,1.1 0,0.6 4.4,1.6 8.6,0.9 z"
         id="path929"
         inkscape:connector-curvature="0" /></g></g></svg>