<?xml version="1.0" encoding="UTF-8" standalone="no"?>
<svg
   xmlns:dc="http://purl.org/dc/elements/1.1/"
   xmlns:cc="http://creativecommons.org/ns#"
   xmlns:rdf="http://www.w3.org/1999/02/22-rdf-syntax-ns#"
   xmlns:svg="http://www.w3.org/2000/svg"
   xmlns="http://www.w3.org/2000/svg"
   xmlns:sodipodi="http://sodipodi.sourceforge.net/DTD/sodipodi-0.dtd"
   xmlns:inkscape="http://www.inkscape.org/namespaces/inkscape"
   inkscape:version="1.0beta1 (76ce730, 2019-10-19)"
   sodipodi:docname="lung.alveoli_section.svg"
   version="1.1"
   x="0px"
   y="0px"
   viewBox="0 0 636.6 573.1"
   height="573.1mm"
   width="636.6mm"
   style="enable-background:new 0 0 636.6 573.1;"
   xml:space="preserve"
   id="svg90"><sodipodi:namedview
     inkscape:document-rotation="0"
     inkscape:current-layer="LAYER_EFO"
     inkscape:window-maximized="0"
     inkscape:window-y="23"
     inkscape:window-x="0"
     inkscape:cy="560"
     inkscape:cx="400"
     inkscape:zoom="0.35"
     showgrid="false"
     id="namedview66"
     inkscape:window-height="880"
     inkscape:window-width="1600"
     inkscape:pageshadow="2"
     inkscape:pageopacity="0"
     guidetolerance="10"
     gridtolerance="10"
     objecttolerance="10"
     borderopacity="1"
     bordercolor="#666666"
     pagecolor="#ffffff" /><metadata
     id="metadata96"><rdf:RDF><cc:Work
         rdf:about=""><dc:format>image/svg+xml</dc:format><dc:type
           rdf:resource="http://purl.org/dc/dcmitype/StillImage" /><dc:title /></cc:Work></rdf:RDF></metadata><defs
     id="defs94" /><style
     type="text/css"
     id="style2" /><g
     id="LAYER_EFO"><g
       inkscape:label="CL_1001567"
       id="CL_1001567"
       style="fill:none;fill-opacity:1"><desc
         id="desc925">lung microvascular endothelial cell</desc><title
         id="title923">lung microvascular endothelial cell</title><g
         id="g6"
         style="fill-opacity:1"><path
           inkscape:connector-curvature="0"
           class="st0"
           d="m 62.2,484.4 c 0,2 1.4,3.9 3.3,4.6 1.9,0.7 4.2,0 5.4,-1.6 1.2,-1.5 1.4,-3.6 2.1,-5.5 2.2,-5.8 8.8,-8.5 14.9,-9.8 10.2,-2.2 22.1,-1.8 29.6,5.5 3.5,3.4 5.6,7.9 8.3,11.9 6.4,9.5 16.5,16.4 27.6,19 3.4,0.8 7,1.2 10.3,2.4 10.1,3.4 17.4,13.2 19.2,23.7 1.3,7.4 -1.7,16.1 -8.1,19.9 -2.8,1.7 -4.8,2.2 -8,2.7 -9,1.3 -18.5,2.4 -27,-0.8 -3.6,-1.4 -6.9,-3.6 -10.2,-5.7 -9.6,-6.3 -19.2,-12.6 -28.8,-18.9 -7,-4.6 -14,-9.2 -19.5,-15.5 -5.5,-6.2 -9.4,-14.4 -8.8,-22.7 0.1,-1.4 0.2,-3 -0.9,-3.8 -0.4,-0.3 -1,-0.4 -1.6,-0.6 -2.5,-0.5 -5,-1 -7.5,-1.4 -0.4,-0.1 -0.8,-0.1 -1.1,0 -0.4,0.2 -0.6,0.5 -0.8,0.9 -1,2 -0.8,4.5 -0.4,6.7 1.8,12.2 5.2,24.9 14.1,33.6 7.8,7.6 18.6,11 28,16.4 14.7,8.4 26.8,22.1 43.3,25.8 5,1.2 10.3,1.3 15.5,1.1 9.2,-0.3 19,-1.9 26,-8 7.1,-6.2 10,-16.3 9.3,-25.7 -0.7,-9.4 -4.7,-18.3 -9.5,-26.5 -8.3,-14.2 -20.5,-27.8 -36.7,-30.6 -4.9,-0.8 -10,-0.6 -14.8,-1.8 -12.2,-2.9 -21.1,-13.7 -33,-17.4 -10.3,-3.2 -22,-0.4 -30.6,6.2 -5.3,4.1 -9.8,10.3 -9.3,17"
           id="path4"
           style="fill-opacity:1" /></g><g
         id="g10"
         style="fill-opacity:1"><path
           inkscape:connector-curvature="0"
           class="st0"
           d="m 556,414.1 c 1,1.9 0.8,4.5 -0.5,6.2 -0.5,0.6 -1.2,1.2 -1.4,2 -0.7,2.2 -2.5,2.3 -0.5,3.5 5.8,3.7 11.8,13.1 11.7,19.9 -0.2,12.9 -5.1,26.3 -15.5,34 -5.8,4.3 -13.2,6.7 -17.9,12.2 -5.3,6.2 -6.4,15.1 -11.5,21.4 -2.4,3 -4.3,5.8 -7.5,7.9 -13.4,8.8 -32.8,12.5 -44.5,5.9 -3.4,-2.1 -5.3,-6.2 -6.5,-9.9 -1,-3 -1.5,-10.5 -0.8,-15.3 1.4,-10.1 8.5,-19.8 16.8,-25.7 8.4,-5.9 18.3,-8.8 22.6,-18.1 2.7,-5.8 0.4,-12.6 4.1,-18.7 1.1,-2.8 2.9,-5.3 4.9,-7.5 5.1,-5.7 11.7,-10.1 19.1,-12 7.4,-1.9 15.5,-0.2 22.3,3.3 0.7,0.4 1.6,-0.2 2.4,-0.5 0.5,-0.2 0.7,-0.7 1,-1.1 0.9,-1.4 1.8,-2.8 2,-4.5 0.2,-1.6 -0.4,-3.5 -1.9,-4.2 -2.1,-0.9 -4.3,0.8 -6.4,1.8 -2,1 -4.4,1.3 -6.6,0.9 0.9,-1.4 3.6,-2.7 3.6,-4.4 0,-1.4 -2.3,-2.4 -3.7,-2.8 -1.4,-0.4 -2.8,-0.1 -4.2,0.2 -4.7,0.9 -9.3,1.7 -14,2.6 -1.7,0.3 -3.4,0.6 -4.9,1.3 -1.7,0.8 -3.1,2 -4.5,3.2 -4,3.4 -7.8,7.2 -12.1,10.3 -9.3,6.8 -17.4,12 -25.6,22.2 -9.3,11.5 -14.7,27.7 -18.4,41.8 -2.1,7.9 -6.3,14.7 -8.6,22.2 -1.6,5.2 -1.8,11.8 1.4,16.3 1.9,2.7 5.3,4.1 8.4,5.3 2.9,1.1 5.7,2.2 8.6,3.3 4.1,1.6 8.3,3.2 12.6,3.7 3.5,0.4 7,0.1 10.4,-0.3 10.4,-1.2 20.6,-2.2 29.6,-9.4 4.4,-3.6 9.2,-5.8 14,-8.8 8.3,-5.2 15.7,-5.8 21,-14 0.8,-1.2 2.8,-3.6 3,-5 0.2,-1.5 1.4,-5.3 1.2,-6.8 -0.9,-8.5 3.5,-16.6 7.8,-24 0.5,-0.9 1,-1.8 1,-2.8 -0.1,-2.3 -3.1,-4.4 -1.8,-6.3 2,2 6.8,1.9 7,-1.9 0.2,-2.8 -0.2,-5.8 -2.4,-7.6 -1,-0.9 -1,-1.8 0.1,-2.5 1.8,1.4 4,0 4.3,-3 0.2,-2.3 0.2,-4.6 -0.4,-6.8 -0.6,-2.1 -1.2,-4.3 -1.8,-6.4 -1.2,-4.2 -2.5,-8.7 -5.7,-11.6 -2.1,-1.9 -5.2,-3 -7.7,-1.7 -0.9,0.5 -2.2,1.2 -2.8,0.3 -0.6,-2.2 3.1,-4.1 2.2,-6.3 -0.4,-1 -1.6,-1.3 -2.6,-1.8 -1,-0.5 -1.1,1.2 -0.6,0.3"
           id="path8"
           style="fill-opacity:1" /></g><g
         id="g14"
         style="fill-opacity:1"><path
           inkscape:connector-curvature="0"
           class="st0"
           d="m 589.9,121.4 c 2.6,2 1.8,6.4 -0.7,8.6 -2.5,2.2 -5.9,2.7 -9.1,3.4 -10.7,2.2 -22.2,7.6 -25.7,18 -2.3,6.7 -0.7,14.1 -1.7,21.2 -2.1,14.9 -15.5,27.8 -12.8,42.5 1.2,6.1 5,11.3 7.4,17.1 1.6,3.7 2.5,7.7 4.5,11.3 3.7,6.8 10.9,11.6 18.6,12.4 2.6,0.3 5.3,0.1 7.8,0.6 2.6,0.5 5.1,2 6.1,4.5 1.4,3.6 -1.6,7.8 -5.3,9 -3.7,1.2 -7.7,0.3 -11.5,-0.7 -9.6,-2.6 -19.5,-6.3 -26,-13.9 -1.5,-1.7 -2.9,-3.8 -2.9,-6.1 0,-1.5 0.6,-3 0.9,-4.4 1.9,-8.9 -5.8,-16.7 -9,-25.2 -4.6,-12.4 0.6,-26.6 -2.7,-39.4 -2.1,-7.9 -7.3,-16.1 -4,-23.6 2.6,-6 9.6,-8.5 14.9,-12.5 4.1,-3 7.3,-7.1 10.9,-10.6 9.7,-9.3 23.4,-14.6 36.7,-13 1.8,0.2 3.5,0.5 5.3,0.6 1.6,0.1 3.2,-0.2 4.7,-0.1 9.5,0.4 19.5,6.2 21.6,8.3 4,4 5,11.6 7,20 1.1,4.5 0.8,11.6 1.1,16.2 0.3,5.6 2.7,10.8 4.7,16 3.9,10.5 6,22.4 1.4,32.6 -1.4,3.2 -3.5,6.1 -5,9.3 -2.6,5.6 -3.4,11.9 -5.3,17.7 -3.9,11.6 -12.7,21.4 -23.8,26.5 -5.1,2.4 -10.9,3.7 -16.5,2.7 1.5,-3.5 2,-7.4 1.5,-11.1 10.8,-0.2 21.2,-6.8 26.5,-16.2 5.4,-9.4 5.9,-21.2 2.2,-31.4 -2.4,-6.7 -6.7,-13.6 -4.5,-20.4 1.4,-4.5 5.4,-7.7 7.6,-11.9 3.6,-7 1.7,-15.6 -0.9,-23.1 -3,-9 -7.8,-18.8 -16.8,-21.5 -1.8,-0.5 -3.7,-0.8 -5.3,-1.7 -1.6,-0.9 -2.9,-2.7 -2.4,-4.5"
           id="path12"
           style="fill-opacity:1" /></g><g
         id="g18"
         style="fill-opacity:1"><path
           inkscape:connector-curvature="0"
           class="st0"
           d="m 53.5,69.1 c 1.7,0 2.4,2.4 1.9,4.1 -0.4,1.7 -1.4,3.4 -0.8,5.1 0.7,1.9 2.9,2.5 4.6,3.4 6,3.2 7.6,11.1 6.9,17.9 -0.7,6.8 -2.9,13.5 -1.7,20.2 1.9,10.8 11.4,20.7 10.5,31.6 -0.6,6.6 -4.4,10.9 -9.4,15.2 -5,4.3 -10.7,8.1 -14.5,13.5 -2.7,3.8 -4.5,8.4 -8.1,11.4 -6.6,5.6 -16.3,4.4 -20.7,-3.2 -3.8,-6.7 -6.8,-13.7 -5,-21.8 1.6,-7.5 4.3,-14.7 7,-21.9 2.7,-7.2 5,-14.8 4.4,-22.4 -0.4,-4.3 -1.7,-8.5 -2,-12.9 -0.9,-12.8 8.1,-25.7 20.4,-29.2 3.5,-1 8.1,-2.2 8.6,-5.8 0.4,-2.7 -2.2,-5.1 -4.9,-5.6 -2.7,-0.5 -5.4,0.7 -7.9,1.9 -15.5,8 -26.5,24.1 -28.1,41.5 -0.7,7.1 0.1,14.3 -1.5,21.2 -1.8,8.3 -6.8,15.5 -9.5,23.5 -3.7,11.2 -2.5,24 3.3,34.3 4.7,8.4 12.6,15.4 22,17.5 9.4,2.1 21,-0.6 26.8,-8.4 3.6,-4.9 4.3,-11.4 6.8,-16.9 4.9,-10.9 11.4,-19.1 19.2,-28.1 2.4,-2.8 7.3,-6 8.5,-9.4 0.9,-2.5 1.3,-5.2 1.5,-7.8 C 92.9,123.2 90,108.2 83.5,94.9 77.3,82.3 67,70.7 53.3,67.4"
           id="path16"
           style="fill-opacity:1" /></g></g><g
       id="CL_0002063"
       style="fill:none"><desc
         id="desc921">Type 2 pneumocyte</desc><title
         id="title919">Type 1 pneumocyte</title><g
         id="g23"><path
           inkscape:connector-curvature="0"
           class="st1"
           d="m 226.9,52.4 c -2.9,0.9 -5.7,6.2 -4.6,9 1.1,2.8 4,4.5 6.9,5.1 2.9,0.5 6,0.1 8.9,-0.5 11.6,-2.1 22.9,-5.3 34.6,-7 11.7,-1.7 28.3,-3.9 39.2,0.4 19.4,7.7 29.3,21.7 46.9,28 8.4,3 17.1,5 26,5 2.8,0 5.7,-0.2 8.1,-1.7 2.4,-1.5 3.9,-4.7 2.7,-7.2 -1.5,-3.2 -5.8,-3.5 -9.3,-3.5 -6.2,-0.1 -12.5,-1 -18.2,-3.5 -7.7,-3.5 -13.6,-9.8 -18.9,-16.3 -5.3,-6.5 -10.3,-13.4 -16.7,-18.8 -6.4,-5.4 -14.9,-9.1 -23.2,-7.8 -5,0.8 -9.5,3.3 -14.1,5.3 -17,7.6 -36,9.3 -54.6,10.9 -6.3,0.5 -12.9,1.2 -17.9,5"
           id="path21" /></g><g
         id="g27"><path
           inkscape:connector-curvature="0"
           class="st1"
           d="m 134.6,72.9 c -7.3,5 -11,13.6 -15,21.5 -4.1,8.1 -9,15.9 -14.4,23.2 -3.4,4.5 -7,8.9 -9.9,13.8 -1.5,2.5 -2.8,5.2 -3.2,8.1 -0.4,2.9 0.3,6.1 2.3,8.2 0.5,0.6 1.2,1.1 2,1.1 0.7,0 1.3,-0.3 1.9,-0.6 5.7,-3.3 9.2,-9.2 13.1,-14.5 13.1,-17.4 32.4,-28.9 51.2,-40 6.4,-3.8 12.8,-7.5 19.6,-10.5 9.9,-4.4 20.4,-7.1 30.6,-10.4 2.7,-0.9 5.4,-1.8 7.4,-3.8 2,-2 2.9,-5.3 1.4,-7.7 -1.4,-2.2 -4.3,-2.8 -6.9,-2.5 -4.2,0.4 -8,2.5 -11.9,4.3 -11,5 -23.3,7.2 -35.3,6.2 -6,-0.5 -11.9,-1.7 -17.9,-1.5 -6,0.2 -12.3,1.9 -16.3,6.4"
           id="path25" /></g><g
         id="g31"><path
           inkscape:connector-curvature="0"
           class="st1"
           d="m 401.7,82.8 c -3.4,-0.1 -6.4,3.3 -5.9,6.7 0.6,3.3 3.9,5.4 7.1,6.2 3.2,0.8 6.7,0.6 9.9,1.6 5.9,1.7 10.3,6.7 13.9,11.7 3.6,5 6.8,10.5 11.8,14.1 0.8,0.6 1.7,1.1 2.7,1.2 2.4,0.3 4.4,-2.2 4.6,-4.6 0.2,-2.4 -1,-4.7 -2.1,-6.8 -3.6,-6.6 -7.7,-13.2 -14,-17.2 -4.6,-2.9 -10,-4.2 -14.8,-6.8 -4.5,-2.5 -8.7,-6.4 -13.8,-6.2"
           id="path29" /></g><g
         id="g35"><path
           inkscape:connector-curvature="0"
           class="st1"
           d="m 445.4,122.6 c -2.4,1.2 -2.8,4.6 -1.6,7 1.2,2.4 3.6,3.9 5.9,5.2 9.5,5.6 19.6,10.8 27.3,18.8 10.5,11.1 15.3,26.6 25.4,38.1 3.3,3.7 7,7 10.1,10.8 7.1,8.7 10.2,19.9 12.6,30.9 0.8,3.9 1.7,8.2 4.7,10.9 2.9,2.8 8.7,2.8 10.3,-0.9 0.9,-2 0.3,-4.3 -0.5,-6.3 -2.7,-7.1 -7.4,-13.5 -9.4,-20.8 -2.7,-10.5 0.5,-21.6 -1.2,-32.3 -1.1,-6.9 -4.2,-13.5 -9,-18.6 -12.4,-13.4 -33,-15.5 -47.4,-26.7 -4.3,-3.4 -8,-7.5 -12.4,-10.9 -4.4,-3.3 -9.7,-5.9 -15.2,-5.4 -0.3,0 -0.8,0 -0.9,-0.3 -0.1,-0.3 0.6,-0.4 0.4,-0.1"
           id="path33" /></g><g
         id="g39"><path
           inkscape:connector-curvature="0"
           class="st1"
           d="m 524.2,369.2 c -2.5,-0.3 -4.3,2.2 -5.5,4.4 -4.7,8.9 -7.7,18.6 -13,27.1 -6.6,10.7 -16.4,19.1 -26.7,26.4 -2.6,1.8 -5.6,4.4 -5,7.5 0.3,1.4 1.3,2.6 2.3,3.6 0.9,0.8 1.9,1.5 3,1.8 2.2,0.5 4.4,-0.9 6.2,-2.2 8.2,-6.1 15.8,-13.1 23.3,-20.1 3.2,-2.9 6.4,-5.9 8.7,-9.6 3.9,-6.1 5,-13.6 8.4,-20 1.3,-2.4 2.8,-4.7 3.9,-7.2 1,-2.5 1.5,-5.4 0.4,-7.9 -1.1,-2.5 -4,-4.3 -6.5,-3.5"
           id="path37" /></g><g
         id="g43"><path
           inkscape:connector-curvature="0"
           class="st1"
           d="m 349.9,530.5 c 0.8,-2.4 3.1,-4 5.5,-4.7 2.4,-0.7 5,-0.7 7.5,-0.7 7.4,-0.1 15,-1.1 21.6,-4.3 11.9,-5.8 19.2,-17.8 29,-26.7 5.1,-4.7 11,-8.5 16.8,-12.2 7.1,-4.4 14.5,-8.9 19.2,-15.9 4.6,-6.9 6.1,-15.5 10.7,-22.4 1.7,-2.6 4,-5 6.9,-6 2.9,-1 6.6,-0.5 8.5,1.9 1.9,2.4 1.8,5.9 0.6,8.7 -1.2,2.8 -3.3,5.1 -5,7.6 -11.5,16.2 -10.6,39.8 -25,53.5 -5.4,5.2 -12.5,8.3 -19.8,10.4 -4.6,1.3 -9.2,2.2 -14,2.7 -2.8,0.3 -5.5,0.4 -8.2,1.1 -3.4,0.9 -6.5,2.6 -9.6,4.2 -12.5,6.3 -26.4,10.9 -40.2,9.2 -1.6,-0.2 -3.5,-0.7 -4.2,-2.1 -0.4,-0.8 -0.4,-1.7 -0.3,-2.6 0.2,-2.9 -0.6,0.2 0.2,-2.7"
           id="path41" /></g><g
         id="g47"><path
           inkscape:connector-curvature="0"
           class="st1"
           d="m 288.5,531.4 c -3.3,1.8 -6,4.9 -7.4,8.4 -0.3,0.7 -0.5,1.5 -0.4,2.2 0.2,1.4 1.7,2.3 3.1,2.4 1.4,0.1 2.8,-0.4 4.2,-0.9 4.2,-1.4 8.5,-2.4 12.9,-2.9 6.6,-0.7 13.3,-0.3 20,0.4 8.5,0.8 17.8,1.9 25.2,-2.5 1.9,-1.1 3.7,-2.8 3.9,-5 0.2,-2.6 -1.9,-4.8 -4.3,-5.7 -2.4,-0.8 -5.1,-0.5 -7.6,-0.3 -13.7,1.5 -27.4,2.4 -41.2,2.7 -3.2,0.1 -6.6,0.2 -9.4,1.7"
           id="path45" /></g><g
         id="g51"><path
           inkscape:connector-curvature="0"
           class="st1"
           d="m 163.5,480.4 c -1,0.3 -3.5,3.7 -2.9,4.6 0.6,0.9 4.7,2.7 5.6,3.4 4.5,3.3 6.6,3.5 9.4,6.9 2.2,2.8 4.2,4.1 7,6.2 3.8,2.9 8.8,3.4 13.3,4.8 8.1,2.4 15.2,7.4 22.4,11.9 1,0.6 2.2,1.3 3.3,1 1.1,-0.2 1.8,-1.2 2.5,-2 1.2,-1.6 2.5,-3.3 2.4,-5.3 -0.1,-1.9 -1.3,-3.5 -2.6,-4.8 -4.4,-4.7 -10,-8.3 -16.2,-10.1 -3,-0.9 -6.1,-1.4 -9,-2.3 -8.4,-2.5 -15.7,-7.6 -23.2,-12.2 -2,-1.2 -4,-2.5 -6.3,-3 -2.3,-0.5 -4.9,-0.1 -6.6,1.5"
           id="path49" /></g><g
         id="g55"><path
           inkscape:connector-curvature="0"
           class="st1"
           d="m 60.5,347.7 c -4.2,0 -7.1,4.7 -7.2,8.9 -0.1,4.2 1.7,8.3 2.5,12.4 2.7,13.4 -4.3,26.7 -5.8,40.2 -0.9,7.7 0,15.6 3.2,22.6 3.2,7 8.8,13 15.8,16.2 6.3,2.8 13.4,3.2 19.8,5.7 3.4,1.3 6.9,5.4 10.1,7.3 6.6,3.8 12.9,5.3 19.4,9.1 7.7,4.4 14.7,10.7 24.4,9.9 5.3,0.6 10.9,-0.2 15.8,2.1 0.5,0.2 1,0.5 1.5,0.3 0.2,-0.1 0.3,-0.2 0.5,-0.3 1.8,-1.6 1.4,-4.7 -0.3,-6.5 -1.7,-1.8 -4.1,-2.5 -6.4,-3.2 C 135.4,467 117,459.5 103,446.3 98.1,441.6 93.8,436.3 89.9,430.7 75,409.2 66,383.7 64.3,357.6 64,353.7 63.5,349.1 60.1,347.1"
           id="path53" /></g><g
         id="g59"><path
           inkscape:connector-curvature="0"
           class="st1"
           d="m 92.3,147.3 c -2.7,-0.2 -4.8,2 -6.5,4 -9.1,10.8 -18.4,21.9 -24.4,34.7 -3.6,7.5 -6,15.9 -5,24.2 0.1,0.9 0.3,1.9 0.9,2.6 0.5,0.5 1.2,0.8 2,1 2.2,0.7 4.4,1.1 6.7,1.2 0.4,0 0.9,0 1.2,-0.2 0.4,-0.3 0.5,-0.8 0.6,-1.3 0.9,-6 1.2,-12.2 2.8,-18 3.5,-13.3 13.1,-24.1 22.2,-34.4 1.9,-2.2 3.9,-4.5 4.3,-7.4 0.4,-2.9 -1.8,-6.2 -4.6,-6"
           id="path57" /></g></g><g
       id="CL_0002062"
       style="fill:none"><desc
         id="desc917">Type 1 pneumocyte</desc><title
         id="title915">Type 2 pneumocyte</title><g
         id="g64"><path
           inkscape:connector-curvature="0"
           class="st2"
           d="m 528.8,245.5 c -0.3,3.1 0.8,6.2 1.4,9.3 0.6,3.1 0.8,6.6 -1,9.2 -1.8,2.6 -7.6,4.8 -9.3,2.2 -0.7,0.8 0,0 -0.7,0.7 -0.9,-0.5 -1.7,-0.9 -2.6,-1.4 -2.9,1.4 -7.2,4.8 -8.6,7.7 -0.8,1.6 0.5,2.5 -0.7,3.7 -1.3,1.2 -3.7,1.5 -4.6,0 0.9,3.1 -0.5,7.7 -0.6,10.9 -0.1,1.8 -0.2,-0.5 -0.1,3.8 0,1.8 -5.6,2.4 -5.8,0.7 0,3.9 0.5,6.3 -1.5,9.7 -0.2,1.4 1.1,2.8 2.5,2.7 -1.2,1.1 -2.4,2.2 -3.6,3.3 1.1,0.4 1.6,1.7 1.2,2.7 1.3,-0.7 1.4,0.5 2.6,1.4 -1.6,1.2 -1.5,1.2 -3.1,2.5 0.8,0.4 1.5,1.2 1.6,2.1 0.3,2.9 -5.3,1.9 -7,4.3 -1.1,1.5 -0.1,3.7 -0.7,5.5 1.7,-1.8 5,-2 6.8,-0.3 1.9,1.7 2,5 0.3,6.8 2.6,0.3 3.6,3.3 4.6,5.6 0.9,1.5 3.2,1.8 4.9,2.2 -0.2,-2.4 2.3,-4.8 4.7,-4.2 2.4,0.6 3.1,4.5 1,5.7 1.9,0.8 3.9,1.6 5.8,2.4 0.7,-0.6 1.4,-1.2 2.1,-1.8 1.9,0.8 2.7,3.5 1.5,5.2 1.3,-1.4 2.5,-2.8 3.8,-4.3 1.3,0.3 0.4,3.8 1.4,4.7 -2.6,1.9 1,3 1.6,6.2 0.9,4.6 -0.5,9.4 -3.6,12.8 7,2 6.6,4.7 8.8,8.9 5,-7.8 5.4,-19 7,-28.1 0.4,-2.2 1,-4.4 2.3,-6.1 1.3,-1.7 3.2,-2.8 4.9,-4.1 8.8,-6.8 12.6,-18.6 12,-29.7 -0.6,-11.1 -5.2,-21.6 -10.4,-31.4 -2.1,-4 -4.5,-8 -5.6,-12.3 -1.2,-4.6 -1.1,-9.4 -0.9,-14.2 0,-0.8 0.1,-1.8 -0.4,-2.5 -0.5,-0.7 -1.5,-0.9 -2.4,-1.1 -3.2,-0.6 -6.3,-1.1 -9.5,-1.7"
           id="path62" /></g><g
         id="g68"><path
           inkscape:connector-curvature="0"
           class="st2"
           d="m 59.1,214.7 c -3.8,1.7 -5.4,6.2 -5.6,10.3 -0.2,4.1 0.7,8.3 -0.1,12.3 -1.2,6.6 -6.2,11.7 -10.2,17.1 -5,6.6 -8.9,14.1 -10.4,22.3 -1.5,8.1 -0.5,16.9 3.7,24 2.6,4.5 6.4,8.2 9,12.7 2.9,5 4.4,10.7 4.6,16.5 0.1,4.5 -0.5,9.2 1.3,13.3 1.8,4.1 7.7,6.8 10.9,3.7 1,-5.7 0.7,-9.9 1.2,-15.8 0.2,-2.3 -0.3,-6.7 1.3,-8.3 1.6,-1.6 5,-1.4 5.6,0.7 1.1,-1.2 1.8,-2.8 1.8,-4.4 1.3,1.1 4.5,3.7 5.3,5.2 1.3,-1.2 -0.7,-4.8 -1.8,-6.1 0.7,-0.1 1.5,-0.4 2.2,-0.7 2.4,-1 4.5,-3.3 4.1,-5.8 -0.2,-1.3 -0.9,-2.7 0,-3.7 1.1,-1.2 3,0.1 3.8,1.5 0.8,1.4 1.8,3.1 3.3,3 0.2,-2.6 -0.5,-5.2 -2.1,-7.3 0.5,-0.6 1.5,-0.8 2.2,-0.4 -0.8,-4.1 -1.4,-8.1 -1.9,-12.2 2.3,1.2 4,3.3 4.8,5.7 -0.1,-2.8 0.4,-5.6 1.4,-8.2 0.5,-1.4 3.3,0.1 3.2,-1.4 -0.1,-1.5 -3.4,-5.8 -4.8,-5.6 2,-1.4 2.5,-4.5 1.1,-6.5 1.3,-3.2 2.6,-6.4 3.9,-9.6 1.9,0.3 3.8,1 5.4,2.1 0.5,-1.1 0.4,-2.4 -0.3,-3.4 1,-0.3 1.9,-0.6 2.9,-0.9 -1.7,-1.2 -2,-4 -0.5,-5.6 -2.2,-1.1 -4.7,0.2 -7,1.1 -2.2,0.9 -5.4,1.3 -6.7,-0.8 2.3,-0.6 4.3,-2 5.8,-3.8 -2,-0.2 -3.9,-1.4 -5,-3.1 -1,-1.5 -1.3,-3.3 -2.3,-4.7 -1,-1.5 -2.9,-2.6 -4.5,-1.7 0.1,1.4 0.1,2.8 -0.6,4 -0.7,1.2 -2.3,2 -3.5,1.2 0.6,-1.9 1.2,-3.8 1.9,-5.7 -0.8,0.3 -1.7,0.5 -2.5,0.8 -0.1,-1.2 -0.4,-2.3 -1,-3.4 -2.5,0.8 -5.1,1.5 -7.7,2 0.9,-2 1.8,-4.1 2.7,-6.1 -1.1,-0.2 -1.8,1 -2.7,1.6 -1.9,1.4 -3.9,2.3 -5,0.2 -1,-2.1 -1.4,-6.8 -0.5,-9 0.9,-2.2 2.3,-4.1 3.1,-6.3 1.1,-3.1 0.9,-6.8 -1.2,-9.3 -2.1,-2.5 -6.4,-3.1 -8.7,-0.7"
           id="path66" /></g></g><g
       id="UBERON_0003456"
       style="fill:none"><desc
         id="desc913">Respiratory system lymphatic vessel</desc><title
         id="title911">Respiratory system lymphatic vessel</title><path
         inkscape:connector-curvature="0"
         class="st3"
         d="m 180.2,29.3 c 2.4,-4.5 5.3,-8.6 9.2,-11.8 2.9,-2.4 6.3,-4.2 9.7,-5.9 12,-5.8 24.9,-9.9 38.1,-11.1 13.2,-1.2 26.8,0.6 38.9,6.2 2.9,1.3 5.7,2.9 7.8,5.3 2.1,2.4 3.5,5.7 2.9,8.8 -0.8,4.4 -4.8,7.2 -8.6,9.3 -5.3,2.8 -11,5.1 -16.8,6.6 -10.6,2.8 -21.7,3.2 -32.3,6.1 -6.6,1.8 -12.9,4.5 -19.5,6.3 -4.9,1.3 -10.1,2 -15.1,1.1 -5,-0.9 -9.9,-3.5 -12.7,-7.9 C 179,38 178.5,31.8 181.4,27.5"
         id="path71" /></g><g
       id="CL_0002138"
       style="fill:none"><desc
         id="desc909">Endothelial cell of lymphatic vessel</desc><title
         id="title907">Endothelial cell of lymphatic vessel</title><path
         inkscape:connector-curvature="0"
         class="st4"
         d="m 184.9,22.4 c 2.5,-2.5 5.4,-5.3 8.4,-7.2 12.3,-7.8 26.4,-13 40.9,-14.5 14.5,-1.5 29.5,0.9 42.6,7.2 2.5,1.2 4.9,2.6 6.8,4.6 1.9,2 3.1,4.8 2.8,7.5 -0.3,2.7 -2.1,5 -4.1,6.8 -7.8,7.3 -18.7,9.7 -29.1,11.9 -2.9,0.6 -5.7,1.2 -8.6,1.2 -1.5,0 -3,-0.2 -4.5,0 -2,0.2 -3.9,0.8 -5.8,1.4 -5.6,1.9 -11.1,3.7 -16.7,5.6 -3.7,1.2 -7.5,2.5 -11.3,3.1 -3.3,0.5 -6.6,0.6 -9.9,0.2 -4.6,-0.5 -9.4,-1.9 -12.5,-5.3 -4.8,-5.2 -5.8,-15.5 0.2,-21.5 1.8,-1.8 8.5,-7.9 15,-11.5 9.5,-5.2 19.9,-8.5 30.5,-10.5 -0.7,0.3 -0.6,1.4 -0.1,2 0.5,0.6 1.2,1.2 1.3,1.9 0.2,1.3 -1.3,2.2 -2.5,2.4 -9.1,1.7 -16,2.8 -21.1,5.7 -9,5 -10.1,5.9 -12,9 -4.3,7 -4.5,14.8 2,17 6,2 9,2 13,1 7.8,-2 3.6,-0.2 6,-1 4.7,-1.6 8.3,-3.5 13.2,-4.5 7.3,-1.5 14.8,-1.4 22.2,-2 8.7,-0.6 17.7,-2.3 24.6,-8 0.9,-0.7 1.6,-1.7 1.9,-2.8 2,-5.6 -2,-8.1 -5.7,-9.8 -8.6,-3.9 -18,-5.9 -27.5,-5.8 -5,0 -10.1,0.7 -15,-0.4"
         id="path74" /></g><g
       id="CL_0000669"
       style="fill:none"><desc
         id="desc905">Pericyte cell</desc><title
         id="title903">Pericyte cell</title><g
         id="g79"><path
           inkscape:connector-curvature="0"
           class="st5"
           d="m 571.9,426.4 c -0.7,0 -0.9,1.1 -0.8,1.8 1.1,6.5 3.7,13 3.1,19.6 -0.1,0.9 -0.2,1.9 -0.7,2.8 -0.9,1.8 -3.1,2.7 -5,2.2 2.6,2.4 3.6,6.3 2.9,9.9 -0.2,1.1 -0.6,2.1 -1.3,2.9 -0.8,0.7 -2,1 -2.9,0.5 -0.6,-0.4 -1,-1.1 -1.7,-1.2 -0.9,-0.1 -1.5,1.2 -1.2,2.2 0.2,0.9 0.9,1.7 1.2,2.6 0.5,1.8 -0.6,3.6 -1.5,5.3 -4.4,7.5 -6.9,16.1 -7.2,24.8 2,-3.2 5,-7.6 6,-11.3 0.6,-2.2 1.4,-4.9 3,-6.5 2,-2.1 3.4,-1.1 6.2,-2 4.1,-1.2 7.8,-4 10,-7.8 2.2,-3.8 3.6,-7.4 2.2,-11.6 -1.1,-3.3 -3,-7.3 -4.4,-10.5 -1.6,-3.9 -2.9,-8 -3.3,-12.1 -0.4,-4.1 -1.5,-8.6 -4.5,-11.4"
           id="path77" /></g><g
         id="g83"><path
           inkscape:connector-curvature="0"
           class="st5"
           d="m 525.4,405.3 c -1.6,0.3 -3.2,0.9 -4.7,1.8 -0.9,0.6 -1.9,1.5 -1.7,2.6 0.4,1.6 2.6,1.4 4.1,0.8 5.4,-2.1 10.5,-1.7 16.8,-3.2 1.3,-0.3 2.7,0.4 3.8,1.2 1.1,0.9 1.7,2.5 1,3.7 -0.7,1.4 -2.8,2 -2.9,3.6 2.3,0 4.4,-1 6.6,-1.7 2.2,-0.7 4.5,-1.2 6.6,-0.3 2.1,0.9 3.6,3.7 2.4,5.7 -0.6,1.1 -1.9,2.4 -1.1,3.4 0.5,0.6 1.5,0.4 2.1,0 0.6,-0.5 1.1,-1.2 1.8,-1.5 1.9,-1 4,0.7 5.3,2.4 1.3,1.7 2.7,3.8 4.8,3.9 0.2,0 0.5,0 0.7,-0.2 0.4,-0.3 0.4,-0.8 0.4,-1.3 -0.1,-2.2 -0.2,-4.4 -0.3,-6.6 -0.1,-3 -0.3,-6.1 -1.3,-9 -1.2,-3.1 -2,-6.5 -4.8,-8 -3.7,-2 -7.6,-2.9 -11.7,-2.4 -4.1,0.5 -9.9,3.3 -14,3.6 -5.2,0.4 -10.7,-0.4 -15.3,2.1"
           id="path81" /></g></g></g><g
     id="Outline"><g
       id="layer2"
       transform="translate(304.33072,106.15262)"><path
         id="path929"
         d="M-151.8,466.7c-7.5-0.5-12.1-1.8-20.6-6.3c-6-3.1-9.3-5.2-12.9-8c-2-1.5-7.9-5.6-15.7-10.8    c-3-2-7-4.2-12.3-6.8c-13.5-6.6-16.3-8.4-20.2-13.2c-5.9-7.3-8.5-12.7-10.6-22.7c-1.7-8-1.7-13.6,0.2-17.9c0.5-1.2,0.9-3,1.1-4.5    c0.3-3.4,1.2-5.7,3.4-9c2.6-3.9,7.1-7.7,12-10.2c2.6-1.3,8.8-3.4,11.8-3.9c1.7-0.3,3.6-0.4,4.9-0.3c2.3,0.2,2.3,0.2,0.1-1.6    c-3.2-2.5-7.8-4.1-16.6-5.9c-9.9-2-15.8-5.4-20.7-11.9c-3.5-4.7-6.7-12.1-7.6-17.9c-1.2-7.7-0.2-15,3.6-27.7    c0.5-1.7,1.4-5.1,2.1-7.5c1.1-4.4,1.1-4.6,1-9c-0.1-3.1-0.4-5.2-0.9-6.9c-2.1-7.3-2.4-9.1-2.4-12.6c0-3.1,0.1-3.7,0.8-5.3    c0.5-1,1.3-2.3,1.8-2.9c0.6-0.6,1-1.2,1-1.3s-0.5-0.2-1.2-0.2c-1.6,0-2.6-1-3.7-3.8c-1.4-3.5-1.8-5.6-2.2-11.5    c-0.4-7.2-0.7-9.4-1.9-12.9c-1.3-3.7-3.4-7.4-6.2-10.7c-4-4.8-5-6.2-6-8c-2.6-4.6-3.6-9.4-3.6-17.8c0-4.7,0.1-5.4,0.9-8.5    c1.1-4,3.1-9.4,4.5-12.2c1.4-2.9,4.1-6.7,9.5-13.5c2.7-3.4,5.2-6.8,5.6-7.7c1.5-3.2,1.5-5.3,0.5-15.7c-0.1-1.4-0.1-2.9,0.2-3.8    c0.5-1.8,2.2-4.9,3.9-6.7c1.2-1.3,1.2-1.4,0.7-2.1c-1-1.5-1.6-4.8-1.4-7.7c0.1-1.5,0.1-2.8,0.1-2.8s-0.9,0.5-1.9,1.1    c-1.9,1.1-7.8,3.8-10.4,4.6c-0.8,0.3-2.8,0.6-4.5,0.7s-4.4,0.4-6,0.6c-5.3,0.6-9.4-0.4-13.2-3.2c-3.9-2.9-7.3-6-8.6-7.7    c-1.6-2.1-6.6-10.5-7.7-12.9c-0.4-1-1.3-4-2-6.6c-1.8-7.6-1.7-13.7,0.5-21c0.7-2.2,2.2-5.4,7.3-15.4c4.5-8.7,4.4-8.4,4.7-23.2    c0.2-12.9,0.4-14.8,2.2-20.3c0.9-2.7,3.7-8,5.9-11.1c2.8-3.9,9.7-10.8,15.4-15.2c2.1-1.6,6.7-4.3,9.7-5.6c3.3-1.4,5.9-1.6,7.1-0.4    c0.5,0.5,1,0.7,1.4,0.6c0.8-0.2,4.1,0.7,5.5,1.6c5.3,3.2,15.9,13.1,19.1,17.8c4.8,7.1,12,29.3,12.6,39c0.1,1.8,0.3,4,0.4,4.7    l0.2,1.4l1.8-2.7c3.3-4.8,5.7-8.2,8.1-11.4c1.3-1.7,3.6-4.8,5-6.7c2.5-3.3,8.6-13.8,10.1-17.5c0.4-0.8,1.3-2.6,2-3.9    c0.8-1.3,2-3.5,2.7-5c2-4,3.4-6,6.2-9c4.8-5.1,10-8.6,14.7-9.9c2.5-0.7,10.8-0.7,15.9,0c2,0.3,5.1,0.7,6.8,0.9    c5,0.7,12.5,0.9,15.4,0.4c6.3-1,12.9-3.2,20.9-7c6.1-2.9,7.7-3.4,11.5-3.6c2.7-0.2,4.1,0,5.8,0.7c0.4,0.2,0.6-0.1,0.9-1.1    c0.4-1.7,2.4-3.9,4.2-4.7c2.4-1.1,9.5-3,13.5-3.5c2.1-0.3,6.1-0.7,8.8-1s6.4-0.7,8.2-0.8c18.3-1.9,18-1.8,26.9-4.4    c6.6-1.9,8-2.5,15.3-6.2c7-3.5,9.8-4.3,15.3-4.3c4.9,0,9.2,1.2,14.6,4.3c7.6,4.3,10.1,6.9,23.3,23.7c3.2,4.1,7.6,8.9,9.1,10.3    c2.1,1.8,5.8,4,8.4,5.2c4.1,1.8,6.9,2.4,15.6,2.8c5.3,0.3,8.2,0.6,9,0.9c1.3,0.5,3.5,2.9,3.5,3.8c0,0.7,0.1,0.7,1.7-0.1    c1.1-0.6,1.9-0.7,3.7-0.7c2.9,0,4.2,0.5,9.8,4c4.7,2.9,6.3,3.8,10.9,5.6c6.3,2.6,8,3.6,11.5,7.2c1.8,1.8,4.2,4.5,5.3,6.2    c1.1,1.6,2.7,3.9,3.6,5c0.8,1.1,1.9,3.2,2.5,4.5c0.9,2.1,1,2.7,1,4.8l-0.1,2.3l2.9,0.2c5.6,0.3,7.9,1.7,16.4,10    c3.3,3.2,7.2,6.7,8.6,7.8c3.4,2.5,8.4,4.9,19.1,9c14.4,5.5,18,7.7,25.1,14.8l3.1,3.1v-3c0-7.5,3-12.2,10.2-15.9    c4.8-2.5,8.2-5.2,15.3-12.3c9.5-9.4,14.2-12.6,22.3-15.2c4.5-1.4,5.9-1.7,10.2-2c3.7-0.3,6.6,0.2,9.3,1.5c1.3,0.7,1.6,0.7,2.8,0.3    c4.9-1.5,16,1.1,21.3,5.1c7.7,5.8,13.2,15.5,14.1,24.9c0.2,1.9,0.4,6.3,0.6,9.6c0.1,3.3,0.4,7.1,0.6,8.3s1.8,6.7,3.7,12.1    c4,11.9,4.6,14.7,4.3,21.7c-0.3,7.3-1.6,12-4.4,15.9c-3.1,4.3-5.9,10-5.9,11.9c0,0.5-3,10.7-4.1,13.7c-1,3-3.3,7.7-4.7,10    c-2.1,3.3-3.8,5.2-6.9,7.6c-3.5,2.8-6.6,4.6-11.9,7.1c-7.3,3.3-13.3,4.5-16.5,3.1c-1.1-0.5-1.6-0.6-2.2-0.3    c-1.3,0.6-11.6,0.5-14.9-0.1c-7.3-1.3-13.5-4.2-18.6-8.7c-1.8-1.6-3.8-3.6-4.4-4.4c-0.6-0.8-1.1-1.3-1.2-1.1c-0.2,0.5,0.5,7.1,1,9    c0.4,1.8,3.6,8.2,5.8,11.8c2.5,4.1,4.7,8.2,5.6,10.3c1.3,3.2,3,9,3.4,11.7c1.7,12.4,2.1,19,1.2,23c-1.6,7.6-5.5,13.4-12.1,17.9    c-2,1.4-4,2.9-4.3,3.3c-2.2,2.8-3.2,7.4-3.8,17.8c-0.3,5.6-0.9,9.6-1.7,12.6c-0.5,1.9-2.7,4.5-3.9,4.8c-0.5,0.1-0.8,0.4-0.8,0.8    c0,1.1-1.6,5.6-2.9,8c-2.8,5.4-5.7,11.5-6.5,14.1c-0.5,1.5-1.1,3.4-1.5,4.1c-0.3,0.8-0.5,1.5-0.5,1.5c0.1,0.1,1.3-0.3,6.2-2    c1.4-0.5,3.5-1.1,7-1.1c4.5,0,8.5-0.6,13-1.9c12.7-3.7,22.6-0.2,25.1,9c0.3,0.9,0.6,4.2,0.8,7.2c0.4,6.4,0.5,7.1,2.1,9.2    c1.8,2.5,3,6.5,3.6,12.2s1,7.1,3.6,11.4c1,1.6,2.2,4.1,2.8,5.4c1,2.3,1.5,2.7,1.6,6.6c0,3.9-0.5,4.3-1.4,6.1    c-1.1,2.3-3.6,6.4-6,8.3c-2.3,1.9-5,2.6-8.3,3.4c-4.5,1.2-5.9,2.8-7.7,9.4c-0.5,1.9-1.4,4.5-2,5.8s-1.2,3-1.3,3.7    c-0.3,1.9-1.9,5.9-3.3,8.2c-1.5,2.5-2.9,4-5.9,6.3c-2.6,2-11.6,7.3-14.6,8.6c-3.8,1.7-8.9,4.8-13.5,8.3c-5.7,4.3-8,5.6-13,7.4    c-4,1.4-7.4,2.2-13.9,3.3c-3.7,0.6-5,0.7-11.2,0.6c-6.4-0.1-7.3-0.2-10.1-1c-1.7-0.5-4.6-1.6-6.4-2.5c-3.3-1.6-3.4-1.6-6.4-1.7    c-3.1,0-3.1,0-6.2-1.6c-4.7-2.4-5.9-3.4-7.3-6.2c-1.7-3.3-2.3-6.9-2.1-11.8c0.1-2,0.3-4.2,0.5-4.9c0.2-0.7,0.3-1.3,0.2-1.4    s-1.1,0.5-2.3,1.4c-8.2,5.6-17.2,8.3-34.2,10.3c-5.1,0.6-6.6,1.2-15.8,5.9c-3.8,1.9-7.7,3.8-8.8,4.1s-3.2,1-4.8,1.6    c-3.8,1.4-5.9,2-8.6,2.2c-1.2,0.1-3.1,0.4-4.2,0.7c-2.7,0.6-13.1,0.5-15.4-0.2c-0.9-0.3-1.8-0.7-2-0.8c-0.3-0.3-0.5-0.1-0.9,0.5    c-0.3,0.4-0.8,0.9-1.2,1s-1.3,0.6-2.1,1.2c-3.1,2.2-7.2,3.2-12.6,3.2c-2.1,0-4.5-0.1-5.3-0.3c-0.8-0.2-5.1-0.5-9.7-0.8    c-6.4-0.4-9.4-0.4-13.8-0.1c-4.8,0.3-10.5,1.2-11.5,1.8c-0.7,0.4-7.6,1.8-9,1.8s-1.7-0.1-2.7-1.1s-1.1-1.3-1.1-2.7    c0-2.9,2.7-6.9,6.2-9.2c1.5-0.9,1.7-1.2,1.8-2.5c0.2-1.1,0-1.7-0.4-2.8c-1.2-2.6-0.6-6,1.3-7.9c0.6-0.5,2-1.4,3.3-1.9    c2.4-1,2.3-1,10.7-0.8c4.4,0.1,7.5-0.4,13.6-2c7-1.9,7.4-1.9,24.5-2.1c20.7-0.2,24.3-0.7,31.3-3.8c3.9-1.7,5.8-2.8,9.1-5.3    C79.6,394.6,89,386,95.1,380c6.5-6.4,10.8-10.1,14.7-12.7c17.9-11.8,22.6-16.2,27.5-26c2.9-5.9,6.1-9.8,12.1-15    c4.9-4.3,7.3-6.7,9.3-9.5c0.8-1.1,2.1-2.7,3-3.6c1.8-1.9,9.5-8.7,13.2-11.7c2.4-1.9,8.6-8.6,11.4-12.1c5.6-7.2,8.9-14.3,13.5-29.6    c2.2-7.3,3.5-13,3.5-15.7c0-1-0.2-1.6-0.8-2.2c-0.7-0.7-0.8-1-0.6-2.3c0.1-0.8,0.6-2.3,1.1-3.3c1.2-2.4,1.4-3.3,0.8-3.8    c-0.3-0.2-0.8-0.4-1.2-0.3c-0.6,0.1-0.8,0.5-1.3,2.1c-0.7,2.5-0.8,2.7-1.8,2.7c-0.5,0-1.1,0.2-1.4,0.6c-0.8,0.7-1.5,0.3-2-1.1    c-0.3-0.8-0.4-0.9-0.9-0.7c-1.2,0.7-2.1-0.5-1.7-2.3c0.2-1,0.2-1-0.4-0.5c-1.5,1.4-2.9,0.3-2.1-1.8c0.2-0.7,0.4-1.3,0.4-1.4    c0-0.1-0.8,0.3-1.7,0.7c-1.4,0.6-1.9,0.7-2.4,0.5c-0.9-0.5-0.8-1.4,0.5-2.9c1-1.2,1.1-1.4,0.6-1.6c-0.8-0.4-0.6-1.7,0.3-2.4    c0.9-0.7,1-1,0.3-1c-0.3,0-0.6-0.2-0.8-0.5c-0.3-0.5-0.4-0.4-1.3,0.2c-1,0.8-2.3,0.7-2.3-0.2c0-0.8-0.6-0.5-1.8,1    c-0.8,1-1.4,1.4-1.9,1.4c-1.1,0-1.3-0.8-0.4-2.5c0.6-1.1,0.6-1.5,0.3-1.6c-0.6-0.2-1.4-1-1.4-1.4c0-0.2,0.4-0.6,1-0.9    c0.9-0.5,1-0.6,0.8-2.2c-0.2-1.5-0.1-1.7,0.4-1.9c0.4-0.1,0.7-0.4,0.8-0.7c0.2-0.6,1.6-0.6,2.5-0.1c0.5,0.2,0.9,0.3,1.3,0    c0.4-0.2,1.1-0.5,1.6-0.6c1.1-0.3,1.3-1.2,0.3-1.3c-0.9-0.1-1.5-0.8-1.2-1.4c0.1-0.3,0.9-0.7,1.7-1.1c1.9-0.7,2.9-1.4,3.3-2.1    c0.3-0.6,0.3-0.6-1,0.1c-1.7,0.9-3,0.8-3.1-0.3c-0.1-0.4,0.1-1,0.4-1.3c0.5-0.6,0.5-0.6-0.4-0.8c-2.2-0.5-2-1.9,0.4-3.1l1.5-0.8    l-1-0.2c-1.1-0.2-1.5-0.9-1-1.9c0.2-0.5,0.2-0.7,0-1c-0.6-0.6-0.4-2,0.4-2.9c0.7-0.7,0.7-0.9,0.3-1.2c-1.2-1-0.4-2.3,1.7-2.9    c0.7-0.2,0.8-0.3,0.7-1.8c-0.1-0.9-0.3-2.1-0.5-2.8c-0.3-1-0.3-1.3,0.1-1.7c0.7-0.7,1.7-0.3,2.9,1.4l1,1.5l0.9-1.6l0.9-1.6    l-0.1-1.4c-0.5-1-0.6-1.4-0.2-2.1c0.2-0.5,0.6-1,0.8-1.1c0.4-0.2,0.4-0.3-0.1-1.1c-0.6-1.1-0.4-2,0.5-2c1,0,0.8-0.6-0.8-3.1    c-1.2-1.8-1.4-2.3-1-2.6c0.3-0.3,0.8-0.2,2.6,0.6c2.2,1,2.2,1,2.6,0.3c0.3-0.4,0.6-0.7,0.9-0.7c0.3,0,0.5-0.6,0.6-1.6    c0.1-0.9,0.4-1.9,0.7-2.2s0.5-1,0.5-1.6c0-1.1,0.6-1.9,1.8-2.2c0.7-0.2,0.7-0.3,0.6-1.3c-0.2-1.1-0.2-1.1,0.9-1    c0.6,0.1,1.3,0.2,1.5,0.3c0.3,0.1,0.6-0.3,0.7-0.9c0.2-0.6,0.5-1.1,0.9-1.2c0.5-0.1,0.6-0.7,0.8-4.5c0.3-5.6-0.1-13.8-0.7-17.5    c-1.5-8.6-5.9-19.3-11.4-28.1c-2.3-3.7-6.7-9.6-9.2-12.4c-2.8-3.2-3.4-4-8.5-11.5c-2.6-3.8-5.7-8.9-7.2-11.8    c-3-5.8-5.8-10.5-7.8-13.2c-3.5-4.8-10.8-10.5-17.9-14.1c-9.9-4.9-16.6-9.2-20.1-12.8c-1.8-1.9-4.9-5.7-10.4-12.9    c-6.3-8.2-7.9-9.6-15.2-13.7c-2.1-1.2-5.3-3-7.1-4s-4-2.1-5-2.5c-2.3-0.8-8.3-1.8-12.5-2.1C72.7-2,69-2.6,60.8-4.5    c-4.7-1.1-8.3-2.2-10.7-3.1c-2-0.8-4.8-1.9-6.3-2.4c-3.1-1.1-10.2-5-17.8-9.7c-11.1-6.9-11.4-7-18.6-9.8c-7.3-2.9-8.4-3-17.5-3    c-8.8,0-13.3,0.5-20.9,2.1c-2.9,0.6-7.1,1.5-9.3,2s-6.6,1.4-9.8,2.2C-68.6-22-74.2-20.5-83-17.3c-9.9,3.5-9.5,3.4-18.1,5.3    c-2.2,0.5-4.6,1.1-5.4,1.3c-2.4,0.6-8.8,2.9-11.1,3.9c-3.7,1.7-6.5,2.8-10.6,4.4c-5,1.8-18.1,8.3-23,11.4c-2,1.3-5.2,3.5-7,4.9    s-5.1,4-7.3,5.6c-3.7,2.9-8.8,7.7-11,10.5c-0.5,0.7-1.5,2.2-2.2,3.3c-1.5,2.4-3.2,4.6-8,10.5c-2,2.4-4.4,5.6-5.4,7.2    c-4.3,6.7-12,17.6-16.9,24c-5.6,7.2-7.9,11.5-9.6,18c-2,7.8-3.5,17.9-3.4,23.8c0,3.8,0.4,6.2,1.8,12.5c0.5,2.1,1.1,5.3,1.4,7    l0.5,3.2l1.4,0.1c0.8,0.1,1.6,0.2,1.8,0.4c0.2,0.1,0.8,0.4,1.4,0.5c1.4,0.3,1.9,1.3,1.2,2.8c-0.5,1.1-0.3,1.8,0.4,1.3    c0.6-0.3,1.6,0.2,1.6,0.8c0,0.3-0.3,0.8-0.6,1c-1.3,0.9-0.9,1.2,1.3,1.3s3.5,0.7,3.5,1.8c0,1-1.2,2.2-2.8,2.7    c-1.6,0.6-2.7,1.3-2.7,2c0,0.6,0.6,0.5,3.5-0.2c1.3-0.4,3.4-0.8,4.7-1.1s2.7-0.6,3.3-0.9c1.3-0.5,2,0,2,1.5c0,0.8-0.3,1.3-1.1,2    l-1.1,1l1.1,0.9c1.2,1,1.4,2.2,0.4,2.8c-0.4,0.2-0.6,0.6-0.6,1c0,0.8-0.9,1.2-1.6,0.7c-0.5-0.3-0.6-0.3-0.6,0.7    c0,0.6-0.1,1.3-0.2,1.6c-0.3,0.7-1.6,0.6-1.9-0.1c-0.3-0.8-1.7-2.6-2.1-2.6c-0.2,0-0.3,0.7-0.2,1.5c0.1,1.4,0.1,1.5-0.8,1.7    l-0.9,0.2l0.9,0.6c1.3,0.9,1.1,1.9-0.5,2.1l-1.2,0.1l0.7,0.8c0.6,0.7,0.7,0.9,0.3,1.4c-0.3,0.5-0.3,0.8,0,1.1    c0.5,0.5-0.1,1.4-0.9,1.4c-0.4,0-0.3,0.1,0.2,0.5c0.4,0.3,0.7,0.8,0.7,1.1c0,0.7-1.3,2.8-2.1,3.4c-0.6,0.5-0.6,0.5,0.7,1    c0.6,0.2,1,0.6,1.1,0.9c0.1,0.3,0.3,0.9,0.4,1.3c0.5,1.1,0.1,2.3-1.2,3.1l-1.2,0.7l0.7,0.6c0.9,0.8,0.7,1.7-0.4,1.8    c-1,0.1-1,0-0.4,1.5c1.1,2.6,0.2,4.2-2.2,4.1c-0.7,0-1.5-1.8-1.5-3.2c0-0.9-0.5-1.7-1.1-1.7c-0.2,0-0.3,0.8-0.3,2.4v2.4l1.1,0.6    c1.5,0.8,1.7,2.2,0.5,3.2l-0.9,0.7l0.7,0.8c1.1,1.1,0.8,1.9-0.8,2.1c-1.5,0.2-1.5,0.4,0.2,2.9c0.8,1.1,1.3,2.2,1.3,2.8    c0,1.2-1.4,2.9-2.4,2.9c-0.9,0-1.5-0.6-2.7-3.1c-0.5-1.1-1.1-2.1-1.3-2.2c-0.2-0.1-0.7,0-1.2,0.1c-0.8,0.3-0.9,0.4-0.6,1.7    c0.1,0.7,0.3,2.2,0.3,3.3c0,1.8,0,1.9-0.8,2.3c-0.6,0.3-0.9,0.7-0.9,1.2c0,1.1-1.1,1.8-2.4,1.5l-1.1-0.2l0.5,1.2    c0.4,0.8,0.4,1.6,0.3,2.4c-0.5,2.5-0.2,9.4,0.6,14.4c0.5,2.7,0.9,6.1,1.1,7.5c1,12.2,3.8,28,6.4,36.8c2.1,7,5.8,15.4,9,20.9    c2.9,4.9,9,13.9,10.7,15.9c8,9.3,17.7,17.8,30.7,27c11.3,8,17.9,12.2,21.9,13.9c1.7,0.7,15.6,6.1,19,7.4c2.5,0.9,6.4,2.7,9.5,4.5    c14.1,8,26,13.9,38.1,19c5.1,2.1,9.2,4.5,11.5,6.5l1.8,1.6v2c0,2,0,2-1.6,3.4c-1.8,1.7-4.3,2.9-5.8,2.9c-1.2,0-2.5,1.4-2.9,3.1    c-1,4.6-1.5,5.8-2.3,7.2c-0.5,0.8-1.5,2-2.1,2.5c-2.4,2.2-4.8,1.6-10.9-2.6c-4.8-3.3-11.6-6.8-17-8.6c-3.2-1.1-11.4-3.1-11.6-2.9    c-0.1,0.1,0.6,1.2,1.5,2.6c2.5,4,4.8,8.9,5.9,12.2c2.4,7.7,4.2,16.9,4.2,21.6c0,1.2-0.3,3.9-0.6,5.9c-0.3,2-0.8,4.8-0.9,6.1    c-0.4,3-0.6,3.8-2,6.6c-1.2,2.3-3.1,4.5-6.1,6.7c-0.9,0.7-3.6,2-6.4,3.1c-8,3.2-7.3,3-16.2,3.2    C-144.2,466.9-149.6,466.8-151.8,466.7L-151.8,466.7z M-134.7,462.8c4.2-0.7,9.9-2.6,13.4-4.2c5.1-2.4,9.7-9.6,8.5-13.3    c-0.9-2.7-4.8-6.2-6.8-6.2c-1.5,0-2.1,0.5-3.1,2.7c-1.1,2.4-3.5,5.1-5.2,6c-3.1,1.6-10.2,3.7-15.5,4.5c-2.9,0.5-9.9,0.5-13.1,0.1    c-5-0.7-11.6-3.4-19.3-7.9c-7.5-4.4-13-7.7-17.2-10.4c-2.5-1.6-5.6-3.6-7.1-4.5c-3.5-2.1-6.4-4.2-10.6-7.7c-1.9-1.6-4.2-3.4-5-4    c-5.5-3.7-12.4-12-14.7-17.6c-1.4-3.5-1.8-5.4-1.8-11.3c0-3-0.2-5.6-0.3-5.7s-0.7,0.1-1.2,0.4c-1.7,0.9-4.7,0.6-6.6-0.7    c-1.1-0.8-1.6-1-1.9-0.7c-0.9,0.7-1.2,2.7-1.2,6.7c0,3.6,0.1,4.5,1.3,8.8c2.1,7.9,5.9,16.8,9.1,20.7c2.7,3.4,9.9,8.9,14.6,11.1    c16.1,7.6,23.4,11.8,31.7,18.2c6.6,5,7.8,5.9,11.3,7.9c5,2.9,6.7,3.6,11.4,4.8C-150.3,463.9-143.7,464.4-134.7,462.8L-134.7,462.8    z M-141,449.9c2.2-0.5,5.8-1.4,7.9-2.1c3.5-1.1,4.1-1.5,5.7-2.9c1.4-1.3,2.1-2.3,3.2-4.6c0.8-1.6,1.5-3.5,1.6-4.1    c0.3-1.8-0.5-7.3-1.6-11.6c-2.2-8-5.9-13.3-11.8-17.1c-2.5-1.6-4.6-2.3-10.1-3.6c-4.8-1.1-12-3.5-15.5-5.3    c-2.7-1.3-9.4-6-12.4-8.5c-3.6-3.1-5.6-5.4-9.5-11c-6.1-8.8-9.7-11.4-17.6-12.8c-5.8-1-13.7-0.1-19.9,2.4c-4,1.6-5.5,2.8-7,5.4    c-1.3,2.3-3.1,7-3,7.8c0,0.3,0.2,3.3,0.3,6.7c0.3,6.9,0.7,8.6,2.5,12.3c2.5,4.9,8.4,11.7,13.5,15.4c1.4,1,3.9,3,5.6,4.5    c3.6,3.1,6.7,5.3,10,7.2c1.3,0.8,4.7,2.9,7.5,4.7c2.8,1.8,7.3,4.6,9.9,6.2c2.6,1.5,6,3.5,7.4,4.3c6.1,3.6,12.4,6.2,16.8,7.1    c1.2,0.2,4.4,0.4,7.3,0.4C-145.8,450.7-144.4,450.5-141,449.9L-141,449.9z M-110.7,437.9c0.3-5.6-0.3-11-1.7-15.1    c-1.6-4.7-4.5-11.4-6.8-15.2c-1-1.8-2.5-4.3-3.2-5.6c-2-3.5-3.2-5.2-6.2-8.8c-3-3.7-8.3-8.4-11.2-10.1c-5.4-3.2-6.5-3.8-7.7-4.3    c-2.1-0.9-8.8-2-14.3-2.5c-9.4-0.8-15.1-3-21.9-8.2c-3.4-2.6-9.8-6.6-13.9-8.7c-2-1-10-3.5-12.1-3.7c-5.9-0.5-14.3,2.1-21.3,6.8    c-3.5,2.4-5.7,4.6-7.3,7.6c-2.8,5.2-3.3,7.7-2.2,9.9c1.6,3.1,5,3.4,7.1,0.8c0.3-0.4,0.8-1.5,1-2.5c0.8-3,3.2-7.4,4.6-8.6    c3.9-3.4,13.2-6.1,21-6.1c3.9,0,8.7,0.7,11.7,1.9c4.6,1.7,8.7,5.5,13.3,12.1c3.8,5.6,5.8,7.9,9.3,10.8c3.4,2.9,9.1,6.7,12.1,8.2    c3.3,1.7,10.4,4.1,14.7,5c5.2,1.1,5.9,1.4,8.5,2.6c2.4,1.1,5.8,3.7,8.3,6.4c4.6,4.9,8.2,15,8.3,23.3v3.4h1c2.2,0,5.8,2.8,7.5,5.8    l0.6,1.1l0.3-1.1C-111,442.3-110.8,440-110.7,437.9L-110.7,437.9z M-154.3,393.5c-2.2-0.7-5-2.5-6-3.9c-1.6-2.1-1.5-4.5,0.3-6.5    c0.7-0.8,1.4-1.2,2.7-1.5c2-0.4,3.1-0.3,6.6,0.8c4.3,1.4,6.9,4.1,6.5,7.1c-0.2,1.9-1,3.2-2.2,3.9    C-147.7,394.2-151.7,394.3-154.3,393.5L-154.3,393.5z M-147.3,391.6c0.4-0.3,0.9-1,1.1-1.6c0.5-1.4,0.1-2.5-1.6-4.1    c-2.5-2.4-7.2-3.4-10-2.2c-2.5,1.1-2.7,2.5-0.8,4.7c1.2,1.3,3.2,2.6,5.2,3.2C-151.6,392.3-148.2,392.2-147.3,391.6L-147.3,391.6z     M-17.6,436.3c1.1-0.3,3.2-0.9,4.7-1.3c7.6-2.2,14.4-2.7,27.3-2c4.8,0.3,9.8,0.6,11.2,0.7c3.9,0.4,9.4-0.1,12.3-1.2    c3.9-1.4,5.2-2.8,5.6-5.7c0.3-2.6-1.4-3.8-5.6-3.7c-3,0-12.1,0.6-20.6,1.4c-4.4,0.4-11.8,0.8-18.4,0.9c-10.6,0.2-11.1,0.3-13,1    c-2.7,1.1-4,1.9-5.6,3.8c-2.3,2.6-3.1,4.9-2,6C-21.1,437-20.1,436.9-17.6,436.3L-17.6,436.3z M192.8,433.4    c8.1-1.4,14.1-3.5,17.9-6.1c1.1-0.8,3.6-2.8,5.4-4.4c3.8-3.5,6.6-5.2,12.3-7.7c5.5-2.4,7.5-3.6,12.9-7.3c5.6-3.9,7.9-6.3,9.8-10.3    c1.3-2.6,1.4-3.1,1.1-3.9c-0.7-1.8-0.3-5,1.6-12c1.3-4.9,2.6-8.2,4.1-10.2c1.7-2.3,3.2-5.3,3.2-6.5c0-0.6-0.3-1.9-0.7-2.9    c-0.5-1.5-0.6-2.1-0.4-3.1c0.3-1.4,1.1-1.7,2.7-0.9c1.2,0.6,2.6,0.6,3.1,0.1c0.6-0.7,1.3-3.8,1.3-5.5s-0.5-2.6-2.5-4.6    c-1.7-1.7-1.3-2.2,2-2.8c1.3-0.2,1.7-0.4,2.2-1.3c1.3-2.3,0.9-8.3-1.1-14.6c-0.6-1.8-1.3-4.1-1.6-5.2c-0.5-1.7-0.7-2.1-1.9-2.9    c-0.7-0.5-2.2-1.9-3.3-3.1c-1.1-1.2-2.4-2.4-2.9-2.7c-0.9-0.4-1-0.4-2.2,0.7c-2.1,1.9-4.1,2.1-4.6,0.3l-0.3-1l-0.9,1.2    c-0.5,0.7-0.9,1.4-0.9,1.5c0,0.4,1.7,1.6,4.2,3c5.7,3.1,7.8,8.4,7.8,20.1v5.9l-1.3,5.1c-0.8,3.2-2,6.5-3.1,9    c-1,2.2-1.8,4.1-1.8,4.3c0,0.6-3.6,4.9-6,7.2c-1.2,1.2-3.3,2.7-4.6,3.5c-4.4,2.5-14.2,9.3-16.3,11.2c-2.5,2.3-3.7,4.4-6.9,12.6    c-2.7,7-3.1,7.8-5.5,11.1c-3.1,4.4-6.2,6.6-11.8,8.8c-5.9,2.3-12.4,3.8-18.8,4.5c-6.3,0.7-15-0.2-19-2l-1.2-0.5l0.2,1.4    c0.3,2.1-0.3,3.6-2,5.4c-1.5,1.5-1.5,1.6-0.9,1.9c0.4,0.1,1.8,0.7,3.1,1.2c3.4,1.4,5.6,1.9,10.5,2.4    C181.4,434.6,186.9,434.4,192.8,433.4L192.8,433.4z M231.4,403.1c-1.5-0.8-2.1-2.1-1.9-4.3c0.3-2.7,1.4-5.6,3.4-8.4    c2-3,3.8-4.6,6.2-5.8c2.1-1,2.5-1,5-0.3c2.7,0.7,3.2,1.5,3.1,4.4c-0.2,4.3-3.3,9.3-7.7,12.5C236.2,403.7,233.7,404.2,231.4,403.1z     M237.4,399.9c4-2.7,7.4-7.6,7.7-11.3c0.1-1.5,0.1-1.7-0.8-2.3c-2-1.4-3.4-1.2-6.4,0.9c-3,2.2-5.7,7.2-6.3,11.6    C231.2,401.7,234,402.2,237.4,399.9L237.4,399.9z M61.9,429.3c7.4-0.9,9.6-1.4,14.1-3.2c2.4-0.9,5.2-2,6.2-2.3s4.8-2.1,8.3-3.9    c8.1-4.1,9.3-4.6,13.9-5.2c14.5-1.8,21.9-3.7,28.9-7.4c3.5-1.8,8-4.9,9.8-6.7c1-1,5.8-9.3,7-12c0.5-1.2,1.5-4.5,2.2-7.4    c2.6-10.5,8.6-24.1,14.1-32.3c4.6-6.9,6-10.3,5-13.1c-0.5-1.5-1.7-2.9-3-3.6c-1.2-0.6-3.5-0.4-5,0.4c-1.9,1-5.7,4.9-7.1,7.5    c-1.3,2.3-2,3.9-6.1,13.4c-2.2,5.2-3.2,6.9-5.5,9.7c-4.1,5-12.7,11.6-20.8,15.9c-10.7,5.8-17.7,11.7-25.8,21.7    c-7.2,9-14.5,14.4-23.9,17.5c-4,1.4-7.1,1.7-16,2c-6.4,0.2-6.7,0.2-8.4,1c-2.3,1.1-3,2.2-3,5c0,1.6,0.1,2.2,0.5,2.5    C48.8,430.2,53.9,430.3,61.9,429.3L61.9,429.3z M124.2,403.1c-2.3-0.2-3.7-0.8-5-2.1c-0.7-0.7-0.8-1.2-0.8-2.7    c0-3.5,1.6-5.3,7.8-9.2c5.7-3.6,8.1-4.7,10.1-4.8c3.9-0.3,5.6,1.8,5.4,6.2C141.2,397.9,133,403.9,124.2,403.1L124.2,403.1z     M129.1,400.8c6.2-1.6,10.3-5.5,10.7-10.3c0.3-3-0.7-4.3-3-4.5c-1.6-0.1-3.2,0.7-7.5,3.5c-7.8,5.2-9,6.3-9,8.5    c0,1.5,0.6,2.1,2.6,2.8C125.1,401.6,126.1,401.6,129.1,400.8L129.1,400.8z M159.8,426.1c1.7-1,2.4-2.6,2.2-5    c0-0.3-1.1-1.8-2.4-3.2c-2.9-3.3-4.1-5.6-4.8-9.7c-1.3-7.1,0-15,4-23.9c1.6-3.4,2.8-5.1,5.9-8.2c3.5-3.4,12.8-9.6,20.1-13.3    c2.3-1.2,3.9-2.7,6.2-6c3.2-4.5,4.4-7.9,4.3-12.9c0-4.5,1.4-9.3,3.8-13c2-3,8.4-9.3,11.8-11.6c7-4.7,11.3-6.1,18.4-6.4    c5.8-0.2,8,0.2,12.5,2.2c4.8,2.2,4.8,2.2,6.3,0.2s1.5-6.6,0-7.2c-1-0.4-4.6,0.5-6.9,1.7c-2.3,1.2-3.7,1.4-4.4,0.8    c-0.8-0.7-0.4-1.9,1.1-3.5c1.7-1.8,1.7-2.4,0.2-3.4c-1.3-0.9-2.6-0.9-8.6-0.2c-3.1,0.4-5.2,0.8-7.5,1.6c-4.5,1.5-5.6,1.8-7.4,1.4    l-1.5-0.3l-3,3.2c-1.6,1.8-4.7,4.5-6.8,6c-2.1,1.6-5.1,4.2-6.8,5.8c-6.8,6.5-11,10.2-13.1,11.4c-5.6,3.3-15.5,16.1-20.3,26.1    c-3.8,7.9-6.9,16.5-8.6,23.5c-1.7,7.2-3.5,11.6-7,17.6c-3,5.1-3.7,8-3.5,14c0.2,3.8,1,6.5,2.6,8.6c1,1.3,4.4,3.7,5.9,4.2    C154.5,427.1,158.5,426.9,159.8,426.1L159.8,426.1z M173.4,360.7c-2.9-1.3-3.6-3.1-2.9-7c0.9-4.7,4.2-9,8.4-11.1    c1.8-0.9,2.5-1,4.4-1c2.8,0,4.2,0.7,5.1,2.5c1.2,2.4,0.4,7.3-1.7,10.5c-1.1,1.6-5.3,5.1-7.5,6.1    C177.6,361.4,175.1,361.4,173.4,360.7L173.4,360.7z M179.4,357.8c3.1-1.9,5.5-4.4,6.4-6.7c1-2.7,1.2-5.3,0.5-6.4    c-0.7-1-2.3-1.7-4-1.7c-3.6,0-8.7,4.8-9.8,9.2c-0.9,3.6-0.5,5.5,1.6,6.4C175.8,359.3,177.2,359.1,179.4,357.8L179.4,357.8z     M-12.3,423.7c0.7-0.2,5.9-0.5,11.5-0.7s13.3-0.7,17.1-1c3.8-0.4,10.2-0.9,14.2-1.2c8-0.5,10.7-0.4,12.9,0.7    c1.2,0.6,1.3,0.6,1.7,0.2c0.6-0.7,4.1-2.7,6-3.5c1.6-0.6,2.6-0.7,9-0.7c7.5-0.1,8.5-0.2,13-1.7c6.6-2.2,11-4.9,16.7-10.5    c2.2-2.2,5.8-6,7.9-8.5c3.8-4.6,8.8-9.4,13.3-12.9c3-2.3,8.2-5.7,10.4-6.9c4.7-2.4,14.2-8.9,17.6-12c1.8-1.7,5.3-6.5,6.4-9    c0.5-1.2,1.8-4.4,2.9-7.2c1.9-5,4.3-9.8,6.8-13.3c2.9-4.1,6.1-6.2,10.3-6.5c1.1-0.1,2-0.3,2-0.5s0.2-1.1,0.5-2.1    c0.7-2.6,3-4.8,9.4-9.2c6.5-4.5,7.5-5.4,12.1-10.2c5.5-5.9,9.5-11.4,13.5-18.8c2.8-5.3,4-7.9,5.5-12c1.9-5.2,4.1-9.4,5.9-11.4    c0.9-1,1.6-2,1.6-2.3s0.8-1.9,1.8-3.6l1.8-3.2v-3.2c0-2.8-0.2-3.6-1.1-5.9c-1.2-3.1-1.2-3.6-0.4-5.2c0.4-0.7,0.5-1.3,0.3-1.6    c-0.4-0.7-1.8,0.8-2.4,2.6c-0.3,0.9-0.9,2-1.4,2.5c-0.9,1-0.9,1-1.9,9.4c-0.3,2.6-1.7,8.5-2.6,10.9c-1,2.7-5.6,12.9-7,15.5    c-0.9,1.7-2.6,4.5-3.8,6.3s-3.8,5.6-5.7,8.6c-4.3,6.6-8.3,11-15.6,17c-4.9,4-6,5.1-10.9,10.6c-2.5,2.8-4.9,4.9-9.7,8.3    c-4.4,3.2-6.1,5.6-10,14.6c-2.8,6.3-4.6,9.6-7,12.3c-2.7,3.2-10.2,9.4-17,14.2c-3.4,2.4-7.2,5.2-8.5,6.2c-1.3,1.1-4.3,3.4-6.6,5.2    c-5.3,4.2-14.7,12.8-20.3,18.6c-4.4,4.5-8,7.3-12.4,9.5c-3.5,1.8-12.7,3.6-20.6,4.1c-3,0.2-5.8,0.4-6.3,0.5    c-3.5,0.7-11.2,1.2-28.5,1.9c-9.8,0.4-13.3,0.7-23.7,2c-9.3,1.2-9.9,1.3-10.7,2.6c-0.6,1-0.6,1.1,0,0.9    C-13.8,424.1-13,423.8-12.3,423.7L-12.3,423.7z M185.8,421.5c1.2-0.3,3-0.6,4-0.8c3.2-0.6,7.1-1.9,12-4.1    c9.5-4.2,13.1-7.9,16.6-17c3.4-8.9,4.7-11.2,8.6-15.4c2.4-2.6,6.2-5.3,10-7c4.6-2.1,10-6.1,13.1-9.7c3.9-4.6,7.9-15.6,8.3-23.1    c0.2-3.7-0.5-10.5-1.4-13.1c-1.4-4.1-3.5-7.2-6.2-9c-1-0.7-2.3-1.8-2.8-2.4c-0.7-0.8-1.3-1.1-2.3-1.3c-0.8-0.1-2.4-0.7-3.6-1.3    c-4.4-2.2-5.8-2.5-11.1-2.5c-6.2,0-8.4,0.5-13.8,3.2c-4.6,2.3-7.3,4.4-12.1,9.3c-5.5,5.6-6.9,8.7-7.4,16.7    c-0.4,6.3-1.2,8.7-4.7,13.6c-2.3,3.4-4.2,5.2-6.7,6.5c-3.2,1.7-8.6,4.9-13.2,7.8c-2.9,1.9-4.8,3.4-7,5.6c-3.4,3.4-4.4,5-6.5,10.1    c-3,7.5-3.9,14-2.9,19.5c0.9,4.5,1.5,5.9,4.1,8.7c1.3,1.4,2.5,2.8,2.7,3.1c0.3,0.4,0.8,0.6,1.5,0.6c0.6,0,1.6,0.3,2.3,0.6    c1.5,0.8,2.6,1,7,1.5C179.3,422.1,183.3,422.1,185.8,421.5L185.8,421.5z M-7.4,420.1c2.5-0.4,5.8-0.9,7.5-1.1    c5.1-0.8,9-1.2,17.6-1.5c15.5-0.7,26.4-1.3,29.3-1.8c1.6-0.3,5.1-0.6,7.7-0.8c4.8-0.3,7.5-0.8,13.6-2.2c4.7-1.1,6.2-1.7,10.3-4.5    c2.9-1.9,4.7-3.5,9.9-8.7c7.1-7.2,13.2-12.7,19.8-17.9c6.9-5.5,8.3-6.6,13.7-10.4c7.7-5.4,13.9-10.5,16.9-14.1    c2.1-2.5,4.4-6.7,7-12.7c3.5-8.3,5.8-11.3,11.8-15.6c3.9-2.8,6-4.8,11.1-10.4c1.8-1.9,5-5,7.7-7.1c7.1-5.8,11.3-10.3,15.5-16.8    c1.9-3,4.5-6.9,5.7-8.6c2.8-4.1,4.7-7.6,7.6-14.4c2.9-6.6,4.6-12.2,5.3-16.8c0.3-1.9,0.7-4.5,0.9-5.8s0.3-3.3,0.3-4.4    c-0.1-1.5,0.1-2.3,0.6-3.3c1.3-2.6,0.4-3.8-1.4-1.8c-1.2,1.3-1.4,1.4-2.3,0.7c-0.3-0.3-0.9-0.5-1.1-0.5c-0.3,0-0.6-0.2-0.7-0.5    c-0.5-1.2-0.8,0.1-0.8,2.9c0,3.8-0.8,9.8-1.7,13.6c-2.2,8.6-7,21.4-10.3,27.6c-4,7.4-14.7,20-21.3,25c-3.7,2.9-6.6,5.7-10.1,9.8    c-4,4.8-4.9,5.7-9.3,9.5c-7.4,6.4-8.4,7.6-11.6,13.8c-6,11.6-10,15.9-21.7,23.2c-8.9,5.6-14.7,10.2-23.5,18.7    c-7.4,7.2-16.4,15.3-19.3,17.4c-4.6,3.5-8.4,5.1-15.7,6.7l-4.2,0.9L41,408.3c-18.7,0.1-21.4,0.3-32.2,3c-3.3,0.8-4,0.9-11,0.9    c-9.9,0.1-11.7,0.6-12.7,3.7c-0.5,1.5-0.5,2.2,0.4,3.8c0.7,1.3,0.8,1.4,1.7,1.2C-12.4,420.9-9.9,420.5-7.4,420.1L-7.4,420.1z     M-81.5,410.7c2.2-2.4,2.5-4.7,1.1-7.2c-1.1-1.9-2.7-3.4-5.8-5.6c-4.9-3.5-5.7-3.8-20.3-8.3c-4-1.2-9-3.3-11.3-4.6    c-1.4-0.8-8.6-5.6-13-8.6c-1.2-0.9-2.8-1.7-3.6-1.9c-2-0.5-4.6-0.4-5.8,0.2c-1.3,0.6-2,2.3-1.3,2.7c6.9,4,13.2,9.4,17.2,14.6    c2.3,3,2.3,3.1,4.7,3.9c1.3,0.5,3.7,1.1,5.4,1.5c4.9,1.1,9.8,2.8,14.7,5.1c2.5,1.2,4.7,2.2,4.8,2.2c0.1,0,2,1.3,4.1,2.8    C-84.1,412.1-83.1,412.5-81.5,410.7L-81.5,410.7z M-76.3,400.4c0.5-0.7,0.8-1.4,0.7-1.7c-0.2-0.6-3.3-3-5.1-3.8    c-0.8-0.4-2.4-1.3-3.4-2c-1.1-0.7-3.9-2.1-6.3-3.2s-11.5-5.4-20.2-9.7c-8.7-4.3-18.2-8.8-21.2-10.1c-3-1.3-7-3-8.9-3.9    s-5.4-2.3-7.7-3.2c-15.2-5.7-36.9-20.2-48.2-32.2c-2.7-2.9-7.3-8.5-11-13.3c-10.6-13.9-13.4-19-18.3-33.5    c-3.8-11.4-7.7-27.8-8.7-36c-0.1-1.1-0.6-4.4-1-7.5c-2.1-15.2-2.4-18.6-1.7-21.2c0.5-1.8,0.4-1.8-0.1-1.8c-0.8,0-2,2.2-2.7,5    c-0.4,1.8-0.5,3.7-0.4,10.1c0.1,7.7,0.1,7.9-0.6,8.9l-0.7,1l0.8,1.5c0.6,1.1,1.1,3.3,1.8,7.9c1,6.5,2.7,15.4,3.9,20.9    c0.6,2.8,6.7,21.3,8.4,25.6c2.5,6.3,6.7,14.9,9.6,19.6c5,8.2,15.8,20.5,22.7,26c10,8,18.6,12.5,32.5,17.4    c5.3,1.8,7.4,2.5,14.4,4.5c1.1,0.3,2.7,1.1,3.5,1.7c1.3,1,2.9,3.5,2.9,4.6c0,0.4,0.2,0.5,1.2,0.2c0.7-0.2,2.5-0.3,4.1-0.3    c3.7,0,4.9,0.6,10.9,4.9c7.2,5.2,14.4,8.7,23.6,11.3c11.2,3.2,14.6,4.5,18.1,7.1c1.8,1.4,5,4.6,5.6,5.7c0.2,0.4,0.5,0.7,0.5,0.6    C-77.2,401.7-76.8,401.1-76.3,400.4L-76.3,400.4z M-70.1,396.6c0.9-0.7,2.2-2.7,2.2-3.4c0-0.5-0.6-1.1-2-2.1    c-2.9-2.1-5.4-3.4-10.9-5.7c-14.4-5.9-19-8.1-25.9-12.2c-5.6-3.3-14.4-8-17.8-9.4c-6.2-2.6-9.5-3.9-13.9-5.6c-7.9-3-9.9-4-14.8-7    c-4.9-3.1-11.6-7.5-14.4-9.7c-1-0.7-3.5-2.5-5.6-4c-6.1-4.2-10.8-8.1-17.3-14.6c-7.4-7.3-9.7-10-13.9-16.2    c-8.5-12.7-12.6-21.4-16.2-34c-1.3-4.7-3.7-17.3-4.5-23.9c-0.4-3-0.9-7.4-1.2-9.8c-0.3-2.4-0.6-5.4-0.8-6.7    c-0.6-4.6-1.1-11.8-0.9-12.8c0.1-0.7,0.1-1-0.3-1c-0.3,0-1-0.5-1.6-1.1l-1.1-1.1l-0.3,1c-0.7,2.1-2,2.7-3.2,1.5    c-0.6-0.7-0.6-0.6-1,0.8c-0.7,2.7-0.3,7.8,1.3,19.4c0.2,1.3,0.6,4.6,1,7.2c1.5,11.3,4.6,24,8.7,36.5c4.9,14.6,7.5,19.6,17.3,32.4    c6.6,8.7,12.3,15.2,16.5,18.9c1.4,1.2,2.9,2.6,3.4,3.1s2.3,2,4,3.3c11.8,9.2,25.5,17.3,36.1,21.1c1.8,0.6,4.7,1.9,6.6,2.7    c1.9,0.8,5.7,2.5,8.5,3.7c4.4,1.8,23.1,10.7,29.2,13.8c5.7,2.9,10.9,5.4,13.4,6.5c5.6,2.3,13.8,6.3,15.4,7.5    C-72.4,397-71,397.3-70.1,396.6z M258.5,379.5c1.5-3.5,0.9-2.9,1.5-3.5c1.3-1.8,3-2.1,6.7-3c6.8-1.2,7.5-3.5,10.8-8    c1.8-2.9,2.3-3.8,2.3-7.8c0-3.2-1-4.4-1.9-6.6c-0.6-1.3-1.5-3.1-2.4-4.7c-2.4-4.2-2.8-5.8-3.2-10.8c-0.2-2.4-0.6-5.3-0.8-6.4    c-0.5-2.4-2.4-6.3-3.3-7.2c-0.7-0.6-0.7-0.6-0.7,0.4c0,0.5-0.3,1.4,0.3,2.4c0.8,2,1.3,4.1,1.9,6.6c1,3.8,1.1,6.9,1.1,10    c0.1,3,0.2,2.7-0.3,4.3c-0.4,1.1-1,1.9-2.4,2.1l-2.9-0.3l2,1.4c2.4,1.2,2.8,8.1,0.3,10.8c-1.1,1.2-2.5,2.1-4.3,1.3l-1.9-1.5    l1.4,3.1c1.1,2.7,1.1,3.4-2.6,8.6c-2.8,3.9-5.3,10.8-5.7,16.3l-0.7,4.2l2-4.2c0.2-0.7,1.3-2.3,2.3-5.8L258.5,379.5z M-144.1,375.3    c1-2.2,0-4.6-2.3-5.4c-0.8-0.3-3.3-1.2-5.7-2.1s-7.4-2.7-11.2-4c-7.9-2.6-11.5-4.2-16.1-6.7c-1.8-1-4.5-2.5-6.1-3.3    c-3.9-2.1-7.9-4.8-10.6-7.1c-4.6-3.9-16.1-15.6-18.4-18.7c-4.3-5.9-11-17.5-14.5-25.2c-5.2-11.4-10.1-28.9-11.6-41.3    c-1.8-14.7-2-15.8-3.2-17.2c-0.5-0.6-1.2-1.1-1.6-1.1c-1.6,0-4,2.2-5,4.5c-0.3,0.7-0.5,2.2-0.5,3.7c0,2.2,0.2,3.4,1.6,8.1    c1.8,6.1,2.3,9,2.4,13.4c0,3.9-0.4,6.1-3.3,16c-2.9,10.3-3.7,13.9-3.9,18.9c-0.2,5.1,0.3,8.7,1.9,13.4c2.4,6.9,4.5,10.5,8.9,14.9    c4.2,4.1,8.6,6.1,17.7,7.9c4.9,1,9.5,2.4,12.3,3.7c1.5,0.7,4,2.5,7.6,5.3c0.7,0.6,2.6,1.5,4.2,2.1c5.2,1.9,12.4,5.8,17.8,9.7    c4.7,3.4,9.3,5.8,14.9,7.7c2,0.7,3.1,0.8,9.3,1c6.1,0.2,7.4,0.4,10,1.1c1.6,0.5,3.2,1,3.5,1.1    C-144.9,376.3-144.5,376.2-144.1,375.3L-144.1,375.3z M-235.2,327c-2.8-1-7.6-4.9-9.1-7.4c-1.2-2-1.4-5.4-0.6-8.8    c0.5-2,0.8-2.6,2.1-3.9c1.6-1.6,2.3-1.8,4.5-1.2c3.6,1,9.6,11.1,9.6,16.2c0,2-1,4.1-2.3,4.9C-232.2,327.5-233.5,327.6-235.2,327z     M-232.1,325.3c0.8-0.3,1.4-1.9,1.4-3.6c0-4.5-5.7-13.8-8.9-14.6c-1.8-0.5-3.3,1.2-4.2,4.7c-1,4.1,0,6.9,3.5,9.9    C-236.6,324.7-233.8,326-232.1,325.3z M175.1,337.2l1.6-2.1l-1.6-0.1l-1.6-0.1l-0.1,2.2c-0.1,1.2-0.1,2.2-0.1,2.2    C173.4,339.2,174.2,338.3,175.1,337.2L175.1,337.2z M178,332.2c2.6-0.8,4.3-2.1,8.9-6.4c2.1-2,4.6-4.2,5.5-4.9    c0.9-0.7,2.7-2.2,4-3.4c3.3-3.1,6.2-5.6,8.1-6.9c2.2-1.6,4.3-3.9,6.1-6.7c1.4-2.2,5.2-10.5,6.3-13.9c0.3-0.9,1.4-3.2,2.5-5.1    c2.7-5,5.4-11.8,5.4-13.8c0-1.6-0.9-4.2-1.8-5.2c-1.1-1.3-2.8-1.8-4.3-1.3c-2.6,0.8-4.9,4.5-7.5,11.9c-2.8,7.9-5,12.7-9.5,20    c-2.6,4.3-6.8,9.3-11.9,14.3c-4.1,4-6.2,5.8-11,8.9c-6.3,4.2-8,6-8,8.5c0,2,2.6,4.7,4.7,4.7C175.7,332.8,176.9,332.5,178,332.2    L178,332.2z M266.6,317.1c-0.2-1.1-0.3-3.6-0.4-5.4c0-3.8-0.6-7-1.6-9c-1.8-3.6-5.7-6-10.3-6.7c-2.9-0.4-8.3,0.1-10.9,1    c-4.1,1.4-8.3,1.7-13.3,1.7c-3.3,0-6.6,0.7-8.6,1.5c-1.2,0.5-4.2,1.3-4.2,1.3c-2.1,0.5-2.4,1.6-2.4,2.5c0,0.5,2,0.1,5-0.9    c3.5-1.2,6.2-1.6,11.9-2.1c4.9-0.4,5-0.4,6.6,0.3c2.5,1.1,4.2,4,2.9,5.1c-3.4,2.8-3.5,3.4,2.8,0.7c3.4-1.4,3.4-1.4,6.4-0.5    c3.9,1.2,4.7,3.2,4.4,5.6c-5.6,7.5,1.1,1.5,1.8,1.4c1.2-0.3,3.6,0.4,5.4,2.5c1.9,2.2,4,3.9,4.4,3.5    C266.9,319.3,266.8,318.2,266.6,317.1L266.6,317.1z M253.2,310.9c0-0.6-1-1.7-1.6-1.7c-0.1,0-0.2,0.9-0.2,2s-0.1,2.4-0.2,2.8    c-0.2,0.5,0.1,0.3,0.9-0.8C252.6,312.3,253.2,311.3,253.2,310.9z M228.3,266.6c1.3-3,1.8-5.7,2.4-12.9c0.8-11.3,1.1-13.2,2.5-16.3    c0.9-2.1,2.4-3.7,4.8-5.5c3-2.2,5-4.3,6.9-7.3c2.1-3.3,3.4-6.3,4.8-11.8c1-3.9,1-4,0.8-9.9c-0.2-5.3-0.3-6.5-1.3-10.9    c-0.6-2.7-1.5-5.9-1.9-7c-1-3-3.7-8.7-6.2-12.9c-2.7-4.7-5.5-10.4-6.1-12.8c-0.3-1.3-0.6-4.1-0.8-8.5c-0.3-8.2-0.4-8.5-3.2-8.7    c-1.3-0.1-2.5-0.4-3.9-1.1c-1.1-0.6-2.1-0.9-2.2-0.8c-0.1,0.1-0.2,1.2-0.1,2.5c0,1.7,0.3,2.9,1,4.5c0.8,1.9,0.9,2.7,0.9,5.3    c0,4.6-1.2,7.1-4.7,9.7c-1,0.8-1.6,0.9-3.1,0.9c-1.7,0-2-0.1-2.8-0.9l-0.9-0.9l-0.5,0.7c-0.7,1.1-1.6,1.2-3.1,0.5    c-1.3-0.6-1.4-0.6-1.8,0c-0.2,0.4-0.8,0.6-1.1,0.6c-0.4,0-0.8,0.3-1,0.7s-0.8,0.8-1.4,1c-1,0.3-1.1,0.5-1.2,1.9    c-0.1,1.1-0.2,1.6-0.7,1.7c-0.5,0.2-0.6,0.6-0.7,2.2c-0.1,1.8-0.2,2-0.8,2.1c-0.4,0.1-0.9,0.4-1,0.7c-0.4,0.7-2.2,0.9-2.8,0.2    c-0.5-0.5-0.5,0,0.1,1c0.5,0.9,0.6,3.2,0.2,3.2c-0.2,0-0.3,0.5-0.3,1.2s-0.2,1.4-0.6,1.9l-0.7,0.7l0.7,1.2l0.7,1.2l-1,2    c-0.5,1.1-1,2.3-1.1,2.6c-0.1,0.8-1.3,1-2.3,0.4c-0.4-0.3-0.8-0.5-0.9-0.5c-0.1,0-0.1,0.9-0.1,2l0.1,2l-1,0.1    c-1,0.1-1,0.2-0.8,1.2c0.1,0.9,0,1.2-0.7,1.8l-0.9,0.7l0.7,0.6c0.4,0.4,0.7,0.9,0.7,1.1c0,0.3,0.3,0.5,1.1,0.5    c2.4,0,2.4,1.9,0,3.4l-1.7,1l1.1,0.9c0.6,0.5,1.3,0.9,1.5,0.9c1.5,0,1.7,2.7,0.2,4.3c-0.5,0.6-1.2,1.2-1.6,1.3    c-0.5,0.2-0.6,0.4-0.4,1.4c0.2,1.6-0.5,2.7-2,3.2c-0.7,0.2-1.4,0.7-1.7,1.1c-0.5,0.6-0.6,0.6-1.6,0.3c-1-0.4-1.1-0.3-1.6,0.3    c-0.5,0.7-1.3,2.9-1.1,3.1c0.1,0.1,0.7-0.2,1.4-0.6c1.2-0.6,1.4-0.7,2.1-0.2c0.5,0.3,0.9,0.4,1.2,0.2c0.6-0.4,2-0.4,2.5,0.1    c0.2,0.2,0.4,0.7,0.4,1.2c0,0.6,0.1,0.7,0.5,0.6c0.3-0.1,0.8-0.1,1.3,0.1c1.1,0.4,1.1,1.9,0.1,2.8c-1.1,1-1.1,3.2-0.1,3.2    s1.5,0.6,1.5,1.7c0,0.7,0.2,1.1,0.7,1.3s0.8,0.7,0.9,1.4c0.1,0.8,0.4,1.1,0.9,1.3c0.4,0.1,0.9,0.5,1.1,0.9c0.6,1.1,1.7,0.5,2-1.2    c0.3-1.6,1.6-2.6,3.5-2.6c1,0,1.5,0.2,2.4,1.1c1.1,1.1,1.1,1.2,0.9,2.9c-0.2,1.4-0.1,1.7,0.3,1.7c0.3,0,0.8,0.3,1.1,0.6    c0.9,0.9,1.8,1.1,2.3,0.5c0.2-0.3,0.9-0.5,1.8-0.5c1.4,0,2.5,0.7,2.9,2c0.2,0.6,0.2,0.6,1.1-0.1c2.8-2,5.9,0.9,4.2,4.1l-0.7,1.3    l0.7,1.7c1.2,2.9,1.6,4.8,1.6,7.8c0,2.9,0,3-1.4,5.7c-0.8,1.5-1.4,2.8-1.4,2.9s0.4,0.1,0.8,0.1c1.6,0,3.6,0.7,4.7,1.6    c1.2,1,2.5,3.3,2.5,4.6c0,0.4,0.1,0.8,0.2,0.8C227.4,268.6,227.8,267.7,228.3,266.6L228.3,266.6z M221.5,229.7    c-1.4-0.7-2.6-2.4-2.6-3.8c0-3.1,3.1-6.5,5.3-6c2.6,0.6,4.6,2.7,4.6,4.8c0,1.2-1.1,3.3-2.2,4.4    C225.4,230.3,223.2,230.5,221.5,229.7L221.5,229.7z M225,227.8c1.1-0.8,2-2.9,1.6-3.9c-0.3-0.8-1.7-2.1-2.6-2.4    c-0.7-0.3-2.5,1.1-3,2.2c-0.6,1.4-0.6,2.8,0,3.4C222,228.4,223.8,228.7,225,227.8L225,227.8z M232.4,227.3    c-1.8-0.7-2.5-3.2-1.5-5.6c0.6-1.6,3.5-4.3,4.8-4.5c1.2-0.2,2.8,0.5,3.4,1.4c0.5,0.9,0.4,3.4-0.1,4.7    C237.6,226.7,235,228.3,232.4,227.3z M235.7,224.8c1.3-1.4,1.9-2.9,1.8-4.3c-0.1-1.7-0.8-2.2-2.3-1.5c-2.2,1.1-3.5,3.8-2.8,5.8    c0.3,0.7,0.5,0.9,1.4,0.9C234.5,225.7,235.1,225.5,235.7,224.8L235.7,224.8z M208.5,219.1c-2.8-1.4-5.9-6.5-6.6-10.8    c-0.5-2.8-0.2-10.2,0.5-12.8c1.2-4.5,3.5-8.4,6.5-10.7c3.5-2.7,10-2.4,12.6,0.7c1,1.2,2.1,3.9,2.6,6.4c0.8,4.3-0.9,15.9-2.9,19.8    C218.1,217.7,212.4,221.1,208.5,219.1L208.5,219.1z M213.4,216.8c1.8-0.9,4.8-4.2,5.9-6.6c2.2-4.9,3.5-15.6,2.3-19.5    c-1-3.5-1.7-4.5-3.5-5.4c-2.1-1-4.9-1.1-6.8-0.1c-2.8,1.3-5.6,5.6-6.9,10.1c-0.6,2.1-0.7,3.4-0.7,7.6c0,5,0,5.2,1.1,7.7    c1.1,2.7,3.1,5.6,4.6,6.3C210.5,217.7,211.8,217.6,213.4,216.8z M211.7,203.3c-0.6-0.8-0.6-1.5-0.1-2.6s1.4-1.3,2.4-0.7    c1.5,1,0.7,4-1,4C212.5,204,212,203.7,211.7,203.3L211.7,203.3z M227.9,214.4c-0.9-0.6-1.7-2.1-1.7-3c0-1.4,1-2.8,2.3-3.3    c1.9-0.8,2.7-0.6,4,0.5c0.9,0.8,1.2,1.3,1.2,2.3c0,2.6-1.3,4.1-3.8,4.1C229.2,214.9,228.3,214.6,227.9,214.4z M231.2,212.9    c1.1-0.9,1-2.3-0.2-3.3c-0.9-0.6-0.9-0.6-1.9,0c-0.6,0.3-1.2,1-1.4,1.5c-0.3,0.8-0.2,1,0.6,1.7    C229.4,213.8,230.1,213.8,231.2,212.9L231.2,212.9z M238.7,214.3c-1-1.1-1.3-2-1.1-3.3c0.3-1.6,1.4-2.6,3.1-2.8    c1.2-0.1,1.5-0.1,2.1,0.7c1,1.3,1,3.6-0.1,4.9c-0.7,0.8-1.1,1-2.2,1C239.6,214.8,239,214.6,238.7,214.3z M240.9,213.1    c1.4-1,1.2-3.4-0.4-3.4c-1.4,0-2.3,2.1-1.3,3.2C239.9,213.7,240,213.7,240.9,213.1z M239.2,204.6c-0.6-0.2-1.5-0.8-2-1.4    c-1.2-1.4-1.4-3.5-0.3-5.2c1.7-2.8,6.8-3.5,8.6-1.2c1,1.2,0.8,4.5-0.3,5.7C243.7,204.1,240.9,205,239.2,204.6z M241.3,202.9    c2.3-0.8,3.7-3.1,2.9-4.7c-0.5-0.9-2.1-1.3-3.5-0.9c-1.2,0.4-2.8,2.1-3.1,3.3c-0.2,0.7,0,1,0.8,1.8    C239.5,203.4,239.8,203.5,241.3,202.9L241.3,202.9z M230.2,196.6c-0.9-0.4-1.4-1.6-1.4-3.3c0-1.1,0.2-1.6,1-2.4    c1.2-1.2,2.3-1.3,3.8-0.3c0.9,0.6,1.1,0.9,1.2,2.2c0.1,1.8-0.3,2.6-1.6,3.5C232,197,231.2,197.1,230.2,196.6L230.2,196.6z     M232.3,194.4c0.9-0.9,0.8-1.7-0.3-2.3c-1.3-0.8-2-0.4-1.9,1C230,195,231.1,195.6,232.3,194.4L232.3,194.4z M235.7,189.9    c-0.9-0.8-1-1.1-1.2-3c-0.2-2.3,0.5-3.8,2-4.8c1.6-1.1,4.2-0.5,5.6,1.3c0.8,1,0.9,3.5,0.2,4.9    C241.1,190.8,237.6,191.6,235.7,189.9L235.7,189.9z M239.5,188.4c1-0.7,1.6-2.5,1.1-3.5c-0.5-0.9-1.5-1.5-2.7-1.7    c-1.1-0.1-1.9,1-1.9,2.8C236,188.5,237.6,189.6,239.5,188.4L239.5,188.4z M231.3,179.4c-1.8-1.6-1.6-4.7,0.3-7.4    c0.9-1.3,1-1.3,2.8-1.3s2,0.1,2.9,1.1c1.2,1.3,1.3,3.1,0.4,5.1C236.3,180.1,233.3,181.2,231.3,179.4L231.3,179.4z M234.3,177.7    c0.9-0.7,1.8-2.4,1.8-3.3c0-0.8-1.2-1.8-2.2-1.8c-1.3,0-2,1.1-1.9,3.3C231.9,178.4,232.7,179,234.3,177.7L234.3,177.7z     M-242.9,240c0.6-0.9,0.7-3.9,0.3-9.8c-0.2-3.9-0.2-5.1,0.2-7.4c1-5.3,2.7-7.7,5.4-7.7c0.7,0,1.9,0.2,2.5,0.4    c1.4,0.5,1.5,0.4,1.5-0.8c0-1.6,1.5-2.4,2.6-1.5c0.3,0.2,0.9,1,1.4,1.8c0.6,1,1,1.3,1.2,1c0.3-0.3,0.2-0.8-0.4-2.1    c-0.4-1-0.6-2-0.5-2.4c0.2-0.8,1.7-1.3,2.8-1.1c0.8,0.1,0.9,0.1,0.8-0.8c0-1.1,0.5-1.7,1.3-1.7c0.7,0,0.7-0.7,0.2-2.7    c-0.5-1.9,0-3.5,1.3-4.2c1.1-0.6,3.5-0.6,4-0.1c0.2,0.2,0.2,0,0-1c-0.3-1.3-0.3-1.4,0.5-2.1c0.6-0.5,0.8-0.9,0.7-1.5    s0.1-1,0.6-1.5s0.6-0.8,0.4-0.9c-1.7-0.6-2.6-2.4-1.5-3.3c0.4-0.3,0.4-0.8,0.3-2.4c-0.2-1.4-0.1-2.2,0.2-2.5    c0.5-0.6,2.9-0.6,3.8,0c0.7,0.5,0.7,0.5,0.7-0.1c0-0.4,0.1-0.7,0.3-0.8s0.3-0.5,0.3-0.8c0-0.4,0.5-1,1.3-1.5    c0.7-0.5,1.3-0.9,1.3-1c0-0.4-1.9-2.3-2.3-2.3c-0.3,0-0.8-0.3-1.2-0.6c-1-0.8-0.6-1.7,1-2.5c1-0.5,1.2-0.7,0.9-1    c-0.2-0.2-0.3-0.7-0.2-1s-0.1-0.8-0.6-1.3c-0.5-0.4-0.7-0.9-0.6-1.2c0.1-0.3,0-0.6-0.2-0.7c-0.5-0.3-0.4-1.6,0-2    c0.2-0.2,0.7-0.4,1.1-0.4c0.6,0,0.7-0.2,0.7-1.2c0-0.9,0.1-1.3,0.6-1.5c0.6-0.3,0.6-0.5,0.3-1.2c-0.4-1.1,0-1.9,1-2.1    c0.5-0.1,0.7-0.3,0.7-1c0-1.9,1.5-2.8,3.2-1.8c1.1,0.6,1.4,0.6,1.1-0.1c-0.1-0.3,0-0.9,0.3-1.2c0.4-0.5,0.6-0.6,1.1-0.2    c0.4,0.2,0.9,0.4,1.2,0.4c0.4,0,0.2-0.3-0.7-1c-1.5-1.2-1.5-2.1,0.1-2.9c0.6-0.3,0.8-0.5,0.5-0.4c-0.4,0.1-1.9,0.4-3.4,0.7    s-3.4,0.7-4.3,1c-0.9,0.3-1.9,0.5-2.3,0.5c-1,0-2.3-1.3-2.3-2.4c0-1.2,1.7-3,3.5-3.6c0.9-0.3,1.6-0.7,1.6-0.8    c0-0.2-1.1-0.3-2.4-0.3c-2.7,0-3.3-0.3-3-2c0.1-0.8,0-1.2-0.4-1.6c-0.7-0.7-0.8-1.5-0.1-2.7c0.5-0.9,0.5-0.9-0.4-0.9    c-0.5,0-1.1-0.2-1.3-0.5c-0.6-0.7-0.9-0.3-1.9,1.9c-1,2.3-2.3,3.6-3.8,4.1c-2.6,0.7-3.3-1.5-1.6-5.2c0.5-1.1,0.9-2.1,0.8-2.2    c-0.1-0.1-0.6,0.2-1.1,0.6c-1.4,1-2.1,0.6-2.1-1.4c0-2.2-0.5-2.5-1.8-1.1c-1,1.2-1.8,1.4-2.5,0.8c-0.3-0.3-0.6-0.3-1.5,0    c-0.6,0.2-1.3,0.3-1.4,0.2c-0.6-0.4-0.3-1.7,0.8-3.2c0.6-0.9,1.1-1.8,1.1-2.2c0-0.5-0.1-0.5-0.9-0.1c-0.5,0.2-1.2,1-1.7,1.7    c-1.1,1.6-2.4,2.1-3.5,1.2c-1.9-1.4-2.1-2.4-2.1-7.4c0-5-0.1-4.7,2.8-12.3c1.2-3.2,1-6.3-0.4-6.3c-0.3,0-0.7-0.1-0.8-0.2    s-0.9-0.2-1.8-0.1c-1.2,0.1-1.9-0.1-2.7-0.6c-0.6-0.4-1.6-0.7-2.2-0.7c-1,0-1.4,0.3-2.5,1.4c-1.6,1.6-3.3,4.7-3.5,6.5    c-0.1,0.7,0,2.5,0.3,3.9c0.7,3.9,1,9.8,0.6,12.1c-0.6,3-1.6,4.8-6,10.4c-5.8,7.4-9,11.8-10,13.9c-1.3,2.6-3.5,8.5-4.6,12.2    c-0.8,2.9-0.9,3.6-0.9,8.2c0,6,0.6,9.9,1.8,13.2c1.2,3.1,2.6,5.3,6.4,9.7c5.8,6.9,8.4,12.5,9.2,20.4c0.3,2.3,0.5,5.3,0.5,6.8    c0,1.4,0.2,3.7,0.5,5c0.5,2.4,1.9,6.2,2.6,6.9c0.2,0.2,1.5,0.5,2.8,0.7C-243.7,240.9-243.5,240.8-242.9,240L-242.9,240z     M-254.3,206.4c-2.5-1.1-2.8-6.6-0.5-7.9c0.3-0.2,1.2-0.3,1.9-0.3c1,0,1.5,0.2,2.2,0.9c1.1,1.1,1.4,2.2,1.1,4.1    c-0.2,1.1-0.5,1.8-1.3,2.6C-251.9,207-252.7,207.1-254.3,206.4L-254.3,206.4z M-251.9,204.6c0.9-1,1-3.2,0.1-4.2    c-0.6-0.6-2.3-0.7-2.9-0.2c-0.2,0.2-0.4,1.1-0.4,1.9c0,1.2,0.2,1.7,0.8,2.3C-253.3,205.5-252.7,205.5-251.9,204.6L-251.9,204.6z     M-258.8,196.5c-1.3-0.6-2-2-2-3.9c0-4.1,2.2-6.3,4.8-5.1c2.1,1,2.8,3.8,1.5,6.4C-255.6,196.4-257.1,197.2-258.8,196.5    L-258.8,196.5z M-256.3,194.1c0.5-0.6,1-1.6,1.1-2.3c0.2-0.9,0.1-1.3-0.6-2c-0.5-0.6-1.1-0.9-1.5-0.8c-1.7,0.3-2.8,3.9-1.7,5.6    C-258.4,195.7-257.5,195.5-256.3,194.1L-256.3,194.1z M-235.9,195.2c-2.7-0.8-3.6-1.3-4.9-2.7c-2.9-3.1-3.7-13.4-1.5-20.9    c0.5-1.8,1.6-4.6,2.3-6c2.2-4.5,7-9,9.6-9c1.1,0,2.4,0.5,4.3,1.8c1.4,0.9,1.9,1.6,2.8,3.4c3,6.1,3.2,13.6,0.7,21.6    c-0.6,2-1.5,4.5-2,5.4c-1.1,2.2-4.6,5.9-6.2,6.6C-232.4,196.1-233,196-235.9,195.2z M-230.8,192.3c1-0.6,3.2-3.2,4-5    c1-2.1,2.6-7.3,3-10c0.5-3.6,0.2-8.8-0.8-12c-1.1-3.4-1.9-4.5-4-5.6c-1.5-0.8-1.8-0.8-3-0.5c-2.6,0.7-7,6.3-8.2,10.4    c-2,6.8-1.6,16.7,0.7,20.1c0.8,1.2,2.4,2.3,3.7,2.7C-234,192.8-231.7,192.8-230.8,192.3L-230.8,192.3z M-233.4,178.6    c-1.5-1.4,0.2-5.1,2-4.7c1.4,0.3,1.9,3.5,0.8,4.9C-231.1,179.5-232.7,179.4-233.4,178.6z M-252,188.3c-1.6-0.9-2.1-4.9-0.9-6.5    c0.6-0.7,0.9-0.8,2.3-0.9c2.2,0,3.2,0.9,3.2,3c0,1.7-0.8,3.9-1.6,4.4C-249.8,188.7-251.3,188.7-252,188.3L-252,188.3z     M-249.8,186.7c0.8-0.9,1-3.3,0.4-3.8c-0.8-0.6-2.2-0.3-2.7,0.6c-0.4,0.9-0.1,2.4,0.7,3.3C-250.7,187.5-250.5,187.5-249.8,186.7    L-249.8,186.7z M-261.7,182c-1.5-0.9-1.8-1.7-1.7-4.3c0.1-2.5,0.9-4,2.6-4.9c1.6-0.8,2.8-0.6,4.1,0.8c1.2,1.1,1.2,1.4,1.3,3    C-255.4,180.9-258.8,183.8-261.7,182L-261.7,182z M-258.3,180c0.4-0.6,0.8-1.7,0.9-2.6c0.1-1.3,0-1.7-0.6-2.4    c-0.9-1-1.8-1-3.2-0.1c-1.2,0.8-1.7,2.3-1.4,4C-262.2,181.1-259.6,181.7-258.3,180L-258.3,180z M-261.7,170.3c-1-1-1.1-1.3-1.1-3    c0-3.4,1.9-5.5,4.3-4.9c1.9,0.5,2.4,1.3,2.5,3.5c0,1.5-0.2,2.3-0.8,3.4C-258.3,171.7-260,172.1-261.7,170.3z M-258.5,168.5    c1-1.5,1-3.6,0-4.3s-1.7-0.6-2.3,0.2c-1,1.5-1,3.8,0,4.9C-260,170-259.3,169.8-258.5,168.5L-258.5,168.5z M-250.4,170.2    c-1.4-0.5-1.9-1.5-1.9-3.3c0-2.4,0.7-3.4,2.7-3.7c2.8-0.4,4.6,1.4,4.1,4C-246.1,169.6-248.2,170.9-250.4,170.2L-250.4,170.2z     M-248.1,168.1c0.4-0.4,0.6-1.1,0.6-1.6c0-0.7-0.2-1-1.1-1.4c-1.4-0.7-2-0.4-2.2,1s0,2.1,0.9,2.4    C-248.9,168.9-248.8,168.8-248.1,168.1z M-256.9,158.5c-1.6-1.9-0.8-6.1,1.5-7.8c0.9-0.7,3-0.8,4.1-0.2c0.7,0.4,1.6,1.9,1.6,2.8    c0,1.6-0.8,3.2-2.3,4.7c-1.3,1.3-1.8,1.5-2.8,1.5C-255.8,159.5-256.3,159.3-256.9,158.5L-256.9,158.5z M-253.9,157.5    c1.2-0.8,2.5-2.9,2.5-3.9c0-0.8-1.2-1.9-2.3-2.2c-0.7-0.2-1,0-1.6,0.9c-0.9,1.2-1.6,3.5-1.3,4.4c0.2,0.7,1,1.6,1.4,1.6    C-255.1,158.2-254.5,157.9-253.9,157.5L-253.9,157.5z M-244.5,158.2c-1.6-0.5-2.3-1.7-2.3-3.8c0-3.4,1.7-5.7,4.8-6.4    c1.4-0.3,1.7-0.3,2.4,0.1c1.4,0.9,1.9,2.3,1.7,4.8C-238.3,157.3-240.7,159.3-244.5,158.2z M-241.1,156c1-0.9,1-1.1,1.1-3.3    c0.1-2,0-2.4-0.5-2.9c-1.5-1.3-4.6,1.1-5,3.9c-0.3,2.1,0.5,2.8,3.1,3.2C-242.2,156.9-241.6,156.5-241.1,156L-241.1,156z     M-215.6,204.4c-0.3-0.3-0.4-0.3-0.2,0.2c0.1,0.3,0.3,0.5,0.4,0.4C-215.3,204.9-215.4,204.6-215.6,204.4z M283.2,162.7    c8.8-1.7,20.7-8.9,25.5-15.4c4.5-6,7.7-13.1,9.4-20.9c1.1-4.8,1.9-7.2,3.4-10.2c1.3-2.7,3.5-6,4.2-6.5c0.7-0.4,2.2-3.9,2.9-6.7    c1-3.9,1-13.1,0.2-16.8c-0.8-3.3-2.9-10.1-4.4-13.9c-3-7.7-3.7-11.9-3.5-20.3c0.3-8.8-0.4-12.9-3.2-19c-1.4-3.1-5.6-8.7-8.1-11    c-3.3-3-8.7-5.4-14-6.3c-2-0.4-7-0.4-7.3-0.1c-0.1,0.1,0.2,1,0.8,1.9c1.4,2.6,1.3,4.1-0.4,6.2c-1.7,2.2-1.8,2.1,5.8,4.5    c6.3,1.9,8.5,4.3,13.6,14.2c4.3,8.6,5.6,12,6.1,17c0.7,7.5-0.6,12.8-4.9,19.1c-3.8,5.6-4.6,8.1-4.6,13.2c0,5,0.9,7.6,3.7,11.7    c0.9,1.2,1.8,3.2,2.5,5.1c0.9,2.7,1,3.5,1.2,7.7c0.2,5-0.2,8.6-1.5,13.4c-0.7,2.8-4.1,10.1-5.9,12.7c-4.5,6.6-14,11.7-22,11.7    h-1.9l0.1,3c0.1,2.7,0.1,3.1-0.7,4.5C278.9,163.4,279.1,163.5,283.2,162.7z M314.7,103.6c-4-2.1-6-8.8-4.5-15.1c1.2-5.1,5-8.4,8-7    c1,0.5,2.9,2.5,3.7,4c0.8,1.6,1.6,5.3,1.6,7.8c0,6.4-2.6,10.8-6.4,10.7C316.3,104.1,315.2,103.9,314.7,103.6L314.7,103.6z     M318.8,101.6c1.6-1.4,2.4-3.3,2.7-6.4c0.3-2.3,0.2-3-0.4-5.4c-0.8-3.1-1.2-4-2.6-5.6c-1.7-2-3.7-1.4-5.7,1.6s-2.3,7.6-0.7,11.7    c1.1,2.7,1.9,3.8,3.3,4.5C317.4,102.7,317.5,102.7,318.8,101.6z M274.9,162.2c2.2-0.6,2.8-1.6,2.6-4.6c-0.2-4.1-1.6-5.2-7.4-5.6    c-4.8-0.4-7.3-1.2-11.7-3.5c-5.5-2.9-7.5-4.2-9.4-6.3c-3.5-3.8-4.9-6.5-6.8-12.9c-1.4-5.1-1.6-5.5-4.4-10.4    c-3.7-6.7-4.4-9.3-3.9-15.9c0.4-5.8,2-10.5,6.3-18.7c4.6-8.8,5.2-10.2,6.5-15.5c0.6-2.6,0.7-3.6,0.6-9.6    c-0.1-10.9,0.8-14.8,4.6-19.8c3.5-4.6,6.8-7.1,11.7-9c5.5-2.1,14.2-4.7,15.8-4.8c1.6,0,5-1.4,6.2-2.5c1.5-1.3,1.6-2.5,0.7-4.9    c-0.7-1.7-2-2.6-5.2-3.4c-3.5-0.9-7.4-0.3-14.4,2.2c-7.4,2.7-10.7,4.8-18,11.6c-4.9,4.6-9.7,8.7-12.8,11.1    c-1.4,1.1-5.6,3.2-8.8,4.6c-1.1,0.5-2.5,1.4-3.7,2.6c-1.8,1.7-2,2.1-2.9,4.9c-1.6,5.1-1.3,8.1,1.4,14.1c3.6,8,4.9,18.3,3.7,31.1    c-0.6,6.1-0.4,8.1,1.2,13.7c1.2,4.3,2.6,7.2,5.7,12c3.6,5.6,5,9.4,5,13.4c0,1.5-0.7,4-1.3,4.7c-0.2,0.3-0.2,0.7,0,1.3    c0.2,0.5,0.4,1.7,0.6,2.6c0.2,1.7,0.3,1.9,3.3,4.9c5.3,5.5,8.6,7.6,16.3,10.5c2,0.8,4.6,1.6,5.8,1.9    C264.5,162.6,272.9,162.7,274.9,162.2L274.9,162.2z M231.1,77.9c-2.6-1.2-3.9-3.7-4.2-8.4c-0.4-4.5,1.4-10.3,3.9-13.1    c1.5-1.7,2.6-2.3,4.5-2.3c2.2,0,3.3,0.8,4.6,3.4c0.9,1.9,1.1,2.6,1.2,4.9c0.2,3.8-0.4,7.8-1.3,10c-0.9,2.1-3.4,4.9-4.9,5.6    C233.5,78.7,232.6,78.6,231.1,77.9L231.1,77.9z M235.1,74.8c3.7-3.3,5-11.8,2.6-16.4c-1.7-3.3-3.9-3-6.1,0.8    c-1.7,3-2.1,4.4-2.1,9.1c0,4.7,0.1,5.3,1.5,6.6C232.3,76.3,233.4,76.3,235.1,74.8z M213.5,160c0.5-1.9,1.2-2.1,2.6-0.7    c0.7,0.6,1.7,1.2,2.3,1.3l1.1,0.2l-0.2-4.6c-0.1-2.5-0.5-6.4-0.9-8.6c-1.1-6.4-2.6-14.4-3.2-16.8c-1.1-4.7-6.8-20.5-8.9-24.6    c-1-2-4.7-7.2-8.6-12.3c-7-9-9.8-13.5-13-21c-3.3-7.6-7-13.3-13.8-21.5c-5-6-8.7-8.6-20.5-14.4c-9.2-4.6-12-6.5-17.3-11.8    c-3.7-3.7-5-5.3-7.7-9.5c-2-3.2-5.1-6.9-7.7-9.1c-6.4-5.4-12-9.5-15.6-11.4C97-7.4,89.2-9.5,83.1-10c-2.1-0.2-4.9-0.5-6.1-0.6    c-1.2-0.2-4-0.5-6.1-0.8s-4.8-0.7-5.9-1c-3.6-0.8-13.5-3.6-17-4.8c-6.6-2.2-14.1-6.2-17.6-9.4c-8.2-7.5-18.9-12.6-31-14.7    c-4.4-0.8-17.7-0.9-23.2-0.2c-3.8,0.5-12,2.4-13.4,3.1c-0.3,0.1-2.7,0.9-5.4,1.8c-5.5,1.7-16,4-29.9,6.5c-5,0.9-14.3,3.8-16.7,5.2    c-3.2,1.9-9.8,4.4-13.8,5.2c-3.1,0.7-9.4,2.8-16.1,5.6C-136.6-7-139.8-5.6-140.6-5c-0.5,0.4-3.8,2.1-7.4,3.9    c-7.2,3.6-14.3,7.7-18,10.5c-1.4,1-3.5,2.5-4.7,3.4s-3.2,2.5-4.5,3.7c-1.2,1.2-4.3,3.9-6.9,6.2c-4.3,3.7-7,6.5-10,10.2    c-2.3,2.9-7.5,10.4-10.1,14.6c-5.7,9.2-8.6,13.3-14.2,20.5c-6.7,8.5-10.1,15.4-12.5,25.7c-1.5,6.1-1.8,10.6-1.1,15.3    c0.3,2.1,0.7,7.5,0.9,12c0.5,10.7,1.2,13.6,3.5,14.5c1.3,0.5,1.8,1.4,1.5,2.5c-0.2,0.6-0.2,0.7,0.6,0.1c0.5-0.3,1.1-0.5,1.6-0.4    l0.8,0.2l-0.4-2c-0.2-1.1-0.8-3.7-1.2-5.7c-2.7-12-2.5-20.4,0.5-33.6c1.3-5.8,1.8-7.4,3.1-10.4c1.7-4.1,4.4-8.2,8.2-12.7    c2.9-3.5,7.8-10.3,10-14c2.1-3.5,8.7-12.6,11.8-16.3c0.7-0.9,2.3-2.9,3.4-4.5c1.1-1.6,3-4.1,4.3-5.5c1.2-1.4,3.1-3.7,4.2-5.1    c2.4-3.1,6.8-7.4,9.8-9.6c1.2-0.9,3.4-2.6,5-3.8c9.3-7.5,19.4-13.3,34.5-19.6c17.4-7.2,20.1-8.1,31.2-10.3    c1.9-0.4,7.7-2.3,12.5-4.1c6-2.3,9.1-3.3,15.5-5c7.1-1.9,10.5-2.7,26-6.2c18.8-4.3,20.5-4.5,32.5-4.6h9.4l4.2,1    c9.2,2.3,11.1,3.2,22.6,10.8c4.9,3.3,7.8,4.9,14.3,8c11,5.3,14.2,6.5,22.6,8.4c8.6,1.9,9.6,2.1,15,2.4c8.2,0.4,12.4,1.5,19.6,5    c4.4,2.1,12.5,7.6,15.9,10.7c1.1,1,4,4.5,6.4,7.7c10.2,13.4,12.7,15.6,25.9,23c9.2,5.1,13.7,8,17.2,11.3c3.3,3.1,5.5,5.8,8.6,11.2    c1.3,2.2,2.8,4.7,3.4,5.6c0.6,0.9,1.2,2,1.3,2.4c0.6,1.9,2.7,5.5,6.8,11.6c5.5,8.2,6.3,9.1,10.8,13.8c9.8,10.3,16.9,25.7,19,41    c0.4,3.2,0.6,18.3,0.2,20.9C212.6,161.4,213.1,161.7,213.5,160L213.5,160z M222.9,156.7c1.1-2.4,1.2-5.2,0.1-9.2    c-1-3.8-1-6.3,0-8.1c0.5-1,0.5-1.1,0-1.4c-0.6-0.3-1.9-3-2.6-5.4c-0.2-0.8-1.1-4.6-1.9-8.5c-1.7-8.1-2.1-9.3-4.6-14.4    c-3.1-6.2-9-14.5-16.6-23.1c-4.5-5.1-5.9-7.3-11.4-17.4c-0.7-1.2-1.8-3.1-2.6-4.2c-0.7-1.1-2-3-2.7-4.3c-0.8-1.3-2.1-3.5-2.9-4.9    c-1.5-2.6-4.5-6.2-7.9-9.7c-3.9-4-11.1-8.7-20.7-13.6c-2.9-1.5-6.2-3.4-7.3-4.3c-2.5-2-4.3-4.6-4.5-6.5c-0.1-1.2-0.3-1.4-0.8-1.4    c-1,0-4.5-1.5-5.3-2.3c-1.3-1.2-7.6-8.9-9.2-11.4c-1.9-2.9-6.9-8.3-9.4-10.4c-1-0.8-2.5-1.8-3.3-2.2c-1.3-0.7-6.8-2.3-12.5-3.8    c-3.6-0.9-6-3-6-5.1c0-0.7-0.3-0.6-1.9,0.5c-1.9,1.3-5.1,2.3-7.3,2.3c-2.8,0-1.9,0.2,2.5,0.6c7.4,0.7,15.8,3.4,20.4,6.6    c1.4,1,3.4,2.4,4.5,3c1.1,0.7,4,2.9,6.5,4.9c5.9,4.7,8.3,7.3,12.3,13.2c3.6,5.2,8.6,10.3,14.2,14.2c1.1,0.8,5,2.9,8.8,4.8    c10.2,5.1,15.8,9.3,22.2,16.9c6.3,7.5,9.5,12.6,14.4,23c2.9,6.1,4.6,8.7,12.3,18.5c5.7,7.3,8.4,11.5,10.4,16.2    c2,4.8,7.2,20.3,7.5,22.3c0.1,0.8,0.6,3.3,1,5.6c1.8,9.4,2.4,13.6,2.6,17.4C221.4,159.3,221.6,159.5,222.9,156.7L222.9,156.7z     M287.3,150.5c1.2-0.3,3.4-1,4.9-1.8c6.2-2.9,9.4-6.2,12.7-13c3.2-6.6,3.3-7,4.3-17c0.5-5.2-0.4-9.3-3.2-13.9    c-3-4.9-3.7-7.6-3.7-12.9c0-6.4,0.9-9.3,4.2-13.3c1.2-1.4,2.6-3.8,3.6-5.8c1.6-3.3,1.6-3.5,1.7-6.6c0.1-3.8-0.6-9.7-1.6-12.6    c-0.4-1.1-2.4-5.5-4.5-9.6c-3.5-6.9-4-7.7-5.9-9.6c-2.4-2.4-4.1-3.4-7.6-4.4c-2.9-0.9-5-1.9-6-2.9l-0.7-0.8l-1.6,0.6    c-0.9,0.3-2.7,0.8-4.1,1.1c-9.6,2-18,6.2-23.5,11.9c-2.8,2.8-4.4,5.3-5.4,8.1c-0.6,1.6-0.7,3-0.8,11.2c-0.2,9.9-0.3,10.4-2,15.3    c-1.1,3.1-3.5,8.2-5.8,12.3c-3.8,6.7-5.5,11.8-5.7,17.5c-0.1,2.4,0,4.3,0.2,5.4c0.5,2.3,2.2,5.9,4.2,8.9c2.4,3.7,3,5,3.6,8.3    c1.3,6.3,2.8,9.4,6.4,13.1c3.7,3.8,7.3,5.3,15.3,6.7c7,1.2,7.8,1.4,11.9,3.6C279.3,151.2,284.2,151.2,287.3,150.5L287.3,150.5z     M-221.3,145.1c0.7-0.7,0.9-1.1,0.9-2.3c0-1.6-0.5-3.6-0.6-2.4c0,0.4-0.5,1.6-1,2.7C-223.4,146.1-223.1,146.9-221.3,145.1z     M232.7,138.7c1.5-0.5,2.4-2.5,2.1-4.5c-0.4-3.1-1.5-5.6-4.1-9.7c-3.4-5.3-4.3-7.2-5.6-11.1c-2.3-6.9-2.4-9.2-1.5-21.4    c0.5-6.1,0.2-10.2-1.2-16.6c-1.5-7.3-3.7-11.1-9.7-17.1c-4.6-4.5-7.9-7-12.8-9.5c-2.2-1.1-3.8-1.7-14.9-6.1    c-7.1-2.8-11.5-4.9-14.6-6.9c-1.6-1.1-5.1-4.2-9.4-8.4c-3.8-3.7-7.6-7.2-8.5-7.8c-2.3-1.6-4.5-2.3-7.6-2.5l-2.8-0.2l-1.3,1.3    c-2.3,2.4-1.6,4.8,2.5,7.8c2.5,1.8,3.5,2.4,11,5.9c4.2,1.9,10.4,5.7,14.3,8.5c4.4,3.3,7.5,6.8,12,14c0.9,1.4,2.7,4.4,4.1,6.5    c1.4,2.2,3.9,6.5,5.5,9.6c4,7.7,5.8,10,12.2,16.4c6.9,6.9,10.1,11.1,13.7,18.2c2.6,5.1,3.6,8.4,4.9,15.8c1.4,7.7,2,9.8,3.8,13.3    C227,138.4,229.6,139.8,232.7,138.7L232.7,138.7z M205.6,79.9c-1.3-0.7-2-1.5-4.9-5.7c-1-1.5-2.5-3.4-3.3-4.3    c-2.7-3.2-3.8-7.1-2.6-9.3c0.5-1,1.9-2.4,3-2.9c1-0.5,4-0.5,5.4,0.1c2.1,0.9,7.4,4.6,8.6,6c2.3,2.8,2.6,3.8,2.6,8.2    c0,3.9,0,4.1-0.9,5.6c-1.4,2.2-2.7,3-4.9,3C207.4,80.5,206.4,80.3,205.6,79.9L205.6,79.9z M210.4,77.8c0.5-0.3,1.2-1,1.7-1.7    c0.7-1.1,0.7-1.6,0.7-4.6c0-3.6-0.2-4.4-2.2-6.8c-0.8-1.1-5-4.1-7.5-5.4c-3.4-1.8-6.4-0.6-7.1,3c-0.3,1.6,0.4,3,2.9,5.9    c1.2,1.4,3.2,3.9,4.5,5.7C206.5,78.1,208.1,79,210.4,77.8L210.4,77.8z M-228.7,135.4c-0.2-0.5-0.5-0.9-0.6-0.9s-0.4,0.6-0.7,1.3    c-0.5,1.2-0.5,1.3,0.2,1.5C-228.8,137.7-228.2,136.7-228.7,135.4L-228.7,135.4z M-234.6,133.8c1.2-1.2,2.6-2,3.7-2h0.8l-0.4-2    c-0.2-1.1-0.5-5.2-0.6-9.1s-0.4-8.8-0.7-10.8c-0.8-6.3,0-13.1,2.7-22.2c1.9-6.5,6.1-14.1,11.8-21.2c2.8-3.6,7.5-10,9-12.5    c2.5-4.1,9.1-13.9,11.1-16.6c1.3-1.7,3.1-4.2,4.2-5.6s2.5-3.2,3.2-4.1s1.4-1.6,1.4-1.8c0-0.2,1.5-1.5,3.3-3    c7.9-6.7,10.5-8.9,12.4-10.7c2-1.9,3-2.6,9.8-7.1c3.3-2.2,14.9-8.5,20.7-11.3c2.9-1.4,4.1-1.9,12.7-5.4c2.3-0.9,6.7-2.7,9.7-4    c6.5-2.7,13.1-4.9,16.9-5.8c1.5-0.3,4.2-1.2,5.9-1.9c10.2-4.3,17.8-6.8,23-7.8c17.7-3.3,29.2-6.1,36.4-8.8    c3.2-1.2,9.4-2.6,13.9-3.1c6.3-0.7,18.4-0.5,23.5,0.4c7.8,1.4,14,3.5,20.4,7.1c4.2,2.3,5.8,3.4,9.5,6.5c3.9,3.2,6.2,4.8,9.8,6.7    c4.4,2.3,13.5,5.6,14,5.1c0.1-0.1,0-0.2-0.3-0.2c-1.2,0-8.9-4.4-16.3-9.4c-15.4-10.5-21-13.8-28-16.4c-4.7-1.9-8.6-3-12.2-3.6    c-2.5-0.4-19.9-0.3-23.6,0.1c-5.1,0.6-12.7,2-17.1,3.1c-2.3,0.6-7.6,1.8-11.8,2.6s-9,1.8-10.6,2.1c-6.2,1.2-10.7,1.1-13.6-0.2    c-1.3-0.6-1.8-0.5-1.8,0.5c0,0.8-2,3.1-3.9,4.5c-3.1,2.3-6.4,3.8-10.5,4.8c-8.8,2.1-15,4.3-26.9,9.3c-9.8,4.2-25.7,12.9-37.8,20.8    c-1.2,0.8-4.1,2.6-6.4,4c-5.3,3.2-6.3,4.1-12.1,9.9c-5.6,5.5-11.7,12.5-17.7,20.1c-1.4,1.8-3.7,4.5-5.2,6c-2.2,2.3-2.9,2.8-3.9,3    l-1.3,0.2v2.1c0,1.9-0.1,2.4-1.4,4.9c-1.8,3.5-3.1,5.2-7.3,9.9c-13,14.3-17.5,24.2-18.5,40.8c-0.2,3-0.4,5.7-0.6,6.1    c-0.2,0.5,0,1,0.7,2.1c0.9,1.3,1,1.6,1,3.9c0,2.1-0.2,3-1.5,6.4c-2.1,5.4-2.6,8.3-2.2,11.4c0.3,2.2,0.8,3.3,1.3,3.3    C-235.7,134.8-235.1,134.4-234.6,133.8L-234.6,133.8z M-237.9,107.8c0.3-0.3,0.5-0.5,0.5-0.6c0,0,0.1-3.4,0.3-7.6    c0.3-8.5,0.6-10.4,3.4-17.3c3.4-8.5,5-11,12.8-20.3c8.7-10.3,10.6-12.8,11.3-15.4c0.6-2.2,0.4-3.2-1.2-4.2l-1.2-0.8l-1.5,0.6    c-0.8,0.3-2,1-2.6,1.6c-2,1.8-6.4,6.9-9.7,11.4c-1.8,2.4-4.3,5.6-5.5,7.1c-6.3,7.6-9.9,14-12.8,23.2c-1.8,5.5-2.5,9.2-2.7,13.6    c-0.1,3.3-0.1,3.9,0.6,5.8l0.7,2.1l1.9,0.4c1,0.2,2,0.5,2.2,0.7C-241,108.5-238.5,108.3-237.9,107.8L-237.9,107.8z M-270.5,101.6    c2.5-0.4,3.3-1,4.4-3.1c0.7-1.4,0.8-2,0.7-3.5c-0.1-1-0.5-2.3-0.8-2.9c-0.9-1.9-2.1-2.3-6.6-2.6c-3.5-0.2-4.1-0.3-5.6-1.1    c-3.9-2.1-6.7-5.8-8.7-11.4c-2.1-6-2.4-10.9-1.2-19.1c0.6-4.1,1.5-6.7,5.7-17.5c5.4-13.8,5.8-15.4,5.3-22.1    c-0.2-2.3-0.7-5.4-1.1-7c-0.6-2.4-0.7-3.5-0.6-6.9c0.2-5.4,2-12.8,4-16.5c2.7-4.9,6.7-9.6,11-12.9c2.9-2.2,4.8-3,8.3-3.6    c1.7-0.3,3.4-0.7,3.7-0.8c0.3-0.2,1-1,1.4-1.8c0.8-1.4,0.8-1.5,0.4-2.9c-1.3-4.4-3.5-4.4-11.6,0.3c-3.3,1.9-9,6.6-13.6,11.2    c-7.3,7.2-11.6,15.7-12.7,25.1c-0.2,1.5-0.4,7.3-0.4,13.1c-0.1,9.4-0.1,10.7-0.8,13c-0.6,2.5-2.7,6.8-8.2,17.5    c-3.8,7.4-5.1,12.8-4.8,19.5c0.2,4.4,1.8,11.2,3.4,14.4c1.9,3.9,6.4,11,7.9,12.8c2.1,2.3,7.6,6.6,9.9,7.8    C-278,101.9-274.5,102.3-270.5,101.6L-270.5,101.6z M-262.4,101.2c3.7-1.2,9.2-3.7,11.7-5.4l2.3-1.5l0.4-2.2    c0.5-2.6,3-10.5,4.5-14.1c2-4.8,6.6-11.9,11.3-17.4c1-1.1,3.2-4,5-6.4c3.7-5,8.9-10.8,10.6-12c1-0.7,1.3-1.1,1.7-2.7    c1.2-4.3,1.5-8.3,1.3-15.3c-0.2-6-0.3-7.2-1.2-11c-2.8-12.2-7.8-25.8-11.4-31.2c-2.1-3.1-11.7-12.5-15.8-15.4    c-2-1.4-3.9-2.5-4.9-2.8l-1.7-0.5l0.2,0.7c0.1,0.4,0.3,1.8,0.4,3.1c0.2,2.2,0.1,2.5-0.7,3.4c-0.5,0.5-0.8,1.2-0.8,1.5    s1.4,1.2,3.9,2.5c4.6,2.3,5.9,3.5,7.5,6.8c1.2,2.4,1.2,2.6,1.3,6.2c0.1,3.5,0,3.9-1.3,9.1c-1.9,7-2.2,10.4-1.5,15.4    c0.9,7.2,2,10.1,5.3,15.2c2.3,3.6,3.3,5.6,4.4,9.3c1.7,5.9,1.5,10.2-0.9,14.9c-2,3.9-5.8,8.4-9.1,10.8c-3.3,2.3-7.3,5.5-9.3,7.5    c-2.2,2.2-3.6,4.3-4.7,7.5c-1.9,5.5-4.8,9.3-8.2,10.8c-1.1,0.5-2.3,1-2.6,1c-0.5,0-0.5,0.1,0.2,1.4c1.7,3.1,1.7,7.3,0,9.9    C-265.7,102.3-265.8,102.2-262.4,101.2L-262.4,101.2z M-226.1,26.9c-3.4-1.6-6-7.1-6.4-13.6c-0.1-2.1-0.1-3.8,0.2-5    c1.3-5.4,4.7-7.7,8.1-5.4c1.6,1.2,3.7,6.1,4.9,11.6c1,4.5,0.2,9.6-1.9,11.8c-0.9,1-1.3,1.2-2.3,1.2    C-224.2,27.6-225.4,27.3-226.1,26.9z M-222.4,24.6c2.3-3.8,1.6-11.2-1.8-17.8c-1.2-2.4-1.7-2.9-2.9-2.9c-3.6,0-5.2,7.1-3.1,13.7    c0.9,2.8,1.1,3.3,2.6,5.6c0.8,1.1,2.9,2.5,4,2.5C-223.3,25.7-222.8,25.2-222.4,24.6z M-265.2,87.1c4.1-0.8,7.3-4.3,9.4-10.3    c0.5-1.4,1.3-3.3,1.8-4.1c1.6-2.7,7.4-8.1,12.5-11.6c5-3.4,9.8-10.4,10.6-15.4c0.4-2.3,0-5.5-1-8.9c-0.8-2.6-1.9-4.9-4-8.1    c-3.4-5.2-4.5-8.5-5.5-15.6c-0.8-5.7-0.5-9.2,1.3-16c1.3-4.9,1.5-5.8,1.5-9c0-3.5,0-3.6-1.3-6c-1.5-3-2.8-4.1-7.2-6.4    c-1.9-1-3.1-1.8-3.5-2.4c-0.4-0.7-0.7-0.8-1.1-0.6c-0.3,0.2-1.7,0.5-3.1,0.8c-3,0.5-4.9,1.3-7.2,3c-4.6,3.3-8.3,7.6-10.9,12.5    c-1.7,3.2-3.5,9.8-3.9,14.7c-0.3,3-0.2,3.5,0.7,8c0.9,4.5,1,5.1,0.9,10.1c-0.1,5.1-0.2,5.5-1.3,8.8c-0.6,1.9-2,5.7-3.1,8.3    c-3.3,8.1-5.8,14.9-6.4,17.5c-0.9,3.9-1.4,10.4-1,13.7c0.7,5.7,4,12.4,7.4,15c2.6,2.1,3.4,2.3,7.3,2.5c2,0.1,3.9,0.3,4.2,0.4    c0.4,0.1,0.8,0.1,1.1-0.2C-266.7,87.5-265.9,87.2-265.2,87.1L-265.2,87.1z M-205.4,40.1c1-0.8,7.7-8.9,10.3-12.5    c0.8-1.1,2.6-3.2,4.1-4.8c1.5-1.6,3.4-3.8,4.2-4.8c3.3-4.2,12.5-12.3,17.3-15.2c1.9-1.1,4.9-3,6.7-4.2s4.2-2.7,5.4-3.4    s3.5-2,5.1-3c11-6.7,21.2-12.2,27.2-14.7c1.4-0.6,3.7-1.6,5.1-2.2c4.5-2,10.1-4.1,13.3-4.9c5.2-1.4,16.1-5.1,18-6    c1-0.5,2.3-1.3,2.9-1.9c1.5-1.3,2.6-3.9,2.3-5.7c-0.3-2.7-1.9-3.5-6.5-3.2c-3.3,0.2-5.1,0.8-10.6,3.5c-7.5,3.6-15.5,6.2-22.2,7.2    c-1.7,0.2-5.1,0.4-7.7,0.4c-4.2,0-5-0.1-8.3-1c-4.5-1.2-8.1-1.7-14.3-1.7c-3.7,0-5.2,0.1-6.8,0.5c-4.4,1.2-7.9,3.6-13.1,8.7    c-3.7,3.7-4,4.2-11.7,18.8c-5.7,10.8-7,12.9-12.7,20.7c-3.2,4.2-6.3,8.5-6.9,9.5c-0.7,1-2,2.9-3,4.3c-2.4,3.4-3.9,6.6-4.1,8.7    c-0.3,2.3,0.9,6.4,2.2,7.6C-208,41.7-207.3,41.6-205.4,40.1L-205.4,40.1z M-167.9-14.5c-1.6-0.3-3.5-1.4-4.1-2.6    c-0.5-1-0.2-3.7,0.6-5.5c1.6-3.4,6-7,9.7-8.1c3.9-1.1,9.5-0.2,11.5,2c1.2,1.3,1,4.7-0.5,6.9c-1.2,1.9-7.5,5.8-11,6.9    C-163.8-14.2-165.3-14.1-167.9-14.5z M-163-17c2.9-0.8,8.8-4.4,10.3-6.2c0.8-1,1.3-2.6,1.1-3.7c-0.1-0.3-0.8-1-1.6-1.5    c-1.4-0.9-1.5-1-5.3-0.9c-3.7,0-4,0.1-5.4,1c-1.9,1.1-4.7,3.7-5.6,5.2c-0.9,1.5-1.6,4.2-1.2,4.9c0.5,0.9,1.3,1.4,2.8,1.6    C-165.4-16.4-164.8-16.4-163-17z M138.8,16.6c1.3-1.1,2.1-3.3,1.8-4.8c-0.3-1.7-2.5-5.8-4.3-8.2c-0.9-1.1-2.1-2.8-2.7-3.6    c-2.1-3-5.8-7.1-7.7-8.4c-2-1.4-7-3.8-9.9-4.8c-1.9-0.7-6.2-3-10.3-5.6c-4.7-3-7.5-3.8-10-2.8c-2,0.8-2.8,1.7-3.2,3.5    c-0.4,1.6-0.3,1.8,0.4,3.1c1.3,2.4,3.8,3.3,11.3,4.1c1.7,0.2,3.9,0.6,4.9,1c7.5,2.5,9.8,4.9,18.2,17.8    C133,16.3,136.2,18.8,138.8,16.6L138.8,16.6z M84.9-16.4c2.4-0.6,5.6-4,5.6-6c0-0.4-0.4-1.1-0.9-1.6c-1.2-1.3-2.5-1.5-8.4-1.5    c-10,0-16.2-1.6-22.8-5.9c-4.4-2.9-7.2-5.7-14.1-14.4c-11-13.9-13-16-17.9-19.5C22.6-68,18.7-70,15.2-71c-2.4-0.7-3.4-0.9-6.4-0.8    C4-71.8,1.3-71-4.4-68.1c-6.5,3.4-10.1,4.8-16.6,6.7c-8.9,2.5-13.1,3.2-23,3.9c-2.5,0.2-5.8,0.5-7.4,0.8c-1.5,0.3-5.3,0.6-8.4,0.8    c-6.5,0.4-10.5,1.2-15.3,2.8c-5.2,1.8-6.5,3.6-5.9,8c0.2,1.9,1,3.1,2.5,3.9c0.8,0.4,1.8,0.5,4.5,0.5c3.5,0,10.2-1.2,20.3-3.6    c12.2-2.8,18.7-4.1,28.1-5.5c5.8-0.9,11.7-0.8,21,0.1C3.8-48.8,14-45,23.8-38.9c2,1.2,7.4,4.7,12,7.8c7.4,4.9,9,5.8,13.5,7.7    c2.8,1.2,7,2.8,9.3,3.5C67.8-17,80.6-15.3,84.9-16.4L84.9-16.4z M7.8-54.3c-6.1-1.4-9.7-3.9-9.7-6.6c0-1.5,0.8-3.1,2-3.9    c1-0.6,5.1-1.7,7.4-2c3.7-0.4,9.7,1.5,11.5,3.7c0.7,0.8,0.8,1.3,0.8,3.1c0,2.7-0.8,4.1-3.3,5.3C14.2-53.5,11.8-53.4,7.8-54.3    L7.8-54.3z M13.9-56.1c3.2-0.7,5.4-3.8,4.3-6c-0.9-1.7-6.4-3.4-10.1-3.1c-2.7,0.2-6.5,1.4-7.4,2.3c-0.9,0.9-0.8,2.5,0.1,3.4    C2.4-58,6.1-56.7,11-55.8c0.4,0.1,0.9,0.2,1,0.2C12.1-55.8,13-55.9,13.9-56.1L13.9-56.1z M-107.4-54.4c-8.3-0.8-13.7-4.2-17-10.8    c-1.3-2.7-2-7.3-1.3-10.1c1.2-5.2,5.6-11,11.7-15.1c4.2-2.9,18.3-9.6,23.4-11.3c6.5-2.1,13.2-3.7,16-3.8c1.2-0.1,4.5-0.3,7.4-0.5    c5.9-0.4,15.4-0.1,20.5,0.8c4,0.7,11.4,2.4,14.3,3.4c2.6,0.9,6.9,3.1,9.7,5c3.3,2.2,5.1,5.2,5.4,8.8c0.1,2,0.1,2.5-0.7,4    c-1.8,3.7-6.6,8.2-11.1,10.5c-3.5,1.7-10.9,4.4-16.9,6.1c-4.2,1.2-13,2.4-15.6,2.2c-2.1-0.2-2.6-0.1-4,0.6    c-0.9,0.4-3.4,1.1-5.5,1.5c-5.3,1-8.4,2-13.1,4.2C-92.5-55.2-100-53.7-107.4-54.4z M-97.5-57.9c4.3-0.8,8.5-0.7,15-3.9    c7-2,6-2,12-4c2.7-0.4,4.5-1.9,4.6-2c0.2-0.1-0.1-0.6-0.5-1.2c-0.5-0.6-0.8-1.3-0.7-1.8c0.1-0.8,0.1-0.8-2-0.7    c-2.2,0.1-4.5,0.8-11,3.1c-3.8,1.3-7,2.1-14.5,3.6c-3.8,0.7-7.8,0.7-10.2-0.1c-5.4-1.8-7.8-4.8-8.1-10.2    c0.5-7.3,3.8-11.2,12.4-16.7c3.5-1.7,7-3.6,14-5c8-1.6,9.3-2.2,10.8-3c1-0.5,1.4-1.1,0.7-1.1c-0.7,0-1.5-1-1.6-1.8    c0-0.6-0.1-0.7-0.7-0.6c-9.3,2.2-12.8,2.6-19.2,5.5c-15.8,7-22.4,11.2-26,19c-1.2,2.5-2.1,3.8-2,7c0,2.8,1.3,5.4,2,7    c1.2,2.5,3.3,3.9,5,5c1.5,1,4.6,1.5,6.9,2.1C-108.4-57.1-101.7-57.2-97.5-57.9z M-117.7-63.7c-0.4-0.2-1.3-1.1-1.8-1.9    c-2.3-3.4-1.6-8.9,1.2-8.9c2.3,0,4.4,2.9,4.7,6.4C-113.3-64.4-115.1-62.5-117.7-63.7z M-115.6-65.7c0.7-1,0.6-2.1-0.2-4.2    c-0.7-1.9-1.8-2.9-2.8-2.6c-0.6,0.2-0.7,0.5-0.6,1.9c0,2.1,0.4,3.2,1.7,4.6C-116.4-64.7-116.3-64.7-115.6-65.7z M-93-67.4    c6.5-1.3,9.3-2,13.9-3.7c6.5-2.4,7.3-2.6,15-2.6c20-0.1,30.7-2.8,35.7-9.2c1-1.3,1.2-1.8,1.2-3.1c0-3.3-0.8-4.5-4.3-6.6    c-3.9-2.3-8.4-3.9-14.5-5.1l-5.8-1.2l-10.7-0.2c-10.6-0.1-10.7-0.1-12.2,0.6c-1.9,0.9-5.2,1.7-12.8,3.2c-3.4,0.7-6.9,2.2-8,2.5    c-4.7,1.6-9,5-12,8c-1.9,2.7-3.5,3.9-3.6,7.5c-0.2,3.8,0.5,6.1,2.3,7.7c1.2,1.1,3.7,2.5,5.6,2.9C-101.4-66.2-97.7-66.5-93-67.4z     M-54.4-67.8c4.5,0,20.7-4.7,24-7c2-1,4.5-1.9,8-5c3-3,3.6-4.5,4-7c0.3-3.2-2.4-6.7-6-9.1c-4.8-3.2-8.1-4.6-15.3-6.4    c-6-1.5-9.9-2.1-17.1-2.5c-7-0.4-15.8,0.1-17.2,1.1c-1.1,0.8-1.1,1-0.1,1.5c0.4,0.2,1,0.7,1.1,1.1l0.3,0.7h10.3h10.3l5.4,1    c6.6,1.3,9.2,2.1,13.8,4.3c6,2.9,7.5,4.9,7.6,9.4c0,1.6-0.1,2-1.3,3.6c-4.6,6.5-14.1,9.5-31.9,10.2c-5.1,0.2-5.9,0.3-6,0.8    c-0.1,0.3,0.3,0.9,0.7,1.3s0.8,1,0.8,1.1C-63-68.1-58.6-67.1-54.4-67.8z" /></g></g></svg>
