<?xml version="1.0" encoding="UTF-8" standalone="no"?>
<svg
   xmlns:dc="http://purl.org/dc/elements/1.1/"
   xmlns:cc="http://creativecommons.org/ns#"
   xmlns:rdf="http://www.w3.org/1999/02/22-rdf-syntax-ns#"
   xmlns:svg="http://www.w3.org/2000/svg"
   xmlns="http://www.w3.org/2000/svg"
   xmlns:xlink="http://www.w3.org/1999/xlink"
   xmlns:sodipodi="http://sodipodi.sourceforge.net/DTD/sodipodi-0.dtd"
   xmlns:inkscape="http://www.inkscape.org/namespaces/inkscape"
   inkscape:version="0.92.2 5c3e80d, 2017-08-06"
   sodipodi:docname="pancreas.pancreas.svg"
   version="1.1"
   x="0px"
   y="0px"
   width="577.5"
   height="442.1"
   viewBox="0 0 577.5 442.1"
   style="enable-background:new 0 0 577.5 442.1;"
   xml:space="preserve"
   id="svg45"><sodipodi:namedview
     inkscape:document-rotation="0"
     inkscape:current-layer="OUTLINE"
     inkscape:window-maximized="0"
     inkscape:window-y="26"
     inkscape:window-x="57"
     inkscape:cy="157.30298"
     inkscape:cx="250.01188"
     inkscape:zoom="0.98994949"
     showgrid="false"
     id="namedview32"
     inkscape:window-height="755"
     inkscape:window-width="1280"
     inkscape:pageshadow="2"
     inkscape:pageopacity="0"
     guidetolerance="10"
     gridtolerance="10"
     objecttolerance="10"
     borderopacity="1"
     bordercolor="#666666"
     pagecolor="#ffffff" /><metadata
     id="metadata51"><rdf:RDF><cc:Work
         rdf:about=""><dc:format>image/svg+xml</dc:format><dc:type
           rdf:resource="http://purl.org/dc/dcmitype/StillImage" /><dc:title /></cc:Work></rdf:RDF></metadata><defs
     id="defs49" /><style
     type="text/css"
     id="style2">
	.st0{fill:#C9C9C9;}
	.st1{fill:#3D3D3D;}
	.st2{fill:#888888;}
	.st3{fill:#8B8B8B;}
	.st4{fill:#5C5C5C;}
	.st5{fill:#363636;}
	.st6{fill:#2B2B2B;}
	.st7{fill:none;stroke:#0052DB;stroke-width:4.9882;stroke-miterlimit:10;}
</style><g
     id="LAYER_EFO"><g
       inkscape:label="UBERON_0001150"
       id="UBERON_0001150"
       style="fill:none"><desc
         id="desc869">Body of pancreas</desc><title
         id="title867">Body of pancreas</title><path
         inkscape:connector-curvature="0"
         class=""
         d="m 102.1,199.4 c 36,38.9 60.8,85 78,137.2 -0.2,-1.8 2.4,-2.2 4.2,-1.9 21.2,4.5 42,15.3 63.3,11.5 11.5,-2 22,-8.3 33.5,-10.7 14.4,-3 30.1,-0.1 43.3,-6.5 11.8,-5.7 19.4,-18 31,-24 5.6,-2.9 12,-4.2 17.6,-7.3 9.8,-5.3 16.3,-15.3 25.3,-21.9 14.6,-10.9 34.9,-12.4 48.5,-24.7 13.9,-12.6 4.9,-9 18.5,-21.9 -24.9,-34 -58.1,-79.1 -75,-117.8 -12.9,2.7 -1.5,2.8 -12.3,10.5 -15.8,11.3 -29.9,13.6 -46.9,22.9 -4.2,2.3 -8.4,4.5 -12.9,5.9 -9.1,2.9 -19.1,2.2 -28.2,5 -11.6,3.5 -21.2,12.2 -32.9,15.6 -16.4,4.7 -34.5,-1.6 -50.7,3.6 -10.7,3.4 -19.4,11.5 -30.1,14.9 -12,3.8 -24.5,3.7 -37,2.2 -14.1,2.9 -24.3,-2 -36.6,3.9"
         id="path4" /></g><g
       inkscape:label="UBERON_0001263"
       id="UBERON_0001263"
       style="fill:none"><desc
         id="desc865">Pancreatic Acinus</desc><title
         id="title863">Pancreatic Acinus</title><g
         id="g9"><path
           inkscape:connector-curvature="0"
           class=""
           d="m 234.2,289.1 c -1,-0.6 -0.7,-2.2 0.2,-3 0.4,-0.3 0.9,-0.5 1.3,-0.5 0.5,0 1,0.4 1,0.9 -0.3,-0.5 0,-1.2 0.4,-1.6 0.4,-0.4 -0.6,0.1 0,0 0.6,0 3.24673,0.28015 3.64673,0.68015 0.4,0.4 0.25327,0.41985 -0.14673,0.91985 0.8,-1 1.16778,-0.42839 2.4598,-0.25327 1.96683,0.26659 2.2402,2.25327 1.1402,2.95327 1.5,0 0.97965,0.8799 2.2799,2.46658 0.95076,1.1602 -0.8799,3.23342 -2.3799,3.23342 0.8,0.9 0.8,2.5 -0.1,3.3 -0.9,0.8 -2.5,0.8 -3.3,-0.1 -0.2,1.5 -2,2.2 -3.4,2 -0.7,-0.1 -1.5,-0.3 -2,-0.8 -0.5,-0.5 -0.8,-1.3 -0.6,-2 -1.8,0.4 -3.5,-1.7 -2.5,-3.4 0.2,-0.3 -0.1,0.4 0,0 0.1,-0.7 0.7,-1.8 0.5,-2.5 -0.5,-1.5 0.6,-1.8 1.5,-2.1"
           id="path7" /></g><g
         id="g13"><path
           inkscape:connector-curvature="0"
           class=""
           d="m 245,312.6 c -0.8,-0.8 -1.81356,-2.9201 -0.81356,-3.5201 1,-0.6 5.34722,-2.02034 4.89371,1.07337 0.3,-1.3 1.89813,-2.62609 3.02663,-1.86683 C 253.55351,309.25981 253.7,312 253.1,312.5 c 1,-0.8 3.57361,-0.86683 3.56683,0.92663 -0.005,1.25299 -0.27336,1.48644 -1.99346,2.66659 2.38014,0.7 1.72663,3.80678 0.32663,4.90678 -0.6,0.5 -1.6,0.6 -2,-0.1 0.5,2 -1,4 -2,4.1 -1.4,0.2 -3,0 -3,-2.8 -0.5,1.1 -1.9,1.7 -2.9,1.2 -1.1,-0.5 -1.6,-1.9 -1.2,-3 -1.2,0.8 -3,-0.3 -2.9,-1.7 0.1,-1.4 -0.047,-3.80025 1.25302,-3.40025 -0.9,-1.4 1.9804,-0.63945 3.04698,-2.69975"
           id="path11" /></g><g
         id="g17"><path
           inkscape:connector-curvature="0"
           class=""
           d="m 220.9,313.7 c 0.39347,-1.76683 -1.86005,-0.97337 -2.76005,-0.57337 -0.8,0.5 -0.73995,2.07337 0.16005,2.57337 -1.3,-0.3 -2.7,0.8 -2.7,2.1 0,0.8 0.8,1.7 1.5,1.4 -1.1,0.7 -1.4,2.3 -0.6,3.3 0.8,1 2.5,1.1 3.4,0.3 -0.7,0.9 -0.3,2.3 0.7,2.8 1,0.5 2.3,-0.1 2.6,-1.2 0,1.1 1.2,2.1 2.3,1.8 1.1,-0.3 2.65351,-1.35327 2.05351,-2.35327 C 228.05351,324.64673 230,324 230,323 c 0,-3.2 0.56683,-2.00678 -0.13317,-2.60678 0.9,-0.4 0.79802,-1.78899 0.91332,-2.82664 0.2,-1.8 -1.72663,-1.83341 -2.72663,-1.73341 0.7,-0.3 0.20653,-1.38668 -0.19347,-2.08668 -0.4,-0.7 -1.28668,-0.55327 -2.08668,-0.45327 -0.8,0.1 -0.35981,0.16658 -0.85981,0.66658 0.1,-0.8 -1.71356,-0.5598 -2.41356,-0.6598 -0.8,-0.1 -1.4,-0.4 -1.6,0.4"
           id="path15" /></g></g><g
       inkscape:label="UBERON_0000006"
       id="UBERON_0000006"
       style="fill:none"><desc
         id="desc861">Islet of Langerhans</desc><title
         id="title859">Islet of Langerhans</title><path
         inkscape:connector-curvature="0"
         class=""
         d="m 264.6,285.9 c -0.1,-0.3 -0.6,-0.2 -0.9,0 -1.6,1 -3.3,2.1 -4.5,3.6 -1.4,1.8 -2,4.1 -1.6,6.3 0.2,1.5 0.9,2.9 1.6,4.2 0.6,1.1 1.2,2.1 2.1,2.9 1.2,1.1 2.7,1.6 4.3,1.8 0.4,0 0.8,0 1.2,0 0.5,0 1,-0.1 1.6,-0.2 0.9,-0.2 1.9,-0.4 2.8,-0.7 1,-0.3 2,-0.8 2.8,-1.5 0.4,-0.4 0.7,-0.8 1,-1.3 2.4,-4.1 1.9,-9.7 -1.2,-13.3 -0.1,-0.1 -0.2,-0.2 -0.3,-0.2 -0.2,-0.1 -0.4,0 -0.6,0 -0.3,0 -0.6,-0.2 -0.9,-0.3 -2.1,-1.1 -4.5,-1.6 -6.9,-1.4"
         id="path20" /></g><g
       inkscape:label="UBERON_0001151"
       id="UBERON_0001151"
       style="fill:none"><desc
         id="desc857">Tail of pancreas</desc><title
         id="title855">Tail of pancreas</title><path
         inkscape:connector-curvature="0"
         class=""
         d="m 380.5,119 c 14.9,39 54,86.2 79.3,119.3 8.1,-13.2 34.7,-58 45.6,-69 11.6,-11.7 25.3,-21.2 37.6,-32.1 12.3,-10.9 23.7,-23.8 28.8,-39.5 4.7,-14.6 3.5,-30.6 -0.2,-45.5 -4.1,-16.7 -12.2,-33.6 -27,-42.3 -19.5,-11.5 -47.9,-3.5 -58.5,16.6 -3.5,6.6 -5.4,14.4 -10.8,19.5 -2.9,2.7 -6.5,4.4 -9.8,6.6 -6.1,4 -11.1,9.5 -16,15 -10.1,11.3 -58.7,40 -69,51.4"
         id="path23" /></g><g
       inkscape:label="UBERON_0001069"
       id="UBERON_0001069"
       style="fill:none"><desc
         id="desc853">Head of pancreas</desc><title
         id="title851">Head of pancreas</title><path
         inkscape:connector-curvature="0"
         class=""
         d="m 104.9,201 c 37.1,32 63.1,82.1 76,133.9 -3.3,2.9 -3.8,8.1 -2.6,12.3 1.2,4.3 3.8,8 5.9,11.9 12.1,23.1 3.2,54.5 -18.2,69.4 -21.4,14.9 -52.5,13 -73.2,-2.8 -6.2,-4.7 -11.5,-10.5 -17.8,-15 -3.9,-2.8 -8.2,-5 -12,-7.8 -10.5,-7.6 -12.4,-14.9 -16.9,-28.3 -3.6,-5.8 -11,-13.4 -12.5,-20.1 -1.5,-6.4 -4.6,-13.4 -6.1,-19.8 -2,-8.8 -7.6,-16.9 -7,-25.9 0.4,-7.6 5.1,-14.2 7.4,-21.4 2.5,-8.1 1.9,-16.9 4.5,-25 3.2,-9.6 10.7,-17.1 18,-24.2 16.4,-15.9 34,-32.2 56.2,-37.5"
         id="path26" /></g><path
       inkscape:label="UBERON_0001174"
       inkscape:connector-curvature="0"
       id="UBERON_0001174"
       class="st4"
       d="m 51.7,130.3 c -0.1,5.8 -0.2,11.6 -0.7,17.4 -1.4,16.3 -5.8,32.3 -7,48.7 -1.1,14.8 0.5,29.7 4.6,43.9 5.9,20.3 17,39.6 16.9,60.8 5.1,-2.7 10.9,-3.8 16.6,-3.1 C 81,292.2 79.9,286.5 78.7,280.7 77.5,274.4 76.2,268 74.2,261.9 72.1,255.6 69.3,249.5 66.8,243.3 52.5,206.4 55.6,163.8 72.3,128 c 1.8,-3.9 3.7,-8.6 1.4,-12.2 -2,-3.1 -6.1,-3.7 -9.8,-4.1 -3.9,-0.4 -10,-1.1 -12.1,3 -1.5,3.6 -0.1,11.5 -0.1,15.6 z"
       style="fill:none"><desc
         id="desc849">Common bile duct</desc><title
         id="title847">Common bile duct</title></path><g
       inkscape:label="UBERON_0007329"
       id="UBERON_0007329"
       style="fill:none"><desc
         id="desc845">Pancreatic duct</desc><title
         id="title843">Pancreatic duct</title><path
         inkscape:connector-curvature="0"
         class=""
         d="m 91.9,309.5 c 5.5,2.5 10.2,6.7 9.2,11.7 18.6,-16.9 24.7,-34.2 45.2,-41.1 8.9,-2.9 16,-7.5 24.4,-11.2 15.7,-6.8 31,-11.4 47.4,-17 15,-4 34.5,-7.1 49,-12 81.4,-18.2 166.3,-71.5 198,-104 8,-8.1 16.7,-14.2 25,-23 6.9,-7.4 12.2,-16.1 17.3,-25.2 0.7,-1.8 -3.9,-3.1 -7.3,-2.8 -11,22.1 -28.1,37.2 -50,54 -41.1,33.8 -88.4,62.6 -139,79 -34.6,13.4 -71,17.9 -104.8,29.2 -34.4,11.5 -73.1,26.4 -93,47.3 -9.3,9.9 -14.216239,10.17412 -22.216239,13.97412"
         id="path30" /></g><g
       inkscape:label="UBERON_0004913"
       id="UBERON_0004913"
       style="fill:none"><desc
         id="desc841">Hepatopancreatic ampulla</desc><title
         id="title839">Hepatopancreatic ampulla</title><path
         inkscape:connector-curvature="0"
         class=""
         d="m 82,298.1 c -6,-5.2 -20.371062,0.46117 -21.6,14.5 -1.4,6.1 -2.1,12.9 1.7,18 1.5,2 3.4,3.5 5.4,5 3.2,2.1 6.9,3.6 10.7,3.9 3.9,0.3 5.6,0.2 8.7,-2 3,-2.1 7.8,-9.2 8,-14.5 0.1,-2.8 0.1,-5.6 -1,-10.3 -0.5,-2.2 -1.5,-3.5 -3,-5.2 -1.7,-1.8 -3.3,-3.4 -5,-5.2 -1.2,-1.3 -3.4,-4.9 -5,-4.1"
         id="path33" /></g><g
       link="acinus"
       id="link_islet_of_langerhans"><polygon
         style="fill:none;stroke:#0052db;stroke-width:4.9882;stroke-miterlimit:10"
         points="203.3,276.2 202.9,332.7 279.1,333.2 279,277.4 "
         class="st7"
         id="link_Islet_of_Langerhans"
         inkscape:label="link islet of Langerhans" /></g></g><g
     style="opacity:0.83012821"
     id="OUTLINE"><a
       id="a4174"
       xlink:href="https://www.ebi.ac.uk/gxa/licence.html"
       transform="matrix(8.8554273,0,0,7.6167001,-570.9743,3.6342739)"><g
         id="g3"
         transform="matrix(0.07645089,0,0,0.07645089,123.6957,51.617633)"><circle
           id="circle5"
           r="28.275999"
           cy="28.806"
           cx="37.637001"
           style="fill:#ffffff" /><g
           id="g7"><path
             style="fill:#009600;fill-opacity:1"
             id="path9"
             d="m 37.443,-3.5 c 8.988,0 16.57,3.085 22.742,9.257 6.208,6.21 9.315,13.791 9.315,22.743 0,8.991 -3.049,16.476 -9.145,22.456 C 53.879,57.319 46.242,60.5 37.443,60.5 28.794,60.5 21.29,57.356 14.929,51.07 8.644,44.784 5.5,37.262 5.5,28.5 5.5,19.739 8.644,12.158 14.929,5.758 21.101,-0.415 28.604,-3.5 37.443,-3.5 Z m 0.114,5.772 c -7.276,0 -13.428,2.553 -18.457,7.657 -5.22,5.334 -7.829,11.525 -7.829,18.572 0,7.086 2.59,13.22 7.77,18.398 5.181,5.182 11.352,7.771 18.514,7.771 7.123,0 13.334,-2.607 18.629,-7.828 5.029,-4.838 7.543,-10.952 7.543,-18.343 0,-7.276 -2.553,-13.465 -7.656,-18.571 C 50.967,4.824 44.795,2.272 37.557,2.272 Z m 8.572,18.285 V 33.642 H 42.473 V 49.184 H 32.529 V 33.643 H 28.873 V 20.557 c 0,-0.572 0.2,-1.057 0.599,-1.457 0.401,-0.399 0.887,-0.6 1.457,-0.6 h 13.144 c 0.533,0 1.01,0.2 1.428,0.6 0.417,0.4 0.628,0.886 0.628,1.457 z M 33.042,12.329 c 0,-3.008 1.485,-4.514 4.458,-4.514 2.973,0 4.457,1.504 4.457,4.514 0,2.971 -1.486,4.457 -4.457,4.457 -2.971,0 -4.458,-1.486 -4.458,-4.457 z"
             inkscape:connector-curvature="0" /></g></g></a><g
       id="g42"
       sodipodi:insensitive="true"><path
         inkscape:connector-curvature="0"
         d="M 576.5,60.8 C 575.9,57 572.9,44.6 571.2,39.4 569,32.3 565.1,25.5 559.5,18.4 556.1,14.2 547.3,7.3 541.6,4.5 536.3,1.9 529.8,0.2 524,-0.1 c -5.5,-0.2 -7.2,0 -13.8,2.2 -5.7,1.9 -9.7,3.9 -13.2,6.5 -3.7,2.8 -8.7,7.7 -10.3,10.2 -1.7,2.5 -5.5,10.6 -6.9,14.7 -1.8,5 -2.9,6.3 -10.7,11.4 -8.7,5.8 -10.7,7.3 -16,12.1 -5.7,5.1 -7,6.5 -8.8,8.8 -1,1.3 -2.8,3.6 -4.1,5.1 -1.3,1.5 -2.6,3.2 -3.1,3.7 -4.3,5.5 -9.1,10.3 -12.3,12.4 -4.5,3 -7.6,4.8 -10.6,6.5 -1.6,0.9 -4.3,2.4 -6.1,3.4 -1.8,1 -5.3,2.7 -7.9,3.9 -9.1,4 -14.7,8.3 -28.1,21.1 -4.1,4 -9.5,7 -17.2,9.6 -8.8,3 -16.4,7.2 -25.4,14.1 -2.3,1.8 -4.6,2.7 -8.6,3.6 -4,0.8 -5.5,1.1 -11.5,1.9 -6.6,0.9 -15.3,2.9 -21.4,5.1 -5.9,2.1 -9.3,3.5 -19.9,8.4 -3.8,1.8 -8.4,3.8 -10.2,4.4 l -3.3,1.2 -10.9,-0.1 c -6,-0.1 -12.5,0 -14.4,0.2 -14.8,1.3 -17.1,1.9 -33.3,7.9 -4,1.5 -10.5,4.3 -15.5,6.7 -5.9,2.8 -6,2.8 -10.1,3.8 -7,1.8 -15.2,2.2 -25.9,1.4 -5.8,-0.4 -20.5,-0.1 -25.7,0.5 -4.7,0.6 -8.4,1.5 -16.3,4.1 -4.9,1.6 -8,2.9 -14,5.9 -6,3 -9.6,5.6 -15.3,11 -3.3,3.2 -10,8.2 -10.9,8.2 -0.4,0 -0.6,-0.9 -2,-8.5 -1.4,-7.6 -1.7,-12.3 -1.5,-20.1 0.5,-14.9 3.3,-31.9 7.4,-43.6 2.1,-6.2 4.8,-12.2 10.1,-22.8 2.6,-5.2 5.4,-11 6.2,-12.7 0.8,-1.8 2.5,-5.5 3.7,-8.3 2.2,-4.9 4.6,-11.6 5,-13.9 0.2,-1 0,-1.3 -0.9,-2.2 -1.8,-1.9 -8,-4.9 -10.3,-5.1 -2,-0.2 -2.8,0.1 -3.8,1.1 -0.9,0.9 -1.1,1.3 -1.2,3.3 -0.3,3.4 -2.8,12.9 -4.4,16.9 -1.8,4.6 -2.9,6.3 -3.9,6.2 -1.3,-0.2 -1.8,-2 -2.2,-7.4 C 64.1,95.8 63.3,87 62.9,84.4 61.6,75.9 59.9,70.1 58,67.2 c -1.2,-1.7 -1.5,-2 -2.9,-2.4 -2.4,-0.7 -5.2,-0.1 -8.4,1.7 -2.8,1.6 -3.9,2.6 -5.3,4.6 -1.3,2 -1.3,4.5 0,6.8 2.4,4.3 4.9,12.9 6.2,21.9 1.7,10.8 1.8,12.5 1.9,30.3 l 0.1,16.3 -1.1,6.4 c -0.6,3.5 -1.3,7.8 -1.5,9.4 -0.2,1.6 -0.9,5.4 -1.5,8.3 -4.2,22.5 -4.4,24.7 -4.4,35.5 0,4.3 0.1,9.4 0.3,11.4 0.3,3.9 2.612942,15.91953 3.312942,18.01953 L 44.6,233.9 l -3.4,4 c -5.8,7 -9.6,13.3 -12.7,21.6 -2.3,6 -3.7,12.7 -3.7,17.2 0,2.9 -1.1,7.1 -3.5,13.1 -2.6,6.5 -3.4,9.5 -3.9,13.9 -0.8,7.7 0.1,14.3 3.7,25.2 1.8,5.4 2.4,8.5 3,15.9 0.3,3.8 1.6,9.7 2.6,12.4 0.3,0.9 0.6,1.7 0.6,1.8 0,0.2 -1.3,0.6 -10.9,3.5 -3.6,1.1 -8.1,2.3 -9.9,2.8 -2.9,0.7 -3.5,0.9 -4.4,1.9 -2.6,2.7 -3.2,11.6 -1.2,16.1 1.3,3 1.9,3.4 5.1,3.4 3.5,0 7.1,-0.7 15.6,-3 5.5,-1.5 8.9,-2.7 13.2,-4.9 2.1,-1.1 3.9,-2 4,-2.1 0.3,-0.1 0.7,1 2.7,6.3 3.5,9.4 6,13.2 11.3,17.7 4,3.4 5.2,4.1 11,7 8.3,4.1 10.9,6.4 17.1,14.4 2.5,3.3 6.9,7.7 10.6,10.6 6.4,5.1 12.7,7.2 25.8,8.6 v 0 c 2.3,0.3 14.7,-0.1 18.7,-0.6 14.4,-1.6 22.5,-5.3 37.1,-17.1 5.1,-4.1 8.5,-7.5 10.3,-10.3 4.2,-6.4 9,-16.1 9.9,-19.9 0.2,-0.7 0.5,-2.9 0.6,-4.9 0.4,-4.2 -0.2,-12.4 -1.3,-16.8 -1,-4.1 -4.1,-10.2 -9.1,-17.6 -4.6,-6.9 -6.3,-10.3 -6.3,-13 0,-1.8 0.4,-2.6 1.6,-3.2 2.9,-1.5 10.2,0.6 22.9,6.5 3,1.4 7,3.1 8.8,3.7 3.6,1.2 10.3,2.6 15.3,3.1 4.4,0.5 16.6,0.4 20.2,-0.1 4.5,-0.6 11.6,-2.9 23.5,-7.4 9.3,-3.5 11.7,-4 37.3,-6.9 9.3,-1.1 14.2,-2.6 23.5,-7.2 3.5,-1.7 11.4,-6.9 19.4,-12.6 5.7,-4.1 9.1,-6.1 11.8,-7.2 9.4,-3.6 15.7,-7.8 31.2,-21.1 1.7,-1.5 4.3,-3.5 5.6,-4.6 1.3,-1 3.5,-2.7 4.8,-3.8 2.8,-2.2 14.9,-9.6 18.7,-11.4 1.4,-0.7 4,-1.8 5.6,-2.6 6.2,-2.7 15.9,-7.7 18.7,-9.5 1.9,-1.3 3.7,-2.8 5.3,-4.6 1.3,-1.5 3.9,-4.3 5.8,-6.2 1.9,-1.9 4.1,-4.4 4.9,-5.4 1.9,-2.4 5.7,-8.4 8.1,-12.9 1.1,-1.9 2.9,-5.2 4.1,-7.2 1.2,-2 2.5,-4.4 3,-5.3 0.9,-1.8 9,-14.1 14.1,-21.4 1.8,-2.6 5,-7.2 7,-10.1 3.8,-5.4 4.5,-6.4 8.9,-11.5 4.1,-4.8 14.3,-12.9 27.4,-21.7 5.8,-3.9 14,-11.2 17.8,-15.8 0.9,-1.1 2.8,-3.2 4,-4.7 6.1,-6.7 10.9,-13.7 13.7,-19.5 3,-6.3 5.6,-16.9 6.2,-24.9 0.1,-1.6 0.3,-4.8 0.5,-7 0.8,-3.9 0.5,-12.2 -0.4,-17.8 z M 79.3,86 c 0.5,0 1.5,0.2 2.1,0.3 1.7,0.5 6.6,3.2 6.5,3.6 -0.2,0.6 -0.7,0.5 -3.3,-0.4 -2.7,-1 -5.1,-2.2 -5.9,-3.1 C 78.4,86 78.5,86 79.3,86 Z M 44,74.2 c -0.3,-0.1 -0.3,-0.4 0.1,-1 1.2,-2.3 5.7,-5.1 8.6,-5.4 2.1,-0.2 2.4,0.1 1.6,1.6 -0.7,1.2 -3.3,3 -5.7,4 v 0 c -1.8,0.7 -4,1.1 -4.6,0.8 z M 44.5,213 c -0.5,-10.2 0,-17.8 2.1,-28.5 2.1,-10.5 5.9,-35.1 6.3,-40.3 C 53.4,137.1 52.8,111.8 52,106 50.2,93.4 49.2,88.9 46.3,80.8 c -0.6,-1.7 -1.1,-3.2 -1.1,-3.3 0,-0.1 0.3,-0.2 0.7,-0.2 1.8,0 6.6,-2.1 8.8,-3.8 l 1,-0.8 0.3,0.8 c 1.2,3.1 3.1,12.8 3.9,19.2 0.4,3 0.8,8.6 0.9,12.4 0.3,7.6 0.6,9 2.3,10.4 0.5,0.4 1.4,0.9 2,1 3.8,0.7 6.3,-2.3 8.8,-10.4 0.6,-1.8 1.6,-4.8 2.3,-6.6 0.7,-1.8 1.6,-4.5 2.1,-6 0.5,-1.5 0.9,-2.8 0.9,-2.8 0,0 1.3,0.5 2.8,1.1 1.5,0.6 3.2,1.2 3.9,1.3 1.4,0.2 1.4,0.1 0.1,3.5 -2.7,7.2 -6.4,15.2 -12.2,26.8 -7.1,14.3 -10.9,23.5 -13,32.1 -1,4.1 -2.9,14.3 -3.4,18.1 -0.2,1.6 -0.6,4.3 -0.8,6.1 -0.7,4.4 -0.9,20.8 -0.4,27.4 0.5,6.7 1.2,12.7 1.6,14.1 0.2,0.6 0.3,1.3 0.3,1.5 0,0.1 -0.4,-3.3 -0.3,-1.5 0.8,2.7 -0.2,-1.3 0.3,1.5 0.954823,4.3033 1.664469,8.38377 2.9,11.7 1.7,5.8 2.2,7 6.4,15.6 7,14.5 8.9,20.4 10.4,32.2 2,15.6 5.2,23.3 11,26 1.7,0.8 2.1,0.9 6,0.9 4,0 4.2,0 6.3,-1 3.6,-1.8 6.5,-5.8 7.8,-10.8 0.8,-3.2 1,-8.2 0.4,-11.5 -0.6,-3.4 -2.1,-7.8 -3.3,-10 -1.2,-2.2 -5,-5.9 -7.1,-7 -1,-0.5 -1.8,-0.9 -1.9,-1 -0.2,-0.1 1.5,-3.4 1.8,-3.4 0.1,0 0.9,0.5 1.7,1.2 1.8,1.5 7.4,5.3 9.1,6.3 0.7,0.4 2.9,1.6 4.8,2.7 4.7,2.6 6.1,3 11.9,3.2 5.1,0.2 8,-0.2 11.4,-1.5 4,-1.6 8.4,-5.7 10.4,-9.7 2,-4.1 3.3,-11.3 3.4,-19.6 0,-2.1 0.1,-3.9 0.2,-4.1 0.2,-0.6 3.6,-1.2 4,-0.8 0.2,0.2 0.3,2.4 0.3,6.5 -0.1,9 0.5,11.5 3.2,13.3 1,0.7 1.4,0.7 3.7,0.6 4.3,-0.2 6.5,-1.7 9.9,-6.9 2.5,-3.8 5.3,-10.4 6.4,-15.1 0.3,-1.3 0.7,-2.8 0.8,-3.4 0.2,-0.9 0.3,-1 1.9,-1.1 1.2,-0.1 1.7,0 1.7,0.3 0,0.2 -0.2,1.9 -0.5,3.6 -1.1,7.5 -0.4,10.6 2.9,12.2 1.6,0.8 2,0.8 4.9,0.7 5.6,-0.3 10.1,-2.4 15,-6.8 2.4,-2.2 3.9,-4.3 4.9,-7.2 l 0.9,-2.5 1.5,-0.2 c 0.9,-0.1 1.6,0 1.7,0.2 0.1,0.2 0.2,1.1 0.3,2 0.2,3.7 1.9,4.4 9.9,4.1 10.1,-0.4 16.5,-3.1 20.5,-8.5 2.8,-3.8 4.6,-8.3 5.2,-13.1 l 0.2,-1.9 1.4,-0.3 c 0.8,-0.1 1.8,-0.2 2.2,-0.1 l 0.8,0.2 -0.2,4.7 c -0.2,4.5 -0.2,4.8 0.5,6.4 0.6,1.3 1,1.9 2.2,2.5 1.3,0.8 1.8,0.9 5.3,1 3.3,0.1 4.3,0 7.1,-0.7 3.7,-0.9 11.2,-3.5 13.1,-4.4 2.2,-1.1 5.8,-3.7 6.7,-4.7 1.8,-2.2 3.2,-6.1 3.8,-10.8 l 0.4,-3.1 1.7,-0.1 1.7,-0.1 -0.2,3.6 c -0.2,3.4 -0.2,3.7 0.5,4.5 1.3,1.7 3,2.3 6.1,2.3 3.3,0 5,-0.4 10.6,-2.4 6,-2.2 8.6,-3.5 11.5,-5.7 5.1,-3.9 8.2,-8.3 9,-12.8 0.2,-1.1 0.4,-2.3 0.5,-2.5 0.1,-0.3 0.7,-0.4 1.8,-0.4 h 1.6 l -0.2,2.5 c -0.2,2.8 0.1,4 1.5,5 2.2,1.5 10.4,-0.4 16.6,-3.9 4.8,-2.7 7.4,-4.6 10,-7.1 5.8,-5.6 8.4,-10.1 9.2,-16.3 0.2,-1.5 0.4,-2.8 0.5,-2.9 0.1,-0.1 0.7,-0.2 1.4,-0.4 2,-0.4 2.4,0.1 1.9,2.2 -0.2,0.9 -0.3,2.6 -0.2,3.6 0.1,1.7 0.3,2 1.2,2.9 0.9,0.8 1.2,0.9 2.3,0.8 0.7,-0.1 2,-0.7 3,-1.3 2.2,-1.5 5.8,-5.3 7.1,-7.6 1.5,-2.6 3.1,-6.9 4.1,-11.2 0.8,-3.5 1.3,-4.4 2.4,-4.4 0.3,0 0.7,0.1 1,0.3 0.4,0.3 0.4,0.8 -0.2,3.8 -1.2,5.8 -0.9,7.6 1.4,8.6 1.5,0.6 2.9,0.6 5,-0.2 6.8,-2.3 10.8,-6.8 14.5,-16 1.1,-2.9 3.9,-13.1 4.8,-17.9 l 0.3,-1.4 1.7,-0.1 c 0.9,-0.1 1.8,0 2,0.2 0.1,0.1 -0.2,2 -0.7,4.1 -2,8.3 -0.9,12 3.7,12 2.9,0 6.1,-1.8 11.4,-6.3 4.1,-3.5 7.7,-7.6 11,-12.5 3.3,-4.9 4.8,-8.2 5.8,-12.5 1.5,-6.6 1.2,-6.1 4.6,-6.3 2,-0.1 2.1,-0.1 2,0.7 0,0.4 -0.3,1.7 -0.6,2.7 -0.7,2.6 -0.8,5.6 -0.2,5.9 1.8,1.2 3.6,0.5 8.2,-3.3 3.3,-2.7 10.4,-9.8 14,-14 3.3,-4 8.7,-12.7 11.9,-19.3 0.9,-1.9 1.4,-2.2 2.7,-1.5 0.6,0.3 0.6,0.5 0.4,1.7 -0.6,3.7 -8.4,16.7 -13.7,22.8 -4,4.6 -9.9,10.6 -13,13.1 -3,2.4 -4.3,3.9 -5.4,6.1 -0.9,1.8 -1,4.2 -0.1,5.4 0.9,1.2 2.2,1.3 4.9,0.2 1.4,-0.5 2.3,-0.8 2.5,-0.6 0.2,0.2 0.4,0.9 0.5,1.6 0.2,1.1 0.1,1.4 -0.5,1.8 -1.4,0.9 -9,3.3 -21.5,6.8 -6.1,1.7 -8.3,2.7 -12,5.6 -4.2,3.3 -4.9,4.9 -2.8,6.2 0.8,0.5 2.1,0.7 6.4,0.9 3,0.2 5.5,0.4 5.6,0.6 0.3,0.3 -0.6,2.8 -1.3,3.5 -0.4,0.4 -1,0.4 -4.5,0.1 -9,-0.8 -11,-0.9 -13.4,-0.1 -3.1,1 -10.2,5.3 -15,9 -1.1,0.8 -2.6,1.9 -3.5,2.4 -0.9,0.5 -2.2,1.3 -3,1.8 -1.7,1.2 -5,2.8 -9.7,4.8 -7.7,3.3 -10.1,5.5 -8.5,7.9 0.3,0.4 0.9,0.9 1.4,1.2 0.9,0.5 4.8,1.2 6.6,1.2 0.6,0 1.2,0.2 1.3,0.4 0.3,0.5 -1.5,4.1 -2.1,4.3 -0.3,0.1 -1.6,-0.3 -2.8,-0.8 -3.8,-1.6 -8.8,-2.7 -10.9,-2.4 -7.2,0.9 -10.9,2.4 -31.2,12.9 -2.1,1.1 -5,2.4 -6.3,3 -3,1.2 -4.3,2.4 -4.6,4.5 -0.4,2.6 0.8,4.1 5.8,7.3 1.2,0.8 2.8,1.7 3.4,1.9 0.7,0.3 1.2,0.7 1.2,1 0,0.5 -1.1,2.1 -1.7,2.5 -0.7,0.5 -1.5,0.1 -5.7,-3.1 -4.9,-3.7 -6.7,-4.6 -10.3,-4.9 -3,-0.3 -5,0.3 -11.5,3 -5,2.1 -11.8,4.3 -17.4,5.7 -6.3,1.6 -11.3,3.5 -12.5,4.8 -1.5,1.7 -1.4,4.3 0.1,6.7 0.9,1.3 5.6,5.6 8.4,7.5 0.6,0.4 1.1,1 1.1,1.3 0,0.5 -1.9,2.5 -2.4,2.5 -0.4,0 -4.5,-3.4 -8.1,-6.8 -5.5,-5.2 -6.2,-5.5 -11.4,-6 -3.9,-0.3 -5.9,0 -15.6,2.4 -9.5,2.4 -10.4,2.8 -10.4,4.7 0,1.9 1.8,3.8 6.3,6.7 1.3,0.8 2.4,1.6 2.5,1.8 0.3,0.5 -0.5,1.2 -2.5,2.3 l -1.5,0.8 -1.9,-1.5 c -4.7,-3.7 -5.8,-4.5 -8.2,-5.9 -3.5,-2.1 -5.3,-2.6 -9.5,-2.5 -2.9,0 -4.1,0.2 -8.3,1.3 -2.7,0.7 -6.9,1.8 -9.3,2.3 -2.4,0.5 -5.2,1.2 -6.2,1.4 -1.1,0.3 -3.5,0.8 -5.4,1.2 -1.9,0.4 -4.2,1 -5.1,1.3 -0.9,0.3 -3.6,1.1 -6.1,1.8 -6.1,1.8 -8.7,3.1 -11.2,5.5 -2.7,2.6 -3.4,5.1 -2.3,7.7 0.6,1.5 1.8,2.6 4.4,3.9 3.1,1.5 5.2,2 10,2.3 3.3,0.1 4.6,0.1 6.2,-0.4 5.5,-1.4 11.39322,-6.41671 13.09322,-10.21671 0.6,-1.3 1.33238,-6.25847 2.30678,-6.48329 0,0 -0.36344,0.14678 -0.0634,0.14678 0.7,0 1.16344,0.65327 0.36344,3.45327 -0.4,1.3 -0.6,2.7 -0.6,3.1 0,1.7 1.48983,1.63995 3.88983,0.13995 1.5,-0.9 1.86997,-0.26997 1.86997,-0.26997 0.7401,0.5121 -1.1598,2.63002 -4.8598,4.43002 -4.1,2 -9.8,5.7 -11.2,7.4 -0.5,0.6 -0.9,1.4 -1.1,1.8 -0.3,1.2 0.5,5.1 1.5,7.5 2.2,5.3 5.7,7.5 13.3,8.2 2.5,0.2 3.3,0.2 3.6,-0.1 0.4,-0.3 0.3,-0.5 -0.1,-1.2 -0.6,-1 -0.4,-2.1 0.5,-2.1 0.3,0 0.8,0.3 1,0.7 0.5,0.9 1.2,0.3 1.3,-1.1 0.1,-1.3 0.9,-1.8 2,-1.2 0.6,0.3 0.8,0.7 0.8,1.5 0,1.2 0.4,1.4 1.4,0.5 1.1,-1 2.6,-1 2.9,0 0.1,0.4 -0.1,1 -0.6,1.7 -0.5,0.6 -0.8,1.2 -0.8,1.3 0,0.1 0.5,0.2 1.2,0.2 1.5,0 2,0.5 2,1.8 0,1.3 -1.3,2.4 -2.1,1.7 -0.3,-0.2 -0.7,-0.3 -1,-0.2 -0.4,0.2 -0.4,0.3 0,1.1 0.9,1.8 0.5,3.2 -1,3.2 -0.5,0 -0.8,-0.3 -1,-0.8 -0.5,-1.2 -1.3,-1 -1.3,0.3 0,1 -0.1,1.2 -1.1,1.6 -1.2,0.5 -2.3,0.3 -3,-0.6 -0.3,-0.4 -0.3,-0.7 0.1,-1.6 0.4,-1.1 0.4,-1.2 0,-1.4 -0.3,-0.1 -0.7,0 -1.1,0.5 -0.4,0.5 -0.7,0.6 -1.5,0.4 -1,-0.3 -1.4,-1.4 -0.8,-2.1 0.2,-0.2 0.3,-0.7 0.3,-1.1 0,-0.6 -0.2,-0.7 -1.5,-0.8 -0.8,-0.1 -2.6,-0.3 -4,-0.6 -3.3,-0.6 -3.9,-0.3 -4.2,1.8 -0.1,0.8 0,2 0.1,2.6 0.4,1.5 2.4,3.6 4.5,4.7 2.3,1.3 3.7,2.4 7.5,6 3.8,3.6 7.1,5.5 9.3,5.3 1.3,-0.1 1.4,-0.2 0.9,-2.4 -0.3,-1.3 0.5,-2 1.7,-1.5 0.5,0.2 0.9,0.7 1,1 0.2,0.9 1.1,0.7 1.6,-0.4 0.5,-1 1.5,-1.2 2.5,-0.4 0.5,0.4 0.6,0.8 0.6,2.1 v 1.6 l 1.5,-0.2 c 1.3,-0.2 1.6,0.16005 1.9,0.76005 0.5,0.9 -0.3,2.33995 -1.3,2.33995 -0.9,0 -0.8,0.6 0.2,1.3 0.5,0.4 0.8,1 0.8,1.5 0,1 -0.5,1.3 -1.9,1.3 -0.8,0 -0.9,0.2 -1.3,1.4 -0.3,1.1 -0.6,1.6 -1.3,1.9 -1.2,0.6 -1.8,0.4 -2.4,-1 -0.3,-0.6 -0.6,-1.1 -0.7,-1 -0.1,0.1 -0.7,0.4 -1.4,0.7 -1.5,0.8 -2.3,0.3 -2.1,-1.2 0.1,-0.9 0,-1 -1,-0.9 -1.4,0.1 -2,-0.4 -2,-1.9 0,-1.3 0.6,-1.9 1.9,-1.9 1.5,0 1.1,-1.5 -0.5,-1.8 -1.5,-0.3 -5.4,-2.6 -7.8,-4.8 -5.3,-4.7 -8.7,-6.2 -10.5,-4.7 -0.6,0.5 -0.7,1.1 -1,4.4 -0.4,5.3 -0.4,5.6 0.2,5.6 0.3,0 0.8,-0.2 1,-0.4 0.9,-0.8 1.8,-0.9 2.4,-0.3 0.4,0.4 0.4,0.7 0.2,1.1 -0.5,1 -0.4,1.3 0.7,1.3 1.9,0 2.5,1.5 1,2.4 -1,0.6 -1,1.2 -0.1,1.8 0.6,0.4 0.6,0.5 0.3,1.3 -0.5,1 -1.2,1.4 -1.8,0.9 -0.7,-0.6 -1.4,-0.1 -1.2,0.8 0.1,0.6 0,0.9 -0.5,1.3 -0.8,0.6 -1.7,0.3 -2.1,-0.7 -0.3,-0.9 -0.7,-0.8 -1.6,0.2 -0.6,0.7 -0.9,0.8 -1.4,0.5 -0.6,-0.3 -0.6,-0.5 -0.4,-1.7 l 0.2,-1.3 -0.9,0.2 c -1.7,0.4 -1.8,0.4 -2.3,-0.5 -0.4,-0.7 -0.4,-1 0.1,-1.8 0.6,-1.1 0.4,-1.6 -0.5,-1.6 -0.3,0 -0.7,-0.2 -0.8,-0.5 -0.3,-0.8 0.3,-1.6 1.2,-1.6 1.2,0 1.6,-0.4 1.2,-1.2 -0.8,-1.5 0.8,-2.2 1.8,-0.8 0.6,1 1.4,1 1.6,0.2 0.4,-1.1 0.2,-12 -0.1,-14.1 -1.2,-6.8 -2.9,-9.9 -5.2,-9.9 -0.7,0 -1,0.3 -1.6,1.4 -0.8,1.5 -1.9,3.1 -2.2,3.1 -0.1,0 -0.5,-0.2 -0.8,-0.5 -0.6,-0.4 -0.6,-0.5 0.4,-1.7 0.5,-0.7 1.4,-2.1 1.8,-3.2 0.7,-1.7 0.9,-2.4 0.9,-4.9 0,-3.8 -0.4,-5.3 -2.2,-7 -2,-2 -3.1,-2.3 -8.5,-2.7 -5.6,-0.3 -7.5,-0.9 -13.7,-3.9 -8,-3.8 -11.3,-5.1 -15,-5.4 -4.7,-0.5 -7,-0.1 -11.1,2 -4.8,2.4 -5.3,2.7 -6,4.4 -0.5,1.1 -0.6,1.9 -0.5,3 0.3,2.4 2.3,6 4.9,9 0.4,0.5 0.7,1 0.6,1.3 -0.2,0.5 -3.2,2.5 -3.7,2.5 -0.2,0 -0.7,-0.6 -1.1,-1.3 -1.3,-2.1 -6.3,-6.9 -7.9,-7.7 -1.4,-0.7 -1.9,-0.7 -5,-0.6 -2.7,0.1 -3.9,0.3 -5.7,1 -3.4,1.3 -7.4,3.5 -9.9,5.4 -3.7,2.8 -9,8.1 -11,11.1 -6.4,9.5 -8.5,12.1 -15.4,18.9 -2.9,2.9 -5.8,6 -6.3,6.8 -1.8,2.8 -2.5,8.2 -1.5,11.7 0.7,2.4 2.3,3.9 4.8,4.7 1.5,0.4 2.8,0.5 6.4,0.4 13.2,-0.4 14.3,-0.2 14.9,2 0.3,1.1 0.3,1.4 -0.1,1.8 -0.4,0.4 -0.8,0.4 -3.2,-0.1 -3.2,-0.7 -6.1,-0.5 -9.6,0.4 -3.7,1 -4.1,2.1 -2.2,7.2 3.6,10.2 4.9,15.2 5.7,22.6 v 0 c 0.2,1.7 0.2,1.8 -0.5,1.8 -0.4,0 -0.7,-0.3 -0.8,-0.7 -0.1,-0.4 -0.7,-3.2 -1.3,-6.3 -1.4,-6.7 -2.2,-9.4 -4.3,-13.6 -2.4,-4.9 -5.5,-8.7 -9.3,-11.1 -2.1,-1.3 -3.6,-1.7 -5.5,-1.2 -3.2,0.8 -4.4,2.6 -5.2,7.7 -0.7,4.4 -1.6,8 -2.8,10.7 -1.6,3.8 -2.5,4.7 -4,3.6 -0.6,-0.4 -0.5,-0.6 1,-4.2 2.3,-5.4 3.3,-9.4 3.3,-13.6 0,-1.8 -0.2,-3.9 -0.4,-4.6 0,0 -1.725885,2.01624 -1.225885,1.71624 1.158119,0.53553 4.777654,-3.91624 5.277654,-4.31624 l 1.412943,-2.2937 L 84.2,336.8 c -1.995644,0.65376 -7.2,-0.8 -10,-1.5 -4.9,-1.3 -8.6,-4.3 -11,-9.2 -1.8,-3.7 -2.2,-7.3 -1.2,-12.5 1.4,-7.2 2.461173,-10.83858 6.761173,-14.23858 1.4,-1.1 5.177655,-2.4033 7.252012,-3.58401 0,0 -5.413185,-0.0774 -5.813185,0.0226 -0.5,0.1 -1.390354,0.1 -1.390354,0.1 0,-1.9 -0.409646,-6.3 -1.409646,-9.6 -0.7,-2.4 -1.4,-4.9 -1.5,-5.6 -0.1,-0.7 -0.9,-2.9 -1.7,-5 -0.8,-2 -2,-5.2 -2.7,-7 -1.3,-3.5 -1.5,-3.9 -5.1,-12.2 -2,-4.7 -5.1,-13.6 -5.6,-16.1 -1.8,-5.4 -2.441881,-9.30635 -4.2,-16.4 -1.109646,-5.01624 -1.432235,-6.72588 -2.1,-11 z m 167.1,83.6 c 0,0.4 -0.8,0.2 -1.2,-0.2 -0.4,-0.4 -0.5,-1.2 -0.1,-1.2 0.3,0 1.3,1.1 1.3,1.4 z M 26.3,318.8 c -1,-3.9 -1,-4.5 -1,-9.6 0,-6.3 0.4,-8.3 2.9,-14.6 3.4,-8.5 4.2,-11.6 4.6,-17.4 0.6,-9 3.4,-17.2 8.8,-26.1 1.9,-3.1 5.3,-7.4 5.6,-7.1 0.1,0.1 0.3,0.8 0.6,1.5 0.5,1.6 3.6,10.2 4.6,12.5 0.4,0.9 1.3,3.3 2.1,5.4 0.8,2.1 1.9,4.9 2.4,6.2 3,7.2 3.5,8.9 4.3,12.7 0.7,3.4 0.9,5 0.9,9.3 0,4.6 -0.1,5.4 -0.8,8.3 -0.5,1.8 -1.4,4.4 -2.2,5.9 -2,4.3 -2.7,7.6 -2.7,13.3 0,4.6 0,4.9 1.1,7.9 0.6,1.7 1.6,4 2.3,5.1 0.7,1.1 1.2,2.1 1.2,2.3 0,0.6 -4.4,5.9 -6.9,8.2 -5.7,5.3 -12.9,10.7 -16.6,12.5 v 0 c -0.9,0.4 -1.8,0.9 -2.1,1 -0.4,0.2 -0.6,0 -0.9,-0.5 -0.9,-1.9 -2,-7.6 -2.5,-12.1 -0.9,-8.9 -1.1,-10 -3.4,-16.9 -0.8,-2 -1.8,-5.6 -2.3,-7.8 z M 7.6,381.6 c -0.3,1.1 -0.7,2.2 -0.9,2.3 v 0 c -1.1,0.7 -1.9,0.2 -2.8,-1.8 -1,-2.2 -1.1,-5.5 -0.5,-8.7 0.6,-3.1 1.2,-4 2.4,-4 0.8,0 1,0.2 1.5,1.5 0.8,2.4 1,8.2 0.3,10.7 z M 33.5,375 c -2.9,1.4 -6.9,3 -9.4,3.6 -1.5,0.4 -4,1.1 -5.6,1.6 v 0 c -1.6,0.5 -3.9,0.9 -5.1,1 l -2.2,0.2 -0.1,-4.4 c 0,-3.4 -0.2,-4.9 -0.7,-6.4 l -0.6,-2 1.8,-0.7 c 2.4,-0.9 8.7,-2.8 13,-3.9 1.9,-0.5 3.8,-1 4.2,-1.1 v 0 c 3.7,-1.5 7.2,-3.1 10.8,-4.7 0.5,-0.4 1.1,-0.8 1.7,-1.2 8.2,-5.4 8.7,-5.8 15.3,-12.2 2.6,-2.5 5.1,-5.3 5.9,-6.5 0.9,-1.4 1.5,-2.1 1.8,-1.9 2.4,1.9 3.7,2.6 5.7,3.4 1.3,0.5 2.4,1 2.4,1.2 0,0.9 -5,7.7 -8.8,12 -3.6,4.1 -6.3,7 -8.9,9.3 -5.9,5.8 -13.3,10 -21.2,12.7 z m 536,-293.1 c -0.6,7.8 -1.4,12.6 -2.9,18.3 -1.6,5.8 -3.6,10.2 -6.7,14.6 -2.2,3.2 -7.7,10 -10.7,13.4 -8,8.9 -11.7,12.1 -22.8,19.9 -7.7,5.3 -11.1,7.9 -18.2,13.8 -3.1,2.6 -9,9.1 -12.3,13.6 -2.9,4 -12.4,17.8 -15.8,22.9 -6.9,10.4 -7.7,11.6 -8.6,13.2 -1.5,2.7 -4.7,8.3 -5.5,9.7 -0.5,0.7 -1.3,2.3 -1.9,3.5 -3.2,6.3 -6.9,11.5 -12,16.9 -2.3,2.4 -4.8,5.1 -5.7,6.1 -0.9,1 -2.6,2.6 -4,3.4 -2.3,1.5 -12.2,6.6 -17.6,8.9 -1.5,0.6 -3.9,1.7 -5.4,2.4 -3.7,1.7 -16.9,9.7 -19.7,11.9 -1.2,1 -3.6,2.8 -5.3,4.1 -1.7,1.3 -4.5,3.5 -6.2,5.1 -13.8,11.9 -20,16.2 -27.9,19.3 -4.7,1.8 -6.7,3 -16.9,10.2 -9.7,6.8 -12.4,8.5 -16.8,10.7 -8.1,4 -12.3,5.3 -21,6.2 -2.6,0.3 -6.5,0.7 -8.5,1 -2,0.3 -5,0.6 -6.7,0.8 -2.9,0.3 -5.3,0.7 -11.3,1.8 -2.6,0.5 -10.6,3 -15.2,4.9 -3.3,1.3 -8.7,3.2 -13.3,4.6 l -4.5,1.4 h -9.8 c -9.3,0 -10,0 -14.6,-0.9 -6.1,-1.1 -9.5,-2.2 -15.6,-5.1 -12.6,-5.9 -19.6,-8.1 -25,-7.9 -2.6,0.1 -3.2,0.3 -5.3,1.3 -2.4,1.2 -3.5,2.3 -4.8,4.8 -0.6,1.2 -0.7,1.8 -0.7,5.1 0,3.6 0.1,3.8 1.4,7 0.7,1.8 1.9,4.2 2.5,5.2 0.6,1 2.4,3.7 4,5.9 7.1,10.7 8.7,15.2 8.7,25.2 0,4.1 -0.1,5.6 -0.6,7.4 -0.9,3.2 -2.7,7.2 -4.7,10.6 -0.9,1.6 -2.3,3.9 -3.1,5.2 -1.8,3.1 -4.3,5.8 -10,10.3 -14,11.3 -20.6,14.2 -35.6,15.5 v 0 c -5.2,0.5 -12.5,0.6 -15.3,0.3 -6.8,-0.8 -12,-2 -15.5,-3.6 -5,-2.3 -11.2,-8 -16.6,-15.2 -4.8,-6.4 -9,-9.7 -17.3,-13.8 -6,-3 -8.8,-4.9 -12.3,-8.4 -2.7,-2.7 -4,-5.1 -6.6,-11.9 -1,-2.6 -2.1,-5.3 -2.5,-6.2 l -0.7,-1.6 0.9,-0.9 c 0.5,-0.5 2.5,-2.1 4.6,-3.5 2.8,-2 5.3,-4.2 10.4,-9.4 3.7,-3.7 7.4,-7.6 8.2,-8.7 0.8,-1.1 2.8,-3.5 4.3,-5.4 3,-3.8 4.3,-4.8 5.2,-3.9 0.4,0.4 0.5,1.2 0.5,3.8 0,4.2 -1.3,8.9 -3.8,14.2 l -1.8,3.7 0.5,1.1 c 0.4,0.8 1,1.3 2.4,1.9 2.6,1.2 4,1.1 5.2,-0.1 2.5,-2.5 4.4,-7 5.6,-13.1 1.2,-6.1 2.4,-7.9 5.4,-7.9 1.5,0 1.6,0.1 4.2,2.6 2.9,2.9 4.1,4.8 6,9.3 1.5,3.4 2,5.4 3.6,13.3 0.6,3.1 1.3,5.8 1.5,6 0.2,0.2 1.6,0.3 3.3,0.2 3.7,-0.1 3.9,-0.3 3.6,-3.4 -0.5,-5.4 -2.2,-13.4 -3.9,-18.5 -2.3,-6.9 -2.3,-9 0.1,-10.1 1.5,-0.7 7.5,-0.7 9.9,-0.1 2.5,0.6 2.8,0.3 2.5,-2.9 -0.1,-1.4 -0.3,-2.8 -0.5,-3.1 -1.2,-2.2 -8.2,-3.5 -13.8,-2.6 -2.2,0.4 -6.9,0 -8.3,-0.7 -2,-1 -2.8,-3.6 -2.3,-7.2 0.6,-4 3.7,-8.5 10.4,-14.7 4.8,-4.4 7.5,-7.9 12.9,-16.6 3.8,-6.1 12.4,-12.2 21.1,-14.8 2.2,-0.7 2.5,-0.7 4.6,-0.3 2.7,0.5 3.6,1.2 6.8,5.5 1.3,1.7 2.7,3.3 3,3.5 0.5,0.3 1,0.1 3,-1.2 3.8,-2.5 4.7,-3.3 4.7,-4.2 0,-1 -0.7,-2.4 -2.4,-4.6 -2.8,-3.6 -2.8,-3.6 -2.8,-5.5 v -1.8 l 7.3,-3.7 3.5,-0.1 c 4.5,-0.2 7,0.4 11.8,2.5 8.1,3.6 13.8,5.1 21.2,5.7 4.8,0.4 6.5,1.3 7.5,4.2 0.7,1.9 0.6,4.4 -0.1,6.7 -0.6,1.9 -2,4.3 -3.1,5.2 -0.7,0.5 -0.6,1.5 0,2.6 0.7,1.1 1.8,1.7 2.8,1.3 0.9,-0.3 3.2,-2.8 3.9,-4.2 0.3,-0.5 0.6,-1 0.8,-1 0.4,0 1.5,2.7 2.2,5.6 0.9,3.4 1.3,7.3 1.3,11.1 v 3.1 l -0.8,-0.2 c -1.5,-0.3 -2.3,0.2 -2.8,1.5 -0.3,0.7 -0.7,1.3 -1,1.3 -1.4,0 -1.9,2.9 -0.8,4.3 0.5,0.6 0.6,1.1 0.4,1.6 -0.4,1.6 0.8,3.4 2.3,3.4 0.4,0 0.7,0.3 0.9,1.2 0.4,1.5 1.5,2 3,1.5 0.8,-0.3 1.1,-0.3 1.8,0.1 1.2,0.7 2.4,0.3 3.6,-0.9 0.5,-0.5 1.2,-0.9 1.5,-0.9 0.7,0 2.2,-1.5 2.4,-2.5 0.1,-0.4 0,-1.1 -0.1,-1.6 -0.2,-0.6 -0.2,-1 0.2,-1.6 0.8,-1.2 0.6,-2.9 -0.4,-3.6 -0.5,-0.4 -1,-0.7 -1.3,-0.7 -0.2,0 -0.4,-0.3 -0.4,-0.6 0,-1 -1.3,-2 -2.8,-2 h -1.4 l 0.2,-3 c 0.1,-1.6 0.4,-3.1 0.6,-3.4 0.8,-0.9 4.5,1.1 8.9,5 1.2,1 3.1,2.4 4.2,3.1 l 2.1,1.2 -0.6,0.9 c -1.5,2.1 -1,4.3 1.2,5.4 0.8,0.4 1.3,0.9 1.5,1.4 0.3,1.2 3.4,2 4.3,1.1 0.3,-0.3 0.5,-0.2 0.9,0.3 0.3,0.4 1.1,0.8 1.7,0.9 1.4,0.2 3,-0.8 4.1,-2.5 0.4,-0.7 1,-1.2 1.3,-1.2 1.4,0 2.4,-2.7 1.5,-4.2 -0.3,-0.5 -0.2,-1 0.2,-1.9 0.8,-2.1 0,-4.3 -1.9,-4.6 -1,-0.2 -0.31985,-0.3 -0.51985,-1.4 -0.3,-1.8 -1.88015,-2.4 -3.88015,-2.1 -2.2,0.2 -1.39975,-0.58015 -2.99975,-0.78015 -1.2,-0.2 -2.70025,0.68015 -3.50025,1.58015 -0.6,0.7 -0.9,1.4 -0.9,2.1 0,1.3 -0.63342,0.56319 -2.33342,-0.23681 -1.9,-1 -4.06658,-2.36319 -6.46658,-4.96319 -1.7,-1.8 -3,-2.8 -5.3,-4.1 -3.7,-2.1 -4.8,-3.3 -4.9,-5.5 -0.1,-1.4 0,-1.6 0.7,-1.7 0.4,-0.1 1.9,0.1 3.1,0.3 2.3,0.4 2.3,0.4 2.2,1.2 -0.3,1.3 0.6,2.9 1.8,3.4 0.6,0.3 1.4,0.8 1.7,1.3 1.2,1.9 4.2,2.3 5.8,0.9 0.6,-0.5 1.3,-0.8 2.1,-0.8 0.6,0 1.5,-0.1 1.8,-0.3 0.7,-0.4 1.6,-1.9 1.6,-2.7 0,-0.3 0.5,-1 1.1,-1.6 1,-0.9 1.1,-1.2 1.1,-2.7 0,-1.2 -0.2,-1.8 -0.8,-2.5 -0.4,-0.5 -0.9,-1.6 -1,-2.4 -0.3,-1.9 -1.4,-2.9 -3.1,-2.8 -0.7,0 -1.5,-0.2 -2.1,-0.5 -1.2,-0.8 -3.2,-0.8 -4.1,0.1 -0.4,0.4 -1,0.7 -1.3,0.7 -0.8,0 -2.4,0.9 -2.8,1.6 -0.2,0.3 -0.3,1 -0.3,1.5 0,0.8 0,0.8 -1.8,0.6 -4.2,-0.5 -8.1,-2.4 -9.6,-4.6 -1,-1.5 -2,-4.7 -2.2,-7.2 -0.2,-2.1 -0.2,-2.2 0.9,-3.3 1.7,-1.7 4.6,-3.7 8.6,-5.8 5.7,-3 8,-4.9 8,-6.5 0,-0.7 -1.8,-2.4 -2.5,-2.4 -0.3,0 -1,0.4 -1.6,1 -1.3,1.2 -2.7,1.3 -2.7,0.2 0,-0.4 0.2,-1.4 0.5,-2.3 0.9,-3 1.30653,-4.10339 -0.69347,-4.60339 -1.7,-0.3 -2.80653,-0.49661 -3.50653,2.70339 -0.9,4.7 -2.3,6.5 -7.1,9.7 -3.4,2.2 -5.3,2.9 -9.3,3.5 -5.1,0.7 -12,-1.2 -13.7,-3.8 -2.2,-3.4 0.9,-7.7 6.6,-9 1,-0.2 2.8,-0.7 4,-1.1 4.2,-1.3 8.9,-2.6 11,-3 1.1,-0.2 2.6,-0.6 3.4,-0.8 3.1,-1 7.6,-2.2 10.9,-2.9 1.9,-0.4 5.6,-1.2 8.2,-1.7 4.2,-0.9 5,-1 8.2,-0.8 1.9,0.1 4.1,0.3 4.8,0.5 1.3,0.3 6.4,3.9 9.9,6.9 2.7,2.3 2.6,2.2 4.2,1.2 0.8,-0.5 2.2,-1.2 3,-1.6 2,-1 2.7,-2.1 2.2,-3.3 -0.2,-0.5 -0.9,-1.2 -1.5,-1.7 -5.9,-3.8 -7.7,-5.3 -7.3,-6 0.2,-0.4 2.6,-1.2 5.3,-1.8 1.1,-0.2 3.7,-0.9 5.8,-1.4 6.5,-1.7 8.5,-2 11.5,-1.8 4.5,0.3 5.2,0.7 9.5,4.7 4.6,4.3 8.9,7.8 9.9,8.1 0.5,0.1 1.2,-0.4 3.3,-2.6 1.5,-1.5 2.6,-2.9 2.6,-3.1 0,-0.5 -1.2,-1.7 -2.8,-2.8 -2,-1.4 -5.9,-4.8 -6.8,-6 -1.6,-2.1 -1,-4.4 1.3,-5.4 2,-0.9 6.7,-2.3 10.1,-3.2 5.3,-1.3 12.3,-3.6 16.5,-5.4 5.6,-2.4 7.6,-3 10.7,-3.2 4,-0.3 4.9,0 9.1,3.5 7.2,5.9 6.5,5.8 10,1.9 1.5,-1.7 2,-2.6 1.7,-3.3 -0.1,-0.3 -1.7,-1.6 -3.5,-2.7 -6,-3.9 -6.8,-4.4 -7.2,-5.3 -0.7,-1.3 -0.2,-1.8 3.5,-3.5 4.8,-2.1 8.6,-3.9 10.2,-4.9 0.7,-0.5 3.7,-2 6.5,-3.5 9.1,-4.5 14.3,-6.7 18.7,-7.8 2.2,-0.5 2.4,-0.5 4.5,0 1.2,0.3 3.2,1 4.4,1.5 1.2,0.5 3,1.2 3.8,1.4 2.4,0.6 3.4,0 5.2,-3.2 0.8,-1.4 1.4,-3 1.4,-3.4 0,-1.1 -0.5,-1.3 -3.8,-1.8 -4.8,-0.7 -6.2,-1.6 -4.7,-2.9 0.7,-0.7 8.5,-4.6 13.1,-6.6 3.3,-1.4 7.3,-3.7 10,-5.7 4.9,-3.6 11.7,-7.7 14.7,-8.9 2.1,-0.8 1.8,-0.8 9.9,0.1 3.1,0.3 5.7,0.2 6.9,-0.4 0.6,-0.3 1.3,-1.3 2.2,-3.1 1.5,-2.9 1.5,-3.4 0.7,-4.5 -0.6,-0.7 -0.8,-0.8 -6.3,-0.9 -5.4,-0.2 -5.7,-0.2 -5.7,-0.8 0,-0.7 1,-1.5 5.2,-4 4,-2.4 8.5,-4 16.5,-5.8 5.8,-1.3 13.5,-4.4 14.5,-5.9 0.4,-0.6 0.4,-1.1 0.1,-3 -0.6,-3.6 -0.6,-3.8 -1.4,-4.1 -0.7,-0.3 -1.1,-0.2 -3.2,0.8 -2.5,1.2 -3,1.1 -2.6,-0.3 0.4,-1.5 1.7,-3.2 4.6,-5.7 14.4,-12.9 21.4,-22.1 27.2,-35.8 2.2,-5.2 2.2,-5.2 -1.1,-6.7 -3.6,-1.7 -3.5,-1.7 -4.7,1.1 -0.6,1.3 -1.7,3.6 -2.4,5 -0.8,1.4 -2.1,3.8 -2.9,5.4 -1.6,3 -4.5,7 -8.7,12 -5.3,6.4 -9,9.7 -15.4,14 -1.7,1.2 -2,1.2 -2.2,0.6 -0.2,-0.4 0.4,-3.9 1,-6.9 0.5,-2.2 0.3,-2.3 -4.8,-1.9 -2.4,0.2 -4.5,0.5 -4.7,0.7 -0.2,0.2 -0.8,2.2 -1.2,4.5 -2.1,10.5 -5.3,15.7 -14.4,23.5 -3.8,3.3 -5.3,4.3 -8.4,5.9 -2.7,1.4 -4.3,1.6 -5.1,0.6 -0.6,-0.8 -0.4,-5.5 0.4,-9.6 1,-5.4 0.6,-6 -3.1,-5.3 -1.1,0.2 -2.4,0.4 -2.9,0.4 -1.2,0 -1.8,1.2 -2.5,4.9 -1.4,7.8 -1.6,9 -2.7,12.3 -2.2,6.5 -3.2,8.4 -6.7,11.9 -3.5,3.5 -6.6,5.4 -9.4,5.7 -2.4,0.3 -2.5,-0.2 -1.6,-5.6 0.7,-4.5 0.6,-5.1 -0.6,-5.8 -0.9,-0.5 -5.3,0 -5.9,0.6 -0.3,0.3 -0.6,1.5 -0.8,2.6 -0.8,4.2 -1.9,8.4 -2.7,10 -1.4,2.7 -4.1,6.3 -6.1,8.1 -2.3,2 -2.9,2.4 -4,2.4 -1.1,0 -1.4,-1 -0.9,-3.1 0.2,-0.9 0.4,-2.5 0.4,-3.6 l 0.1,-2 -2.7,-0.1 c -5.2,-0.1 -5.3,0 -5.8,4 -0.3,2.5 -2.2,7.7 -3.6,9.9 -0.5,0.7 -1.7,2.3 -2.8,3.4 -3.8,4 -15.2,10.8 -20.3,12.1 -2.1,0.5 -4.8,0.6 -5.4,0.3 -0.6,-0.4 -0.8,-2 -0.5,-4.1 0.4,-2.6 0.2,-2.7 -3.8,-2.7 -2.1,0 -3.2,0.1 -3.4,0.4 -0.2,0.2 -0.6,1.8 -0.9,3.6 -0.6,3.7 -1.2,5 -3.3,7.6 -3.2,4 -8.9,7.2 -18.4,10.2 -2.7,0.9 -3.5,1 -7.4,1 h -4.3 v -1.1 c 0,-0.6 0.1,-2.7 0.3,-4.6 l 0.3,-3.4 H 296 c -1.7,0 -3.6,0.1 -4.1,0.2 l -1,0.2 -0.2,3.1 c -0.4,5.7 -1.3,8 -4.2,11.1 -2.2,2.2 -4.3,3.5 -9.2,5.3 -7.9,2.9 -10.6,3.6 -14.6,3.6 -3.1,0 -3.7,-0.1 -4.9,-0.7 -2.4,-1.3 -2.9,-3.9 -2,-9.6 0.5,-3 0.3,-3.6 -1.2,-4 -1,-0.3 -5.6,0 -6.2,0.4 -0.2,0.1 -0.6,1.6 -0.8,3.2 -0.9,5.8 -3.7,11 -7.4,13.8 -4.4,3.3 -8.2,4.7 -13.8,5.4 -5.2,0.6 -9.2,0.1 -9.9,-1.2 -0.2,-0.3 -0.2,-1.5 -0.1,-2.7 0.2,-2.5 0.1,-2.6 -2.7,-2.2 -1,0.2 -2.5,0.4 -3.3,0.5 -0.8,0.1 -1.6,0.3 -1.9,0.5 -0.3,0.2 -0.7,1.3 -1.1,2.6 -0.9,3.3 -2.3,5.5 -4.9,7.7 -2.6,2.2 -4.6,3.3 -8.6,4.7 -4.9,1.7 -8.4,1.3 -10.1,-1.2 -0.7,-1.1 -0.7,-1.3 -0.5,-4.2 0.1,-1.7 0.5,-4.3 0.8,-5.8 0.6,-2.7 0.6,-3.7 -0.1,-4.1 -0.2,-0.1 -1.7,-0.2 -3.3,-0.2 -3.5,0 -3.9,0.3 -4.3,3 -0.5,3.5 -2.2,8 -5.8,15.5 -1,2.2 -3.6,4.7 -5.9,5.9 -1.8,0.9 -2.3,1 -3.6,0.8 -1.7,-0.2 -3,-0.9 -3.4,-1.8 -0.1,-0.3 -0.3,-4.4 -0.4,-9.1 -0.2,-9.5 -0.2,-9.3 -2.3,-9 -0.6,0.1 -1.9,0.2 -2.9,0.3 -1,0.1 -2.2,0.5 -2.6,0.8 -0.7,0.6 -0.8,0.8 -1,5.9 -0.6,13.8 -1.6,18 -5.7,21.8 -5.3,5.1 -11.2,7 -18.8,6.2 -4.3,-0.5 -4.9,-0.7 -10.4,-3.7 -5.1,-2.8 -9.6,-5.8 -12.6,-8.4 -2.5,-2.1 -3.1,-2.2 -4.6,-0.4 -1.3,1.6 -3.4,5.4 -3.4,6.3 0,0.5 0.7,1 2.8,2 4.8,2.4 6.5,4.4 8.1,9.2 1.5,4.6 2,8 1.9,12.6 -0.2,4.8 -0.8,6.7 -3,8.6 -2.9,2.5 -5.8,3.3 -9.9,2.6 -5.1,-0.9 -7.2,-3.3 -9.4,-10.6 -1.1,-3.6 -2.8,-11.7 -4,-19 -0.8,-4.8 -1.7,-7.9 -3.9,-13.6 -0.8,-2 -1.4,-3.9 -1.4,-4.1 0,-0.3 -1.3,-3.2 -2.9,-6.4 -1.6,-3.3 -3.5,-7.3 -4.2,-8.9 -1.4,-3.4 -3.5,-10.3 -3.5,-11.6 0,-1 0.1,-1.1 4,-3.6 1.4,-0.9 3.1,-2.1 3.8,-2.6 3.6,-2.9 7.3,-6 9.6,-8.1 1.4,-1.3 3.2,-2.9 4,-3.5 1.3,-1 10.3,-5.6 14.1,-7.2 3,-1.3 13.8,-4.6 17,-5.3 4.8,-1 18.1,-1.5 28.6,-0.9 13,0.7 20.1,0.2 27.5,-1.7 4,-1.1 5.5,-1.6 10.2,-3.9 8.4,-4 17.7,-7.7 27.6,-11.1 3.1,-1.1 8.4,-2.1 12.6,-2.5 1.7,-0.2 4.1,-0.4 5.4,-0.6 1.5,-0.2 7.2,-0.3 14.9,-0.3 l 12.5,0.1 3.7,-1.3 c 3.8,-1.4 5.7,-2.2 16.2,-7 3.3,-1.5 7.3,-3.3 8.8,-3.9 9.6,-3.9 20,-6.5 30.4,-7.6 1.1,-0.1 4.4,-0.7 7.2,-1.3 5.9,-1.3 8.8,-2.5 12.8,-5.5 3.1,-2.3 6.5,-4.7 8.5,-6 2.7,-1.7 9.4,-4.9 13.4,-6.3 9.2,-3.2 15.7,-6.7 20.3,-11.2 13.6,-13 17.9,-16.4 25.9,-19.9 6.9,-3 20.9,-10.9 27.4,-15.5 2.3,-1.6 7,-6.3 9.9,-9.7 4.4,-5.3 7.2,-8.7 9.4,-11.6 1.6,-2.1 4.1,-4.6 7.6,-7.8 6.1,-5.5 7.9,-6.8 16.1,-12.3 8.1,-5.4 10.8,-8.2 12.8,-13.3 0.5,-1.2 1.2,-3 1.5,-4 0.4,-1 1.7,-3.8 2.9,-6.4 2.1,-4.5 2.4,-4.8 5.3,-7.7 5.8,-5.7 9.2,-7.9 17,-10.4 4.2,-1.4 5,-1.5 8.4,-1.7 4.3,-0.2 7.1,0.3 12.4,2 5,1.7 10.3,4.8 15.6,9.5 3.8,3.3 7.1,7.5 10.7,13.8 2.5,4.3 3.6,7.4 6.5,18.7 3.5,10.6 4.2,18.5 3.4,29.6 z"
         id="path38" /><path
         inkscape:connector-curvature="0"
         d="m 276,290.2 c -0.3,-0.1 -0.7,-0.7 -0.9,-1.4 -0.3,-0.7 -0.9,-1.4 -1.5,-1.7 -0.6,-0.3 -1.4,-0.7 -1.8,-1 -1.8,-1 -3.1,-1.4 -5,-1.3 -3.5,0.2 -4.6,0.5 -5.3,1.3 -0.3,0.4 -1.1,1 -1.7,1.3 -0.6,0.3 -1.2,0.9 -1.4,1.5 -0.2,0.5 -0.5,1.1 -0.7,1.4 -1.3,1.3 -1,7.1 0.3,9.1 0.3,0.4 0.5,1.1 0.5,1.5 0,0.5 0.6,1.3 1.5,2.2 1.8,1.8 2.3,2.1 3.7,2.1 0.6,0 1.3,0.1 1.5,0.3 v 0 c 0.6,0.4 1.8,0.4 2.1,0 0.1,-0.2 0.8,-0.3 1.5,-0.3 0.7,0 1.4,-0.1 1.6,-0.3 0.2,-0.2 0.7,-0.4 1.1,-0.4 0.4,0 1.1,-0.3 1.6,-0.7 0.5,-0.4 1.3,-1 1.7,-1.3 0.9,-0.6 1.3,-1.5 1.9,-4.1 0.7,-2.6 0.1,-7.9 -0.7,-8.2 z m -1.3,7.9 c -0.8,0.7 -0.8,0.8 -0.3,0.9 0.4,0.1 0.6,0.4 0.6,1.1 0,0.8 -0.1,0.9 -1,0.9 -0.8,0 -1,0.1 -1,0.9 0,0.5 -0.2,1 -0.5,1.1 -0.7,0.3 -0.7,0.3 -1.3,-0.4 -0.5,-0.5 -0.6,-0.5 -1.2,0.3 -0.8,1 -1.7,1.1 -2,0.4 -0.2,-0.4 -0.3,-0.4 -0.9,0.1 -1.2,1.1 -1.4,1.1 -2.3,0.2 -0.7,-0.7 -0.9,-0.8 -1.4,-0.5 -0.9,0.5 -1.3,0.2 -1.3,-0.9 0,-0.8 -0.1,-0.9 -1,-0.9 -0.9,0 -1.1,-0.1 -1.1,-0.8 -0.1,-0.6 0.1,-0.9 0.4,-1.1 0.8,-0.3 0.6,-1 -0.3,-1.1 -0.5,-0.1 -1,-0.4 -1.2,-0.7 -0.3,-0.5 -0.2,-0.7 0.4,-1.2 l 0.8,-0.6 h -0.8 c -0.7,0 -1.2,-0.5 -1.2,-1.3 0,-0.2 0.4,-0.5 0.8,-0.7 l 0.8,-0.4 -0.7,-0.5 c -1,-0.8 -0.6,-1.9 0.7,-1.9 0.8,0 0.9,-0.1 0.6,-0.4 -0.9,-0.9 -0.1,-2.8 1,-2.4 0.3,0.1 0.5,-0.1 0.7,-0.6 0.1,-0.6 0.4,-0.8 1,-0.8 0.4,0 0.9,0.2 1,0.5 0.3,0.8 0.7,0.6 0.9,-0.5 0.2,-0.8 0.3,-1 0.9,-0.9 0.5,0.1 0.8,0.4 0.8,0.8 0.1,0.9 0.6,0.9 0.8,0.1 0.3,-1 1.6,-0.7 1.8,0.3 0.2,0.7 0.2,0.8 0.5,0.2 0.2,-0.3 0.6,-0.5 0.9,-0.5 0.5,0.1 0.6,0.4 0.6,1.2 -0.1,1.2 0,1.2 0.7,0.5 0.6,-0.6 1.2,-0.4 1.3,0.4 0.1,0.4 0.4,0.7 0.7,0.8 0.5,0.1 0.6,0.4 0.6,1.2 0,0.6 -0.2,1.1 -0.3,1.2 -0.5,0.3 -0.2,0.7 0.4,0.5 0.8,-0.2 1.2,0.7 0.7,1.5 -0.5,0.7 -0.5,1.6 -0.1,1.6 0.7,0.2 0.4,1.6 -0.5,2.4 z"
         id="path40" /></g></g></svg>